<svg xmlns="http://www.w3.org/2000/svg" version="1" width="131.96" height="131.96" viewBox="0 0 105.56801 105.56801"><g fill="#d23627"><path d="M79.959 1.437c-.3.6.5 2.3 2 3.7l2.6 2.6-4.2 4.3-4.2 4.3 6.9 7 6.9 7 4.3-4.2 4.3-4.2 2.8 2.7c2.2 2.1 3.1 2.4 4 1.5 1-1-1.4-3.9-11-13.5-6.8-6.8-12.6-12.3-13-12.3-.4 0-1 .5-1.4 1.1z"/><path d="M65.259 21.137l-3.7 3.8 4 3.9c4.3 4.2 5 6.2 2.4 7.2-1 .4-3-.9-5.8-3.6l-4.2-4.1-2.7 2.8-2.7 2.8 4.5 4.4c4 3.9 4.3 4.6 3 5.9-1.3 1.4-2 1-6-2.9l-4.5-4.4-2.7 2.7-2.7 2.7 4.4 4.5c4.2 4.2 4.3 4.6 2.7 6.2-1.6 1.6-2 1.5-6.2-2.7l-4.5-4.4-11.1 10.9-11 11 .6 6.6.7 6.6-11.3 13.4c-6.9 8.1-9.9 12.4-7.8 10.8 1.9-1.4 8.4-6.2 14.4-10.6l11-8.1 5.9 1 5.8 1 25.9-25.8 25.9-25.9-9.7-9.7c-5.4-5.4-10-9.8-10.3-9.8-.3 0-2.3 1.7-4.3 3.8z"/></g></svg>