<svg xmlns="http://www.w3.org/2000/svg" version="1" width="185.832" height="185.83" viewBox="0 0 150 150">//free(<path d="M74.015 12.988c-3 1.2-4.4 1.3-6.3.4-3.8-1.7-13.4-1.3-17.9.8-2.2 1-5.5 3.2-7.2 4.9-2 2.1-4.2 3.2-6 3.2-7.8.2-15.9 5.6-19.7 13.2-1.7 3.3-4.3 6.5-7.3 8.8-14.5 10.9-12.2 33.5 4.2 41.1 5 2.3 14.1 2.5 19.5.3 3.7-1.5 4.3-1.5 8 0 5.1 2 13.8 2.1 18.8.1 3.8-1.6 4-1.5 9.3 1.6 12.2 7.3 12.6 7.7 15.8 14 3 6.1 3.1 6.5 3.1 21.1v14.8h7.8l.4-17.8c.3-16.7.4-17.9 2.8-22.1 1.4-2.4 4.9-6.2 7.9-8.5 3-2.2 6.3-5.4 7.5-6.9 1.8-2.4 1.9-2.9.6-3.8-.8-.5-3.5-.7-6-.3-8.3 1.2-8.5 1.1-8.5-1.6 0-2 .8-2.7 4-3.8 2.2-.8 5.8-1.1 8.1-.8l4.2.5-.8-3.5c-1.8-8-8-13.2-17.2-14.4-3.5-.5-7.7-1.2-9.4-1.5-3-.7-3.2-.5-4.9 3.9-2.3 6-1.6 12.4 2 17.7 2.9 4.4 2.7 6.9-.4 6.9-2.5 0-5.7-4.1-7.8-10.2-1.6-4.4-2-4.8-5.1-4.8-1.8 0-4.8.6-6.7 1.4-3 1.3-3.7 1.3-4.9 0-.9-.8-1.3-2.1-1-2.9.8-1.9 7.7-4.5 12.3-4.5 3.7 0 4-.3 5.2-3.8.6-2 1.8-4.5 2.5-5.5 1-1.6.8-2.5-1.8-6.2-3.1-4.4-3.1-4.4-6.1-2.9-1.6.9-5.9 1.9-9.5 2.2l-6.5.7-1.4 4.1c-2.9 8.6-11.7 14.7-22.9 16-6 .7-10.5 2.4-13.7 5.2-1.6 1.4-1.9 1.4-3.4 0-.9-.9-1.3-2.3-1-3.2 1.2-3 8.4-6.7 15.2-7.8l6.8-1.1-2.5-2.1c-1.4-1.2-4-2.9-5.7-3.9-3.4-1.8-3.6-3.3-.9-5 2.2-1.5 7 .7 11.7 5.3l3.9 3.8 2.6-2.6c1.3-1.5 3.2-4.5 4.1-6.6l1.7-3.9-4.2-3.6c-3-2.6-4-4.1-3.5-5.4.8-1.9 4-2.3 5.1-.6 1.2 2 8.9 4.9 13.2 4.9 2.3 0 6-.9 8.1-1.9 3.3-1.7 3.7-2.4 3.4-4.8-.5-3.2 1.5-5.7 4-4.8.8.4 1.8 2.4 2.1 4.7 1.2 7.5 5 12.4 11.8 15.2l3.7 1.6 1-3.8c1.5-5.3 5.8-11.2 8.2-11.2 3.1 0 3.4 2.7.6 6.8-1.4 2-2.8 4.7-3.2 5.9-.5 1.9-.1 2.3 3.3 3.2 4.8 1.3 11.2 5.9 13.1 9.3 1.2 2.3 1.7 2.5 4.3 1.7 1.7-.4 4.5-2 6.3-3.4 3.9-2.9 6-3.2 6.9-.8.9 2.2-3.6 6.8-8.9 8.9l-4.1 1.8-.1 6c0 3.4-.7 7.8-1.6 9.8-1.5 3.5-1.5 3.7.3 4.3 2.7.9 9 8.2 9 10.5 0 3.8-3.1 3.6-6.3-.4-1.6-2-4.2-4.3-5.7-5.1-2.5-1.3-2.9-1.1-7.6 2.3-7.7 5.9-8.4 8-8.4 26.9v16.3h3.9c3.9 0 4-.1 5.5-5.3 2.8-9.7 7.5-15.3 19.1-22.9 5.6-3.7 9-8.2 10.7-14.2.7-2.3 2.2-5.7 3.4-7.6 4.7-7.2 5-18.3.8-24.7-.8-1.4-1.4-4.7-1.4-8.7 0-9-3.7-16-10.7-20.2-2.9-1.7-6.7-5-8.5-7.4-4.5-5.9-11.3-9.3-19.2-9.6-4.5-.1-7.3-.9-10.6-2.8-3.6-2.1-5.8-2.6-11-2.5-3.6 0-8.2.7-10.3 1.6z"/></svg>