<svg xmlns="http://www.w3.org/2000/svg" version="1" width="187.5" height="187.5" viewBox="0 0 150 150">//free(<g><path d="M60.8 1.778c-15.6 5.1-27.3 17-32 32.4-1.6 5.5-2 8.7-1.6 16.5.3 8.7.7 10.5 4 17.5 14.8 31.2 54.2 38.4 78.2 14.3 23.9-23.9 17.4-62.7-13.2-77.8-7.9-4-8.7-4.2-19-4.5-8.5-.2-11.9.1-16.4 1.6zm27.1 5c20.7 6.4 33.7 26.9 30.3 47.7-3.1 18.8-17.2 33.1-36 36.6-18.2 3.4-38.1-7.3-46.5-24.9-3-6.4-3.2-7.5-3.2-17.8s.2-11.4 3.2-17.8c5.6-11.7 17.6-21.9 28.9-24.6 6.7-1.6 16.8-1.2 23.3.8z"/><path d="M62.9 12.178c-21.5 7.4-31.7 31.6-22.1 52.1 11.1 23.7 41 29.7 60.2 11.9 13-12 16.2-29.2 8.3-45.2-8.2-16.8-28.6-25.1-46.4-18.8zm20.5 3.8c2 1.6 2.6 2.9 2.6 5.9 0 7-7.2 10.3-12.6 5.7-3.6-3.2-3.6-8.3.1-11.5 3.3-2.8 6.5-2.8 9.9-.1zm-20.4 24.4v7.5h-16v-15h16v7.5zm35.4-4.4c5.2 4.1 2.3 12.9-4.3 12.9-4.5 0-7.5-3-7.5-7.5 0-6.7 6.4-9.6 11.8-5.4zm-20.4 10.9c3 3 2.7 8.3-.6 10.9-3 2.4-4.3 2.6-7.8 1-5-2.3-5.5-10.1-.9-12.8 2.9-1.7 7.1-1.3 9.3.9zm17.3 11.1c2.4 1.1 4.7 4.7 4.7 7.3 0 .7-.9 2.5-2.1 4-2.6 3.3-7.9 3.6-10.9.6s-2.7-8.3.6-10.9c3-2.4 4.3-2.6 7.7-1zm-28.4 5.4c4.6 2.3 5.4 6.6 2 10.9-4 5-12.9 2.3-12.9-4 0-3.4 1.7-6.3 4.3-7.4 3.1-1.2 3.4-1.2 6.6.5z"/><path d="M50.2 40.078l.3 5.3h9v-10l-4.8-.3-4.8-.3.3 5.3z"/><path d="M2.5 46.378l-2.5 2.4v25.3c0 22.9.2 25.7 2 29.6 1.1 2.5 7.9 10.6 16.5 19.6 14.6 15.5 16.5 18.3 16.5 23.7v2.9h29.299999999999997l-.5-10.3c-.2-5.6-1-11.3-1.8-12.7-1.9-3.7-34.9-37.9-38.1-39.6-1.6-.8-3.3-1.4-3.9-1.4-1.9 0-6 4.8-6 7 0 1.2 3.9 6.3 9.5 12.5 8 8.7 12.5 15.2 12.5 18 0 .3-1.1.5-2.4.5-1.7 0-2.6-.7-3-2.4-.3-1.3-4.7-6.8-9.7-12.2-10.7-11.7-12.5-15-10.9-20 .7-1.9 2.3-4.2 3.6-5.1 2.4-1.5 2.4-1.7 2.4-18.2-.1-17.3-.4-18.6-4.7-20.9-3.4-1.8-6.2-1.4-8.8 1.3z"/><path d="M137.3 46.278l-2.8 2.4-.3 16.1-.4 16.2 3.6 3.9c6.4 7.1 5.4 9.8-9 25.8-4.5 4.9-8.5 9.9-8.9 11.1-.8 2.6-4.5 2.9-4.5.3 0-2.9 3.4-7.6 12.4-17.1 7.4-7.8 8.6-9.5 8.6-12.5 0-3.8-2.8-6.6-6.4-6.6-2.8 0-38.3 35.3-40.7 40.5-1.4 3-1.9 6.4-1.9 13.7v9.8h29v-4.5c0-5.1-.8-4 19.9-26 5.6-6 11.2-12.7 12.2-14.7 1.7-3.4 1.9-6.2 1.9-30.2v-26.5l-2.6-2c-3.5-2.8-6.7-2.6-10.1.3z"/></g></svg>