<svg xmlns="http://www.w3.org/2000/svg" version="1" width="150pt" height="150pt" viewBox="0 0 150.000000 150.000000">//free(<g fill="#84449a"><path d="M65 2.3c-6.7 3.5-10.3 9.2-10.8 17.1-.5 7.6 1.2 12 6.8 17 13.4 12.1 34.6 2.2 34.4-16-.1-6.6-3.5-12.8-9.2-16.8-5.9-4.2-14.7-4.7-21.2-1.3z"/><path d="M41.8 48.4c-8.9 2.4-16.4 9.2-19.4 17.3-2.1 5.9-2 73.3.1 77.3 3.2 6.1 12.4 5.5 15.8-1.1 1.5-3 1.7-6.3 1.5-32.2l-.3-28.7h6.5v69h57v-69h7v60l2.8 3.1c3.5 3.9 9.1 4.3 12.8.8l2.4-2.2v-75.8l-2.4-4.7c-3.1-6-6.8-9.5-13.1-12.4-4.5-2-6.6-2.2-20-2.3h-15l-.3 24.4c-.2 22.9-.1 24.3 1.5 23.6 6.4-2.8 12.3-.7 12.3 4.4 0 5.8-6.9 11.1-14.4 11.1-3.8 0-8.6-1.8-8.6-3.2 0-.5-1.6-.8-3.6-.6-4.4.4-6.5 2.8-4.5 5.2 1.1 1.3 3.8 1.6 15.1 1.6 12.4 0 14 .2 16.4 2.1 3.5 2.8 3.5 7 0 9.8-2.4 1.9-4 2.1-17 2.1-11.6 0-14.4.3-14.4 1.4 0 2.2 2.4 2.6 16.9 2.6 12.1 0 14 .2 15.4 1.8 2.3 2.5 2.1 6.8-.3 9.2-1.8 1.8-3.3 2-18.9 2-13.4 0-17-.3-17.4-1.4-1.2-3 1.6-3.6 17.6-3.6 14.6 0 15.8-.1 15.5-1.7-.3-1.6-1.9-1.8-13.8-2-7.4-.2-14.5-.5-15.6-.8-1.2-.3-2.7-1.9-3.4-3.6-1.1-2.7-1.1-3.3.7-5.7 2-2.7 2-2.7 17.2-3 14.3-.2 15.1-.4 15.1-2.2 0-1.9-.7-2-14.4-2-13.8 0-14.6-.1-17.2-2.4-3.9-3.3-3.9-8.9 0-12.2 2.2-1.9 3.8-2.4 8.7-2.4h5.9v-55l-12.7.1c-7.1 0-14.9.6-17.5 1.3z"/></g></svg>