<svg xmlns="http://www.w3.org/2000/svg" version="1" width="187.25" height="187.25" viewBox="0 0 149.8 149.8">//free(<g fill="#039948"><path d="M22.3 2.1c-9.3 3.9-15 9.6-19.6 19.4-2.5 5.3-2.7 6.8-2.7 17.3.1 12.4 2.7 24.6 7.9 36.3l2.5 5.7h14.8l2.8 4.2c2.5 3.8 2.9 4 3.6 2.3.4-1.1 1.9-13.3 3.4-27 2.8-26 3.5-29.5 5.9-29.5 1.7 0 1.9.8 7.1 22.5 5.2 21.8 4.9 21.3 7.9 11.8 1.8-5.3 3.7-7.1 5.5-4.9.6.7 2.6 5.5 4.5 10.7l3.4 9.4 6.9.3c6.8.3 6.9.3 9.3 4.2 2.1 3.4 4 5.1 4 3.6 0-1.9 6.2-55.4 6.5-56.4.6-1.8 3.3-1.5 4.3.5.5 1 2.9 10.2 5.3 20.5 2.4 10.4 4.6 18.8 5 18.8.4 0 1.5-2.4 2.4-5.3 2-6.1 4-8.6 5.5-7.1.6.6 2.8 5.5 4.8 11l3.8 9.9 6.1.3 6.2.3 2-4c1.2-2.2 3.3-7.9 4.7-12.8 2.4-7.7 2.7-10.6 2.8-23.3.1-13.7 0-14.8-2.6-20.2-3.3-7-10.5-14.5-17.3-17.8-4.4-2.2-6.3-2.5-16.5-2.5-10.6 0-12 .2-17.2 2.8-9.4 4.6-16.6 13.2-20.3 24.2-.5 1.6-1.1.9-2.9-3.6-4.1-10.1-10-16.3-19.6-20.8-4.4-2-7.4-2.6-15-2.8-8.2-.3-10.3 0-15.2 2z"/><path d="M41.2 52.8c-.3 1.4-1.6 11.5-2.7 22.5s-2.3 21-2.6 22.2c-.9 4.3-3.9 2.6-8.8-4.7-4.6-7-4.6-7-9.2-7-5.4 0-5.4.1.7 9.3 8.1 12 19 24.4 31.3 35.6 8.8 8 22.9 19.1 24.4 19.1 1.4 0 14.5-10 24.4-18.6 12.9-11.2 28.3-29.2 35.7-41.6l2.2-3.7-6.7-.3-6.7-.3-2.6-7.3c-1.4-3.9-2.8-7.2-3.1-7.2-.3 0-1.7 3.1-3 7-4.2 12.2-5.7 10.9-10.5-9.5-2.1-8.8-4.1-16.4-4.5-16.8-.4-.4-1.7 8.6-3 20-2.9 26.6-3.1 27.7-5.5 28.1-1.5.2-3.2-1.6-6.5-6.8l-4.5-7h-6.6c-7.5 0-7.9-.3-10.3-7.5-.9-2.8-2-5.7-2.6-6.5-.8-1.3-1-1.3-1.4 0-4.3 12.1-4.8 13.1-6.9 12.8-1.8-.3-2.6-2.4-6.2-17.3-3-12.2-4.4-16.3-4.8-14.5z"/></g></svg>