<svg xmlns="http://www.w3.org/2000/svg" version="1" width="187.21" height="187.21" viewBox="0 0 149.76801 149.76801">//free(<g><path d="M66.334 1.066c-6.2 2.1-9.7 4.2-13.7 8.4-4.2 4.3-6.3 8.7-7.3 15.3-.3 2.5-2 8-3.6 12.2-3.9 10.3-3.8 11.1.6 10.2 2.8-.5 3.6-.3 4.1 1.1.4 1 .2 2.6-.4 3.6-2.4 3.7-1.5 8.8 2.2 12.5 2.9 2.9 4.1 3.4 8 3.4 4.2 0 4.6.2 4.6 2.4v2.4l-14.3.3c-13.8.4-14.5.5-20.9 3.7-8 3.9-14.9 11.1-17.2 17.9-1.3 3.8-1.6 9.4-1.6 30v25.3h23v-39h7v39h76v-39h7v39h23.1l-.3-27.8c-.3-26.5-.4-27.9-2.5-31.7-7.1-12.6-17.3-17.5-36.9-17.5h-11.4v-10.3c.1-10.1.1-10.2 3.2-13.2 10.7-10.3 10.4-29.8-.5-40.7-7.1-7.2-19.3-10.4-28.2-7.5zm-2.4 33.3c1.7 2.1 0 4.9-3.2 4.9-2.7 0-3.7-2.8-1.9-5 1.6-1.9 3.4-1.9 5.1.1zm-12.3 2.3c.8.4 1.2 1.9 1 3.2-.4 2.9-4.5 3.4-6.1.7-1.9-3 1.9-6 5.1-3.9zm23.2 4c.7 1.5.6 2.3-.6 3.5-.8.9-1.9 1.6-2.4 1.6s-1.6-.7-2.4-1.6c-2-1.9-.5-5.4 2.4-5.4 1.1 0 2.4.9 3 1.9zm2.9 11.5c1.4 1.6.5 4.2-1.6 5-2.9 1.1-5.8-3.5-3.6-5.7 1.1-1.2 4-.8 5.2.7zm0 12.3c1.2 2.3-.4 5.3-2.9 5.3s-4.1-2.9-2.9-5.2c1.2-2.3 4.5-2.3 5.8-.1zm-.5 11.9c1.9 1.9 2 2.6.4 4.2-1.8 1.8-4.6 1.4-5.8-.7-.7-1.5-.6-2.3.6-3.5 1.9-2 2.9-2 4.8 0zm-13.8 12.9c5.1 7.8 9.8 43.3 6.1 46.3-.7.6-3.5 1.6-6.1 2.2-2.7.6-6.8 2.5-9.2 4.2-7.6 5.5-9.6 2.2-9.7-16.2-.1-13.7 1.2-21.7 5-29.7 4.1-8.8 10.5-12 13.9-6.8zm10.2.1c.4 2.5-2.2 4.9-4.3 4-2.2-.8-2.9-3.4-1.4-5.2 1.7-2.1 5.3-1.4 5.7 1.2zm8.6-.4c.8 1.4.7 2.1-.6 3.4-3 3-7.5-.9-4.8-4.2 1.6-1.8 3.9-1.5 5.4.8zm12.9-.2c3.1 2.5 7.1 10.6 8.5 17.5 2.9 13.6 2.2 33.9-1.2 37.3-1.4 1.4-2 1.2-6.4-1.5-2.6-1.6-7-3.5-9.7-4.2-2.7-.7-5.5-1.7-6.2-2.3-3.5-2.9.9-37.7 5.7-45.6 2.3-3.8 5.5-4.2 9.3-1.2z"/><path d="M59.034 98.666c-2.3 1.4-1 4.6 1.8 4.6 2 0 2.5-.5 2.5-2.5 0-2.6-2-3.6-4.3-2.1z"/><path d="M51.534 107.866c-2.3 1.3-2.2 4.6.3 5.4 2.5.8 4-.1 4-2.4 0-2.7-2.1-4.2-4.3-3z"/><path d="M48.334 120.366c-1.8 1.9-1.6 3.3.7 4.8 1.2.7 2.1.6 3.2-.3 2.2-1.8 2-3.8-.3-5.1-1.5-.7-2.4-.6-3.6.6z"/><path d="M52.134 131.466c-1.8.7-1.6 3.8.2 5.3s4.5-.2 4.5-3c0-1.4-2.3-3.4-3.3-2.9-.1 0-.8.3-1.4.6z"/><path d="M87.034 98.666c-2.3 1.4-1 4.6 1.8 4.6 2 0 2.5-.5 2.5-2.5 0-2.6-2-3.6-4.3-2.1z"/><path d="M95.034 107.966c-1.7 1.7-1.5 4.5.3 5.2 2.3.8 4.5-.4 4.5-2.5 0-2.4-3.3-4.2-4.8-2.7z"/><path d="M97.334 120.366c-1.8 1.9-1.6 3.3.7 4.8 1.2.7 2.1.6 3.2-.3 2.2-1.8 2-3.8-.3-5.1-1.5-.7-2.4-.6-3.6.6z"/><path d="M94.134 131.466c-1.8.7-1.6 3.8.2 5.3s4.5-.2 4.5-3c0-1.4-2.3-3.4-3.3-2.9-.1 0-.8.3-1.4.6z"/></g></svg>