<svg xmlns="http://www.w3.org/2000/svg" version="1" width="158.921" height="158.92" viewBox="0 0 127.13689 127.136">//free(<path d="M68.111 2.836c-13.9 9.3-18.5 16.1-18.5 27.7 0 13.6 9.2 27 14.8 21.4 1.9-1.9 1.4-5.1-1.3-8.8-2.4-3.2-4.9-9.9-4.1-10.8.2-.2 8.6 5.8 18.7 13.2l18.3 13.6h-7.8c-4.3 0-17.1-.9-28.4-2.1-38.4-3.9-47.7-1.2-55.7 16.4-2.7 5.9-4.8 17.5-3.9 21.2 1.3 5.4 9.4 3.5 9.4-2.2 0-1.2.3-2.3.6-2.3 1.5 0 46.4 24.3 46.4 25.1 0 .4-1.3 1.5-3 2.4-5.6 2.9-4.8 9.5 1 9.5 5.3 0 17.5-11.5 21.2-19.9 1.8-4 1.9-6 1.5-16.1-.6-12.8-1.1-14.6-3.9-16.1-1.5-.8-2.6-.6-4.4.6-2.4 1.6-2.5 1.9-1.8 8.2.4 4.3.3 6.4-.4 6.2-.5-.2-8.8-5.8-18.5-12.4l-17.5-12 6.2-.3c3.3-.2 13.5.5 22.6 1.4 9.1 1 22.1 1.8 29 1.9 11.8 0 12.8-.2 18.3-2.9 4.6-2.2 6.9-4.2 10.8-9.5 6.2-8.4 10.7-20.1 9.1-23.6-1.8-4-7.3-3.2-8.9 1.2-.8 2.1-1.9 1.5-22.6-10.4-20.4-11.8-21.7-12.6-19.7-14 3-2.1 2.7-7.1-.6-8.3-1.4-.6-2.6-1-2.7-1-.1 0-2 1.2-4.2 2.7zm24.6 24.5c12.6 7.3 22.9 13.5 22.9 13.8 0 .3-.9 2-2 3.8-1.3 2.1-2.5 3-3.3 2.6-2.8-1.7-43.3-28.7-44.1-29.5-1-.9 1-3.9 2.6-3.9.6 0 11.3 5.9 23.9 13.2zm-6.2 10.1l22.3 14.9-2.3 2.4c-1.2 1.3-3 2.4-3.8 2.4-1.6 0-43.1-30.4-43.1-31.5 0-1.9 2.3-4.5 3.3-3.8.7.3 11.3 7.4 23.6 15.6zm-39.4 45c19.2 13.2 21 14.7 20.8 17.2-.1 1.5-.4 3-.7 3.2-.3.3-12-6.6-26-15.3-24.7-15.3-25.5-15.9-23.8-17.7 2.2-2.5 5.3-3.7 7.2-2.6.8.4 10.9 7.3 22.5 15.2zm-7.9 9.4c22.7 14.1 25.1 15.8 24.1 17.5-.7 1-1.5 1.8-2 1.8-.6 0-49.6-25.7-50.5-26.5-.5-.4 2-8.5 2.6-8.5.3 0 11.9 7.1 25.8 15.7z" fill="#84449a"/></svg>