<?xml version="1.0" standalone="no"?>
<!DOCTYPE svg PUBLIC "-//W3C//DTD SVG 20010904//EN"
 "http://www.w3.org/TR/2001/REC-SVG-20010904/DTD/svg10.dtd">
<svg version="1.0" xmlns="http://www.w3.org/2000/svg"
 width="100.000000pt" height="86.000000pt" viewBox="0 0 100.000000 86.000000"
 preserveAspectRatio="xMidYMid meet">
<metadata>
Created by potrace 1.10, written by Peter Selinger 2001-2011
</metadata>
<g transform="translate(0.000000,86.000000) scale(0.100000,-0.100000)"
fill="#000000" stroke="none">
<path d="M346 751 c-9 -10 -19 -35 -23 -54 -5 -32 -2 -38 21 -48 17 -8 25 -18
22 -28 -3 -9 -10 -37 -15 -63 -6 -25 -20 -62 -32 -82 -26 -45 -42 -146 -22
-146 8 0 13 11 13 28 0 17 9 37 21 48 12 10 30 36 41 57 11 22 22 37 24 34 3
-3 -1 -16 -10 -29 -22 -34 -42 -96 -51 -156 -6 -48 -5 -52 14 -52 21 0 39 39
27 59 -4 6 8 30 27 54 18 24 39 58 46 75 24 59 86 36 115 -43 5 -14 1 -24 -16
-37 l-23 -18 30 0 c39 0 60 14 52 34 -4 9 -3 16 2 16 19 0 19 -40 0 -50 -31
-17 -22 -31 19 -28 l37 3 -4 45 c-1 25 -7 50 -12 56 -4 6 -12 37 -15 69 -8 66
-36 105 -76 105 -16 0 -27 9 -36 30 -7 16 -28 39 -47 50 -18 11 -43 36 -54 55
-23 39 -49 45 -75 16z"/>
</g>
</svg>
