<svg version="1" xmlns="http://www.w3.org/2000/svg" width="100pt" height="86pt" viewBox="0 0 100.000000 86.000000"><path d="M49.1 29.7c-2 2.6-2.2 2.7-3.5 1-.7-.9-2.1-1.7-3-1.7-1.8 0-2.2 3-.5 4.7 1.7 1.7.2 3.3-3 3.3-1.6 0-4.5.7-6.4 1.5-2 .8-5.2 1.5-7.2 1.5-1.9 0-3.5.5-3.5 1.1 0 .6-1.1 2.5-2.4 4.2-5.7 7.6-9.6 19.7-6.4 19.7.8 0 2.3-.9 3.3-2s2.7-2 3.7-2 3.1-1.1 4.6-2.5c1.7-1.6 3.9-2.5 5.8-2.5 2.6 0 3.9-.9 7-4.8 2.1-2.6 4.3-5 4.9-5.4 1.6-1.2 12.5-.9 12.5.2 0 .6 1.9 3.1 4.1 5.5 2.8 3.1 5 4.5 6.7 4.5 1.4 0 4 1.1 5.8 2.5 1.8 1.4 3.9 2.5 4.6 2.5.8 0 3.1.9 5.2 2l3.8 1.9-.6-3.1c-.9-4.8-5.2-13.5-8.7-17.9-2.5-3.2-3.7-3.9-6.5-3.9-1.8 0-5.1-.6-7.1-1.4-2.1-.8-5.5-1.7-7.6-2.1-3.8-.6-3.8-.7-2.2-2.5 1.2-1.3 1.5-2.8 1.1-4.5-.8-3.2-1.9-3.2-4.5.2z"/></svg>