<?xml version="1.0" standalone="no"?>
<!DOCTYPE svg PUBLIC "-//W3C//DTD SVG 20010904//EN"
 "http://www.w3.org/TR/2001/REC-SVG-20010904/DTD/svg10.dtd">
<svg version="1.0" xmlns="http://www.w3.org/2000/svg"
 width="100.000000pt" height="86.000000pt" viewBox="0 0 100.000000 86.000000"
 preserveAspectRatio="xMidYMid meet">
<metadata>
Created by potrace 1.10, written by Peter Selinger 2001-2011
</metadata>
<g transform="translate(0.000000,86.000000) scale(0.100000,-0.100000)"
fill="#000000" stroke="none">
<path d="M218 624 c-15 -8 -35 -28 -44 -45 -14 -28 -14 -33 1 -56 15 -22 15
-26 1 -42 -17 -18 -21 -41 -8 -41 4 1 18 7 32 15 38 22 57 19 36 -4 -11 -13
-15 -27 -11 -40 8 -28 45 -28 45 -1 0 34 33 23 96 -31 73 -64 78 -74 30 -65
-45 9 -77 -14 -55 -40 10 -12 25 -14 71 -9 40 5 58 3 58 -4 0 -6 -15 -11 -33
-11 -22 0 -36 -7 -45 -21 -15 -24 -16 -23 23 -36 24 -8 35 -7 55 7 41 27 151
61 215 65 114 7 164 37 83 50 -117 18 -106 10 -105 73 0 91 -34 138 -140 191
-51 25 -194 61 -243 61 -19 -1 -47 -7 -62 -16z"/>
</g>
</svg>
