<?xml version="1.0" standalone="no"?>
<!DOCTYPE svg PUBLIC "-//W3C//DTD SVG 20010904//EN"
 "http://www.w3.org/TR/2001/REC-SVG-20010904/DTD/svg10.dtd">
<svg version="1.0" xmlns="http://www.w3.org/2000/svg"
 width="100.000000pt" height="86.000000pt" viewBox="0 0 100.000000 86.000000"
 preserveAspectRatio="xMidYMid meet">
<metadata>
Created by potrace 1.10, written by Peter Selinger 2001-2011
</metadata>
<g transform="translate(0.000000,86.000000) scale(0.100000,-0.100000)"
fill="#000000" stroke="none">
<path d="M329 674 c17 -22 19 -35 14 -90 -5 -57 -3 -68 19 -102 14 -20 41 -46
61 -56 21 -12 33 -25 30 -33 -3 -7 1 -13 8 -14 8 -1 4 -4 -9 -7 -34 -10 -27
-27 11 -27 22 0 32 5 32 15 0 8 9 25 20 36 21 23 16 23 255 -12 33 -5 34 -4
15 11 -11 8 -37 18 -58 22 -59 9 -277 185 -277 223 0 37 -35 60 -91 60 l-50 0
20 -26z"/>
</g>
</svg>
