<?xml version="1.0" standalone="no"?>
<!DOCTYPE svg PUBLIC "-//W3C//DTD SVG 20010904//EN"
 "http://www.w3.org/TR/2001/REC-SVG-20010904/DTD/svg10.dtd">
<svg version="1.0" xmlns="http://www.w3.org/2000/svg"
 width="100.000000pt" height="86.000000pt" viewBox="0 0 100.000000 86.000000"
 preserveAspectRatio="xMidYMid meet">
<metadata>
Created by potrace 1.10, written by Peter Selinger 2001-2011
</metadata>
<g transform="translate(0.000000,86.000000) scale(0.100000,-0.100000)"
fill="#000000" stroke="none">
<path d="M170 667 c25 -23 55 -54 67 -69 11 -14 29 -30 39 -36 16 -9 17 -15 5
-68 -19 -87 -19 -149 -1 -149 10 0 15 10 15 30 0 24 7 33 35 47 19 9 38 17 42
18 4 0 13 -21 20 -47 8 -29 19 -48 28 -48 9 0 13 7 11 15 -2 8 -6 30 -9 48 -4
29 -2 32 21 32 44 0 57 -10 57 -44 0 -39 25 -76 51 -76 23 0 24 8 2 32 -32 35
-5 28 43 -12 27 -22 52 -40 56 -40 15 0 -14 58 -42 85 -17 16 -30 34 -30 40 0
24 56 64 97 71 47 7 59 26 44 68 -6 14 -8 32 -5 39 4 10 -4 13 -30 13 -19 -1
-38 -5 -42 -9 -11 -11 -109 -8 -178 4 -51 10 -71 9 -116 -4 l-54 -16 -63 60
c-38 35 -73 59 -86 59 -19 0 -16 -6 23 -43z"/>
</g>
</svg>
