<svg version="1" xmlns="http://www.w3.org/2000/svg" width="100pt" height="86pt" viewBox="0 0 100.000000 86.000000"><path d="M17 19.3c2.5 2.3 5.5 5.4 6.7 6.9 1.1 1.4 2.9 3 3.9 3.6 1.6.9 1.7 1.5.5 6.8-1.9 8.7-1.9 14.9-.1 14.9 1 0 1.5-1 1.5-3 0-2.4.7-3.3 3.5-4.7 1.9-.9 3.8-1.7 4.2-1.8.4 0 1.3 2.1 2 4.7.8 2.9 1.9 4.8 2.8 4.8.9 0 1.3-.7 1.1-1.5-.2-.8-.6-3-.9-4.8-.4-2.9-.2-3.2 2.1-3.2 4.4 0 5.7 1 5.7 4.4 0 3.9 2.5 7.6 5.1 7.6 2.3 0 2.4-.8.2-3.2-3.2-3.5-.5-2.8 4.3 1.2 2.7 2.2 5.2 4 5.6 4 1.5 0-1.4-5.8-4.2-8.5-1.7-1.6-3-3.4-3-4 0-2.4 5.6-6.4 9.7-7.1 4.7-.7 5.9-2.6 4.4-6.8-.6-1.4-.8-3.2-.5-3.9.4-1-.4-1.3-3-1.3-1.9.1-3.8.5-4.2.9-1.1 1.1-10.9.8-17.8-.4-5.1-1-7.1-.9-11.6.4l-5.4 1.6-6.3-6c-3.8-3.5-7.3-5.9-8.6-5.9-1.9 0-1.6.6 2.3 4.3z"/></svg>