<?xml version="1.0" standalone="no"?>
<!DOCTYPE svg PUBLIC "-//W3C//DTD SVG 20010904//EN"
 "http://www.w3.org/TR/2001/REC-SVG-20010904/DTD/svg10.dtd">
<svg version="1.0" xmlns="http://www.w3.org/2000/svg"
 width="100.000000pt" height="86.000000pt" viewBox="0 0 100.000000 86.000000"
 preserveAspectRatio="xMidYMid meet">
<metadata>
Created by potrace 1.10, written by Peter Selinger 2001-2011
</metadata>
<g transform="translate(0.000000,86.000000) scale(0.100000,-0.100000)"
fill="#000000" stroke="none">
<path d="M753 639 c-43 -22 -230 -34 -298 -19 -102 22 -143 24 -171 5 -25 -16
-26 -20 -20 -81 4 -41 2 -80 -5 -105 -10 -31 -10 -42 0 -52 9 -9 14 -9 22 3 6
11 8 2 7 -30 -3 -42 -1 -45 22 -46 14 0 35 -4 48 -8 33 -11 38 -1 13 30 -27
34 -28 66 -3 62 11 -2 25 2 33 7 8 6 50 9 97 7 77 -3 82 -5 82 -25 0 -12 -7
-31 -15 -41 -22 -29 -18 -46 11 -46 20 0 24 4 19 19 -3 11 1 26 12 37 17 17
18 16 21 -19 2 -26 9 -38 23 -42 27 -9 33 -1 20 23 -17 32 -13 70 8 82 11 5
24 25 31 44 15 48 34 60 99 66 69 6 76 25 32 76 -17 19 -31 41 -31 48 0 22
-22 24 -57 5z m-466 -146 c-3 -10 -5 -4 -5 12 0 17 2 24 5 18 2 -7 2 -21 0
-30z m43 -154 c0 -11 -4 -17 -10 -14 -5 3 -10 13 -10 21 0 8 5 14 10 14 6 0
10 -9 10 -21z"/>
</g>
</svg>
