<?xml version="1.0" standalone="no"?>
<!DOCTYPE svg PUBLIC "-//W3C//DTD SVG 20010904//EN"
 "http://www.w3.org/TR/2001/REC-SVG-20010904/DTD/svg10.dtd">
<svg version="1.0" xmlns="http://www.w3.org/2000/svg"
 width="100.000000pt" height="86.000000pt" viewBox="0 0 100.000000 86.000000"
 preserveAspectRatio="xMidYMid meet">
<metadata>
Created by potrace 1.10, written by Peter Selinger 2001-2011
</metadata>
<g transform="translate(0.000000,86.000000) scale(0.100000,-0.100000)"
fill="#000000" stroke="none">
<path d="M298 836 c-16 -31 -75 -76 -99 -76 -28 0 -32 -17 -9 -40 14 -14 33
-20 65 -20 54 0 71 -20 85 -101 5 -30 14 -70 19 -89 15 -48 16 -129 3 -142 -7
-7 -12 -16 -12 -20 0 -13 38 -9 43 5 4 9 6 9 6 -1 1 -7 -6 -24 -15 -37 -16
-24 -15 -25 7 -25 19 0 27 8 37 40 6 22 12 66 12 97 0 32 4 63 8 68 4 6 34 21
66 33 l60 21 54 -54 c54 -54 55 -56 45 -90 -10 -31 -9 -35 7 -35 12 0 20 10
24 31 3 17 10 28 16 24 15 -9 12 -43 -7 -71 -16 -25 -16 -26 8 -22 21 3 25 10
31 56 7 46 5 58 -12 79 -13 17 -20 41 -20 72 0 26 -7 56 -16 69 -9 13 -11 22
-4 22 6 0 9 4 6 9 -4 5 -45 12 -94 16 -144 11 -179 25 -234 95 -27 33 -48 69
-48 80 0 30 -18 33 -32 6z"/>
</g>
</svg>
