<svg version="1" xmlns="http://www.w3.org/2000/svg" width="100pt" height="86pt" viewBox="0 0 100.000000 86.000000"><path d="M29.8 2.4c-1.6 3.1-7.5 7.6-9.9 7.6-2.8 0-3.2 1.7-.9 4 1.4 1.4 3.3 2 6.5 2 5.4 0 7.1 2 8.5 10.1.5 3 1.4 7 1.9 8.9 1.5 4.8 1.6 12.9.3 14.2-.7.7-1.2 1.6-1.2 2 0 1.3 3.8.9 4.3-.5.4-.9.6-.9.6.1.1.7-.6 2.4-1.5 3.7-1.6 2.4-1.5 2.5.7 2.5 1.9 0 2.7-.8 3.7-4 .6-2.2 1.2-6.6 1.2-9.7 0-3.2.4-6.3.8-6.8.4-.6 3.4-2.1 6.6-3.3l6-2.1 5.4 5.4c5.4 5.4 5.5 5.6 4.5 9-1 3.1-.9 3.5.7 3.5 1.2 0 2-1 2.4-3.1.3-1.7 1-2.8 1.6-2.4 1.5.9 1.2 4.3-.7 7.1-1.6 2.5-1.6 2.6.8 2.2 2.1-.3 2.5-1 3.1-5.6.7-4.6.5-5.8-1.2-7.9-1.3-1.7-2-4.1-2-7.2 0-2.6-.7-5.6-1.6-6.9-.9-1.3-1.1-2.2-.4-2.2.6 0 .9-.4.6-.9-.4-.5-4.5-1.2-9.4-1.6-14.4-1.1-17.9-2.5-23.4-9.5-2.7-3.3-4.8-6.9-4.8-8 0-3-1.8-3.3-3.2-.6z"/></svg>