<?xml version="1.0" standalone="no"?>
<!DOCTYPE svg PUBLIC "-//W3C//DTD SVG 20010904//EN"
 "http://www.w3.org/TR/2001/REC-SVG-20010904/DTD/svg10.dtd">
<svg version="1.0" xmlns="http://www.w3.org/2000/svg"
 width="100.000000pt" height="86.000000pt" viewBox="0 0 100.000000 86.000000"
 preserveAspectRatio="xMidYMid meet">
<metadata>
Created by potrace 1.10, written by Peter Selinger 2001-2011
</metadata>
<g transform="translate(0.000000,86.000000) scale(0.100000,-0.100000)"
fill="#000000" stroke="none">
<path d="M530 675 c-16 -9 -56 -14 -115 -15 -109 0 -147 -17 -188 -81 -24 -40
-28 -58 -36 -176 -8 -132 -6 -187 9 -178 4 3 7 22 5 42 -1 21 0 49 3 62 l5 25
10 -25 c5 -13 12 -53 16 -89 l6 -65 35 0 35 0 5 65 c5 66 12 62 25 -12 6 -36
8 -38 42 -38 l36 0 -7 53 c-3 28 -9 64 -12 78 -5 24 -3 27 32 34 30 5 41 3 51
-11 17 -24 16 -55 -2 -82 -14 -19 -14 -25 1 -54 20 -40 31 -48 67 -48 27 0 27
0 27 69 0 38 7 84 15 104 8 20 15 50 15 66 0 30 14 41 54 41 39 0 58 -34 72
-128 19 -127 21 -132 49 -132 32 0 41 17 21 39 -11 12 -16 37 -16 82 0 63 1
65 33 78 l32 14 -29 4 c-22 4 -26 7 -15 14 12 8 10 12 -8 27 -13 10 -24 34
-28 62 -9 55 -39 122 -66 146 -21 19 -97 43 -134 43 -11 0 -31 -6 -45 -14z"/>
</g>
</svg>
