<svg version="1" xmlns="http://www.w3.org/2000/svg" width="100pt" height="86pt" viewBox="0 0 100.000000 86.000000"><path d="M63.1 18.7c0 1.3-.6 2.3-1.2 2.3-.5 0-.8.4-.4.9.3.6-.2 1.4-1.2 1.9-1.2.7-2.4.4-4.5-1.1-2.8-2.1-2.9-2.1-6.3-.3-1.9 1.1-4.3 3.2-5.4 4.8-1.4 2.4-1.9 2.6-2.4 1.4-.3-.8 0-2.1.7-2.9 1.1-1.1.9-1.8-1-4.2-1.9-2.4-2.4-2.6-2.4-1.2 0 1.1-.5 1.5-1.1 1.1-.7-.4-.9 0-.5 1.2.3 1.1 1 4.1 1.5 6.7.5 2.6 1.6 5.4 2.6 6.1 1.4 1 1.5 1.7.6 3.4-1.5 2.8-1.3 7.2.4 10.2 2 3.5 2 3.6-2.4 5.3-2.2.9-4.2 2-4.5 2.5-.7 1.2 3.6 10.1 6.7 13.8l2.7 3.1-4.8 1.7c-9.6 3.5-9.5 3.4-8.3 9.6.1.3.5 0 .9-.6 1.3-1.9 7.9-6.4 9.4-6.4.8 0 2.7-.9 4.2-2.1l2.6-2-4.1-7.4-4-7.4 4.6-.7c4.5-.6 14.9.1 16.6 1.2.9.5-2.6 7.8-5.7 12.1-1.5 2.1-1.4 2.4 1 4.8 1.4 1.4 3.5 2.5 4.7 2.5 2.1 0 8.5 4.1 10.1 6.4.4.6.8.9.9.6 0-.3.2-1.5.4-2.6.5-2.7-1.8-4.7-7-6.2-7.1-2.1-7.1-2.3-2.1-9.6 2.5-3.7 4.6-7.6 4.6-8.6 0-2.1-4.6-5-8-5-2.4 0-2.4-.2-.4-4.2 1.2-2.3 1.5-4.7 1.1-8.4-.5-4.5-.2-5.5 1.4-6.6 1.4-1 2.2-3.1 2.7-8 .7-5.3.6-6.5-.4-5.7-.9.8-1.4.3-1.7-1.8-.3-2.2-.4-2.3-.6-.6zm-1.3 9.4c.2 2.3.2 2.3-1.3.5-1.8-2.4-2-3.9-.2-3.4.6.3 1.3 1.5 1.5 2.9z"/></svg>