<?xml version="1.0" standalone="no"?>
<!DOCTYPE svg PUBLIC "-//W3C//DTD SVG 20010904//EN"
 "http://www.w3.org/TR/2001/REC-SVG-20010904/DTD/svg10.dtd">
<svg version="1.0" xmlns="http://www.w3.org/2000/svg"
 width="100.000000pt" height="86.000000pt" viewBox="0 0 100.000000 86.000000"
 preserveAspectRatio="xMidYMid meet">
<metadata>
Created by potrace 1.10, written by Peter Selinger 2001-2011
</metadata>
<g transform="translate(0.000000,86.000000) scale(0.100000,-0.100000)"
fill="#000000" stroke="none">
<path d="M631 673 c0 -13 -6 -23 -12 -23 -5 0 -8 -4 -4 -9 3 -6 -2 -14 -12
-19 -12 -7 -24 -4 -45 11 -28 21 -29 21 -63 3 -19 -11 -43 -32 -54 -48 -14
-24 -19 -26 -24 -14 -3 8 0 21 7 29 11 11 9 18 -10 42 -19 24 -24 26 -24 12 0
-11 -5 -15 -11 -11 -7 4 -9 0 -5 -12 3 -11 10 -41 15 -67 5 -26 16 -54 26 -61
14 -10 15 -17 6 -34 -15 -28 -13 -72 4 -102 20 -35 20 -36 -24 -53 -22 -9 -42
-20 -45 -25 -7 -12 36 -101 67 -138 l27 -31 -48 -17 c-96 -35 -95 -34 -83 -96
1 -3 5 0 9 6 13 19 79 64 94 64 8 0 27 9 42 21 l26 20 -41 74 -40 74 46 7 c45
6 149 -1 166 -12 9 -5 -26 -78 -57 -121 -15 -21 -14 -24 10 -48 14 -14 35 -25
47 -25 21 0 85 -41 101 -64 4 -6 8 -9 9 -6 0 3 2 15 4 26 5 27 -18 47 -70 62
-71 21 -71 23 -21 96 25 37 46 76 46 86 0 21 -46 50 -80 50 -24 0 -24 2 -4 42
12 23 15 47 11 84 -5 45 -2 55 14 66 14 10 22 31 27 80 7 53 6 65 -4 57 -9 -8
-14 -3 -17 18 -3 22 -4 23 -6 6z m-13 -94 c2 -23 2 -23 -13 -5 -18 24 -20 39
-2 34 6 -3 13 -15 15 -29z"/>
</g>
</svg>
