<?xml version="1.0" standalone="no"?>
<!DOCTYPE svg PUBLIC "-//W3C//DTD SVG 20010904//EN"
 "http://www.w3.org/TR/2001/REC-SVG-20010904/DTD/svg10.dtd">
<svg version="1.0" xmlns="http://www.w3.org/2000/svg"
 width="100.000000pt" height="86.000000pt" viewBox="0 0 100.000000 86.000000"
 preserveAspectRatio="xMidYMid meet">
<metadata>
Created by potrace 1.10, written by Peter Selinger 2001-2011
</metadata>
<g transform="translate(0.000000,86.000000) scale(0.100000,-0.100000)"
fill="#000000" stroke="none">
<path d="M435 725 c-45 -16 -60 -26 -60 -41 0 -16 6 -18 33 -16 l34 4 -20 -29
c-10 -15 -27 -40 -36 -55 -14 -24 -19 -26 -41 -16 -21 9 -29 7 -60 -16 -19
-15 -35 -36 -35 -47 0 -27 18 -24 32 6 15 34 23 31 25 -11 2 -36 17 -64 35
-64 6 0 7 7 4 16 -3 9 -9 27 -12 40 -6 24 -5 24 22 12 16 -7 50 -31 75 -54 25
-23 55 -45 66 -48 16 -5 22 -17 26 -49 4 -38 1 -45 -29 -72 -36 -32 -42 -45
-21 -45 18 0 87 62 87 78 0 7 5 10 10 7 18 -11 11 -33 -21 -70 -26 -30 -28
-35 -13 -35 26 0 36 9 61 56 20 37 21 43 8 54 -23 19 -18 34 14 47 24 8 31 8
35 -3 7 -19 -18 -75 -43 -98 -18 -17 -30 -56 -16 -56 8 0 80 51 87 63 16 26 9
93 -13 113 -11 10 -27 33 -34 51 -8 20 -28 39 -52 52 -55 28 -69 46 -50 66 9
8 20 15 26 15 11 0 9 39 -4 60 -5 8 -9 22 -7 30 1 8 -10 29 -26 46 l-27 30
-60 -21z"/>
</g>
</svg>
