<?xml version="1.0" standalone="no"?>
<!DOCTYPE svg PUBLIC "-//W3C//DTD SVG 20010904//EN"
 "http://www.w3.org/TR/2001/REC-SVG-20010904/DTD/svg10.dtd">
<svg version="1.0" xmlns="http://www.w3.org/2000/svg"
 width="100.000000pt" height="86.000000pt" viewBox="0 0 100.000000 86.000000"
 preserveAspectRatio="xMidYMid meet">
<metadata>
Created by potrace 1.10, written by Peter Selinger 2001-2011
</metadata>
<g transform="translate(0.000000,86.000000) scale(0.100000,-0.100000)"
fill="#000000" stroke="none">
<path d="M276 714 c17 -52 13 -148 -6 -185 -25 -45 78 -309 120 -309 11 0 20
7 20 16 0 8 5 12 10 9 19 -12 11 -87 -12 -112 l-21 -23 48 0 48 0 -6 53 c-3
28 -9 76 -13 105 -7 51 -6 52 20 52 48 0 66 -31 66 -115 0 -73 -1 -75 -30 -90
-39 -20 -38 -35 3 -35 75 0 77 3 77 102 0 106 7 108 62 26 47 -70 99 -98 184
-98 68 0 127 14 144 35 10 12 0 13 -72 8 -80 -5 -86 -4 -126 22 -29 19 -51 46
-72 88 -29 59 -30 65 -24 149 7 84 6 89 -20 128 -15 23 -48 55 -74 71 -45 29
-50 30 -124 23 l-78 -7 0 33 c0 19 7 42 17 52 20 22 10 22 -42 -2 l-40 -18
-37 36 -37 35 15 -49z m119 -382 c6 -25 -9 -52 -30 -52 -16 0 -25 32 -25 90
l1 45 24 -29 c13 -17 27 -41 30 -54z"/>
</g>
</svg>
