<svg version="1" xmlns="http://www.w3.org/2000/svg" width="100pt" height="86pt" viewBox="0 0 100.000000 86.000000"><path d="M27.6 14.6c1.7 5.2 1.3 14.8-.6 18.5-2.5 4.5 7.8 30.9 12 30.9 1.1 0 2-.7 2-1.6 0-.8.5-1.2 1-.9 1.9 1.2 1.1 8.7-1.2 11.2l-2.1 2.3h9.6l-.6-5.3c-.3-2.8-.9-7.6-1.3-10.5-.7-5.1-.6-5.2 2-5.2 4.8 0 6.6 3.1 6.6 11.5 0 7.3-.1 7.5-3 9-3.9 2-3.8 3.5.3 3.5 7.5 0 7.7-.3 7.7-10.2 0-10.6.7-10.8 6.2-2.6 4.7 7 9.9 9.8 18.4 9.8 6.8 0 12.7-1.4 14.4-3.5 1-1.2 0-1.3-7.2-.8-8 .5-8.6.4-12.6-2.2-2.9-1.9-5.1-4.6-7.2-8.8-2.9-5.9-3-6.5-2.4-14.9.7-8.4.6-8.9-2-12.8-1.5-2.3-4.8-5.5-7.4-7.1-4.5-2.9-5-3-12.4-2.3l-7.8.7v-3.3c0-1.9.7-4.2 1.7-5.2 2-2.2 1-2.2-4.2.2l-4 1.8-3.7-3.6-3.7-3.5 1.5 4.9zm11.9 38.2c.6 2.5-.9 5.2-3 5.2-1.6 0-2.5-3.2-2.5-9l.1-4.5 2.4 2.9c1.3 1.7 2.7 4.1 3 5.4z"/></svg>