<?xml version="1.0" standalone="no"?>
<!DOCTYPE svg PUBLIC "-//W3C//DTD SVG 20010904//EN"
 "http://www.w3.org/TR/2001/REC-SVG-20010904/DTD/svg10.dtd">
<svg version="1.0" xmlns="http://www.w3.org/2000/svg"
 width="100.000000pt" height="86.000000pt" viewBox="0 0 100.000000 86.000000"
 preserveAspectRatio="xMidYMid meet">
<metadata>
Created by potrace 1.10, written by Peter Selinger 2001-2011
</metadata>
<g transform="translate(0.000000,86.000000) scale(0.100000,-0.100000)"
fill="#000000" stroke="none">
<path d="M414 636 c-35 -16 -58 -36 -74 -62 -13 -22 -29 -42 -34 -46 -16 -11
-76 -10 -76 1 0 5 18 32 40 60 22 28 38 51 34 51 -21 0 -78 -48 -99 -84 -21
-35 -25 -56 -25 -118 0 -75 0 -76 39 -111 21 -19 55 -40 76 -47 54 -18 199 -8
255 17 54 24 123 96 139 146 14 40 16 41 80 26 24 -5 46 -8 48 -5 9 8 -47 54
-156 126 -91 61 -110 70 -150 70 -27 0 -67 -10 -97 -24z m141 -116 c-20 -22
-59 -26 -102 -9 -26 10 -27 12 -8 19 11 5 44 9 74 9 53 1 54 1 36 -19z m-277
-42 c16 -20 20 -138 4 -138 -16 0 -62 45 -63 62 -5 90 -5 88 22 88 15 0 31 -6
37 -12z m204 -36 c-3 -32 32 -26 36 6 3 20 9 22 59 22 46 0 54 -3 49 -16 -3
-9 -6 -20 -6 -24 0 -18 -66 -83 -97 -96 -38 -16 -203 -19 -203 -4 0 6 5 10 11
10 24 0 68 43 89 86 18 35 27 44 44 42 15 -2 20 -9 18 -26z"/>
</g>
</svg>
