<svg version="1" xmlns="http://www.w3.org/2000/svg" width="100pt" height="86pt" viewBox="0 0 100.000000 86.000000"><path d="M41.4 22.4c-3.5 1.6-5.8 3.6-7.4 6.2-1.3 2.2-2.9 4.2-3.4 4.6-1.6 1.1-7.6 1-7.6-.1 0-.5 1.8-3.2 4-6s3.8-5.1 3.4-5.1c-2.1 0-7.8 4.8-9.9 8.4-2.1 3.5-2.5 5.6-2.5 11.8 0 7.5 0 7.6 3.9 11.1 2.1 1.9 5.5 4 7.6 4.7 5.4 1.8 19.9.8 25.5-1.7 5.4-2.4 12.3-9.6 13.9-14.6 1.4-4 1.6-4.1 8-2.6 2.4.5 4.6.8 4.8.5.9-.8-4.7-5.4-15.6-12.6-9.1-6.1-11-7-15-7-2.7 0-6.7 1-9.7 2.4zm14.1 11.6c-2 2.2-5.9 2.6-10.2.9-2.6-1-2.7-1.2-.8-1.9 1.1-.5 4.4-.9 7.4-.9 5.3-.1 5.4-.1 3.6 1.9zm-27.7 4.2c1.6 2 2 13.8.4 13.8s-6.2-4.5-6.3-6.2c-.5-9-.5-8.8 2.2-8.8 1.5 0 3.1.6 3.7 1.2zm20.4 3.6c-.3 3.2 3.2 2.6 3.6-.6.3-2 .9-2.2 5.9-2.2 4.6 0 5.4.3 4.9 1.6-.3.9-.6 2-.6 2.4 0 1.8-6.6 8.3-9.7 9.6-3.8 1.6-20.3 1.9-20.3.4 0-.6.5-1 1.1-1 2.4 0 6.8-4.3 8.9-8.6 1.8-3.5 2.7-4.4 4.4-4.2 1.5.2 2 .9 1.8 2.6z"/></svg>