<?xml version="1.0" standalone="no"?>
<!DOCTYPE svg PUBLIC "-//W3C//DTD SVG 20010904//EN"
 "http://www.w3.org/TR/2001/REC-SVG-20010904/DTD/svg10.dtd">
<svg version="1.0" xmlns="http://www.w3.org/2000/svg"
 width="100.000000pt" height="86.000000pt" viewBox="0 0 100.000000 86.000000"
 preserveAspectRatio="xMidYMid meet">
<metadata>
Created by potrace 1.10, written by Peter Selinger 2001-2011
</metadata>
<g transform="translate(0.000000,86.000000) scale(0.100000,-0.100000)"
fill="#000000" stroke="none">
<path d="M436 650 c-24 -22 -58 -68 -77 -102 -28 -53 -34 -73 -34 -128 1 -36
4 -77 8 -92 7 -25 5 -27 -43 -37 -28 -6 -69 -20 -91 -31 -47 -25 -50 -51 -7
-83 24 -18 43 -20 197 -21 94 -1 171 2 171 5 0 4 -7 13 -17 20 -12 11 -50 13
-160 11 -153 -2 -203 7 -166 32 16 12 106 35 249 66 28 6 63 8 78 4 35 -8 86
13 86 37 0 13 -7 19 -21 19 -18 0 -20 4 -14 33 4 17 9 41 12 52 6 20 6 20 14
0 5 -15 8 -8 8 23 1 37 -4 49 -30 73 -25 23 -28 31 -20 48 29 54 -5 111 -66
111 -25 0 -44 -10 -77 -40z m124 -170 c0 -5 -5 -10 -11 -10 -5 0 -7 5 -4 10 3
6 8 10 11 10 2 0 4 -4 4 -10z"/>
</g>
</svg>
