<svg version="1" xmlns="http://www.w3.org/2000/svg" width="100pt" height="86pt" viewBox="0 0 100.000000 86.000000"><path d="M52.5 12.3c-4.1 1.6-10.5 5.7-10.5 6.7 0 1.4-10.2 13.5-12 14.2-1.1.4-2.6 1.8-3.6 3.2-.9 1.5-2.3 2.6-3 2.6-1.6 0-1.9 2.6-.4 3.5.6.3 1 2.3 1 4.3s.7 4.6 1.5 5.6c2.1 2.8 1.9 3.3-1.7 4-2.9.6-3.1.8-1.4 1.8 1 .5 3.6 1.1 5.7 1.2 2.1 0 3.9.3 3.9.6s.9.6 2 .7c1.9.2 2.3-1.6.7-2.8-.5-.4.4-1.6 2.1-2.7 1.6-1.2 3.2-1.9 3.6-1.5.9 1 .7 4.3-.3 4.3-1.5 0-2.2 3-1.1 4.8.8 1.5.9 1.4 1-.6 0-1.2.5-2.2 1.1-2.2.6 0 .8.9.4 2.2-.6 2.2-.6 2.2.9.4.9-1.1 1.6-1.4 1.6-.8 0 .7.5 1.2 1.1 1.2.6 0 1-1 .9-2.3-.4-3.9 0-4.7 1.8-4.7.9 0 3-.7 4.6-1.5 3.9-2.1 6.3-2 4.6 0-1.1 1.3-1 1.8.6 2.9 1.6 1.2 2 1.2 3-.1.9-1.4 1.2-1.4 1.9.3s.8 1.7 1.5-.6c.4-1.4 1.2-2.4 1.9-2.2.7.1 2.7-.7 4.6-1.8 1.8-1.1 3.5-2 3.7-2 .3 0 1.1 1.9 1.8 4.3 1.4 5.3-.2 15.4-3.2 19.2-2 2.6-7.3 4.1-10.7 3-3.1-1-5.4-5-4.7-8 1.4-5.7 10.1-5.4 9.4.3-.2 1.6-.9 2.7-1.8 2.7s-1.4-.7-1.2-1.9c.2-1.1-.1-1.7-1-1.4-.7.3-1.3 1.3-1.3 2.4 0 1.5.7 1.9 3.5 1.9 3.3 0 3.5-.2 3.8-3.6.8-9-12-10.1-14.2-1.3-.4 1.4 0 3.9.9 5.8 3.5 7.4 13.7 8.7 20 2.6 4.5-4.4 5.9-9.9 5.1-20.2-.4-4.6-.7-11.8-.6-16.1.2-10-1.9-16.2-7.1-21.6-4.4-4.4-11.3-8.1-15.1-8-1.3 0-3.7.6-5.3 1.2zM19.8 55.7c.7.3 1.6.2 1.9-.1.4-.3-.2-.6-1.3-.5-1.1 0-1.4.3-.6.6z"/></svg>