<?xml version="1.0" standalone="no"?>
<!DOCTYPE svg PUBLIC "-//W3C//DTD SVG 20010904//EN"
 "http://www.w3.org/TR/2001/REC-SVG-20010904/DTD/svg10.dtd">
<svg version="1.0" xmlns="http://www.w3.org/2000/svg"
 width="100.000000pt" height="86.000000pt" viewBox="0 0 100.000000 86.000000"
 preserveAspectRatio="xMidYMid meet">
<metadata>
Created by potrace 1.10, written by Peter Selinger 2001-2011
</metadata>
<g transform="translate(0.000000,86.000000) scale(0.100000,-0.100000)"
fill="#000000" stroke="none">
<path d="M525 737 c-41 -16 -105 -57 -105 -67 0 -14 -102 -135 -120 -142 -11
-4 -26 -18 -36 -32 -9 -15 -23 -26 -30 -26 -16 0 -19 -26 -4 -35 6 -3 10 -23
10 -43 0 -20 7 -46 15 -56 21 -28 19 -33 -17 -40 -29 -6 -31 -8 -14 -18 10 -5
36 -11 57 -12 21 0 39 -3 39 -6 0 -3 9 -6 20 -7 19 -2 23 16 7 28 -5 4 4 16
21 27 16 12 32 19 36 15 9 -10 7 -43 -3 -43 -15 0 -22 -30 -11 -48 8 -15 9
-14 10 6 0 12 5 22 11 22 6 0 8 -9 4 -22 -6 -22 -6 -22 9 -4 9 11 16 14 16 8
0 -7 5 -12 11 -12 6 0 10 10 9 23 -4 39 0 47 18 47 9 0 30 7 46 15 39 21 63
20 46 0 -11 -13 -10 -18 6 -29 16 -12 20 -12 30 1 9 14 12 14 19 -3 7 -17 8
-17 15 6 4 14 12 24 19 22 7 -1 27 7 46 18 18 11 35 20 37 20 3 0 11 -19 18
-43 14 -53 -2 -154 -32 -192 -20 -26 -73 -41 -107 -30 -31 10 -54 50 -47 80
14 57 101 54 94 -3 -2 -16 -9 -27 -18 -27 -9 0 -14 7 -12 19 2 11 -1 17 -10
14 -7 -3 -13 -13 -13 -24 0 -15 7 -19 35 -19 33 0 35 2 38 36 8 90 -120 101
-142 13 -4 -14 0 -39 9 -58 35 -74 137 -87 200 -26 45 44 59 99 51 202 -4 46
-7 118 -6 161 2 100 -19 162 -71 216 -44 44 -113 81 -151 80 -13 0 -37 -6 -53
-12z"/>
<path d="M198 303 c7 -3 16 -2 19 1 4 3 -2 6 -13 5 -11 0 -14 -3 -6 -6z"/>
</g>
</svg>
