<?xml version="1.0" standalone="no"?>
<!DOCTYPE svg PUBLIC "-//W3C//DTD SVG 20010904//EN"
 "http://www.w3.org/TR/2001/REC-SVG-20010904/DTD/svg10.dtd">
<svg version="1.0" xmlns="http://www.w3.org/2000/svg"
 width="100.000000pt" height="86.000000pt" viewBox="0 0 100.000000 86.000000"
 preserveAspectRatio="xMidYMid meet">
<metadata>
Created by potrace 1.10, written by Peter Selinger 2001-2011
</metadata>
<g transform="translate(0.000000,86.000000) scale(0.100000,-0.100000)"
fill="#000000" stroke="none">
<path d="M596 714 c-11 -28 -6 -58 13 -90 29 -48 14 -55 -99 -48 l-96 7 -36
-32 c-20 -18 -40 -45 -43 -61 -4 -17 -13 -30 -21 -30 -7 0 -21 -11 -30 -25
-23 -35 -6 -73 36 -81 16 -4 30 -12 30 -19 0 -7 7 -16 16 -19 29 -11 189 -5
228 9 26 9 45 11 57 4 23 -12 66 -12 74 1 3 5 -6 17 -20 26 l-25 16 25 24 c14
13 25 34 25 49 0 20 7 28 30 36 25 9 30 16 30 44 0 26 -14 47 -81 119 -81 87
-102 99 -113 70z m-21 -344 c4 -6 -5 -10 -20 -10 -15 0 -24 4 -20 10 3 6 12
10 20 10 8 0 17 -4 20 -10z"/>
</g>
</svg>
