<?xml version="1.0" standalone="no"?>
<!DOCTYPE svg PUBLIC "-//W3C//DTD SVG 20010904//EN"
 "http://www.w3.org/TR/2001/REC-SVG-20010904/DTD/svg10.dtd">
<svg version="1.0" xmlns="http://www.w3.org/2000/svg"
 width="100.000000pt" height="86.000000pt" viewBox="0 0 100.000000 86.000000"
 preserveAspectRatio="xMidYMid meet">
<metadata>
Created by potrace 1.10, written by Peter Selinger 2001-2011
</metadata>
<g transform="translate(0.000000,86.000000) scale(0.100000,-0.100000)"
fill="#000000" stroke="none">
<path d="M330 770 c-61 -11 -80 -27 -80 -66 0 -19 -7 -48 -15 -63 -19 -38 -3
-59 50 -63 37 -3 42 -7 64 -51 26 -54 33 -136 18 -239 -7 -48 -6 -58 6 -58 19
0 27 21 27 70 0 42 29 84 66 94 33 10 63 -31 72 -98 11 -85 27 -64 25 32 -2
81 -2 82 23 82 37 0 51 -39 30 -81 -20 -40 -20 -49 -1 -49 27 0 48 59 41 114
l-6 50 32 -31 c24 -25 32 -42 36 -84 4 -47 6 -50 18 -34 19 25 18 52 -7 145
-11 44 -18 88 -15 98 4 12 -4 27 -22 45 -23 22 -42 29 -112 37 -162 20 -151
16 -144 58 4 28 1 43 -15 63 -24 31 -44 37 -91 29z m60 -80 c0 -5 -4 -10 -10
-10 -5 0 -10 5 -10 10 0 6 5 10 10 10 6 0 10 -4 10 -10z"/>
</g>
</svg>
