<svg version="1" xmlns="http://www.w3.org/2000/svg" width="100pt" height="86pt" viewBox="0 0 100.000000 86.000000"><path d="M33 9c-6.1 1.1-8 2.7-8 6.6 0 1.9-.7 4.8-1.5 6.3-1.9 3.8-.3 5.9 5 6.3 3.7.3 4.2.7 6.4 5.1 2.6 5.4 3.3 13.6 1.8 23.9-.7 4.8-.6 5.8.6 5.8 1.9 0 2.7-2.1 2.7-7 0-4.2 2.9-8.4 6.6-9.4 3.3-1 6.3 3.1 7.2 9.8 1.1 8.5 2.7 6.4 2.5-3.2-.2-8.1-.2-8.2 2.3-8.2 3.7 0 5.1 3.9 3 8.1-2 4-2 4.9-.1 4.9 2.7 0 4.8-5.9 4.1-11.4l-.6-5 3.2 3.1c2.4 2.5 3.2 4.2 3.6 8.4.4 4.7.6 5 1.8 3.4 1.9-2.5 1.8-5.2-.7-14.5-1.1-4.4-1.8-8.8-1.5-9.8.4-1.2-.4-2.7-2.2-4.5-2.3-2.2-4.2-2.9-11.2-3.7-16.2-2-15.1-1.6-14.4-5.8.4-2.8.1-4.3-1.5-6.3-2.4-3.1-4.4-3.7-9.1-2.9zm6 8c0 .5-.4 1-1 1-.5 0-1-.5-1-1 0-.6.5-1 1-1 .6 0 1 .4 1 1z"/></svg>