<svg version="1" xmlns="http://www.w3.org/2000/svg" width="100pt" height="86pt" viewBox="0 0 100.000000 86.000000"><path d="M38.7 27c-4 1.2-5.8 2.9-7.9 7.7-1.3 2.9-1.7 5.4-1.3 7.6.5 2.8.2 3.7-2.5 6-5.3 4.8-3.9 6.1 7 6.8 9 .5 9.9.8 16.1 4.7 7.1 4.5 11.4 5.8 5.8 1.7-9.8-7-11.8-7.8-21.3-8.4l-9.1-.6 2.8-1.9c1.8-1.2 3.1-1.6 3.5-.9.9 1.3 12.7 3.4 14.7 2.7.8-.4 1.2-1 .9-1.5-.3-.5.2-.9 1-.9s1.8.4 2.1 1c.3.5 1.3 1 2.1 1s3.5.9 6 2c3.2 1.5 4.9 1.8 6.2 1.1 1.4-.8 1.2-1.2-2-2.6-4.9-2-4.8-2.9.1-2.1 4.2.6 10.1-.9 10.1-2.7 0-.7-2-2.7-4.5-4.5-2.4-1.8-4.5-4.3-4.7-5.5-.2-1.5-1.1-2.3-2.8-2.5-1.4-.2-4.1-1.9-6-3.7-5.4-5.2-9.9-6.4-16.3-4.5z"/></svg>