<?xml version="1.0" standalone="no"?>
<!DOCTYPE svg PUBLIC "-//W3C//DTD SVG 20010904//EN"
 "http://www.w3.org/TR/2001/REC-SVG-20010904/DTD/svg10.dtd">
<svg version="1.0" xmlns="http://www.w3.org/2000/svg"
 width="100.000000pt" height="86.000000pt" viewBox="0 0 100.000000 86.000000"
 preserveAspectRatio="xMidYMid meet">
<metadata>
Created by potrace 1.10, written by Peter Selinger 2001-2011
</metadata>
<g transform="translate(0.000000,86.000000) scale(0.100000,-0.100000)"
fill="#000000" stroke="none">
<path d="M523 616 c-25 -29 -35 -34 -93 -40 -80 -8 -190 -56 -190 -83 0 -44
48 -83 115 -93 37 -5 40 -8 37 -34 l-3 -28 28 20 c15 10 54 23 85 26 53 7 60
5 110 -27 95 -61 107 -64 60 -15 -49 51 -50 81 -1 71 21 -4 30 -1 35 11 8 21
21 20 66 -3 l36 -20 -5 39 c-4 27 0 47 11 64 33 51 19 58 -39 21 -54 -35 -88
-44 -100 -25 -3 5 -25 18 -49 29 -52 22 -57 29 -59 81 -1 22 -4 40 -8 40 -4 0
-20 -15 -36 -34z"/>
</g>
</svg>
