<?xml version="1.0" standalone="no"?>
<!DOCTYPE svg PUBLIC "-//W3C//DTD SVG 20010904//EN"
 "http://www.w3.org/TR/2001/REC-SVG-20010904/DTD/svg10.dtd">
<svg version="1.0" xmlns="http://www.w3.org/2000/svg"
 width="100.000000pt" height="86.000000pt" viewBox="0 0 100.000000 86.000000"
 preserveAspectRatio="xMidYMid meet">
<metadata>
Created by potrace 1.10, written by Peter Selinger 2001-2011
</metadata>
<g transform="translate(0.000000,86.000000) scale(0.100000,-0.100000)"
fill="#000000" stroke="none">
<path d="M445 619 c-82 -5 -154 -9 -160 -10 -5 0 -37 2 -70 6 -52 6 -66 4
-104 -17 -53 -28 -97 -80 -106 -125 -8 -41 12 -45 21 -5 10 39 37 75 83 107
35 24 48 27 89 22 84 -10 102 -21 102 -65 0 -35 -3 -39 -37 -51 -62 -23 -83
-41 -83 -72 0 -15 5 -31 11 -35 8 -4 9 0 4 15 -5 16 -1 23 17 29 26 10 119 41
131 45 5 1 18 -28 29 -65 l20 -66 47 -5 c25 -3 56 -7 68 -9 12 -2 22 1 23 7 0
5 -8 10 -18 10 -27 0 -18 97 12 142 27 39 27 39 50 -34 18 -55 63 -103 96
-103 33 0 32 19 -2 28 -27 7 -36 17 -50 53 -9 24 -17 62 -17 85 l-1 41 55 12
c30 7 55 16 55 19 0 4 -7 18 -16 30 -17 25 -2 24 -249 11z m12 -99 c24 0 25
-2 19 -37 -4 -21 -10 -58 -14 -82 -11 -70 -29 -61 -42 21 -6 40 -14 82 -17 92
-4 15 -1 18 12 13 9 -4 28 -7 42 -7z"/>
</g>
</svg>
