<svg version="1" xmlns="http://www.w3.org/2000/svg" width="100pt" height="86pt" viewBox="0 0 100.000000 86.000000"><path d="M37.7 19.1c-2.7 1.6-4.7 3.5-4.5 4.2.2.7 2 2 3.8 2.9 4.3 2.2 7.1 7.3 5.9 10.6-1.2 3.1-1.1 7.5.1 6.7.6-.3.7.1.4.9-.4.9.1 1.8 1 2.2.9.3 1.6 1.2 1.6 2 0 1.8 2.1 5.5 4 7.1 1.3 1.1 1.2 1.2-.7 1.3-1.3 0-2.3.4-2.3 1 0 .5.9 1 1.9 1 1.2 0 2.9-1.7 4.5-4.5 1.5-2.5 3.4-4.5 4.4-4.5.9 0 3.8-2.1 6.4-4.7 3.3-3.2 5.6-4.7 7.5-4.8 3.4 0 4.1-2.6 1.9-6-1.3-1.9-2.5-2.5-5.4-2.5-4.2 0-6.3 1.7-10.1 8-2 3.4-2.1 3.4-2.1.9 0-5.3-2.9-12.1-7.2-16.8-2.4-2.6-4.7-5.5-5.3-6.4-.9-1.5-1.5-1.4-5.8 1.4z"/></svg>