<?xml version="1.0" standalone="no"?>
<!DOCTYPE svg PUBLIC "-//W3C//DTD SVG 20010904//EN"
 "http://www.w3.org/TR/2001/REC-SVG-20010904/DTD/svg10.dtd">
<svg version="1.0" xmlns="http://www.w3.org/2000/svg"
 width="100.000000pt" height="86.000000pt" viewBox="0 0 100.000000 86.000000"
 preserveAspectRatio="xMidYMid meet">
<metadata>
Created by potrace 1.10, written by Peter Selinger 2001-2011
</metadata>
<g transform="translate(0.000000,86.000000) scale(0.100000,-0.100000)"
fill="#000000" stroke="none">
<path d="M452 718 c-16 -21 -23 -56 -12 -63 20 -12 11 -44 -15 -51 -18 -4 -27
-16 -34 -43 -6 -20 -16 -58 -23 -85 -7 -27 -23 -56 -34 -65 -28 -22 -27 -65 1
-69 20 -3 31 15 82 133 13 28 13 28 7 -20 -3 -27 -6 -128 -6 -225 0 -153 2
-175 16 -178 20 -4 21 -1 36 143 6 66 15 126 19 133 4 7 13 -47 20 -120 15
-156 16 -158 36 -158 15 0 16 20 12 193 -2 105 -7 206 -11 222 -3 17 -3 23 0
15 4 -8 19 -33 33 -55 15 -22 32 -49 37 -60 6 -11 19 -21 28 -23 12 -3 16 4
16 31 0 21 -6 37 -15 40 -19 8 -50 72 -60 122 -8 47 -20 64 -53 76 -18 7 -22
14 -16 27 8 20 9 55 0 77 -7 18 -50 20 -64 3z"/>
</g>
</svg>
