<svg version="1" xmlns="http://www.w3.org/2000/svg" width="100pt" height="86pt" viewBox="0 0 100.000000 86.000000"><path d="M34.6 10.9c-.9 1-1.9 3.5-2.3 5.4-.5 3.2-.2 3.8 2.1 4.8 1.7.8 2.5 1.8 2.2 2.8-.3.9-1 3.7-1.5 6.3-.6 2.5-2 6.2-3.2 8.2-2.6 4.5-4.2 14.6-2.2 14.6.8 0 1.3-1.1 1.3-2.8 0-1.7.9-3.7 2.1-4.8 1.2-1 3-3.6 4.1-5.7 1.1-2.2 2.2-3.7 2.4-3.4.3.3-.1 1.6-1 2.9-2.2 3.4-4.2 9.6-5.1 15.6-.6 4.8-.5 5.2 1.4 5.2 2.1 0 3.9-3.9 2.7-5.9-.4-.6.8-3 2.7-5.4 1.8-2.4 3.9-5.8 4.6-7.5 2.4-5.9 8.6-3.6 11.5 4.3.5 1.4.1 2.4-1.6 3.7l-2.3 1.8h3c3.9 0 6-1.4 5.2-3.4-.4-.9-.3-1.6.2-1.6 1.9 0 1.9 4 0 5-3.1 1.7-2.2 3.1 1.9 2.8l3.7-.3-.4-4.5c-.1-2.5-.7-5-1.2-5.6-.4-.6-1.2-3.7-1.5-6.9-.8-6.6-3.6-10.5-7.6-10.5-1.6 0-2.7-.9-3.6-3-.7-1.6-2.8-3.9-4.7-5-1.8-1.1-4.3-3.6-5.4-5.5-2.3-3.9-4.9-4.5-7.5-1.6z"/></svg>