<?xml version="1.0" standalone="no"?>
<!DOCTYPE svg PUBLIC "-//W3C//DTD SVG 20010904//EN"
 "http://www.w3.org/TR/2001/REC-SVG-20010904/DTD/svg10.dtd">
<svg version="1.0" xmlns="http://www.w3.org/2000/svg"
 width="100.000000pt" height="86.000000pt" viewBox="0 0 100.000000 86.000000"
 preserveAspectRatio="xMidYMid meet">
<metadata>
Created by potrace 1.10, written by Peter Selinger 2001-2011
</metadata>
<g transform="translate(0.000000,86.000000) scale(0.100000,-0.100000)"
fill="#000000" stroke="none">
<path d="M491 563 c-20 -26 -22 -27 -35 -10 -7 9 -21 17 -30 17 -18 0 -22 -30
-5 -47 17 -17 2 -33 -30 -33 -16 0 -45 -7 -64 -15 -20 -8 -52 -15 -72 -15 -19
0 -35 -5 -35 -11 0 -6 -11 -25 -24 -42 -57 -76 -96 -197 -64 -197 8 0 23 9 33
20 10 11 27 20 37 20 10 0 31 11 46 25 17 16 39 25 58 25 26 0 39 9 70 48 21
26 43 50 49 54 16 12 125 9 125 -2 0 -6 19 -31 41 -55 28 -31 50 -45 67 -45
14 0 40 -11 58 -25 18 -14 39 -25 46 -25 8 0 31 -9 52 -20 l38 -19 -6 31 c-9
48 -52 135 -87 179 -25 32 -37 39 -65 39 -18 0 -51 6 -71 14 -21 8 -55 17 -76
21 -38 6 -38 7 -22 25 12 13 15 28 11 45 -8 32 -19 32 -45 -2z"/>
</g>
</svg>
