<svg version="1" xmlns="http://www.w3.org/2000/svg" width="100pt" height="86pt" viewBox="0 0 100.000000 86.000000"><path d="M21.8 23.6c-1.5.8-3.5 2.8-4.4 4.5-1.4 2.8-1.4 3.3.1 5.6 1.5 2.2 1.5 2.6.1 4.2-1.7 1.8-2.1 4.1-.8 4.1.4-.1 1.8-.7 3.2-1.5 3.8-2.2 5.7-1.9 3.6.4-1.1 1.3-1.5 2.7-1.1 4 .8 2.8 4.5 2.8 4.5.1 0-3.4 3.3-2.3 9.6 3.1 7.3 6.4 7.8 7.4 3 6.5-4.5-.9-7.7 1.4-5.5 4 1 1.2 2.5 1.4 7.1.9 4-.5 5.8-.3 5.8.4 0 .6-1.5 1.1-3.3 1.1-2.2 0-3.6.7-4.5 2.1-1.5 2.4-1.6 2.3 2.3 3.6 2.4.8 3.5.7 5.5-.7 4.1-2.7 15.1-6.1 21.5-6.5 11.4-.7 16.4-3.7 8.3-5-11.7-1.8-10.6-1-10.5-7.3 0-9.1-3.4-13.8-14-19.1-5.1-2.5-19.4-6.1-24.3-6.1-1.9.1-4.7.7-6.2 1.6z"/></svg>