<svg version="1" xmlns="http://www.w3.org/2000/svg" width="100pt" height="86pt" viewBox="0 0 100.000000 86.000000"><path d="M75.3 22.1c-4.3 2.2-23 3.4-29.8 1.9-10.2-2.2-14.3-2.4-17.1-.5-2.5 1.6-2.6 2-2 8.1.4 4.1.2 8-.5 10.5-1 3.1-1 4.2 0 5.2.9.9 1.4.9 2.2-.3.6-1.1.8-.2.7 3-.3 4.2-.1 4.5 2.2 4.6 1.4 0 3.5.4 4.8.8 3.3 1.1 3.8.1 1.3-3-2.7-3.4-2.8-6.6-.3-6.2 1.1.2 2.5-.2 3.3-.7.8-.6 5-.9 9.7-.7 7.7.3 8.2.5 8.2 2.5 0 1.2-.7 3.1-1.5 4.1-2.2 2.9-1.8 4.6 1.1 4.6 2 0 2.4-.4 1.9-1.9-.3-1.1.1-2.6 1.2-3.7 1.7-1.7 1.8-1.6 2.1 1.9.2 2.6.9 3.8 2.3 4.2 2.7.9 3.3.1 2-2.3-1.7-3.2-1.3-7 .8-8.2 1.1-.5 2.4-2.5 3.1-4.4 1.5-4.8 3.4-6 9.9-6.6 6.9-.6 7.6-2.5 3.2-7.6-1.7-1.9-3.1-4.1-3.1-4.8 0-2.2-2.2-2.4-5.7-.5zm-46.6 14.6c-.3 1-.5.4-.5-1.2 0-1.7.2-2.4.5-1.8.2.7.2 2.1 0 3zm4.3 15.4c0 1.1-.4 1.7-1 1.4-.5-.3-1-1.3-1-2.1s.5-1.4 1-1.4c.6 0 1 .9 1 2.1z"/></svg>