<svg version="1" xmlns="http://www.w3.org/2000/svg" width="100pt" height="86pt" viewBox="0 0 100.000000 86.000000"><path d="M21 15.5c0 1.3 1.4 4.4 3.1 6.9 2.5 3.4 3.1 5.4 3.1 8.8-.1 3.9.1 4.4 2 4.4 1.8-.1 2.3.7 3 4.2.4 2.3 1 4.7 1.3 5.2 1.1 1.8 2.5 1 2.5-1.4 0-1.4.5-2.8 1-3.1 1.2-.7 8.9 3.5 21.8 11.8 8.8 5.8 9.2 6.2 8.7 9.1-.4 1.9-.1 3.8.8 5 1.3 1.7 1.5 1.7 3.8-1.1 1.6-1.9 3.9-3.3 6.1-3.7 4.3-.8 6.7-3 4.2-4-.8-.3-3.3-.6-5.5-.6-3.5 0-4.6-.7-9.7-5.9-5.7-5.7-12.8-17.2-11.5-18.5.3-.3 1.5-.6 2.5-.6s1.8-.4 1.8-.8c0-1.2-4.6-3.2-7.4-3.2-1.3 0-2.6-.6-2.9-1.4-1.1-2.7-14-10.6-17.3-10.6-1.8 0-4.5-.7-6-1.5-4.1-2.1-5.4-1.9-5.4 1z"/></svg>