<svg version="1" xmlns="http://www.w3.org/2000/svg" width="100pt" height="86pt" viewBox="0 0 100.000000 86.000000"><path d="M53 18.5c-1.6.9-5.6 1.4-11.5 1.5-10.9 0-14.7 1.7-18.8 8.1-2.4 4-2.8 5.8-3.6 17.6-.8 13.2-.6 18.7.9 17.8.4-.3.7-2.2.5-4.2-.1-2.1 0-4.9.3-6.2l.5-2.5 1 2.5c.5 1.3 1.2 5.3 1.6 8.9l.6 6.5h7l.5-6.5c.5-6.6 1.2-6.2 2.5 1.2.6 3.6.8 3.8 4.2 3.8h3.6l-.7-5.3c-.3-2.8-.9-6.4-1.2-7.8-.5-2.4-.3-2.7 3.2-3.4 3-.5 4.1-.3 5.1 1.1 1.7 2.4 1.6 5.5-.2 8.2-1.4 1.9-1.4 2.5.1 5.4 2 4 3.1 4.8 6.7 4.8 2.7 0 2.7 0 2.7-6.9 0-3.8.7-8.4 1.5-10.4s1.5-5 1.5-6.6c0-3 1.4-4.1 5.4-4.1 3.9 0 5.8 3.4 7.2 12.8 1.9 12.7 2.1 13.2 4.9 13.2 3.2 0 4.1-1.7 2.1-3.9-1.1-1.2-1.6-3.7-1.6-8.2 0-6.3.1-6.5 3.3-7.8l3.2-1.4-2.9-.4c-2.2-.4-2.6-.7-1.5-1.4 1.2-.8 1-1.2-.8-2.7-1.3-1-2.4-3.4-2.8-6.2-.9-5.5-3.9-12.2-6.6-14.6-2.1-1.9-9.7-4.3-13.4-4.3-1.1 0-3.1.6-4.5 1.4z"/></svg>