<svg version="1" xmlns="http://www.w3.org/2000/svg" width="100pt" height="86pt" viewBox="0 0 100.000000 86.000000"><path d="M45.2 14.2c-1.6 2.1-2.3 5.6-1.2 6.3 2 1.2 1.1 4.4-1.5 5.1-1.8.4-2.7 1.6-3.4 4.3-.6 2-1.6 5.8-2.3 8.5-.7 2.7-2.3 5.6-3.4 6.5-2.8 2.2-2.7 6.5.1 6.9 2 .3 3.1-1.5 8.2-13.3 1.3-2.8 1.3-2.8.7 2-.3 2.7-.6 12.8-.6 22.5 0 15.3.2 17.5 1.6 17.8 2 .4 2.1.1 3.6-14.3.6-6.6 1.5-12.6 1.9-13.3.4-.7 1.3 4.7 2 12 1.5 15.6 1.6 15.8 3.6 15.8 1.5 0 1.6-2 1.2-19.3-.2-10.5-.7-20.6-1.1-22.2-.3-1.7-.3-2.3 0-1.5.4.8 1.9 3.3 3.3 5.5 1.5 2.2 3.2 4.9 3.7 6 .6 1.1 1.9 2.1 2.8 2.3 1.2.3 1.6-.4 1.6-3.1 0-2.1-.6-3.7-1.5-4-1.9-.8-5-7.2-6-12.2-.8-4.7-2-6.4-5.3-7.6-1.8-.7-2.2-1.4-1.6-2.7.8-2 .9-5.5 0-7.7-.7-1.8-5-2-6.4-.3z"/></svg>