<svg version="1" xmlns="http://www.w3.org/2000/svg" width="100pt" height="86pt" viewBox="0 0 100.000000 86.000000"><path d="M43.6 21c-2.4 2.2-5.8 6.8-7.7 10.2-2.8 5.3-3.4 7.3-3.4 12.8.1 3.6.4 7.7.8 9.2.7 2.5.5 2.7-4.3 3.7-2.8.6-6.9 2-9.1 3.1-4.7 2.5-5 5.1-.7 8.3 2.4 1.8 4.3 2 19.7 2.1 9.4.1 17.1-.2 17.1-.5 0-.4-.7-1.3-1.7-2-1.2-1.1-5-1.3-16-1.1-15.3.2-20.3-.7-16.6-3.2 1.6-1.2 10.6-3.5 24.9-6.6 2.8-.6 6.3-.8 7.8-.4 3.5.8 8.6-1.3 8.6-3.7 0-1.3-.7-1.9-2.1-1.9-1.8 0-2-.4-1.4-3.3.4-1.7.9-4.1 1.2-5.2.6-2 .6-2 1.4 0 .5 1.5.8.8.8-2.3.1-3.7-.4-4.9-3-7.3-2.5-2.3-2.8-3.1-2-4.8 2.9-5.4-.5-11.1-6.6-11.1-2.5 0-4.4 1-7.7 4zm12.4 17c0 .5-.5 1-1.1 1-.5 0-.7-.5-.4-1 .3-.6.8-1 1.1-1 .2 0 .4.4.4 1z"/></svg>