<svg version="1" xmlns="http://www.w3.org/2000/svg" width="100pt" height="86pt" viewBox="0 0 100.000000 86.000000"><path d="M59.6 14.6c-1.1 2.8-.6 5.8 1.3 9 2.9 4.8 1.4 5.5-9.9 4.8l-9.6-.7-3.6 3.2c-2 1.8-4 4.5-4.3 6.1-.4 1.7-1.3 3-2.1 3-.7 0-2.1 1.1-3 2.5-2.3 3.5-.6 7.3 3.6 8.1 1.6.4 3 1.2 3 1.9s.7 1.6 1.6 1.9c2.9 1.1 18.9.5 22.8-.9 2.6-.9 4.5-1.1 5.7-.4 2.3 1.2 6.6 1.2 7.4-.1.3-.5-.6-1.7-2-2.6l-2.5-1.6 2.5-2.4c1.4-1.3 2.5-3.4 2.5-4.9 0-2 .7-2.8 3-3.6 2.5-.9 3-1.6 3-4.4 0-2.6-1.4-4.7-8.1-11.9-8.1-8.7-10.2-9.9-11.3-7zm-2.1 34.4c.4.6-.5 1-2 1s-2.4-.4-2-1c.3-.6 1.2-1 2-1s1.7.4 2 1z"/></svg>