<?xml version="1.0" standalone="no"?>
<!DOCTYPE svg PUBLIC "-//W3C//DTD SVG 20010904//EN"
 "http://www.w3.org/TR/2001/REC-SVG-20010904/DTD/svg10.dtd">
<svg version="1.0" xmlns="http://www.w3.org/2000/svg"
 width="100.000000pt" height="86.000000pt" viewBox="0 0 100.000000 86.000000"
 preserveAspectRatio="xMidYMid meet">
<metadata>
Created by potrace 1.10, written by Peter Selinger 2001-2011
</metadata>
<g transform="translate(0.000000,86.000000) scale(0.100000,-0.100000)"
fill="#000000" stroke="none">
<path d="M387 590 c-40 -12 -58 -29 -79 -77 -13 -29 -17 -54 -13 -76 5 -28 2
-37 -25 -60 -53 -48 -39 -61 70 -68 90 -5 99 -8 161 -47 71 -45 114 -58 58
-17 -98 70 -118 78 -213 84 l-91 6 28 19 c18 12 31 16 35 9 9 -13 127 -34 147
-27 8 4 12 10 9 15 -3 5 2 9 10 9 8 0 18 -4 21 -10 3 -5 13 -10 21 -10 8 0 35
-9 60 -20 32 -15 49 -18 62 -11 14 8 12 12 -20 26 -49 20 -48 29 1 21 42 -6
101 9 101 27 0 7 -20 27 -45 45 -24 18 -45 43 -47 55 -2 15 -11 23 -28 25 -14
2 -41 19 -60 37 -54 52 -99 64 -163 45z"/>
</g>
</svg>
