<svg version="1" xmlns="http://www.w3.org/2000/svg" width="100pt" height="86pt" viewBox="0 0 100.000000 86.000000"><path d="M52.3 24.4c-2.5 2.9-3.5 3.4-9.3 4-8 .8-19 5.6-19 8.3 0 4.4 4.8 8.3 11.5 9.3 3.7.5 4 .8 3.7 3.4l-.3 2.8 2.8-2c1.5-1 5.4-2.3 8.5-2.6 5.3-.7 6-.5 11 2.7 9.5 6.1 10.7 6.4 6 1.5-4.9-5.1-5-8.1-.1-7.1 2.1.4 3 .1 3.5-1.1.8-2.1 2.1-2 6.6.3l3.6 2-.5-3.9c-.4-2.7 0-4.7 1.1-6.4 3.3-5.1 1.9-5.8-3.9-2.1-5.4 3.5-8.8 4.4-10 2.5-.3-.5-2.5-1.8-4.9-2.9-5.2-2.2-5.7-2.9-5.9-8.1-.1-2.2-.4-4-.8-4s-2 1.5-3.6 3.4z"/></svg>