<svg version="1" xmlns="http://www.w3.org/2000/svg" width="100pt" height="86pt" viewBox="0 0 100.000000 86.000000"><path d="M44.5 24.1c-8.2.5-15.4.9-16 1-.5 0-3.7-.2-7-.6-5.2-.6-6.6-.4-10.4 1.7-5.3 2.8-9.7 8-10.6 12.5-.8 4.1 1.2 4.5 2.1.5 1-3.9 3.7-7.5 8.3-10.7 3.5-2.4 4.8-2.7 8.9-2.2 8.4 1 10.2 2.1 10.2 6.5 0 3.5-.3 3.9-3.7 5.1-6.2 2.3-8.3 4.1-8.3 7.2 0 1.5.5 3.1 1.1 3.5.8.4.9 0 .4-1.5-.5-1.6-.1-2.3 1.7-2.9 2.6-1 11.9-4.1 13.1-4.5.5-.1 1.8 2.8 2.9 6.5l2 6.6 4.7.5c2.5.3 5.6.7 6.8.9 1.2.2 2.2-.1 2.3-.7 0-.5-.8-1-1.8-1-2.7 0-1.8-9.7 1.2-14.2 2.7-3.9 2.7-3.9 5 3.4 1.8 5.5 6.3 10.3 9.6 10.3s3.2-1.9-.2-2.8c-2.7-.7-3.6-1.7-5-5.3-.9-2.4-1.7-6.2-1.7-8.5l-.1-4.1 5.5-1.2c3-.7 5.5-1.6 5.5-1.9 0-.4-.7-1.8-1.6-3-1.7-2.5-.2-2.4-24.9-1.1zm1.2 9.9c2.4 0 2.5.2 1.9 3.7-.4 2.1-1 5.8-1.4 8.2-1.1 7-2.9 6.1-4.2-2.1-.6-4-1.4-8.2-1.7-9.2-.4-1.5-.1-1.8 1.2-1.3.9.4 2.8.7 4.2.7z"/></svg>