<?xml version="1.0" standalone="no"?>
<!DOCTYPE svg PUBLIC "-//W3C//DTD SVG 20010904//EN"
 "http://www.w3.org/TR/2001/REC-SVG-20010904/DTD/svg10.dtd">
<svg version="1.0" xmlns="http://www.w3.org/2000/svg"
 width="100.000000pt" height="86.000000pt" viewBox="0 0 100.000000 86.000000"
 preserveAspectRatio="xMidYMid meet">
<metadata>
Created by potrace 1.10, written by Peter Selinger 2001-2011
</metadata>
<g transform="translate(0.000000,86.000000) scale(0.100000,-0.100000)"
fill="#000000" stroke="none">
<path d="M377 669 c-27 -16 -47 -35 -45 -42 2 -7 20 -20 38 -29 43 -22 71 -73
59 -106 -12 -31 -11 -75 1 -67 6 3 7 -1 4 -9 -4 -9 1 -18 10 -22 9 -3 16 -12
16 -20 0 -18 21 -55 40 -71 13 -11 12 -12 -7 -13 -13 0 -23 -4 -23 -10 0 -5 9
-10 19 -10 12 0 29 17 45 45 15 25 34 45 44 45 9 0 38 21 64 47 33 32 56 47
75 48 34 0 41 26 19 60 -13 19 -25 25 -54 25 -42 0 -63 -17 -101 -80 -20 -34
-21 -34 -21 -9 0 53 -29 121 -72 168 -24 26 -47 55 -53 64 -9 15 -15 14 -58
-14z"/>
</g>
</svg>
