<svg xmlns="http://www.w3.org/2000/svg" width="800" height="400" viewBox="0 0 800 400"><path fill="#8CBCD4" d="M-.447-251.3h800v800h-800z"/><path fill="#7EB2CC" d="M-.447-138.288h799.85v.221h-799.85zM-.447-145.927h799.85v.221h-799.85zM-.447-153.565h799.85v.221h-799.85zM-.446-161.206h799.849v.221h-799.849zM-.446-168.845h799.849v.221h-799.849zM-.446-176.483h799.849v.221h-799.849zM-.448-100.369h799.85v.221h-799.85zM-.448-108.008h799.85v.221h-799.85zM-.448-115.646h799.85v.221h-799.85zM-.447-123.287h799.849v.221h-799.849zM-.447-130.926h799.849v.221h-799.849zM-.447-138.564h799.849v.221h-799.849zM-.448-62.487h799.85v.221h-799.85zM-.448-70.126h799.85v.221h-799.85zM-.448-77.765h799.85v.221h-799.85zM-.447-85.405h799.849v.221h-799.849zM-.447-93.044h799.849v.221h-799.849zM-.447-100.683h799.849v.221h-799.849zM-.448-24.604h799.85v.221h-799.85zM-.448-32.243h799.85v.221h-799.85zM-.448-39.882h799.85v.221h-799.85zM-.447-47.522h799.849v.221h-799.849zM-.447-55.161h799.849v.221h-799.849zM-.447-62.8h799.849v.221h-799.849zM-.448 13.277h799.85v.221h-799.85zM-.448 5.639h799.85v.221h-799.85zM-.448-2h799.85v.221h-799.85zM-.447-9.641h799.849v.221h-799.849zM-.447-17.279h799.849v.221h-799.849zM-.447-24.918h799.849v.221h-799.849zM-.448 51.159h799.851v.221h-799.851zM-.448 43.521h799.851v.221h-799.851zM-.448 35.882h799.851v.221h-799.851zM-.447 28.241h799.85v.221h-799.85zM-.447 20.603h799.85v.221h-799.85zM-.447 12.964h799.85v.221h-799.85zM-.448 89.042h799.851v.221h-799.851zM-.448 81.403h799.851v.221h-799.851zM-.448 73.765h799.851v.221h-799.851zM-.447 66.124h799.85v.221h-799.85zM-.447 58.485h799.85v.221h-799.85zM-.447 50.847h799.85v.221h-799.85zM-.448 126.924h799.851v.221h-799.851zM-.448 119.285h799.851v.221h-799.851zM-.448 111.646h799.851v.221h-799.851zM-.447 104.006h799.85v.221h-799.85zM-.447 96.367h799.85v.221h-799.85zM-.447 88.729h799.85v.221h-799.85zM-.448 164.807h799.851v.221h-799.851zM-.448 157.168h799.851v.221h-799.851zM-.448 149.529h799.851v.221h-799.851zM-.447 141.889h799.85v.221h-799.85zM-.447 134.25h799.85v.221h-799.85zM-.447 126.611h799.85v.221h-799.85zM-.448 202.688h799.851v.221h-799.851zM-.448 195.05h799.851v.221h-799.851zM-.448 187.411h799.851v.221h-799.851zM-.447 179.771h799.85v.221h-799.85zM-.447 172.132h799.85v.221h-799.85zM-.447 164.493h799.85v.221h-799.85zM-.448 240.57h799.851v.221h-799.851zM-.448 232.932h799.851v.221h-799.851zM-.448 225.293h799.851v.221h-799.851zM-.447 217.652h799.85v.221h-799.85zM-.447 210.014h799.85v.221h-799.85zM-.447 202.375h799.85v.221h-799.85zM-.448 278.453h799.851v.221h-799.851zM-.448 270.814h799.851v.221h-799.851zM-.448 263.176h799.851v.221h-799.851zM-.447 255.535h799.85v.221h-799.85zM-.447 247.896h799.85v.221h-799.85zM-.447 240.258h799.85v.221h-799.85zM-.448 316.334h799.851v.221h-799.851zM-.448 308.695h799.851v.221h-799.851zM-.448 301.057h799.851v.221h-799.851zM-.447 293.416h799.85v.221h-799.85zM-.447 285.777h799.85v.221h-799.85zM-.447 278.139h799.85v.221h-799.85zM-.448 354.217h799.851v.221h-799.851zM-.448 346.578h799.851v.221h-799.851zM-.448 338.939h799.851v.221h-799.851zM-.447 331.299h799.85v.221h-799.85zM-.447 323.66h799.85v.221h-799.85zM-.447 316.021h799.85v.221h-799.85zM-.448 392.099h799.851v.221h-799.851zM-.448 384.46h799.851v.221h-799.851zM-.448 376.821h799.851v.221h-799.851zM-.447 369.181h799.85v.221h-799.85zM-.447 361.542h799.85v.221h-799.85zM-.447 353.903h799.85v.221h-799.85zM-.448 429.981h799.851v.221h-799.851zM-.448 422.343h799.851v.221h-799.851zM-.448 414.704h799.851v.221h-799.851zM-.447 407.063h799.85v.221h-799.85zM-.447 399.425h799.85v.221h-799.85zM-.447 391.786h799.85v.221h-799.85zM-.448 467.863h799.851v.221h-799.851zM-.448 460.225h799.851v.221h-799.851zM-.448 452.586h799.851v.221h-799.851zM-.447 444.945h799.85v.221h-799.85zM-.447 437.307h799.85v.221h-799.85zM-.447 429.668h799.85v.221h-799.85zM-.448 505.746h799.851v.221h-799.851zM-.448 498.107h799.851v.221h-799.851zM-.448 490.469h799.851v.221h-799.851zM-.447 482.828h799.85v.221h-799.85zM-.447 475.189h799.85v.221h-799.85zM-.447 467.551h799.85v.221h-799.85zM-.449 543.941h799.852v.221h-799.852zM-.449 536.303h799.852v.221h-799.852zM-.449 528.664h799.852v.221h-799.852zM-.448 521.023h799.851v.221h-799.851zM-.448 513.385h799.851v.221h-799.851zM-.448 505.746h799.851v.221h-799.851zM-.447-214.329h800v.497h-800zM-.447-176.447h800v.498h-800zM-.447-138.564h800v.497h-800zM-.447-100.683h800v.498h-800zM-.447-62.8h800v.497h-800zM-.447-24.918h800v.497h-800zM-.447 12.964h800v.498h-800zM-.447 50.847h800v.496h-800zM-.447 88.729h800v.497h-800zM-.447 126.611h800v.497h-800zM-.447 164.493h800v.497h-800zM-.447 202.375h800v.497h-800zM-.447 240.258h800v.497h-800zM-.447 278.139h800v.498h-800zM-.447 316.021h800v.497h-800zM-.447 353.903h800v.497h-800zM-.447 391.786h800v.497h-800zM-.447 429.668h800v.497h-800zM-.447 467.551h800v.497h-800zM-.447 505.432h800v.498h-800zM769.493-251.3h.5v799.85h-.5zM731.02-251.3h.5v799.85h-.5zM692.546-251.3h.5v799.85h-.5zM654.073-251.3h.5v799.85h-.5zM615.6-251.3h.5v799.85h-.5zM577.127-251.3h.5v799.85h-.5zM538.653-251.3h.5v799.85h-.5zM500.18-251.3h.5v799.85h-.5zM461.707-251.3h.5v799.85h-.5zM423.233-251.3h.5v799.85h-.5zM384.76-251.3h.5v799.85h-.5zM346.287-251.3h.5v799.85h-.5zM307.813-251.3h.5v799.85h-.5zM269.34-251.3h.5v799.85h-.5zM230.867-251.3h.5v799.85h-.5zM192.394-251.3h.5v799.85h-.5zM153.92-251.3h.5v799.85h-.5zM115.447-251.3h.5v799.85h-.5zM76.974-251.3h.5v799.85h-.5zM38.501-251.3h.5v799.85h-.5zM769.493-251.3h.221v799.849h-.221zM761.854-251.3h.221v799.849h-.221zM754.216-251.3h.221v799.849h-.221zM746.576-251.3h.221v799.848h-.221zM738.938-251.3h.221v799.848h-.221zM731.299-251.3h.221v799.848h-.221zM731.02-251.3h.221v799.848h-.221zM723.381-251.3h.221v799.848h-.221zM715.742-251.3h.221v799.848h-.221zM708.103-251.3h.221v799.848h-.221zM700.464-251.3h.221v799.848h-.221zM692.825-251.3h.221v799.848h-.221zM692.547-251.3h.221v799.848h-.221zM684.908-251.3h.221v799.848h-.221zM677.27-251.3h.221v799.848h-.221zM669.63-251.3h.221v799.848h-.221zM661.991-251.3h.221v799.848h-.221zM654.353-251.3h.221v799.848h-.221zM654.073-251.3h.221v799.849h-.221zM646.435-251.3h.221v799.849h-.221zM638.796-251.3h.221v799.849h-.221zM631.156-251.3h.221v799.848h-.221zM623.518-251.3h.221v799.848h-.221zM615.879-251.3h.221v799.848h-.221zM615.6-251.3h.221v799.848h-.221zM607.961-251.3h.221v799.848h-.221zM600.322-251.3h.221v799.848h-.221zM592.683-251.3h.221v799.848h-.221zM585.044-251.3h.221v799.848h-.221zM577.405-251.3h.221v799.848h-.221zM577.127-251.3h.221v799.848h-.221zM569.488-251.3h.221v799.848h-.221zM561.85-251.3h.221v799.848h-.221zM554.21-251.3h.221v799.848h-.221zM546.571-251.3h.221v799.848h-.221zM538.933-251.3h.221v799.848h-.221zM538.653-251.3h.221v799.848h-.221zM531.015-251.3h.221v799.848h-.221zM523.376-251.3h.221v799.848h-.221zM515.736-251.3h.221v799.848h-.221zM508.098-251.3h.221v799.848h-.221zM500.459-251.3h.221v799.848h-.221zM500.18-251.3h.221v799.848h-.221zM492.541-251.3h.221v799.848h-.221zM484.902-251.3h.221v799.848h-.221zM477.263-251.3h.221v799.848h-.221zM469.624-251.3h.221v799.848h-.221zM461.985-251.3h.221v799.848h-.221zM461.707-251.3h.221v799.848h-.221zM454.068-251.3h.221v799.848h-.221zM446.43-251.3h.221v799.848h-.221zM438.79-251.3h.221v799.848h-.221zM431.151-251.3h.221v799.848h-.221zM423.513-251.3h.221v799.848h-.221zM423.233-251.3h.221v799.848h-.221zM415.595-251.3h.221v799.848h-.221zM407.956-251.3h.221v799.848h-.221zM400.316-251.3h.221v799.848h-.221zM392.678-251.3h.221v799.848h-.221zM385.039-251.3h.221v799.848h-.221zM384.76-251.3h.221v799.848h-.221zM377.121-251.3h.221v799.848h-.221zM369.482-251.3h.221v799.848h-.221zM361.843-251.3h.221v799.848h-.221zM354.204-251.3h.221v799.848h-.221zM346.565-251.3h.221v799.848h-.221zM346.287-251.3h.221v799.848h-.221zM338.648-251.3h.221v799.848h-.221zM331.01-251.3h.221v799.848h-.221zM323.37-251.3h.221v799.848h-.221zM315.731-251.3h.221v799.848h-.221zM308.093-251.3h.221v799.848h-.221zM307.813-251.3h.221v799.848h-.221zM300.175-251.3h.221v799.848h-.221zM292.536-251.3h.221v799.848h-.221zM284.896-251.3h.221v799.848h-.221zM277.258-251.3h.221v799.848h-.221zM269.619-251.3h.221v799.848h-.221zM269.34-251.3h.221v799.848h-.221zM261.701-251.3h.221v799.848h-.221zM254.063-251.3h.221v799.848h-.221zM246.423-251.3h.221v799.848h-.221zM238.784-251.3h.221v799.848h-.221zM231.146-251.3h.221v799.848h-.221zM230.867-251.3h.221v799.848h-.221zM223.229-251.3h.221v799.848h-.221zM215.59-251.3h.221v799.848h-.221zM207.95-251.3h.221v799.848h-.221zM200.312-251.3h.221v799.848h-.221zM192.673-251.3h.221v799.848h-.221zM192.394-251.3h.221v799.848h-.221zM184.755-251.3h.221v799.848h-.221zM177.116-251.3h.221v799.848h-.221zM169.477-251.3h.221v799.848h-.221zM161.838-251.3h.221v799.848h-.221zM154.199-251.3h.221v799.848h-.221zM153.92-251.3h.221v799.848h-.221zM146.281-251.3h.221v799.848h-.221zM138.643-251.3h.221v799.848h-.221zM131.003-251.3h.221v799.848h-.221zM123.364-251.3h.221v799.848h-.221zM115.726-251.3h.221v799.848h-.221zM115.447-251.3h.221v799.848h-.221zM107.809-251.3h.221v799.848h-.221zM100.17-251.3h.221v799.848h-.221zM92.53-251.3h.221v799.848h-.221zM84.892-251.3h.221v799.848h-.221zM77.253-251.3h.221v799.848h-.221zM77.032-251.3h.221v799.848h-.221zM69.394-251.3h.221v799.848h-.221zM61.755-251.3h.221v799.848h-.221zM54.115-251.3h.221v799.848h-.221zM46.477-251.3h.221v799.848h-.221zM38.838-251.3h.221v799.848h-.221zM38.617-251.3h.221v799.848h-.221zM30.979-251.3h.221v799.848h-.221zM23.34-251.3h.221v799.848h-.221zM15.7-251.3h.221v799.848h-.221zM8.062-251.3h.221v799.848h-.221zM792.689-251.3h.221v799.85h-.221zM785.05-251.3h.221v799.848h-.221zM777.411-251.3h.221v799.848h-.221zM769.772-251.3h.221v799.848h-.221zM-.447-214.052h799.85v.221h-799.85zM-.447-221.691h799.85v.221h-799.85zM-.447-229.33h799.85v.221h-799.85zM-.446-236.97h799.849v.221h-799.849zM-.446-244.609h799.849v.221h-799.849zM-.447-176.17h799.85v.221h-799.85zM-.447-183.809h799.85v.221h-799.85zM-.447-191.447h799.85v.221h-799.85zM-.446-199.088h799.849v.221h-799.849zM-.446-206.727h799.849v.221h-799.849zM-.446-214.365h799.849v.221h-799.849z"/><path fill="#fff" stroke="#E3E0DA" d="M141.026 325.401s-61.447 28.514-57.453 59.027 123.563 119.63 146.387 135.37l20.463 28.902h549.129v-295.706s-271.566 84.236-450.75 93.657c-179.184 9.421-207.776-21.25-207.776-21.25z"/><path fill="#E3E0DA" d="M223.101 387.548l4.675 3.382 24.673-12.194-4.681-9.466-24.501 12.108zM192.565 440.721l-4.917.205-10.084 21.196 8.134 3.868 10.013-21.05zM384.349 359.905l-5.249 17.632 25.787 9.282-1.449-10.276 7.671-7.007zM279.314 522.802l-4.631-4.825-30.667 8.789 3.375 11.767 30.454-8.73zM237.967 500.001l-7.681 26.441-5.536-6.141 6.507-22.395 3.745-.77zM788.111 415.273l.752-11.044-39.136-4.889 2.208 5.843-3.58 5.127zM752.586 280.262l-8.506 3.816 11.871 31.02 3.467-3.955 5.228.628zM498.512 357.126l6.839-1.6 5.186 4.746 6.386-24.418-12.201-2.468z"/><path fill="#F0BE26" d="M137.938 351.513h-33.563v-6.068h33.563l1.601 3.034z"/><path fill="#509FC2" d="M122.185 370.43h-32.68v-6.269h32.699l1.645 3.115z"/><path fill="#B83065" d="M117.771 389.346h-31.797v-6.469h31.835l1.689 3.198z"/><path fill="#91C653" d="M126.317 408.263h-30.915v-6.67h30.972l1.731 3.28z"/><path fill="#F0BE26" d="M144.747 427.179h-33.032v-6.87h33.108l1.775 3.362z"/><path fill="#509FC2" d="M168.037 446.096h-35.149v-7.073h35.243l1.819 3.446z"/><path fill="#B83065" d="M195.376 465.013h-37.265v-7.274h37.38l1.862 3.529z"/><path fill="#91C653" d="M223.931 483.929h-39.383v-7.474h39.516l1.906 3.61z"/><path fill="#F0BE26" d="M311.225 493.509l-48.078 12.981-2.401-8.891 48.254-13.03 3.414 3.668z"/><path fill="#509FC2" d="M403.033 502.786l-57.126 26.104-4.714-10.314 57.351-26.206 4.871 3.751z"/><path fill="#D69018" d="M104.375 351.513h13.42c3.708-2.325 7.371-4.353 10.542-6.067h-23.962v6.067z"/><path fill="#357BBD" d="M89.504 370.43h8.45c1.079-2.188 2.522-4.281 4.237-6.269h-12.687v6.269z"/><path fill="#871E47" d="M85.974 389.346h11.679c-.713-2.173-1.225-4.331-1.512-6.469h-10.167v6.469z"/><path fill="#6DB541" d="M95.402 408.263h12.938c-1.733-2.233-3.313-4.457-4.72-6.67h-8.219v6.67z"/><path fill="#D69018" d="M111.715 427.179h14.463c-2.502-2.293-4.896-4.584-7.158-6.87h-7.305v6.87z"/><path fill="#357BBD" d="M132.887 446.096h16.106c-3.073-2.354-6.078-4.712-8.996-7.072h-7.11v7.072z"/><path fill="#871E47" d="M158.11 465.013h16.921c-3.457-2.412-6.894-4.838-10.289-7.273h-6.632v7.273z"/><path fill="#6DB541" d="M184.547 483.929h18.103c-3.631-2.468-7.303-4.96-10.991-7.474h-7.111v7.474z"/><path fill="#91C653" d="M124.37 193.613l-1.515-2.87h34.767v5.773h-34.784z"/><path fill="#509FC2" d="M122.838 196.516h-33.064v-5.773h33.081l1.515 2.87z"/><path fill="#B83065" d="M135.666 177.44l-1.523-2.885h24.278l1.86-5.136 1.155 5.136 5.192 13.115-5.509-7.343h-26.976z"/><path fill="#F0BE26" d="M134.143 180.327h-31.931v-5.772h31.931l1.523 2.885zM112.208 206.932h34.917v5.771h-34.563l1.346-2.551z"/><path fill="#B83065" d="M112.208 206.932l1.7 3.22-1.346 2.551h-28.227v-5.771z"/><path fill="#91C653" d="M105.168 225.877l-1.591 3.015h-17.68v-5.773h17.816z"/><path fill="#509FC2" d="M103.713 223.119h22.915v5.773h-23.051l1.591-3.015z"/><path fill="#6DB541" d="M157.623 190.743v5.772h-8.453c.962-1.879 1.665-3.805 2.028-5.772h6.425z"/><path fill="#357BBD" d="M95.458 196.516h-5.684v-5.772h11.106c-1.998 1.84-3.837 3.768-5.422 5.772z"/><path fill="#871E47" d="M146.489 174.555h11.745c.933 1.861 1.692 3.785 2.242 5.772h-10.594c-.85-1.979-2.007-3.906-3.393-5.772z"/><path fill="#D69018" d="M102.213 180.327v-3.596c1.029-.748 2.064-1.474 3.099-2.177h19.321c-2.876 1.589-6.28 3.531-9.825 5.772h-12.595zM147.125 206.932v5.771h-13.089c2.422-1.809 4.772-3.737 6.923-5.771h6.166z"/><path fill="#871E47" d="M89.895 212.703h-5.559v-5.771h5.818c-.262 1.199-.414 2.412-.414 3.641.001.714.064 1.424.155 2.13z"/><path fill="#6DB541" d="M94.323 223.119c1.422 1.998 3.111 3.925 4.978 5.772h-13.165l-.239-.333v-5.439h8.426z"/><path fill="#357BBD" d="M117.615 223.119h9.015v5.772h-19.471c2.334-1.327 4.507-2.513 6.397-3.542 1.197-.651 2.571-1.4 4.059-2.23z"/><path fill="#91C653" d="M117.808 109.47l1.514-2.87h-34.766v5.772h34.783z"/><path fill="#509FC2" d="M119.339 112.372h33.065v-5.772h-33.082l-1.514 2.87z"/><path fill="#B83065" d="M106.512 93.297l1.523-2.886h-24.278l-1.861-5.136-1.154 5.136-5.192 13.115 5.509-7.343h26.976z"/><path fill="#F0BE26" d="M108.035 96.183h31.93v-5.772h-31.93l-1.523 2.886zM129.97 122.788h-34.918v5.772h34.564l-1.346-2.551z"/><path fill="#B83065" d="M129.97 122.788l-1.7 3.221 1.346 2.551h28.226v-5.772z"/><path fill="#91C653" d="M137.01 141.733l1.591 3.015h17.68v-5.772h-17.816z"/><path fill="#509FC2" d="M138.465 138.976h-22.916v5.772h23.052l-1.591-3.015z"/><path fill="#6DB541" d="M84.555 106.6v5.772h8.453c-.962-1.878-1.665-3.804-2.028-5.772h-6.425z"/><path fill="#357BBD" d="M146.72 112.372h5.684v-5.772h-11.106c1.997 1.84 3.836 3.768 5.422 5.772z"/><path fill="#871E47" d="M95.689 90.411h-11.745c-.933 1.861-1.692 3.785-2.242 5.772h10.594c.85-1.979 2.006-3.906 3.393-5.772z"/><path fill="#D69018" d="M139.964 96.183v-3.595c-1.029-.749-2.064-1.474-3.099-2.177h-19.321c2.876 1.589 6.28 3.531 9.825 5.772h12.595zM95.052 122.788v5.772h13.089c-2.422-1.809-4.772-3.737-6.923-5.772h-6.166z"/><path fill="#871E47" d="M152.283 128.56h5.559v-5.772h-5.818c.262 1.199.414 2.413.414 3.641-.001.715-.064 1.425-.155 2.131z"/><path fill="#6DB541" d="M147.855 138.976c-1.422 1.997-3.111 3.924-4.978 5.772h13.164l.239-.333v-5.438h-8.425z"/><path fill="#357BBD" d="M124.563 138.976h-9.015v5.772h19.471c-2.334-1.327-4.507-2.512-6.397-3.542-1.198-.651-2.572-1.4-4.059-2.23z"/><path fill="#91C653" d="M115.808 277.757l1.514-2.871h-34.766v5.772h34.783z"/><path fill="#509FC2" d="M117.339 280.658h33.065v-5.772h-33.082l-1.514 2.871z"/><path fill="#B83065" d="M104.512 261.584l1.523-2.886h-24.278l-1.409-3.889-1.606 3.889-5.192 13.115 5.509-7.343h26.976zM147.598 344.085l-3.344-1.235 16.822-15.087 9.325.105-4.157 3.729-17.78 15.945z"/><path fill="#91C653" d="M165.184 356.653l-3.621-.529 13.689-18.734 9.39-1.878-3.383 4.63-14.469 19.8z"/><path fill="#F0BE26" d="M187.998 365.914l-3.75.074 10.688-21.238 9.176-3.479-2.641 5.25-11.297 22.449z"/><path fill="#509FC2" d="M211.079 372.961l-4.08.565 8.909-24.55 9.558-4.982-2.201 6.068-9.416 25.95z"/><path fill="#B83065" d="M238.277 378.643l-4.34 1.097 6.69-27.585 9.73-6.523-1.652 6.816-7.072 29.158z"/><path fill="#91C653" d="M267.692 382.963l-4.531 1.589 4.5-30.114 9.768-7.904-1.111 7.442-4.755 31.831z"/><path fill="#F0BE26" d="M301.349 386.057l-4.954 2.067 3.065-33.903 10.391-9.458-.758 8.379-3.239 35.837z"/><path fill="#509FC2" d="M338.207 388.371l-4.703 2.434.335-38.98 9.403-4.731-.07 8.297-.299 35.491z"/><path fill="#B83065" d="M380.165 386.864l-4.878 3.057-2.707-36.392 9.329-11.825.67 8.992 2.863 38.469z"/><path fill="#91C653" d="M424.536 384.931l-5.012 3.605-5.391-38.772 9.176-13.299 1.334 9.583 5.699 40.982z"/><path fill="#F0BE26" d="M471.518 380.876l-5.419 4.27-7.91-43.047 9.603-15.302 1.953 10.641 8.363 45.501z"/><path fill="#871E47" d="M166.859 331.045c-2.341-.721-4.666-1.459-6.959-2.227l-12.109 10.86c2.202.839 4.446 1.65 6.72 2.441l11.734-10.523.614-.551z"/><path fill="#6DB541" d="M184.353 335.908l-.758-.187-8.343 1.668-6.711 9.185c2.195.635 4.419 1.249 6.669 1.845l6.049-8.277 3.094-4.234z"/><path fill="#D69018" d="M204.112 341.271l-9.176 3.479-3.769 7.489c2.221.479 4.461.944 6.726 1.392l3.578-7.11 2.641-5.25z"/><path fill="#357BBD" d="M225.466 343.994l-9.558 4.981-2.683 7.393c2.427.39 4.876.762 7.345 1.12l2.695-7.427 2.201-6.067z"/><path fill="#871E47" d="M250.084 346.76l-1.233-.118-8.223 5.514-1.857 7.657c2.629.291 5.282.563 7.949.822l1.985-8.187 1.379-5.688z"/><path fill="#6DB541" d="M277.105 348.705l-2.221-.111-7.224 5.845-1.168 7.818c2.819.189 5.657.362 8.511.521l1.315-8.802.787-5.271z"/><path fill="#D69018" d="M309.415 349.578c-1.607-.008-3.214-.018-4.815-.035l-5.139 4.678-.861 9.519c3.156.084 6.33.15 9.518.201l.976-10.799.321-3.564z"/><path fill="#357BBD" d="M343.225 349.056c-1.386.048-2.77.094-4.152.136l-5.234 2.634-.104 12.188c3.11-.03 6.232-.074 9.366-.132l.072-8.491.052-6.335z"/><path fill="#871E47" d="M382.296 346.901c-1.588.118-3.176.235-4.761.347l-4.956 6.281.7 9.409c3.383-.147 6.775-.31 10.175-.484l-.875-11.758-.283-3.795z"/><path fill="#6DB541" d="M424.218 342.995c-1.952.217-3.902.429-5.854.636l-4.231 6.133 1.483 10.668c3.631-.27 7.269-.554 10.908-.849l-1.882-13.535-.424-3.053z"/><path fill="#D69018" d="M469.69 337.138c-3.068.447-6.139.885-9.211 1.313l-2.29 3.648 2.635 14.341c4.061-.414 8.12-.841 12.178-1.282l-3.257-17.72-.055-.3z"/><path fill="#F0BE26" d="M106.035 264.47h31.93v-5.772h-31.93l-1.523 2.886zM127.97 291.074h-34.918v5.773h34.564l-1.346-2.551z"/><path fill="#B83065" d="M127.97 291.074l-1.7 3.222 1.346 2.551h28.226v-5.773z"/><path fill="#91C653" d="M135.01 310.02l1.591 3.014h17.68v-5.771h-17.816z"/><path fill="#509FC2" d="M136.465 307.263h-22.916v5.771h23.052l-1.591-3.014z"/><path fill="#6DB541" d="M82.555 274.886v5.772h8.453c-.962-1.878-1.665-3.804-2.028-5.772h-6.425z"/><path fill="#357BBD" d="M144.72 280.658h8.22l-2.537-5.772h-11.106c1.998 1.841 3.837 3.769 5.423 5.772z"/><path fill="#871E47" d="M93.689 258.698h-11.745c-.933 1.861-1.692 3.785-2.242 5.771h10.594c.85-1.978 2.006-3.906 3.393-5.771z"/><path fill="#D69018" d="M137.964 264.47v-3.595c-1.029-.749-2.064-1.474-3.099-2.177h-19.321c2.876 1.589 6.28 3.531 9.825 5.771h12.595zM93.052 291.074v5.772h13.089c-2.422-1.809-4.772-3.738-6.923-5.772h-6.166z"/><path fill="#871E47" d="M150.283 296.847h7.538v-5.772h-7.797c.262 1.199.414 2.413.414 3.641-.001.715-.064 1.424-.155 2.131z"/><path fill="#6DB541" d="M145.855 307.263c-1.422 1.997-3.111 3.924-4.978 5.771h13.164l.239-.333v-5.438h-8.425z"/><path fill="#357BBD" d="M122.563 307.263h-9.015v5.771h19.471c-2.334-1.326-4.507-2.512-6.397-3.541-1.198-.652-2.572-1.4-4.059-2.23z"/><path fill="#91C653" d="M117.808-58.817l1.514-2.871h-34.766v5.772h34.783z"/><path fill="#509FC2" d="M119.339-55.916h33.065v-5.772h-33.082l-1.514 2.871z"/><path fill="#B83065" d="M106.512-74.99l1.523-2.886h-24.278l-1.861-5.136-1.154 5.136-5.192 13.115 5.509-7.343h26.976z"/><path fill="#F0BE26" d="M108.035-72.104h31.93v-5.772h-31.93l-1.523 2.886zM129.97-45.5h-34.918v5.772h34.564l-1.346-2.55z"/><path fill="#B83065" d="M129.97-45.5l-1.7 3.222 1.346 2.55h28.226v-5.772z"/><path fill="#91C653" d="M137.01-26.554l1.591 3.015h17.68v-5.772h-17.816z"/><path fill="#509FC2" d="M138.465-29.311h-22.916v5.772h23.052l-1.591-3.015z"/><path fill="#6DB541" d="M84.555-61.688v5.772h8.453c-.962-1.878-1.665-3.804-2.028-5.772h-6.425z"/><path fill="#357BBD" d="M146.72-55.916h5.684v-5.772h-11.106c1.997 1.841 3.836 3.769 5.422 5.772z"/><path fill="#871E47" d="M95.689-77.876h-11.745c-.933 1.861-1.692 3.785-2.242 5.772h10.594c.85-1.979 2.006-3.906 3.393-5.772z"/><path fill="#D69018" d="M139.964-72.104v-3.595c-1.029-.749-2.064-1.474-3.099-2.177h-19.321c2.876 1.589 6.28 3.531 9.825 5.772h12.595zM95.052-45.5v5.772h13.089c-2.422-1.809-4.772-3.737-6.923-5.772h-6.166z"/><path fill="#871E47" d="M152.283-39.728h5.559v-5.772h-5.818c.262 1.199.414 2.413.414 3.641-.001.716-.064 1.425-.155 2.131z"/><path fill="#6DB541" d="M147.855-29.311c-1.422 1.997-3.111 3.924-4.978 5.772h13.164l.239-.333v-5.438h-8.425z"/><path fill="#357BBD" d="M124.563-29.311h-9.015v5.772h19.471c-2.334-1.327-4.507-2.512-6.397-3.542-1.198-.651-2.572-1.4-4.059-2.23z"/><path fill="#91C653" d="M124.37-142.961l-1.515-2.871h34.767v5.772h-34.784z"/><path fill="#509FC2" d="M122.838-140.06h-33.064v-5.772h33.081l1.515 2.871z"/><path fill="#B83065" d="M135.666-159.134l-1.523-2.886h24.278l1.86-5.136 1.155 5.136 5.192 13.115-5.509-7.343h-26.976z"/><path fill="#F0BE26" d="M134.143-156.248h-31.931v-5.772h31.931l1.523 2.886zM112.208-129.644h34.917v5.772h-34.563l1.346-2.55z"/><path fill="#B83065" d="M112.208-129.644l1.7 3.222-1.346 2.55h-28.227v-5.772z"/><path fill="#91C653" d="M105.168-110.698l-1.591 3.015h-17.68v-5.772h17.816z"/><path fill="#509FC2" d="M103.713-113.455h22.915v5.772h-23.051l1.591-3.015z"/><path fill="#6DB541" d="M157.623-145.832v5.772h-8.453c.962-1.878 1.665-3.804 2.028-5.772h6.425z"/><path fill="#357BBD" d="M95.458-140.06h-5.684v-5.772h11.106c-1.998 1.841-3.837 3.769-5.422 5.772z"/><path fill="#871E47" d="M146.489-162.02h11.745c.933 1.861 1.692 3.785 2.242 5.772h-10.594c-.85-1.979-2.007-3.906-3.393-5.772z"/><path fill="#D69018" d="M102.213-156.248v-3.595c1.029-.749 2.064-1.474 3.099-2.177h19.321c-2.876 1.589-6.28 3.531-9.825 5.772h-12.595zM147.125-129.644v5.772h-13.089c2.422-1.809 4.772-3.737 6.923-5.772h6.166z"/><path fill="#871E47" d="M89.895-123.872h-5.559v-5.772h5.818c-.262 1.199-.414 2.413-.414 3.641.001.716.064 1.425.155 2.131z"/><path fill="#6DB541" d="M94.323-113.455c1.422 1.997 3.111 3.924 4.978 5.772h-13.165l-.239-.333v-5.438h8.426z"/><path fill="#357BBD" d="M117.615-113.455h9.015v5.772h-19.471c2.334-1.327 4.507-2.512 6.397-3.542 1.197-.651 2.571-1.4 4.059-2.23z"/><path fill="#91C653" d="M117.808-227.105l1.514-2.87h-34.766v5.772h34.783z"/><path fill="#509FC2" d="M119.339-224.203h33.065v-5.772h-33.082l-1.514 2.87z"/><path fill="#B83065" d="M106.512-243.277l1.523-2.887h-24.278l-1.861-5.136-1.154 5.136-5.192 13.116 5.509-7.344h26.976z"/><path fill="#F0BE26" d="M108.035-240.392h31.93v-5.772h-31.93l-1.523 2.887z"/><path fill="#CEE1E8" d="M73.722 378.856c0 68.973 164.697 130.299 164.697 169.844h29.25c0-37.228-177.803-111.372-177.803-169.844l-8.877-3.599-7.267 3.599zM117.698 321.276c144.242 82.121 540.84-2.027 681.854-45.753v-41.645c-119 52.488-500.633 161.854-675.851 75.662l-7.241 1.612 1.238 10.124z"/><path fill="#F0BE26" d="M129.97-213.787h-34.918v5.772h34.564l-1.346-2.55z"/><path fill="#B83065" d="M129.97-213.787l-1.7 3.222 1.346 2.55h28.226v-5.772z"/><path fill="#91C653" d="M137.01-194.842l1.591 3.015h17.68v-5.772h-17.816z"/><path fill="#509FC2" d="M138.465-197.599h-22.916v5.772h23.052l-1.591-3.015z"/><path fill="#6DB541" d="M84.555-229.975v5.772h8.453c-.962-1.878-1.665-3.804-2.028-5.772h-6.425z"/><path fill="#357BBD" d="M146.72-224.203h5.684v-5.772h-11.106c1.997 1.84 3.836 3.768 5.422 5.772z"/><path fill="#871E47" d="M95.689-246.164h-11.745c-.933 1.861-1.692 3.785-2.242 5.772h10.594c.85-1.979 2.006-3.905 3.393-5.772z"/><path fill="#D69018" d="M139.964-240.392v-3.595c-1.029-.749-2.064-1.474-3.099-2.177h-19.321c2.876 1.589 6.28 3.531 9.825 5.772h12.595zM95.052-213.787v5.772h13.089c-2.422-1.809-4.772-3.737-6.923-5.772h-6.166z"/><path fill="#871E47" d="M152.283-208.015h5.559v-5.772h-5.818c.262 1.199.414 2.413.414 3.641-.001.715-.064 1.425-.155 2.131z"/><path fill="#6DB541" d="M147.855-197.599c-1.422 1.997-3.111 3.924-4.978 5.772h13.164l.239-.333v-5.438h-8.425z"/><path fill="#357BBD" d="M124.563-197.599h-9.015v5.772h19.471c-2.334-1.327-4.507-2.512-6.397-3.542-1.198-.651-2.572-1.4-4.059-2.23z"/><path fill="#C1D6DE" d="M150.9-9.078c-4.196-3.689-8.796-6.961-13.245-9.796-2.842 2.29-5.854 4.409-8.813 6.331 4.387 2.649 9.15 5.802 13.481 9.35 2.835-1.785 5.74-3.747 8.577-5.885z"/><path fill="#91C653" d="M124.37 25.326l-1.515-2.87h34.767v5.772h-34.784z"/><path fill="#509FC2" d="M122.838 28.228h-33.064v-5.772h33.081l1.515 2.87z"/><path fill="#B83065" d="M135.666 9.154l-1.523-2.886h24.278l1.86-5.137 1.155 5.137 5.192 13.115-5.509-7.343h-26.976z"/><path fill="#F0BE26" d="M134.143 12.04h-31.931v-5.772h31.931l1.523 2.886zM112.208 38.644h34.917v5.772h-34.563l1.346-2.55z"/><path fill="#B83065" d="M112.208 38.644l1.7 3.222-1.346 2.55h-28.227v-5.772z"/><path fill="#C1D6DE" d="M161.153 324.173c-8.199-2.509-16.105-5.314-23.686-8.438-4.042 3.467-8.562 6.587-12.845 9.26 7.614 3.857 15.852 7.299 24.629 10.364 4.231-3.322 8.357-7.071 11.902-11.186z"/><path fill="#91C653" d="M105.168 57.589l-1.591 3.015h-17.68v-5.771h17.816z"/><path fill="#509FC2" d="M103.713 54.833h22.915v5.771h-23.051l1.591-3.015z"/><path fill="#6DB541" d="M157.623 22.456v5.772h-8.453c.962-1.878 1.665-3.804 2.028-5.772h6.425z"/><path fill="#357BBD" d="M95.458 28.228h-5.684v-5.772h11.106c-1.998 1.84-3.837 3.769-5.422 5.772z"/><path fill="#871E47" d="M146.489 6.268h11.745c.933 1.861 1.692 3.785 2.242 5.772h-10.594c-.85-1.979-2.007-3.906-3.393-5.772z"/><path fill="#D69018" d="M102.213 12.04v-3.595c1.029-.749 2.064-1.474 3.099-2.177h19.321c-2.876 1.589-6.28 3.531-9.825 5.772h-12.595zM147.125 38.644v5.772h-13.089c2.422-1.809 4.772-3.737 6.923-5.772h6.166z"/><path fill="#871E47" d="M89.895 44.416h-5.559v-5.772h5.818c-.262 1.199-.414 2.413-.414 3.641.001.715.064 1.425.155 2.131z"/><path fill="#6DB541" d="M94.323 54.833c1.422 1.997 3.111 3.924 4.978 5.772h-13.165l-.239-.333v-5.438h8.426z"/><path fill="#357BBD" d="M117.615 54.833h9.015v5.772h-19.471c2.334-1.327 4.507-2.512 6.397-3.542 1.197-.652 2.571-1.401 4.059-2.23z"/><path fill="#CEE1E8" d="M117.698 321.276c-14.005-7.625-44.148-26.488-44.148-49.463s31.144-38.84 45.148-46.463c11.351-6.18 36.93-20.65 36.93-37.682s-25.579-31.502-36.93-37.68c-14.005-7.625-43.148-23.488-43.148-46.463s29.144-38.84 43.148-46.463c11.351-6.18 37.93-20.649 37.93-37.682 0-17.031-26.579-31.502-37.93-37.68-14.005-7.623-43.148-23.486-43.148-46.461 0-22.975 29.144-38.839 43.148-46.463 11.351-6.179 37.93-20.649 37.93-37.681 0-17.032-26.579-31.501-37.93-37.68-14.005-7.625-43.148-23.49-43.148-46.463 0-6.699 2.488-12.789 6.347-18.251h13.143c-5.519 5.483-9.489 11.675-9.489 18.251 0 17.032 26.579 31.501 37.93 37.68 14.005 7.625 43.148 23.489 43.148 46.463 0 22.973-29.144 38.839-43.148 46.464-11.351 6.178-37.93 20.647-37.93 37.68 0 17.032 26.579 31.501 37.93 37.68 14.005 7.625 43.148 23.49 43.148 46.463 0 22.974-29.144 38.84-43.148 46.465-11.351 6.178-37.93 20.646-37.93 37.68 0 17.031 26.579 31.5 37.93 37.68 14.005 7.625 44.148 23.49 44.148 46.463 0 22.975-28.144 39.84-42.148 47.465-11.351 6.178-39.93 19.646-39.93 36.68 0 17.031 26.802 31.548 38.152 37.728l-6.005 11.733z"/><path fill="#C1D6DE" d="M151.154 158.977c-4.196-3.689-9.063-6.854-13.512-9.69-2.842 2.291-5.882 4.594-8.842 6.517 4.387 2.648 8.948 5.964 13.279 9.512 2.835-1.786 6.238-4.203 9.075-6.339zM150.9-9.078c-4.196-3.689-8.796-6.961-13.245-9.796-2.842 2.29-5.854 4.409-8.813 6.331 4.387 2.649 9.15 5.802 13.481 9.35 2.835-1.785 5.74-3.747 8.577-5.885zM150.9-177.365c-4.196-3.689-8.796-6.961-13.245-9.796-2.842 2.29-5.854 4.409-8.813 6.331 4.387 2.649 9.15 5.802 13.481 9.35 2.835-1.785 5.74-3.748 8.577-5.885z"/><path fill="#CEE1E8" d="M118.763-247.827c11.35 6.179 37.93 20.648 37.93 37.68s-26.58 31.501-37.93 37.68c-14.005 7.625-43.148 23.49-43.148 46.463 0 22.973 29.143 38.839 43.148 46.464 11.35 6.178 37.93 20.646 37.93 37.68s-26.58 31.501-37.93 37.68c-14.005 7.625-43.148 23.491-43.148 46.464 0 22.975 29.143 38.839 43.149 46.463 11.35 6.177 37.929 20.641 37.929 37.678 0 17.031-26.58 31.501-37.93 37.681-14.005 7.625-43.148 23.49-43.148 46.463s29.143 38.84 43.149 46.465c11.35 6.178 37.929 20.643 37.929 37.678 0 17.031-26.58 31.502-37.93 37.682-14.005 7.625-45.041 23.49-45.041 46.463h16.145c0-17.031 25.328-29.502 36.678-35.68 14.005-7.625 42.148-25.49 42.148-48.465 0-22.977-31.144-38.838-45.148-46.461-11.35-6.18-37.93-20.65-37.93-37.682s26.58-31.502 37.93-37.68c14.005-7.625 43.148-23.491 43.148-46.464 0-22.979-29.144-38.839-43.148-46.461-11.35-6.178-37.93-20.647-37.93-37.68 0-17.031 26.58-31.502 37.93-37.681 14.005-7.624 43.148-23.487 43.148-46.463s-29.143-38.839-43.148-46.463c-11.35-6.179-37.93-20.65-37.93-37.681 0-17.032 26.58-31.501 37.93-37.68 14.005-7.625 43.148-23.489 43.148-46.463 0-18.555-19.006-32.469-33.698-41.153h-20.51c2.288 1.3 4.419 2.461 6.278 3.473z"/><path fill="#C1D6DE" d="M100.062-103.31c-2.835 1.791-5.736 3.76-8.567 5.902.779.682 1.585 1.332 2.388 1.984 2.738-2.219 5.59-4.271 8.42-6.15-.753-.573-1.51-1.14-2.241-1.736zM100.062 64.978c-2.835 1.791-5.736 3.76-8.567 5.902.779.682 1.585 1.332 2.388 1.984 2.738-2.219 5.59-4.271 8.42-6.15-.753-.573-1.51-1.14-2.241-1.736zM105.192-87.365c2.814-2.302 5.809-4.438 8.766-6.377-.884-.529-1.795-1.096-2.707-1.667-2.957 1.848-6.022 3.912-8.965 6.152.973.648 1.945 1.286 2.906 1.892zM105.192 80.923c2.814-2.302 5.809-4.438 8.766-6.377-.884-.529-1.795-1.096-2.707-1.667-2.957 1.848-6.022 3.912-8.965 6.152.973.647 1.945 1.286 2.906 1.892zM102.066 234.849c-.77-.59-1.528-1.195-2.275-1.81-2.838 1.808-5.726 3.772-8.562 5.891.725.641 1.458 1.271 2.205 1.885 2.826-2.149 5.749-4.142 8.632-5.966zM112.699 242.071c-3.096 1.777-6.322 3.754-9.428 5.904.762.497 2.009 1.291 2.763 1.763 2.825-2.296 5.772-4.474 8.733-6.424-.534-.317-1.522-.91-2.068-1.243z"/><path fill="#509FC2" d="M549.993 344.481l-12.906 4.924 14.934 46.893 5.464-5.558 7.68 1.373z"/><path fill="#91C653" d="M691.96 383.099l-19.317 4.739 12.992 69.665 8.797-6.968 10.729 3.328z"/><path fill="#B83065" d="M777.166 471.775l-8.425-7.696-29.063 28.427 6.129 1.97 1.838 6.177z"/><path fill="#E3E0DA" d="M461.112 408.398l-6.686-3.955-15.409 22.993 4.359.459 2.085 3.86zM517.052 377.768l-9.323-.149-2.391 33.128 4.816-2.113 4.469 2.784zM740.323 331.527l-13.231-2.267-10.717 46.611 7.321-1.945 5.743 4.949z"/><path fill="#B83065" d="M508.793 504.583l-2.627-7.812-7.254-2.048-51.387 53.977h19.269z"/><path fill="#E3E0DA" d="M631.271 523.232l-33.752 15.795-3.083-6.588 33.857-15.843 3.181 2.407zM590.357 456.503l-29.733 39.949-7.388-5.499 29.841-40.096 4.952.769zM740.444 507.096l-5.562-3.693-5.695 2.313-4.321 42.984h11.397zM449.28 493.277l-4.068-.352-10.546 16.375 6.284 4.046 10.473-16.262z"/><path fill="#B83065" d="M320.073 405.896l-4.736 6.764 17.985 35.03 13.441-6.904-17.86-34.787z"/><path fill="#E3E0DA" d="M306.722 434.574l-3.08-2.706-3.775.965-5.38 22.463 6.877 1.647zM646.681 431.15l-10.379 4.174 5.338 15.787 4.343-4.578 6.239 1.001zM497.486 458.057l-7.765-1.536-5.239 5.144 5.715 19.119 12.927-3.861z"/><path fill="#91C653" d="M387.822 408.693l-6.141 33.728 9.476-2.987 7.824 6.138 6.318-34.704z"/><path fill="#F0BE26" d="M596.115 470.121l4.114 2.716.082 4.932 15.796-8.668-4.624-7.411z"/><path fill="#509FC2" d="M269.252 403.908l-4.395-3.144-4.706 1.72-4.16 30.534 9.126 1.244z"/><path fill="#F0BE26" d="M215.818 401.549l-2.748-.168-6.939 11.399 4.322 2.631 6.887-11.313z"/><path fill="#E3E0DA" d="M226.211 429.593l-3.19-.388-1.966 2.24 5.54 14.505 5.117-1.954z"/><path fill="#B83065" d="M168.903 418.114l2.987 2.455-.341 3.852 10.321-4.33-2.654-6.303z"/><path fill="#E3E0DA" d="M141.944 382.42l2.761 17.633 3.848-2.871 4.545 1.556-2.779-17.744zM263.169 466.285l-10.907 10.39 3.842 1.29 1.103 3.9 10.976-10.456zM662.212 323.171l-7.32 2.178-2.161 6.745 22.585 23.068 9.301-9.105z"/><path fill="#B83065" d="M604.86 405.858l9.021-2.471 7.14 6.055 7.273-32.816-16.36-2.672z"/><path fill="#F0BE26" d="M748.037 432.953l10.861-1.455 7.338 8.15 17.825-48.469-18.165-6.782z"/><path fill="#509FC2" d="M673.146 492.006l-11.305.869-5.209 9.049 19.804 31.413 16.213-10.395z"/><path fill="#E3E0DA" d="M790.362 480.489l-4.87 3.644.242 5.596 13.819 6.55v-11.433zM360.914 466.801l6.299 3.867.366 7.391 20.79-12.311-6.476-11.37z"/><path fill="#91C653" d="M305.393 528.827l-2.432-4.513-4.693-.493-10.854 16.184 7.401 4.594z"/><path fill="#F0BE26" d="M452.321 450.155l-8.161 3.377-1.684 8.015 15.493 12.863 9.401-11.759z"/><path fill="#E3E0DA" d="M777.483 307.047l-10.053 10.054 13.848 14.975 2.668-7.571 7.764-2.074z"/><path fill="#B83065" d="M519.842 447.036l4.633-6.835-18.515-34.753-13.335 7.108 18.387 34.511z"/><path fill="#E3E0DA" d="M384.291 539.006l2.284-3.406-1.448-3.617-22.971-2.419-.741 7.034zM580.872 429.709l3.523-10.618-15.498-6.129.687 6.273-4.796 4.115z"/><path fill="#F0BE26" d="M696.119 329.448l-.991 8.358 5.88 5.129 44.776-17.241-5.151-13.384zM603.63 347.312l2.067 1.817 12.473-4.749-1.8-4.728-12.379 4.712z"/><path fill="#91C653" d="M137.375 369.222l3.242 2.106.091 3.865 9.773-5.456-3.341-5.966z"/><path fill="#E3E0DA" d="M185.291 386.057l-11.077-2.727.743 2.978-2.04 2.295 11.147 2.743z"/><path fill="#91C653" d="M572.402 531.437l-5.7-30.631-6.573 5.201-8.006-2.488 5.737 30.825z"/><path fill="#E3E0DA" d="M235.52 466.063l2.626-4.601-2.139-4.386-17.341-.563-.224 8.997z"/><path fill="#509FC2" d="M774.38 313.835l11.567 13.107-4.287 16.964 17.893-4.334v-31.834z"/><path fill="#E3E0DA" d="M531.871 544.623l-5.99-7.446-8.775.694-4.67 10.829h17.676z"/><path fill="#F0BE26" d="M650.42 530.748l-2.746 6.302-6.758 1.293 8.278 10.357h15.572z"/><path fill="#91C653" d="M206.049-62.163l-.864-1.637h19.833v3.293h-19.843z"/><path fill="#509FC2" d="M205.175-60.507h-18.861v-3.293h18.871l.864 1.637z"/><path fill="#B83065" d="M212.493-71.389l-.869-1.646h13.85l1.061-2.929.658 2.929 2.962 7.482-3.142-4.189h-15.389z"/><path fill="#F0BE26" d="M211.624-69.742h-18.215v-3.293h18.215l.869 1.646zM199.111-54.565h19.919v3.292h-19.717l.768-1.455z"/><path fill="#B83065" d="M199.111-54.565l.97 1.837-.768 1.455h-16.102v-3.292z"/><path fill="#91C653" d="M195.095-43.758l-.907 1.72h-10.086v-3.293h10.163z"/><path fill="#509FC2" d="M194.265-45.331h13.072v3.293h-13.149l.907-1.72z"/><path fill="#6DB541" d="M225.018-63.8v3.292h-4.822c.548-1.072.95-2.17 1.157-3.292h3.665z"/><path fill="#357BBD" d="M189.556-60.507h-3.242v-3.293h6.335c-1.139 1.05-2.189 2.15-3.093 3.293z"/><path fill="#871E47" d="M218.667-73.035h6.7c.532 1.062.966 2.159 1.279 3.293h-6.043c-.485-1.129-1.145-2.228-1.936-3.293z"/><path fill="#D69018" d="M193.41-69.742v-2.051c.587-.427 1.178-.841 1.768-1.242h11.022c-1.641.906-3.583 2.014-5.604 3.293h-7.186zM219.03-54.565v3.292h-7.467c1.381-1.032 2.723-2.132 3.949-3.292h3.518z"/><path fill="#871E47" d="M186.383-51.273h-3.171v-3.292h3.319c-.149.684-.236 1.376-.236 2.077 0 .407.036.812.088 1.215z"/><path fill="#6DB541" d="M188.909-45.331c.811 1.14 1.775 2.239 2.839 3.293h-7.509l-.137-.19v-3.103h4.807z"/><path fill="#357BBD" d="M202.196-45.331h5.142v3.293h-11.107c1.332-.757 2.571-1.434 3.649-2.021.683-.371 1.467-.798 2.316-1.272z"/><path fill="#91C653" d="M202.306-110.163l.863-1.637h-19.832v3.293h19.842z"/><path fill="#509FC2" d="M203.179-108.507h18.862v-3.293h-18.872l-.863 1.637z"/><path fill="#B83065" d="M195.862-119.388l.869-1.647h-13.85l-1.061-2.93-.658 2.93-2.962 7.482 3.142-4.189h15.388z"/><path fill="#F0BE26" d="M196.73-117.742h18.216v-3.293h-18.215l-.869 1.647zM209.244-102.565h-19.919v3.292h19.717l-.769-1.455z"/><path fill="#B83065" d="M209.244-102.565l-.971 1.837.769 1.455h16.102v-3.292z"/><path fill="#91C653" d="M213.26-91.758l.907 1.72h10.086v-3.293h-10.164z"/><path fill="#509FC2" d="M214.089-93.331h-13.071v3.293h13.149l-.907-1.72z"/><path fill="#6DB541" d="M183.336-111.8v3.292h4.822c-.549-1.071-.95-2.17-1.157-3.292h-3.665z"/><path fill="#357BBD" d="M218.799-108.507h3.242v-3.292h-6.335c1.139 1.049 2.188 2.149 3.093 3.292z"/><path fill="#871E47" d="M189.688-121.035h-6.7c-.532 1.062-.965 2.159-1.279 3.292h6.043c.485-1.128 1.145-2.227 1.936-3.292z"/><path fill="#D69018" d="M214.945-117.742v-2.051c-.587-.427-1.178-.841-1.768-1.242h-11.022c1.641.907 3.583 2.014 5.605 3.292h7.185zM189.325-102.565v3.292h7.467c-1.382-1.032-2.723-2.132-3.949-3.292h-3.518z"/><path fill="#871E47" d="M221.972-99.273h3.171v-3.292h-3.319c.149.684.236 1.376.236 2.077 0 .407-.036.812-.088 1.215z"/><path fill="#6DB541" d="M219.446-93.331c-.811 1.139-1.775 2.238-2.839 3.292h7.509l.137-.19v-3.102h-4.807z"/><path fill="#357BBD" d="M206.159-93.331h-5.143v3.292h11.107c-1.332-.757-2.571-1.433-3.649-2.021-.682-.37-1.466-.797-2.315-1.271z"/><path fill="#91C653" d="M201.165-14.163l.864-1.638h-19.833v3.293h19.843z"/><path fill="#509FC2" d="M202.039-12.508h18.861v-3.293h-18.871l-.864 1.638z"/><path fill="#B83065" d="M194.721-23.389l.869-1.646h-13.85l-.803-2.219-.916 2.219-2.962 7.482 3.142-4.19h15.389z"/><path fill="#F0BE26" d="M195.59-21.743h18.215v-3.292h-18.215l-.869 1.646zM208.103-6.566h-19.919v3.293h19.717l-.768-1.455z"/><path fill="#B83065" d="M208.103-6.566l-.97 1.838.768 1.455h16.101v-3.293z"/><path fill="#6DB541" d="M182.196-15.801v3.293h4.822c-.549-1.071-.95-2.17-1.157-3.293h-3.665z"/><path fill="#357BBD" d="M217.658-12.508h4.689l-1.447-3.293h-6.336c1.14 1.051 2.189 2.151 3.094 3.293z"/><path fill="#871E47" d="M188.547-25.035h-6.7c-.532 1.062-.966 2.159-1.279 3.292h6.043c.485-1.128 1.145-2.228 1.936-3.292z"/><path fill="#D69018" d="M213.804-21.743v-2.05c-.587-.427-1.178-.841-1.768-1.242h-11.022c1.641.906 3.583 2.014 5.605 3.292h7.185zM188.184-6.566v3.293h7.466c-1.381-1.032-2.723-2.132-3.949-3.293h-3.517z"/><path fill="#871E47" d="M220.831-3.273h4.3v-3.293h-4.448c.149.684.236 1.376.236 2.077 0 .408-.036.813-.088 1.216z"/><path fill="#91C653" d="M202.306-206.163l.863-1.637h-19.832v3.293h19.842z"/><path fill="#509FC2" d="M203.179-204.507h18.862v-3.293h-18.872l-.863 1.637z"/><path fill="#B83065" d="M195.862-215.388l.869-1.647h-13.85l-1.061-2.93-.658 2.93-2.962 7.482 3.142-4.189h15.388z"/><path fill="#F0BE26" d="M196.73-213.742h18.216v-3.293h-18.215l-.869 1.647zM209.244-198.565h-19.919v3.292h19.717l-.769-1.455z"/><path fill="#B83065" d="M209.244-198.565l-.971 1.837.769 1.455h16.102v-3.292z"/><path fill="#91C653" d="M213.26-187.758l.907 1.72h10.086v-3.293h-10.164z"/><path fill="#509FC2" d="M214.089-189.331h-13.071v3.293h13.149l-.907-1.72z"/><path fill="#6DB541" d="M183.336-207.8v3.292h4.822c-.549-1.071-.95-2.17-1.157-3.292h-3.665z"/><path fill="#357BBD" d="M218.799-204.507h3.242v-3.292h-6.335c1.139 1.049 2.188 2.149 3.093 3.292z"/><path fill="#871E47" d="M189.688-217.035h-6.7c-.532 1.062-.965 2.159-1.279 3.292h6.043c.485-1.128 1.145-2.227 1.936-3.292z"/><path fill="#D69018" d="M214.945-213.742v-2.05c-.587-.427-1.178-.841-1.768-1.242h-11.022c1.641.907 3.583 2.014 5.605 3.292h7.185zM189.325-198.565v3.292h7.467c-1.382-1.032-2.723-2.132-3.949-3.292h-3.518z"/><path fill="#871E47" d="M221.972-195.273h3.171v-3.292h-3.319c.149.684.236 1.376.236 2.077 0 .408-.036.812-.088 1.215z"/><path fill="#6DB541" d="M219.446-189.331c-.811 1.139-1.775 2.239-2.839 3.292h7.509l.137-.19v-3.102h-4.807z"/><path fill="#357BBD" d="M206.159-189.331h-5.143v3.292h11.107c-1.332-.757-2.571-1.433-3.649-2.02-.682-.371-1.466-.798-2.315-1.272z"/><path fill="#F0BE26" d="M199.111-246.565h19.919v3.292h-19.717l.768-1.455z"/><path fill="#B83065" d="M199.111-246.565l.97 1.837-.768 1.455h-16.102v-3.292z"/><path fill="#91C653" d="M195.095-235.758l-.907 1.72h-10.086v-3.293h10.163z"/><path fill="#509FC2" d="M194.265-237.331h13.072v3.293h-13.149l.907-1.72z"/><path fill="#D69018" d="M219.03-246.565v3.292h-7.467c1.381-1.032 2.723-2.132 3.949-3.292h3.518z"/><path fill="#871E47" d="M186.383-243.273h-3.171v-3.292h3.319c-.149.684-.236 1.376-.236 2.077 0 .407.036.812.088 1.215z"/><path fill="#6DB541" d="M188.909-237.331c.811 1.14 1.775 2.239 2.839 3.293h-7.509l-.137-.19v-3.103h4.807z"/><path fill="#357BBD" d="M202.196-237.331h5.142v3.293h-11.107c1.332-.757 2.571-1.433 3.649-2.021.683-.371 1.467-.798 2.316-1.272z"/><path fill="#C1D6DE" d="M221.184-177.789c-2.394-2.104-5.018-3.971-7.556-5.588-1.621 1.306-3.339 2.515-5.028 3.611 2.502 1.511 5.22 3.31 7.69 5.334 1.618-1.018 3.275-2.137 4.894-3.357z"/><path fill="#91C653" d="M206.049-158.163l-.864-1.637h19.833v3.293h-19.843z"/><path fill="#509FC2" d="M205.175-156.507h-18.861v-3.293h18.871l.864 1.637z"/><path fill="#B83065" d="M212.493-167.388l-.869-1.647h13.85l1.061-2.93.658 2.93 2.962 7.482-3.142-4.189h-15.389z"/><path fill="#F0BE26" d="M211.624-165.742h-18.215v-3.293h18.215l.869 1.647zM199.111-150.565h19.919v3.292h-19.717l.768-1.455z"/><path fill="#B83065" d="M199.111-150.565l.97 1.837-.768 1.455h-16.102v-3.292z"/><path fill="#91C653" d="M195.095-139.758l-.907 1.72h-10.086v-3.293h10.163z"/><path fill="#509FC2" d="M194.265-141.331h13.072v3.293h-13.149l.907-1.72z"/><path fill="#6DB541" d="M225.018-159.8v3.292h-4.822c.548-1.071.95-2.17 1.157-3.292h3.665z"/><path fill="#357BBD" d="M189.556-156.507h-3.242v-3.292h6.335c-1.139 1.049-2.189 2.149-3.093 3.292z"/><path fill="#871E47" d="M218.667-169.035h6.7c.532 1.062.966 2.159 1.279 3.292h-6.043c-.485-1.128-1.145-2.227-1.936-3.292z"/><path fill="#D69018" d="M193.41-165.742v-2.05c.587-.427 1.178-.841 1.768-1.242h11.022c-1.641.907-3.583 2.014-5.604 3.292h-7.186zM219.03-150.565v3.292h-7.467c1.381-1.032 2.723-2.132 3.949-3.292h3.518z"/><path fill="#871E47" d="M186.383-147.273h-3.171v-3.292h3.319c-.149.684-.236 1.376-.236 2.077 0 .408.036.812.088 1.215z"/><path fill="#6DB541" d="M188.909-141.331c.811 1.139 1.775 2.239 2.839 3.292h-7.509l-.137-.19v-3.102h4.807z"/><path fill="#357BBD" d="M202.196-141.331h5.142v3.292h-11.107c1.332-.757 2.571-1.433 3.649-2.02.683-.371 1.467-.798 2.316-1.272z"/><linearGradient id="a" gradientUnits="userSpaceOnUse" x1="204.785" y1="-248.804" x2="204.785" y2=".49"><stop offset="0" stop-color="#CEE1E8"/><stop offset=".489" stop-color="#CCE0E7"/><stop offset=".665" stop-color="#C5DCE5"/><stop offset=".79" stop-color="#BAD6E2"/><stop offset=".892" stop-color="#A9CCDD"/><stop offset=".978" stop-color="#93C0D6"/><stop offset="1" stop-color="#8CBCD4"/></linearGradient><path fill="url(#a)" d="M223.866-1.041c.4-1.125.622-2.277.622-3.45 0-9.718-15.163-17.969-21.637-21.494-7.99-4.35-24.614-13.401-24.614-26.506 0-13.104 16.625-22.155 24.614-26.505 6.475-3.525 21.637-11.78 21.637-21.495 0-9.719-15.163-17.97-21.637-21.494-7.99-4.349-24.614-13.399-24.614-26.505 0-13.105 16.625-22.156 24.614-26.505 6.475-3.524 21.637-11.778 21.637-21.495s-15.163-17.97-21.637-21.495c-7.99-4.35-24.614-13.4-24.614-26.505 0-2.409.565-4.68 1.532-6.811h6.544c-1.462 2.152-2.372 4.438-2.372 6.811 0 9.715 15.162 17.97 21.637 21.495 7.989 4.349 24.614 13.398 24.614 26.505s-16.625 22.156-24.614 26.505c-6.475 3.525-21.637 11.78-21.637 21.495 0 9.716 15.162 17.97 21.637 21.495 7.989 4.348 24.614 13.395 24.614 26.504 0 13.105-16.625 22.156-24.614 26.506-6.475 3.524-21.637 11.779-21.637 21.494 0 9.716 15.162 17.971 21.637 21.496 7.989 4.349 25.755 13.397 25.755 26.504 0 3.256-.991 6.332-2.603 9.184-.821 1.453-5.498-3.952-4.864-5.734z"/><linearGradient id="b" gradientUnits="userSpaceOnUse" x1="203.892" y1="-249.366" x2="203.892" y2="-5.847"><stop offset="0" stop-color="#CEE1E8"/><stop offset=".489" stop-color="#CCE0E7"/><stop offset=".665" stop-color="#C5DCE5"/><stop offset=".79" stop-color="#BAD6E2"/><stop offset=".892" stop-color="#A9CCDD"/><stop offset=".978" stop-color="#93C0D6"/><stop offset="1" stop-color="#8CBCD4"/></linearGradient><path fill="url(#b)" d="M205.541-231.048c6.647-3.619 19.266-10.496 23.319-20.252h-6.416c-4.336 6.913-14.602 12.504-19.631 15.242-7.989 4.349-24.614 13.399-24.614 26.505s16.625 22.155 24.614 26.505c6.475 3.524 21.637 11.779 21.637 21.495 0 9.716-15.162 17.971-21.637 21.496-7.989 4.349-24.614 13.399-24.614 26.505s16.625 22.155 24.614 26.505c6.475 3.524 21.067 11.779 21.067 21.495s-14.592 17.97-21.067 21.496c-7.989 4.349-25.755 13.399-25.755 26.505 0 9.25 8.566 17.333 16.416 22.816 0 0 7.479-3.857 4.58-5.698-6.701-4.254-14.15-10.337-14.15-17.118 0-9.717 16.303-17.4 22.778-20.924 7.989-4.35 24.043-13.971 24.043-27.077 0-13.105-17.195-22.155-25.185-26.505-6.475-3.525-21.637-11.779-21.637-21.495 0-9.716 15.163-17.97 21.637-21.495 7.989-4.35 24.614-13.4 24.614-26.506 0-13.104-16.625-22.155-24.614-26.505-6.475-3.524-21.637-11.778-21.637-21.495s15.163-17.97 21.638-21.495z"/><path fill="#C1D6DE" d="M213.628-183.376c-1.621 1.306-3.339 2.515-5.028 3.611.401.242.814.503 1.224.76 1.687-1.055 3.436-2.231 5.114-3.51-.437-.291-.875-.585-1.31-.861zM216.291-174.431c1.617-1.019 3.274-2.138 4.893-3.357-.472-.415-.959-.813-1.447-1.21-1.562 1.267-3.19 2.438-4.804 3.509.456.347.914.695 1.358 1.058zM192.182-231.543c-1.617 1.021-3.272 2.145-4.887 3.367.445.389.904.759 1.362 1.132 1.562-1.266 3.189-2.437 4.803-3.508-.428-.328-.86-.652-1.278-.991zM192.182-135.543c-1.617 1.022-3.272 2.145-4.887 3.367.445.389.904.76 1.362 1.132 1.562-1.266 3.189-2.437 4.803-3.508-.428-.328-.86-.651-1.278-.991zM195.109-222.448c1.605-1.313 3.313-2.531 5-3.638-.504-.302-1.024-.625-1.544-.951-1.687 1.055-3.435 2.232-5.114 3.51.555.369 1.11.734 1.658 1.079zM195.109-126.447c1.605-1.313 3.313-2.531 5-3.638-.504-.302-1.024-.625-1.544-.951-1.687 1.054-3.435 2.231-5.114 3.509.555.37 1.11.734 1.658 1.08z"/><path fill="#9BBDCC" d="M193.326-38.64c-.439-.336-.872-.682-1.298-1.032-1.619 1.031-3.266 2.152-4.884 3.36.414.366.832.725 1.258 1.075 1.612-1.225 3.279-2.362 4.924-3.403zM199.392-34.52c-1.766 1.014-3.606 2.141-5.378 3.368.435.283 1.146.736 1.576 1.005 1.611-1.31 3.293-2.552 4.981-3.665-.304-.18-.868-.518-1.179-.708z"/><path fill="#B2C7CF" d="M213.62-87.449c-1.621 1.307-3.355 2.621-5.044 3.718.395.238.795.501 1.194.758 1.723-1.075 3.512-2.278 5.227-3.587-.462-.301-.926-.602-1.377-.889zM216.151-78.305c1.617-1.019 3.559-2.397 5.177-3.616-.468-.411-.959-.802-1.451-1.191-1.652 1.349-3.382 2.59-5.093 3.721.458.358.917.717 1.367 1.086z"/><path fill="#91C653" d="M40.764-127.3l-.651-1.233h14.927v2.478h-14.934z"/><path fill="#509FC2" d="M40.106-126.055h-14.196v-2.478h14.203l.651 1.233z"/><path fill="#B83065" d="M45.613-134.244l-.654-1.239h10.424l.799-2.205.495 2.205 2.229 5.631-2.365-3.152h-11.582z"/><path fill="#F0BE26" d="M44.959-133.004h-13.709v-2.479h13.709l.654 1.239zM35.542-121.583h14.991v2.479h-14.839l.578-1.096z"/><path fill="#B83065" d="M35.542-121.583l.73 1.383-.578 1.096h-12.119v-2.479z"/><path fill="#91C653" d="M32.52-113.449l-.684 1.295h-7.59v-2.479h7.649z"/><path fill="#509FC2" d="M31.895-114.633h9.838v2.479h-9.897l.684-1.295z"/><path fill="#6DB541" d="M55.04-128.533v2.478h-3.629c.413-.807.715-1.633.871-2.478h2.758z"/><path fill="#357BBD" d="M28.351-126.055h-2.44v-2.478h4.769c-.859.79-1.649 1.618-2.329 2.478z"/><path fill="#871E47" d="M50.26-135.483h5.042c.401.799.727 1.625.963 2.479h-4.548c-.365-.85-.862-1.678-1.457-2.479z"/><path fill="#D69018" d="M31.251-133.004v-1.544c.442-.321.886-.633 1.33-.935h8.295c-1.235.682-2.696 1.516-4.218 2.479h-5.407zM50.533-121.583v2.478h-5.62c1.04-.776 2.049-1.604 2.973-2.478h2.647z"/><path fill="#871E47" d="M25.962-119.104h-2.387v-2.478h2.498c-.112.515-.178 1.036-.178 1.563.001.307.028.611.067.915z"/><path fill="#6DB541" d="M27.863-114.633c.61.858 1.336 1.685 2.137 2.479h-5.651l-.103-.143v-2.335h3.617z"/><path fill="#357BBD" d="M37.863-114.633h3.87v2.479h-8.359c1.002-.57 1.935-1.079 2.747-1.521.514-.28 1.104-.601 1.742-.958z"/><path fill="#91C653" d="M37.946-163.426l.65-1.233h-14.926v2.478h14.934z"/><path fill="#509FC2" d="M38.604-162.181h14.195v-2.478h-14.203l-.65 1.233z"/><path fill="#B83065" d="M33.096-170.37l.654-1.239h-10.423l-.799-2.205-.495 2.205-2.23 5.631 2.365-3.153h11.582z"/><path fill="#F0BE26" d="M33.75-169.131h13.709v-2.478h-13.709l-.654 1.239zM43.168-157.708h-14.992v2.478h14.84l-.578-1.095z"/><path fill="#B83065" d="M43.168-157.708l-.73 1.383.578 1.095h12.118v-2.478z"/><path fill="#91C653" d="M46.19-149.575l.684 1.295h7.59v-2.478h-7.649z"/><path fill="#509FC2" d="M46.815-150.758h-9.838v2.478h9.897l-.684-1.295z"/><path fill="#6DB541" d="M23.669-164.659v2.478h3.629c-.413-.806-.715-1.633-.871-2.478h-2.758z"/><path fill="#357BBD" d="M50.359-162.181h2.44v-2.478h-4.768c.858.791 1.647 1.618 2.328 2.478z"/><path fill="#871E47" d="M28.45-171.609h-5.042c-.4.799-.727 1.625-.963 2.478h4.548c.365-.849.861-1.677 1.457-2.478z"/><path fill="#D69018" d="M47.458-169.131v-1.543c-.441-.321-.886-.633-1.33-.935h-8.295c1.235.683 2.697 1.516 4.218 2.478h5.407zM28.176-157.708v2.478h5.62c-1.04-.776-2.049-1.604-2.972-2.478h-2.648z"/><path fill="#871E47" d="M52.748-155.23h2.387v-2.478h-2.499c.112.515.178 1.036.178 1.563-.001.307-.027.611-.066.915z"/><path fill="#6DB541" d="M50.847-150.758c-.61.857-1.336 1.685-2.137 2.478h5.652l.103-.143v-2.335h-3.618z"/><path fill="#357BBD" d="M40.846-150.758h-3.87v2.478h8.359c-1.002-.569-1.935-1.079-2.747-1.521-.513-.28-1.103-.601-1.742-.957z"/><path fill="#91C653" d="M37.087-91.174l.651-1.233h-14.927v2.478h14.934z"/><path fill="#509FC2" d="M37.745-89.929h14.196v-2.478h-14.203l-.651 1.233z"/><path fill="#B83065" d="M32.238-98.118l.654-1.239h-10.424l-.605-1.67-.689 1.67-2.23 5.63 2.366-3.152h11.582z"/><path fill="#F0BE26" d="M32.892-96.879h13.709v-2.478h-13.709l-.654 1.239zM42.309-85.457h-14.991v2.478h14.839l-.578-1.095z"/><path fill="#B83065" d="M42.309-85.457l-.73 1.383.578 1.095h12.118v-2.478z"/><path fill="#6DB541" d="M22.811-92.407v2.478h3.629c-.413-.806-.715-1.633-.871-2.478h-2.758z"/><path fill="#357BBD" d="M49.501-89.929h3.529l-1.089-2.478h-4.769c.858.79 1.648 1.618 2.329 2.478z"/><path fill="#871E47" d="M27.591-99.357h-5.042c-.4.799-.727 1.625-.962 2.478h4.548c.364-.85.861-1.677 1.456-2.478z"/><path fill="#D69018" d="M46.6-96.879v-1.543c-.442-.322-.886-.633-1.33-.935h-8.295c1.234.682 2.696 1.516 4.218 2.478h5.407zM27.318-85.457v2.479h5.619c-1.04-.777-2.049-1.605-2.972-2.479h-2.647z"/><path fill="#871E47" d="M51.889-82.979h3.236v-2.479h-3.348c.112.515.178 1.036.178 1.563 0 .309-.027.613-.066.916z"/><path fill="#91C653" d="M37.946-235.678l.65-1.232h-14.926v2.478h14.934z"/><path fill="#509FC2" d="M38.604-234.432h14.195v-2.478h-14.203l-.65 1.232z"/><path fill="#B83065" d="M33.096-242.622l.654-1.239h-10.423l-.799-2.205-.495 2.205-2.23 5.631 2.365-3.153h11.582z"/><path fill="#F0BE26" d="M33.75-241.383h13.709v-2.478h-13.709l-.654 1.239zM43.168-229.96h-14.992v2.478h14.84l-.578-1.095z"/><path fill="#B83065" d="M43.168-229.96l-.73 1.383.578 1.095h12.118v-2.478z"/><path fill="#91C653" d="M46.19-221.826l.684 1.294h7.59v-2.478h-7.649z"/><path fill="#509FC2" d="M46.815-223.01h-9.838v2.478h9.897l-.684-1.294z"/><path fill="#6DB541" d="M23.669-236.91v2.478h3.629c-.413-.807-.715-1.633-.871-2.478h-2.758z"/><path fill="#357BBD" d="M50.359-234.432h2.44v-2.478h-4.768c.858.79 1.647 1.618 2.328 2.478z"/><path fill="#871E47" d="M28.45-243.861h-5.042c-.4.799-.727 1.625-.963 2.478h4.548c.365-.849.861-1.677 1.457-2.478z"/><path fill="#D69018" d="M47.458-241.383v-1.543c-.441-.321-.886-.633-1.33-.935h-8.295c1.235.683 2.697 1.516 4.218 2.478h5.407zM28.176-229.96v2.478h5.62c-1.04-.776-2.049-1.604-2.972-2.478h-2.648z"/><path fill="#871E47" d="M52.748-227.482h2.387v-2.478h-2.499c.112.515.178 1.036.178 1.563-.001.307-.027.611-.066.915z"/><path fill="#6DB541" d="M50.847-223.01c-.61.857-1.336 1.685-2.137 2.478h5.652l.103-.144v-2.334h-3.618z"/><path fill="#357BBD" d="M40.846-223.01h-3.87v2.478h8.359c-1.002-.57-1.935-1.079-2.747-1.521-.513-.279-1.103-.601-1.742-.957z"/><path fill="#C1D6DE" d="M52.154-214.323c-1.802-1.584-3.776-2.989-5.687-4.206-1.22.983-2.513 1.893-3.784 2.718 1.883 1.137 3.928 2.491 5.788 4.014 1.217-.766 2.465-1.608 3.683-2.526z"/><path fill="#91C653" d="M40.764-199.552l-.651-1.232h14.927v2.477h-14.934z"/><path fill="#509FC2" d="M40.106-198.307h-14.196v-2.477h14.203l.651 1.232z"/><path fill="#B83065" d="M45.613-206.496l-.654-1.239h10.424l.799-2.205.495 2.205 2.229 5.631-2.365-3.153h-11.582z"/><path fill="#F0BE26" d="M44.959-205.257h-13.709v-2.478h13.709l.654 1.239zM35.542-193.834h14.991v2.478h-14.839l.578-1.095z"/><path fill="#B83065" d="M35.542-193.834l.73 1.383-.578 1.095h-12.119v-2.478z"/><path fill="#91C653" d="M32.52-185.7l-.684 1.294h-7.59v-2.478h7.649z"/><path fill="#509FC2" d="M31.895-186.884h9.838v2.478h-9.897l.684-1.294z"/><path fill="#6DB541" d="M55.04-200.784v2.478h-3.629c.413-.806.715-1.633.871-2.478h2.758z"/><path fill="#357BBD" d="M28.351-198.307h-2.44v-2.478h4.769c-.859.791-1.649 1.618-2.329 2.478z"/><path fill="#871E47" d="M50.26-207.735h5.042c.401.799.727 1.625.963 2.478h-4.548c-.365-.849-.862-1.677-1.457-2.478z"/><path fill="#D69018" d="M31.251-205.257v-1.543c.442-.322.886-.633 1.33-.935h8.295c-1.235.683-2.696 1.516-4.218 2.478h-5.407zM50.533-193.834v2.478h-5.62c1.04-.776 2.049-1.604 2.973-2.478h2.647z"/><path fill="#871E47" d="M25.962-191.356h-2.387v-2.478h2.498c-.112.515-.178 1.036-.178 1.563.001.307.028.611.067.915z"/><path fill="#6DB541" d="M27.863-186.884c.61.857 1.336 1.685 2.137 2.478h-5.651l-.103-.143v-2.334h3.617z"/><path fill="#357BBD" d="M37.863-186.884h3.87v2.478h-8.359c1.002-.569 1.935-1.078 2.747-1.52.514-.281 1.104-.602 1.742-.958z"/><linearGradient id="c" gradientUnits="userSpaceOnUse" x1="39.812" y1="-267.626" x2="39.812" y2="-81.655"><stop offset="0" stop-color="#CEE1E8"/><stop offset=".489" stop-color="#CCE0E7"/><stop offset=".665" stop-color="#C5DCE5"/><stop offset=".79" stop-color="#BAD6E2"/><stop offset=".892" stop-color="#A9CCDD"/><stop offset=".978" stop-color="#93C0D6"/><stop offset="1" stop-color="#8CBCD4"/></linearGradient><path fill="url(#c)" d="M38.356-244.575c4.873 2.652 16.285 8.864 16.285 16.177s-11.412 13.525-16.285 16.177c-6.014 3.274-18.525 10.085-18.525 19.949s12.512 16.675 18.525 19.948c4.873 2.652 16.285 8.862 16.285 16.177 0 7.312-11.412 13.524-16.285 16.178-6.014 3.273-18.525 10.085-18.525 19.948s12.512 16.675 18.525 19.949c4.873 2.652 16.285 8.863 16.285 16.177 0 .441-.042.878-.121 1.312s3.808 4.682 4.021 4.211c.79-1.746 1.252-3.593 1.252-5.523 0-9.865-13.372-16.675-19.384-19.948-4.874-2.653-16.285-8.866-16.285-16.178s11.411-13.525 16.285-16.177c6.013-3.274 18.525-10.085 18.525-19.949 0-9.866-12.513-16.675-18.525-19.948-4.874-2.652-16.285-8.865-16.285-16.177 0-7.312 11.411-13.525 16.285-16.178 6.013-3.273 18.525-10.084 18.525-19.948s-12.512-16.675-18.525-19.948c-1.343-.731-3.184-1.734-5.144-2.954h-7.49c3.668 2.96 7.813 5.218 10.581 6.725z"/><linearGradient id="d" gradientUnits="userSpaceOnUse" x1="39.14" y1="-268.077" x2="39.14" y2="-86.068"><stop offset="0" stop-color="#CEE1E8"/><stop offset=".489" stop-color="#CCE0E7"/><stop offset=".665" stop-color="#C5DCE5"/><stop offset=".79" stop-color="#BAD6E2"/><stop offset=".892" stop-color="#A9CCDD"/><stop offset=".978" stop-color="#93C0D6"/><stop offset="1" stop-color="#8CBCD4"/></linearGradient><path fill="url(#d)" d="M34.992-251.3h-7.437c-4.216 3.445-7.752 7.826-7.752 13.07 0 9.864 12.513 16.674 18.525 19.948 4.874 2.652 16.285 8.865 16.285 16.177 0 7.313-11.411 13.525-16.285 16.178-6.012 3.273-18.525 10.084-18.525 19.948s12.513 16.674 18.525 19.948c4.874 2.652 15.855 8.865 15.855 16.177s-10.982 13.525-15.855 16.178c-6.012 3.272-19.384 10.084-19.384 19.948 0 5.983 5.363 11.961 10.452 15.962h3.745c1.325-.954 2.833-2.298 1.605-3.078-5.043-3.202-10.65-7.78-10.65-12.884 0-7.313 12.271-13.095 17.144-15.748 6.013-3.274 18.096-10.515 18.096-20.378s-12.941-16.675-18.955-19.948c-4.873-2.653-16.285-8.865-16.285-16.177 0-7.313 11.412-13.525 16.285-16.177 6.013-3.274 18.525-10.086 18.525-19.949 0-9.863-12.512-16.674-18.525-19.948-4.873-2.652-16.285-8.864-16.285-16.177 0-5.213 5.8-9.866 10.896-13.07z"/><path fill="#C1D6DE" d="M46.467-218.529c-1.22.983-2.513 1.893-3.784 2.718l.921.572c1.27-.793 2.586-1.679 3.849-2.641-.328-.219-.659-.44-.986-.649zM48.471-211.796c1.217-.767 2.465-1.609 3.683-2.527-.355-.313-.722-.612-1.089-.911-1.175.954-2.4 1.835-3.616 2.642.344.261.689.522 1.022.796zM30.327-182.528c-1.217.769-2.462 1.614-3.678 2.534.335.292.681.572 1.025.852 1.175-.953 2.4-1.834 3.615-2.64-.323-.247-.648-.49-.962-.746zM32.53-175.683c1.208-.988 2.494-1.905 3.763-2.738-.379-.228-.771-.471-1.162-.715-1.269.793-2.585 1.679-3.849 2.641.418.278.835.552 1.248.812z"/><path fill="#9BBDCC" d="M31.188-109.597c-.331-.253-.656-.513-.977-.777-1.219.776-2.458 1.62-3.676 2.529.311.275.626.546.947.81 1.213-.923 2.468-1.778 3.706-2.562zM35.753-106.496c-1.329.763-2.714 1.611-4.048 2.535.327.213.862.554 1.186.756 1.213-.985 2.479-1.921 3.75-2.758l-.888-.533z"/><path fill="#B2C7CF" d="M46.461-146.332c-1.22.983-2.525 1.973-3.796 2.798.297.179.599.377.899.57 1.297-.809 2.643-1.714 3.934-2.7l-1.037-.668zM48.367-139.45c1.217-.767 2.678-1.804 3.896-2.722-.352-.309-.722-.604-1.092-.896-1.243 1.015-2.545 1.949-3.833 2.8.345.27.689.54 1.029.818z"/><path fill="#C1D6DE" d="M31.282-248.747c.417.278.834.552 1.248.812 1.208-.988 2.494-1.905 3.763-2.738-.333-.199-.676-.413-1.019-.627h-.279c-1.227.773-2.494 1.626-3.713 2.553z"/></svg>