<svg xmlns="http://www.w3.org/2000/svg" width="99.796" height="101.007" viewBox="0 0 99.796 101.007"><linearGradient id="a" gradientUnits="userSpaceOnUse" x1="198.065" y1="388.554" x2="-67.169" y2="-96.629" gradientTransform="matrix(1 0 0 -1 0 102.236)"><stop offset="0" stop-color="#E0E0DF"/><stop offset="0" stop-color="#D6D5D5"/><stop offset=".038" stop-color="#C7C6C6"/><stop offset=".111" stop-color="#9F9F9F"/><stop offset=".21" stop-color="#616262"/><stop offset=".264" stop-color="#3D3D3D"/><stop offset=".273" stop-color="#424242"/><stop offset=".378" stop-color="#838384"/><stop offset=".467" stop-color="#B4B4B4"/><stop offset=".535" stop-color="#D1D2D2"/><stop offset=".573" stop-color="#DDDDDC"/><stop offset=".628" stop-color="#D2D3D3"/><stop offset=".72" stop-color="#B9B9B9"/><stop offset=".837" stop-color="#8F8F8E"/><stop offset=".876" stop-color="#7F7F7F"/><stop offset="1" stop-color="#C8C8C8"/><stop offset="1" stop-color="#969696"/></linearGradient><path fill="url(#a)" d="M38.038 7.447c-3.706 3.706-.252 7.228-4.063 11.825-.389.461-15.603 15.675-16.061 16.063-5.278 4.778-7.809.036-12.048 4.281-2.383 2.383-2.383 6.306 0 8.693 2.387 2.383 6.312 2.383 8.694 0 3.706-3.705.497-7.268 4.419-11.831.425-.425 15.563-15.639 15.992-15.992 4.598-4.028 7.697-.287 11.76-4.346 2.421-2.425 2.421-6.342.033-8.729-2.385-2.382-6.304-2.389-8.726.036z"/><linearGradient id="b" gradientUnits="userSpaceOnUse" x1="192.45" y1="391.575" x2="-72.754" y2="-93.553" gradientTransform="matrix(1 0 0 -1 0 102.236)"><stop offset="0" stop-color="#B4B4B4"/><stop offset=".09" stop-color="#676767"/><stop offset=".16" stop-color="#2D2C2C"/><stop offset=".3" stop-color="#2D2C2C"/><stop offset=".4" stop-color="#676767"/><stop offset=".5" stop-color="#B4B4B4"/><stop offset=".69" stop-color="#B4B4B4"/><stop offset=".8" stop-color="#676767"/><stop offset=".9" stop-color="#2D2C2C"/><stop offset="1" stop-color="#B4B4B4"/></linearGradient><path fill="url(#b)" d="M3.73 37.337c-3.638 3.634-3.634 9.478 0 13.106 3.638 3.634 9.478 3.634 13.106 0 3.638-3.635 3.64-9.473 0-13.106-3.628-3.636-9.471-3.636-13.106 0z"/><linearGradient id="c" gradientUnits="userSpaceOnUse" x1="203.507" y1="385.616" x2="-61.75" y2="-99.609" gradientTransform="matrix(1 0 0 -1 0 102.236)"><stop offset=".093" stop-color="#383938"/><stop offset=".187" stop-color="#525252"/><stop offset=".248" stop-color="#616262"/><stop offset=".323" stop-color="#717171"/><stop offset=".483" stop-color="#B4B4B4"/><stop offset=".549" stop-color="#6B6B6A"/><stop offset=".643" stop-color="#5E5E5E"/><stop offset=".714" stop-color="#908F8F"/><stop offset=".852" stop-color="#C4C4C4"/></linearGradient><path fill="url(#c)" d="M35.473 5.454c-3.632 3.634-3.634 9.478 0 13.106 3.638 3.634 9.475 3.634 13.109 0 3.635-3.636 3.635-9.473 0-13.106-3.635-3.636-9.478-3.636-13.109 0z"/><linearGradient id="d" gradientUnits="userSpaceOnUse" x1="244.366" y1="363.252" x2="-20.874" y2="-121.942" gradientTransform="matrix(1 0 0 -1 0 102.236)"><stop offset=".16" stop-color="#bbb"/><stop offset=".208" stop-color="#908F8F"/><stop offset=".269" stop-color="#9E9E9E"/><stop offset=".31" stop-color="#bbb"/><stop offset=".378" stop-color="#939292"/><stop offset=".432" stop-color="#5A5A5A"/><stop offset=".514" stop-color="#8B8A8A"/><stop offset=".568" stop-color="#9E9E9E"/><stop offset=".677" stop-color="#919090"/><stop offset=".779" stop-color="#7F7F7F"/><stop offset=".84" stop-color="#ACACAC"/></linearGradient><path fill="url(#d)" d="M45.385 79.817c-1.713 1.712-1.713 4.556.036 6.304 1.748 1.749 4.56 1.713 6.269 0 2.425-2.418.819-5.304 5.096-9.939.355-.424 18.877-18.949 19.306-19.302 4.632-4.282 7.877-3.03 9.906-5.06 1.742-1.742 1.778-4.557.033-6.312-1.745-1.742-4.596-1.742-6.341 0-2.35 2.354-.356 5.347-4.664 10.083-.393.396-18.914 18.986-19.346 19.346-4.879 4.527-7.694 2.281-10.295 4.88z"/><linearGradient id="e" gradientUnits="userSpaceOnUse" x1="250.536" y1="359.898" x2="-14.716" y2="-125.318" gradientTransform="matrix(1 0 0 -1 0 102.236)"><stop offset="0" stop-color="#E0E0DF"/><stop offset="0" stop-color="#D6D5D5"/><stop offset=".038" stop-color="#C7C6C6"/><stop offset=".111" stop-color="#9F9F9F"/><stop offset=".21" stop-color="#616262"/><stop offset=".264" stop-color="#3D3D3D"/><stop offset=".273" stop-color="#424242"/><stop offset=".378" stop-color="#838384"/><stop offset=".467" stop-color="#B4B4B4"/><stop offset=".535" stop-color="#D1D2D2"/><stop offset=".573" stop-color="#DDDDDC"/><stop offset=".628" stop-color="#D2D3D3"/><stop offset=".72" stop-color="#B9B9B9"/><stop offset=".837" stop-color="#8F8F8E"/><stop offset=".876" stop-color="#7F7F7F"/><stop offset="1" stop-color="#C8C8C8"/><stop offset="1" stop-color="#969696"/></linearGradient><path fill="url(#e)" d="M77.8 43.593c-2.882 2.881-2.855 7.551 0 10.406 2.887 2.886 7.523 2.886 10.412 0 2.856-2.855 2.887-7.52 0-10.406-2.856-2.863-7.553-2.863-10.412 0z"/><linearGradient id="f" gradientUnits="userSpaceOnUse" x1="238.723" y1="366.456" x2="-26.59" y2="-118.871" gradientTransform="matrix(1 0 0 -1 0 102.236)"><stop offset="0" stop-color="#B4B4B4"/><stop offset=".09" stop-color="#676767"/><stop offset=".16" stop-color="#2D2C2C"/><stop offset=".3" stop-color="#2D2C2C"/><stop offset=".4" stop-color="#676767"/><stop offset=".5" stop-color="#B4B4B4"/><stop offset=".69" stop-color="#B4B4B4"/><stop offset=".8" stop-color="#676767"/><stop offset=".9" stop-color="#2D2C2C"/><stop offset="1" stop-color="#B4B4B4"/></linearGradient><path fill="url(#f)" d="M43.832 77.561c-2.884 2.885-2.857 7.555 0 10.41 2.885 2.888 7.522 2.881 10.411 0 2.859-2.86 2.887-7.525 0-10.41-2.852-2.857-7.55-2.863-10.411 0z"/><linearGradient id="g" gradientUnits="userSpaceOnUse" x1="184.764" y1="395.87" x2="-80.499" y2="-89.367" gradientTransform="matrix(1 0 0 -1 0 102.236)"><stop offset="0" stop-color="#B4B4B4"/><stop offset=".09" stop-color="#676767"/><stop offset=".16" stop-color="#2D2C2C"/><stop offset=".3" stop-color="#2D2C2C"/><stop offset=".4" stop-color="#676767"/><stop offset=".5" stop-color="#B4B4B4"/><stop offset=".69" stop-color="#B4B4B4"/><stop offset=".8" stop-color="#676767"/><stop offset=".9" stop-color="#2D2C2C"/><stop offset="1" stop-color="#B4B4B4"/></linearGradient><path fill="url(#g)" d="M3.932 21.087c-1.746 1.742-1.743 4.598 0 6.34 1.744 1.743 4.563 1.713 6.311-.036 2.419-2.425.784-5.274 5.057-9.902.355-.431 1.853-1.929 2.277-2.281 4.632-4.275 7.874-3.029 9.9-5.059 1.748-1.742 1.746-4.521 0-6.27-1.742-1.743-4.557-1.778-6.305-.036-2.351 2.353-.356 5.341-4.665 10.084-.355.431-1.885 1.957-2.315 2.315-4.842 4.486-7.663 2.24-10.26 4.845z"/><linearGradient id="h" gradientUnits="userSpaceOnUse" x1="187.757" y1="394.249" x2="-77.518" y2="-91.008" gradientTransform="matrix(1 0 0 -1 0 102.236)"><stop offset=".093" stop-color="#383938"/><stop offset=".187" stop-color="#525252"/><stop offset=".248" stop-color="#616262"/><stop offset=".323" stop-color="#717171"/><stop offset=".483" stop-color="#B4B4B4"/><stop offset=".549" stop-color="#6B6B6A"/><stop offset=".643" stop-color="#5E5E5E"/><stop offset=".714" stop-color="#908F8F"/><stop offset=".852" stop-color="#C4C4C4"/></linearGradient><path fill="url(#h)" d="M18.9 2.143c-2.884 2.88-2.857 7.55 0 10.412 2.885 2.881 7.525 2.881 10.411 0 2.859-2.862 2.883-7.525 0-10.412-2.856-2.857-7.552-2.857-10.411 0z"/><linearGradient id="i" gradientUnits="userSpaceOnUse" x1="181.925" y1="397.313" x2="-83.269" y2="-87.796" gradientTransform="matrix(1 0 0 -1 0 102.236)"><stop offset=".16" stop-color="#bbb"/><stop offset=".208" stop-color="#908F8F"/><stop offset=".269" stop-color="#9E9E9E"/><stop offset=".31" stop-color="#bbb"/><stop offset=".378" stop-color="#939292"/><stop offset=".432" stop-color="#5A5A5A"/><stop offset=".514" stop-color="#8B8A8A"/><stop offset=".568" stop-color="#9E9E9E"/><stop offset=".677" stop-color="#919090"/><stop offset=".779" stop-color="#7F7F7F"/><stop offset=".84" stop-color="#ACACAC"/></linearGradient><path fill="url(#i)" d="M2.15 19.051c-2.881 2.88-2.854 7.55.002 10.406 2.887 2.887 7.523 2.887 10.412 0 2.856-2.856 2.884-7.52 0-10.406-2.861-2.857-7.556-2.862-10.414 0z"/><linearGradient id="j" gradientUnits="userSpaceOnUse" x1="215.658" y1="378.931" x2="-49.574" y2="-106.249" gradientTransform="matrix(1 0 0 -1 0 102.236)"><stop offset=".093" stop-color="#383938"/><stop offset=".187" stop-color="#525252"/><stop offset=".248" stop-color="#616262"/><stop offset=".323" stop-color="#717171"/><stop offset=".483" stop-color="#B4B4B4"/><stop offset=".549" stop-color="#6B6B6A"/><stop offset=".643" stop-color="#5E5E5E"/><stop offset=".714" stop-color="#908F8F"/><stop offset=".852" stop-color="#C4C4C4"/></linearGradient><path fill="url(#j)" d="M54.497 18.794c-3.205 3.209-.855 7.34-4.915 11.968-.355.432-21.339 21.411-21.77 21.771-3.772 3.49-6.982 3.635-8.117 4.772-1.322 1.317-1.322 3.389-.038 4.67 1.281 1.281 3.386 1.317 4.7-.007 1.497-1.49.499-3.986 4.347-8.262l21.767-21.764c5.239-4.886 8.551-1 12.36-4.809 2.282-2.281 2.318-6.022 0-8.34-2.28-2.281-6.052-2.275-8.334.001z"/><linearGradient id="k" gradientUnits="userSpaceOnUse" x1="221.136" y1="376.066" x2="-44.18" y2="-109.267" gradientTransform="matrix(1 0 0 -1 0 102.236)"><stop offset=".16" stop-color="#bbb"/><stop offset=".208" stop-color="#908F8F"/><stop offset=".269" stop-color="#9E9E9E"/><stop offset=".31" stop-color="#bbb"/><stop offset=".378" stop-color="#939292"/><stop offset=".432" stop-color="#5A5A5A"/><stop offset=".514" stop-color="#8B8A8A"/><stop offset=".568" stop-color="#9E9E9E"/><stop offset=".677" stop-color="#919090"/><stop offset=".779" stop-color="#7F7F7F"/><stop offset=".84" stop-color="#ACACAC"/></linearGradient><path fill="url(#k)" d="M52.561 16.944c-3.445 3.448-3.41 9.028 0 12.44 3.445 3.449 8.99 3.442 12.436 0 3.414-3.412 3.446-8.992 0-12.44-3.414-3.414-9.023-3.414-12.436 0z"/><linearGradient id="l" gradientUnits="userSpaceOnUse" x1="208" y1="383.164" x2="-57.257" y2="-102.06" gradientTransform="matrix(1 0 0 -1 0 102.236)"><stop offset="0" stop-color="#E0E0DF"/><stop offset="0" stop-color="#D6D5D5"/><stop offset=".038" stop-color="#C7C6C6"/><stop offset=".111" stop-color="#9F9F9F"/><stop offset=".21" stop-color="#616262"/><stop offset=".264" stop-color="#3D3D3D"/><stop offset=".273" stop-color="#424242"/><stop offset=".378" stop-color="#838384"/><stop offset=".467" stop-color="#B4B4B4"/><stop offset=".535" stop-color="#D1D2D2"/><stop offset=".573" stop-color="#DDDDDC"/><stop offset=".628" stop-color="#D2D3D3"/><stop offset=".72" stop-color="#B9B9B9"/><stop offset=".837" stop-color="#8F8F8E"/><stop offset=".876" stop-color="#7F7F7F"/><stop offset="1" stop-color="#C8C8C8"/><stop offset="1" stop-color="#969696"/></linearGradient><path fill="url(#l)" d="M17.732 55.041c-2.362 2.364-2.339 6.197.002 8.538 2.366 2.371 6.176 2.364 8.538 0 2.345-2.341 2.368-6.174.004-8.538-2.344-2.341-6.197-2.341-8.544 0z"/><linearGradient id="m" gradientUnits="userSpaceOnUse" x1="258.057" y1="355.754" x2="-7.176" y2="-129.426" gradientTransform="matrix(1 0 0 -1 0 102.236)"><stop offset="0" stop-color="#E0E0DF"/><stop offset="0" stop-color="#D6D5D5"/><stop offset=".038" stop-color="#C7C6C6"/><stop offset=".111" stop-color="#9F9F9F"/><stop offset=".21" stop-color="#616262"/><stop offset=".264" stop-color="#3D3D3D"/><stop offset=".273" stop-color="#424242"/><stop offset=".378" stop-color="#838384"/><stop offset=".467" stop-color="#B4B4B4"/><stop offset=".535" stop-color="#D1D2D2"/><stop offset=".573" stop-color="#DDDDDC"/><stop offset=".628" stop-color="#D2D3D3"/><stop offset=".72" stop-color="#B9B9B9"/><stop offset=".837" stop-color="#8F8F8E"/><stop offset=".876" stop-color="#7F7F7F"/><stop offset="1" stop-color="#C8C8C8"/><stop offset="1" stop-color="#969696"/></linearGradient><path fill="url(#m)" d="M61.29 88.055c-1.245 1.252-1.245 3.24 0 4.491 1.249 1.246 3.278 1.281 4.527.036 1.885-1.886 1.141-4.137 5.131-8.406.355-.359 11.752-11.76 12.073-12.077 5.026-4.808 7.481-2.778 9.831-5.13 1.641-1.635 1.603-4.312-.036-5.946-1.637-1.64-4.274-1.64-5.912 0-2.853 2.85.213 4.7-4.883 10.076-.354.359-11.792 11.796-12.109 12.119-5.059 4.765-6.732 2.952-8.622 4.837z"/><linearGradient id="n" gradientUnits="userSpaceOnUse" x1="262.192" y1="353.479" x2="-3.027" y2="-131.677" gradientTransform="matrix(1 0 0 -1 0 102.236)"><stop offset="0" stop-color="#B4B4B4"/><stop offset=".09" stop-color="#676767"/><stop offset=".16" stop-color="#2D2C2C"/><stop offset=".3" stop-color="#2D2C2C"/><stop offset=".4" stop-color="#676767"/><stop offset=".5" stop-color="#B4B4B4"/><stop offset=".69" stop-color="#B4B4B4"/><stop offset=".8" stop-color="#676767"/><stop offset=".9" stop-color="#2D2C2C"/><stop offset="1" stop-color="#B4B4B4"/></linearGradient><path fill="url(#n)" d="M85.072 58.914c-2.713 2.713-2.686 7.097 0 9.784 2.715 2.713 7.077 2.713 9.786 0 2.686-2.688 2.713-7.077 0-9.784-2.682-2.687-7.1-2.687-9.786 0z"/><linearGradient id="o" gradientUnits="userSpaceOnUse" x1="253.045" y1="358.37" x2="-12.116" y2="-126.679" gradientTransform="matrix(1 0 0 -1 0 102.236)"><stop offset=".093" stop-color="#383938"/><stop offset=".187" stop-color="#525252"/><stop offset=".248" stop-color="#616262"/><stop offset=".323" stop-color="#717171"/><stop offset=".483" stop-color="#B4B4B4"/><stop offset=".549" stop-color="#6B6B6A"/><stop offset=".643" stop-color="#5E5E5E"/><stop offset=".714" stop-color="#908F8F"/><stop offset=".852" stop-color="#C4C4C4"/></linearGradient><path fill="url(#o)" d="M59.258 85.979c-2.422 2.419-2.395 6.34.003 8.746 2.421 2.419 6.323 2.419 8.748 0 2.4-2.399 2.424-6.321 0-8.746-2.402-2.402-6.348-2.402-8.751 0z"/><linearGradient id="p" gradientUnits="userSpaceOnUse" x1="268.877" y1="349.825" x2="3.654" y2="-135.337" gradientTransform="matrix(1 0 0 -1 0 102.236)"><stop offset=".093" stop-color="#383938"/><stop offset=".187" stop-color="#525252"/><stop offset=".248" stop-color="#616262"/><stop offset=".323" stop-color="#717171"/><stop offset=".483" stop-color="#B4B4B4"/><stop offset=".549" stop-color="#6B6B6A"/><stop offset=".643" stop-color="#5E5E5E"/><stop offset=".714" stop-color="#908F8F"/><stop offset=".852" stop-color="#C4C4C4"/></linearGradient><path fill="url(#p)" d="M75.286 92.696c-1.246 1.251-1.282 3.281-.04 4.531 1.249 1.24 3.314 1.24 4.563 0 1.854-1.855 1.103-4.095 5.129-8.405l1.14-1.144c5.026-4.809 7.519-2.814 9.871-5.167 1.635-1.635 1.601-4.311-.039-5.945-1.637-1.642-4.274-1.642-5.913 0-2.885 2.885.213 4.699-4.918 10.118-.351.354-.851.851-1.243 1.173-5.026 4.809-6.661 2.953-8.55 4.839z"/><linearGradient id="q" gradientUnits="userSpaceOnUse" x1="271.071" y1="348.603" x2="5.864" y2="-136.531" gradientTransform="matrix(1 0 0 -1 0 102.236)"><stop offset=".16" stop-color="#bbb"/><stop offset=".208" stop-color="#908F8F"/><stop offset=".269" stop-color="#9E9E9E"/><stop offset=".31" stop-color="#bbb"/><stop offset=".378" stop-color="#939292"/><stop offset=".432" stop-color="#5A5A5A"/><stop offset=".514" stop-color="#8B8A8A"/><stop offset=".568" stop-color="#9E9E9E"/><stop offset=".677" stop-color="#919090"/><stop offset=".779" stop-color="#7F7F7F"/><stop offset=".84" stop-color="#ACACAC"/></linearGradient><path fill="url(#q)" d="M87.985 74.704c-2.713 2.712-2.686 7.101 0 9.782 2.713 2.713 7.077 2.713 9.786 0 2.686-2.682 2.713-7.07 0-9.782-2.685-2.689-7.1-2.689-9.786 0z"/><linearGradient id="r" gradientUnits="userSpaceOnUse" x1="265.874" y1="351.335" x2=".73" y2="-133.684" gradientTransform="matrix(1 0 0 -1 0 102.236)"><stop offset="0" stop-color="#E0E0DF"/><stop offset="0" stop-color="#D6D5D5"/><stop offset=".038" stop-color="#C7C6C6"/><stop offset=".111" stop-color="#9F9F9F"/><stop offset=".21" stop-color="#616262"/><stop offset=".264" stop-color="#3D3D3D"/><stop offset=".273" stop-color="#424242"/><stop offset=".378" stop-color="#838384"/><stop offset=".467" stop-color="#B4B4B4"/><stop offset=".535" stop-color="#D1D2D2"/><stop offset=".573" stop-color="#DDDDDC"/><stop offset=".628" stop-color="#D2D3D3"/><stop offset=".72" stop-color="#B9B9B9"/><stop offset=".837" stop-color="#8F8F8E"/><stop offset=".876" stop-color="#7F7F7F"/><stop offset="1" stop-color="#C8C8C8"/><stop offset="1" stop-color="#969696"/></linearGradient><path fill="url(#r)" d="M73.492 90.444c-2.422 2.425-2.398 6.342.004 8.748 2.421 2.419 6.319 2.419 8.744 0 2.401-2.401 2.425-6.323 0-8.748-2.4-2.4-6.349-2.4-8.748 0z"/><linearGradient id="s" gradientUnits="userSpaceOnUse" x1="229.77" y1="371.217" x2="-35.462" y2="-113.963" gradientTransform="matrix(1 0 0 -1 0 102.236)"><stop offset="0" stop-color="#E0E0DF"/><stop offset="0" stop-color="#D6D5D5"/><stop offset=".038" stop-color="#C7C6C6"/><stop offset=".111" stop-color="#9F9F9F"/><stop offset=".21" stop-color="#616262"/><stop offset=".264" stop-color="#3D3D3D"/><stop offset=".273" stop-color="#424242"/><stop offset=".378" stop-color="#838384"/><stop offset=".467" stop-color="#B4B4B4"/><stop offset=".535" stop-color="#D1D2D2"/><stop offset=".573" stop-color="#DDDDDC"/><stop offset=".628" stop-color="#D2D3D3"/><stop offset=".72" stop-color="#B9B9B9"/><stop offset=".837" stop-color="#8F8F8E"/><stop offset=".876" stop-color="#7F7F7F"/><stop offset="1" stop-color="#C8C8C8"/><stop offset="1" stop-color="#969696"/></linearGradient><path fill="url(#s)" d="M29.994 69.524c3.99-3.993 7.874-.748 12.043-4.563.249-.252 24.474-24.471 24.724-24.715 4.702-5.061.712-5.922 4.094-9.305 1.641-1.635 4.6-1.742 6.344.006 1.742 1.742 1.71 4.55-.038 6.298-3.351 3.354-4.665-.245-9.26 3.995-.284.286-24.474 24.476-24.722 24.721-4.134 4.42-.958 8.514-4.596 12.148-2.35 2.354-6.2 2.354-8.553 0-2.385-2.393-2.385-6.237-.036-8.585z"/><linearGradient id="t" gradientUnits="userSpaceOnUse" x1="237.583" y1="366.897" x2="-27.615" y2="-118.219" gradientTransform="matrix(1 0 0 -1 0 102.236)"><stop offset="0" stop-color="#B4B4B4"/><stop offset=".09" stop-color="#676767"/><stop offset=".16" stop-color="#2D2C2C"/><stop offset=".3" stop-color="#2D2C2C"/><stop offset=".4" stop-color="#676767"/><stop offset=".5" stop-color="#B4B4B4"/><stop offset=".69" stop-color="#B4B4B4"/><stop offset=".8" stop-color="#676767"/><stop offset=".9" stop-color="#2D2C2C"/><stop offset="1" stop-color="#B4B4B4"/></linearGradient><path fill="url(#t)" d="M68.774 29.403c2.88-2.887 7.554-2.855 10.409 0 2.882 2.886 2.882 7.525 0 10.411-2.859 2.856-7.526 2.887-10.409 0-2.858-2.855-2.862-7.554 0-10.411z"/><linearGradient id="u" gradientUnits="userSpaceOnUse" x1="223.631" y1="374.598" x2="-41.613" y2="-110.604" gradientTransform="matrix(1 0 0 -1 0 102.236)"><stop offset=".093" stop-color="#383938"/><stop offset=".187" stop-color="#525252"/><stop offset=".248" stop-color="#616262"/><stop offset=".323" stop-color="#717171"/><stop offset=".483" stop-color="#B4B4B4"/><stop offset=".549" stop-color="#6B6B6A"/><stop offset=".643" stop-color="#5E5E5E"/><stop offset=".714" stop-color="#908F8F"/><stop offset=".852" stop-color="#C4C4C4"/></linearGradient><path fill="url(#u)" d="M28.261 67.423c3.446-3.448 9.021-3.406 12.436 0 3.446 3.442 3.442 8.994 0 12.437-3.415 3.412-8.989 3.448-12.436 0-3.413-3.408-3.413-9.024 0-12.437z"/></svg>