<?xml version="1.0" encoding="utf-8"?>
<!-- Generator: Adobe Illustrator 16.0.0, SVG Export Plug-In . SVG Version: 6.00 Build 0)  -->
<!DOCTYPE svg PUBLIC "-//W3C//DTD SVG 1.1//EN" "http://www.w3.org/Graphics/SVG/1.1/DTD/svg11.dtd">
<svg version="1.1" id="DNA" xmlns="http://www.w3.org/2000/svg" xmlns:xlink="http://www.w3.org/1999/xlink" x="0px" y="0px"
	 width="800px" height="400px" viewBox="0 0 800 400" enable-background="new 0 0 800 400" xml:space="preserve">
<g>
	<g>
		<rect x="-0.447" y="-251.3" fill="#8CBCD4" width="800" height="800"/>
		<g>
			<g>
				<g>
					<g>
						<g>
							<rect x="-0.447" y="-138.288" fill="#7EB2CC" width="799.85" height="0.221"/>
						</g>
						<g>
							<rect x="-0.447" y="-145.927" fill="#7EB2CC" width="799.85" height="0.221"/>
						</g>
						<g>
							<rect x="-0.447" y="-153.565" fill="#7EB2CC" width="799.85" height="0.221"/>
						</g>
						<g>
							<rect x="-0.446" y="-161.206" fill="#7EB2CC" width="799.849" height="0.221"/>
						</g>
						<g>
							<rect x="-0.446" y="-168.845" fill="#7EB2CC" width="799.849" height="0.221"/>
						</g>
						<g>
							<rect x="-0.446" y="-176.483" fill="#7EB2CC" width="799.849" height="0.221"/>
						</g>
					</g>
				</g>
				<g>
					<g>
						<g>
							<rect x="-0.448" y="-100.369" fill="#7EB2CC" width="799.85" height="0.221"/>
						</g>
						<g>
							<rect x="-0.448" y="-108.008" fill="#7EB2CC" width="799.85" height="0.221"/>
						</g>
						<g>
							<rect x="-0.448" y="-115.646" fill="#7EB2CC" width="799.85" height="0.221"/>
						</g>
						<g>
							<rect x="-0.447" y="-123.287" fill="#7EB2CC" width="799.849" height="0.221"/>
						</g>
						<g>
							<rect x="-0.447" y="-130.926" fill="#7EB2CC" width="799.849" height="0.221"/>
						</g>
						<g>
							<rect x="-0.447" y="-138.564" fill="#7EB2CC" width="799.849" height="0.221"/>
						</g>
					</g>
				</g>
				<g>
					<g>
						<g>
							<rect x="-0.448" y="-62.487" fill="#7EB2CC" width="799.85" height="0.221"/>
						</g>
						<g>
							<rect x="-0.448" y="-70.126" fill="#7EB2CC" width="799.85" height="0.221"/>
						</g>
						<g>
							<rect x="-0.448" y="-77.765" fill="#7EB2CC" width="799.85" height="0.221"/>
						</g>
						<g>
							<rect x="-0.447" y="-85.405" fill="#7EB2CC" width="799.849" height="0.221"/>
						</g>
						<g>
							<rect x="-0.447" y="-93.044" fill="#7EB2CC" width="799.849" height="0.221"/>
						</g>
						<g>
							<rect x="-0.447" y="-100.683" fill="#7EB2CC" width="799.849" height="0.221"/>
						</g>
					</g>
				</g>
				<g>
					<g>
						<g>
							<rect x="-0.448" y="-24.604" fill="#7EB2CC" width="799.85" height="0.221"/>
						</g>
						<g>
							<rect x="-0.448" y="-32.243" fill="#7EB2CC" width="799.85" height="0.221"/>
						</g>
						<g>
							<rect x="-0.448" y="-39.882" fill="#7EB2CC" width="799.85" height="0.221"/>
						</g>
						<g>
							<rect x="-0.447" y="-47.522" fill="#7EB2CC" width="799.849" height="0.221"/>
						</g>
						<g>
							<rect x="-0.447" y="-55.161" fill="#7EB2CC" width="799.849" height="0.221"/>
						</g>
						<g>
							<rect x="-0.447" y="-62.8" fill="#7EB2CC" width="799.849" height="0.221"/>
						</g>
					</g>
				</g>
				<g>
					<g>
						<g>
							<rect x="-0.448" y="13.277" fill="#7EB2CC" width="799.85" height="0.221"/>
						</g>
						<g>
							<rect x="-0.448" y="5.639" fill="#7EB2CC" width="799.85" height="0.221"/>
						</g>
						<g>
							<rect x="-0.448" y="-2" fill="#7EB2CC" width="799.85" height="0.221"/>
						</g>
						<g>
							<rect x="-0.447" y="-9.641" fill="#7EB2CC" width="799.849" height="0.221"/>
						</g>
						<g>
							<rect x="-0.447" y="-17.279" fill="#7EB2CC" width="799.849" height="0.221"/>
						</g>
						<g>
							<rect x="-0.447" y="-24.918" fill="#7EB2CC" width="799.849" height="0.221"/>
						</g>
					</g>
				</g>
				<g>
					<g>
						<g>
							<rect x="-0.448" y="51.159" fill="#7EB2CC" width="799.851" height="0.221"/>
						</g>
						<g>
							<rect x="-0.448" y="43.521" fill="#7EB2CC" width="799.851" height="0.221"/>
						</g>
						<g>
							<rect x="-0.448" y="35.882" fill="#7EB2CC" width="799.851" height="0.221"/>
						</g>
						<g>
							<rect x="-0.447" y="28.241" fill="#7EB2CC" width="799.85" height="0.221"/>
						</g>
						<g>
							<rect x="-0.447" y="20.603" fill="#7EB2CC" width="799.85" height="0.221"/>
						</g>
						<g>
							<rect x="-0.447" y="12.964" fill="#7EB2CC" width="799.85" height="0.221"/>
						</g>
					</g>
				</g>
				<g>
					<g>
						<g>
							<rect x="-0.448" y="89.042" fill="#7EB2CC" width="799.851" height="0.221"/>
						</g>
						<g>
							<rect x="-0.448" y="81.403" fill="#7EB2CC" width="799.851" height="0.221"/>
						</g>
						<g>
							<rect x="-0.448" y="73.765" fill="#7EB2CC" width="799.851" height="0.221"/>
						</g>
						<g>
							<rect x="-0.447" y="66.124" fill="#7EB2CC" width="799.85" height="0.221"/>
						</g>
						<g>
							<rect x="-0.447" y="58.485" fill="#7EB2CC" width="799.85" height="0.221"/>
						</g>
						<g>
							<rect x="-0.447" y="50.847" fill="#7EB2CC" width="799.85" height="0.221"/>
						</g>
					</g>
				</g>
				<g>
					<g>
						<g>
							<rect x="-0.448" y="126.924" fill="#7EB2CC" width="799.851" height="0.221"/>
						</g>
						<g>
							<rect x="-0.448" y="119.285" fill="#7EB2CC" width="799.851" height="0.221"/>
						</g>
						<g>
							<rect x="-0.448" y="111.646" fill="#7EB2CC" width="799.851" height="0.221"/>
						</g>
						<g>
							<rect x="-0.447" y="104.006" fill="#7EB2CC" width="799.85" height="0.221"/>
						</g>
						<g>
							<rect x="-0.447" y="96.367" fill="#7EB2CC" width="799.85" height="0.221"/>
						</g>
						<g>
							<rect x="-0.447" y="88.729" fill="#7EB2CC" width="799.85" height="0.221"/>
						</g>
					</g>
				</g>
				<g>
					<g>
						<g>
							<rect x="-0.448" y="164.807" fill="#7EB2CC" width="799.851" height="0.221"/>
						</g>
						<g>
							<rect x="-0.448" y="157.168" fill="#7EB2CC" width="799.851" height="0.221"/>
						</g>
						<g>
							<rect x="-0.448" y="149.529" fill="#7EB2CC" width="799.851" height="0.221"/>
						</g>
						<g>
							<rect x="-0.447" y="141.889" fill="#7EB2CC" width="799.85" height="0.221"/>
						</g>
						<g>
							<rect x="-0.447" y="134.25" fill="#7EB2CC" width="799.85" height="0.221"/>
						</g>
						<g>
							<rect x="-0.447" y="126.611" fill="#7EB2CC" width="799.85" height="0.221"/>
						</g>
					</g>
				</g>
				<g>
					<g>
						<g>
							<rect x="-0.448" y="202.688" fill="#7EB2CC" width="799.851" height="0.221"/>
						</g>
						<g>
							<rect x="-0.448" y="195.05" fill="#7EB2CC" width="799.851" height="0.221"/>
						</g>
						<g>
							<rect x="-0.448" y="187.411" fill="#7EB2CC" width="799.851" height="0.221"/>
						</g>
						<g>
							<rect x="-0.447" y="179.771" fill="#7EB2CC" width="799.85" height="0.221"/>
						</g>
						<g>
							<rect x="-0.447" y="172.132" fill="#7EB2CC" width="799.85" height="0.221"/>
						</g>
						<g>
							<rect x="-0.447" y="164.493" fill="#7EB2CC" width="799.85" height="0.221"/>
						</g>
					</g>
				</g>
				<g>
					<g>
						<g>
							<rect x="-0.448" y="240.57" fill="#7EB2CC" width="799.851" height="0.221"/>
						</g>
						<g>
							<rect x="-0.448" y="232.932" fill="#7EB2CC" width="799.851" height="0.221"/>
						</g>
						<g>
							<rect x="-0.448" y="225.293" fill="#7EB2CC" width="799.851" height="0.221"/>
						</g>
						<g>
							<rect x="-0.447" y="217.652" fill="#7EB2CC" width="799.85" height="0.221"/>
						</g>
						<g>
							<rect x="-0.447" y="210.014" fill="#7EB2CC" width="799.85" height="0.221"/>
						</g>
						<g>
							<rect x="-0.447" y="202.375" fill="#7EB2CC" width="799.85" height="0.221"/>
						</g>
					</g>
				</g>
				<g>
					<g>
						<g>
							<rect x="-0.448" y="278.453" fill="#7EB2CC" width="799.851" height="0.221"/>
						</g>
						<g>
							<rect x="-0.448" y="270.814" fill="#7EB2CC" width="799.851" height="0.221"/>
						</g>
						<g>
							<rect x="-0.448" y="263.176" fill="#7EB2CC" width="799.851" height="0.221"/>
						</g>
						<g>
							<rect x="-0.447" y="255.535" fill="#7EB2CC" width="799.85" height="0.221"/>
						</g>
						<g>
							<rect x="-0.447" y="247.896" fill="#7EB2CC" width="799.85" height="0.221"/>
						</g>
						<g>
							<rect x="-0.447" y="240.258" fill="#7EB2CC" width="799.85" height="0.221"/>
						</g>
					</g>
				</g>
				<g>
					<g>
						<g>
							<rect x="-0.448" y="316.334" fill="#7EB2CC" width="799.851" height="0.221"/>
						</g>
						<g>
							<rect x="-0.448" y="308.695" fill="#7EB2CC" width="799.851" height="0.221"/>
						</g>
						<g>
							<rect x="-0.448" y="301.057" fill="#7EB2CC" width="799.851" height="0.221"/>
						</g>
						<g>
							<rect x="-0.447" y="293.416" fill="#7EB2CC" width="799.85" height="0.221"/>
						</g>
						<g>
							<rect x="-0.447" y="285.777" fill="#7EB2CC" width="799.85" height="0.221"/>
						</g>
						<g>
							<rect x="-0.447" y="278.139" fill="#7EB2CC" width="799.85" height="0.221"/>
						</g>
					</g>
				</g>
				<g>
					<g>
						<g>
							<rect x="-0.448" y="354.217" fill="#7EB2CC" width="799.851" height="0.221"/>
						</g>
						<g>
							<rect x="-0.448" y="346.578" fill="#7EB2CC" width="799.851" height="0.221"/>
						</g>
						<g>
							<rect x="-0.448" y="338.939" fill="#7EB2CC" width="799.851" height="0.221"/>
						</g>
						<g>
							<rect x="-0.447" y="331.299" fill="#7EB2CC" width="799.85" height="0.221"/>
						</g>
						<g>
							<rect x="-0.447" y="323.66" fill="#7EB2CC" width="799.85" height="0.221"/>
						</g>
						<g>
							<rect x="-0.447" y="316.021" fill="#7EB2CC" width="799.85" height="0.221"/>
						</g>
					</g>
				</g>
				<g>
					<g>
						<g>
							<rect x="-0.448" y="392.099" fill="#7EB2CC" width="799.851" height="0.221"/>
						</g>
						<g>
							<rect x="-0.448" y="384.46" fill="#7EB2CC" width="799.851" height="0.221"/>
						</g>
						<g>
							<rect x="-0.448" y="376.821" fill="#7EB2CC" width="799.851" height="0.221"/>
						</g>
						<g>
							<rect x="-0.447" y="369.181" fill="#7EB2CC" width="799.85" height="0.221"/>
						</g>
						<g>
							<rect x="-0.447" y="361.542" fill="#7EB2CC" width="799.85" height="0.221"/>
						</g>
						<g>
							<rect x="-0.447" y="353.903" fill="#7EB2CC" width="799.85" height="0.221"/>
						</g>
					</g>
				</g>
				<g>
					<g>
						<g>
							<rect x="-0.448" y="429.981" fill="#7EB2CC" width="799.851" height="0.221"/>
						</g>
						<g>
							<rect x="-0.448" y="422.343" fill="#7EB2CC" width="799.851" height="0.221"/>
						</g>
						<g>
							<rect x="-0.448" y="414.704" fill="#7EB2CC" width="799.851" height="0.221"/>
						</g>
						<g>
							<rect x="-0.447" y="407.063" fill="#7EB2CC" width="799.85" height="0.221"/>
						</g>
						<g>
							<rect x="-0.447" y="399.425" fill="#7EB2CC" width="799.85" height="0.221"/>
						</g>
						<g>
							<rect x="-0.447" y="391.786" fill="#7EB2CC" width="799.85" height="0.221"/>
						</g>
					</g>
				</g>
				<g>
					<g>
						<g>
							<rect x="-0.448" y="467.863" fill="#7EB2CC" width="799.851" height="0.221"/>
						</g>
						<g>
							<rect x="-0.448" y="460.225" fill="#7EB2CC" width="799.851" height="0.221"/>
						</g>
						<g>
							<rect x="-0.448" y="452.586" fill="#7EB2CC" width="799.851" height="0.221"/>
						</g>
						<g>
							<rect x="-0.447" y="444.945" fill="#7EB2CC" width="799.85" height="0.221"/>
						</g>
						<g>
							<rect x="-0.447" y="437.307" fill="#7EB2CC" width="799.85" height="0.221"/>
						</g>
						<g>
							<rect x="-0.447" y="429.668" fill="#7EB2CC" width="799.85" height="0.221"/>
						</g>
					</g>
				</g>
				<g>
					<g>
						<g>
							<rect x="-0.448" y="505.746" fill="#7EB2CC" width="799.851" height="0.221"/>
						</g>
						<g>
							<rect x="-0.448" y="498.107" fill="#7EB2CC" width="799.851" height="0.221"/>
						</g>
						<g>
							<rect x="-0.448" y="490.469" fill="#7EB2CC" width="799.851" height="0.221"/>
						</g>
						<g>
							<rect x="-0.447" y="482.828" fill="#7EB2CC" width="799.85" height="0.221"/>
						</g>
						<g>
							<rect x="-0.447" y="475.189" fill="#7EB2CC" width="799.85" height="0.221"/>
						</g>
						<g>
							<rect x="-0.447" y="467.551" fill="#7EB2CC" width="799.85" height="0.221"/>
						</g>
					</g>
				</g>
				<g>
					<g>
						<g>
							<rect x="-0.449" y="543.941" fill="#7EB2CC" width="799.852" height="0.221"/>
						</g>
						<g>
							<rect x="-0.449" y="536.303" fill="#7EB2CC" width="799.852" height="0.221"/>
						</g>
						<g>
							<rect x="-0.449" y="528.664" fill="#7EB2CC" width="799.852" height="0.221"/>
						</g>
						<g>
							<rect x="-0.448" y="521.023" fill="#7EB2CC" width="799.851" height="0.221"/>
						</g>
						<g>
							<rect x="-0.448" y="513.385" fill="#7EB2CC" width="799.851" height="0.221"/>
						</g>
						<g>
							<rect x="-0.448" y="505.746" fill="#7EB2CC" width="799.851" height="0.221"/>
						</g>
					</g>
				</g>
				<g>
					<g>
						<g>
							<g>
								<g>
									<g>
										<rect x="-0.447" y="-214.329" fill="#7EB2CC" width="800" height="0.497"/>
									</g>
								</g>
								<g>
									<g>
										<rect x="-0.447" y="-176.447" fill="#7EB2CC" width="800" height="0.498"/>
									</g>
								</g>
								<g>
									<g>
										<rect x="-0.447" y="-138.564" fill="#7EB2CC" width="800" height="0.497"/>
									</g>
								</g>
								<g>
									<g>
										<rect x="-0.447" y="-100.683" fill="#7EB2CC" width="800" height="0.498"/>
									</g>
								</g>
								<g>
									<g>
										<rect x="-0.447" y="-62.8" fill="#7EB2CC" width="800" height="0.497"/>
									</g>
								</g>
								<g>
									<g>
										<rect x="-0.447" y="-24.918" fill="#7EB2CC" width="800" height="0.497"/>
									</g>
								</g>
								<g>
									<g>
										<rect x="-0.447" y="12.964" fill="#7EB2CC" width="800" height="0.498"/>
									</g>
								</g>
								<g>
									<g>
										<rect x="-0.447" y="50.847" fill="#7EB2CC" width="800" height="0.496"/>
									</g>
								</g>
								<g>
									<g>
										<rect x="-0.447" y="88.729" fill="#7EB2CC" width="800" height="0.497"/>
									</g>
								</g>
								<g>
									<g>
										<rect x="-0.447" y="126.611" fill="#7EB2CC" width="800" height="0.497"/>
									</g>
								</g>
								<g>
									<g>
										<rect x="-0.447" y="164.493" fill="#7EB2CC" width="800" height="0.497"/>
									</g>
								</g>
								<g>
									<g>
										<rect x="-0.447" y="202.375" fill="#7EB2CC" width="800" height="0.497"/>
									</g>
								</g>
								<g>
									<g>
										<rect x="-0.447" y="240.258" fill="#7EB2CC" width="800" height="0.497"/>
									</g>
								</g>
								<g>
									<g>
										<rect x="-0.447" y="278.139" fill="#7EB2CC" width="800" height="0.498"/>
									</g>
								</g>
								<g>
									<g>
										<rect x="-0.447" y="316.021" fill="#7EB2CC" width="800" height="0.497"/>
									</g>
								</g>
								<g>
									<g>
										<rect x="-0.447" y="353.903" fill="#7EB2CC" width="800" height="0.497"/>
									</g>
								</g>
								<g>
									<g>
										<rect x="-0.447" y="391.786" fill="#7EB2CC" width="800" height="0.497"/>
									</g>
								</g>
								<g>
									<g>
										<rect x="-0.447" y="429.668" fill="#7EB2CC" width="800" height="0.497"/>
									</g>
								</g>
								<g>
									<g>
										<rect x="-0.447" y="467.551" fill="#7EB2CC" width="800" height="0.497"/>
									</g>
								</g>
								<g>
									<g>
										<rect x="-0.447" y="505.432" fill="#7EB2CC" width="800" height="0.498"/>
									</g>
								</g>
							</g>
							<g>
								<g>
									<g>
										<rect x="769.493" y="-251.3" fill="#7EB2CC" width="0.5" height="799.85"/>
									</g>
								</g>
								<g>
									<g>
										<rect x="731.02" y="-251.3" fill="#7EB2CC" width="0.5" height="799.85"/>
									</g>
								</g>
								<g>
									<g>
										<rect x="692.546" y="-251.3" fill="#7EB2CC" width="0.5" height="799.85"/>
									</g>
								</g>
								<g>
									<g>
										<rect x="654.073" y="-251.3" fill="#7EB2CC" width="0.5" height="799.85"/>
									</g>
								</g>
								<g>
									<g>
										<rect x="615.6" y="-251.3" fill="#7EB2CC" width="0.5" height="799.85"/>
									</g>
								</g>
								<g>
									<g>
										<rect x="577.127" y="-251.3" fill="#7EB2CC" width="0.5" height="799.85"/>
									</g>
								</g>
								<g>
									<g>
										<rect x="538.653" y="-251.3" fill="#7EB2CC" width="0.5" height="799.85"/>
									</g>
								</g>
								<g>
									<g>
										<rect x="500.18" y="-251.3" fill="#7EB2CC" width="0.5" height="799.85"/>
									</g>
								</g>
								<g>
									<g>
										<rect x="461.707" y="-251.3" fill="#7EB2CC" width="0.5" height="799.85"/>
									</g>
								</g>
								<g>
									<g>
										<rect x="423.233" y="-251.3" fill="#7EB2CC" width="0.5" height="799.85"/>
									</g>
								</g>
								<g>
									<g>
										<rect x="384.76" y="-251.3" fill="#7EB2CC" width="0.5" height="799.85"/>
									</g>
								</g>
								<g>
									<g>
										<rect x="346.287" y="-251.3" fill="#7EB2CC" width="0.5" height="799.85"/>
									</g>
								</g>
								<g>
									<g>
										<rect x="307.813" y="-251.3" fill="#7EB2CC" width="0.5" height="799.85"/>
									</g>
								</g>
								<g>
									<g>
										<rect x="269.34" y="-251.3" fill="#7EB2CC" width="0.5" height="799.85"/>
									</g>
								</g>
								<g>
									<g>
										<rect x="230.867" y="-251.3" fill="#7EB2CC" width="0.5" height="799.85"/>
									</g>
								</g>
								<g>
									<g>
										<rect x="192.394" y="-251.3" fill="#7EB2CC" width="0.5" height="799.85"/>
									</g>
								</g>
								<g>
									<g>
										<rect x="153.92" y="-251.3" fill="#7EB2CC" width="0.5" height="799.85"/>
									</g>
								</g>
								<g>
									<g>
										<rect x="115.447" y="-251.3" fill="#7EB2CC" width="0.5" height="799.85"/>
									</g>
								</g>
								<g>
									<g>
										<rect x="76.974" y="-251.3" fill="#7EB2CC" width="0.5" height="799.85"/>
									</g>
								</g>
								<g>
									<g>
										<rect x="38.501" y="-251.3" fill="#7EB2CC" width="0.5" height="799.85"/>
									</g>
								</g>
							</g>
						</g>
					</g>
					<g>
						<g>
							<g>
								<rect x="769.493" y="-251.3" fill="#7EB2CC" width="0.221" height="799.849"/>
							</g>
							<g>
								<rect x="761.854" y="-251.3" fill="#7EB2CC" width="0.221" height="799.849"/>
							</g>
							<g>
								<rect x="754.216" y="-251.3" fill="#7EB2CC" width="0.221" height="799.849"/>
							</g>
							<g>
								<rect x="746.576" y="-251.3" fill="#7EB2CC" width="0.221" height="799.848"/>
							</g>
							<g>
								<rect x="738.938" y="-251.3" fill="#7EB2CC" width="0.221" height="799.848"/>
							</g>
							<g>
								<rect x="731.299" y="-251.3" fill="#7EB2CC" width="0.221" height="799.848"/>
							</g>
						</g>
					</g>
					<g>
						<g>
							<g>
								<rect x="731.02" y="-251.3" fill="#7EB2CC" width="0.221" height="799.848"/>
							</g>
							<g>
								<rect x="723.381" y="-251.3" fill="#7EB2CC" width="0.221" height="799.848"/>
							</g>
							<g>
								<rect x="715.742" y="-251.3" fill="#7EB2CC" width="0.221" height="799.848"/>
							</g>
							<g>
								<rect x="708.103" y="-251.3" fill="#7EB2CC" width="0.221" height="799.848"/>
							</g>
							<g>
								<rect x="700.464" y="-251.3" fill="#7EB2CC" width="0.221" height="799.848"/>
							</g>
							<g>
								<rect x="692.825" y="-251.3" fill="#7EB2CC" width="0.221" height="799.848"/>
							</g>
						</g>
					</g>
					<g>
						<g>
							<g>
								<rect x="692.547" y="-251.3" fill="#7EB2CC" width="0.221" height="799.848"/>
							</g>
							<g>
								<rect x="684.908" y="-251.3" fill="#7EB2CC" width="0.221" height="799.848"/>
							</g>
							<g>
								<rect x="677.27" y="-251.3" fill="#7EB2CC" width="0.221" height="799.848"/>
							</g>
							<g>
								<rect x="669.63" y="-251.3" fill="#7EB2CC" width="0.221" height="799.848"/>
							</g>
							<g>
								<rect x="661.991" y="-251.3" fill="#7EB2CC" width="0.221" height="799.848"/>
							</g>
							<g>
								<rect x="654.353" y="-251.3" fill="#7EB2CC" width="0.221" height="799.848"/>
							</g>
						</g>
					</g>
					<g>
						<g>
							<g>
								<rect x="654.073" y="-251.3" fill="#7EB2CC" width="0.221" height="799.849"/>
							</g>
							<g>
								<rect x="646.435" y="-251.3" fill="#7EB2CC" width="0.221" height="799.849"/>
							</g>
							<g>
								<rect x="638.796" y="-251.3" fill="#7EB2CC" width="0.221" height="799.849"/>
							</g>
							<g>
								<rect x="631.156" y="-251.3" fill="#7EB2CC" width="0.221" height="799.848"/>
							</g>
							<g>
								<rect x="623.518" y="-251.3" fill="#7EB2CC" width="0.221" height="799.848"/>
							</g>
							<g>
								<rect x="615.879" y="-251.3" fill="#7EB2CC" width="0.221" height="799.848"/>
							</g>
						</g>
					</g>
					<g>
						<g>
							<g>
								<rect x="615.6" y="-251.3" fill="#7EB2CC" width="0.221" height="799.848"/>
							</g>
							<g>
								<rect x="607.961" y="-251.3" fill="#7EB2CC" width="0.221" height="799.848"/>
							</g>
							<g>
								<rect x="600.322" y="-251.3" fill="#7EB2CC" width="0.221" height="799.848"/>
							</g>
							<g>
								<rect x="592.683" y="-251.3" fill="#7EB2CC" width="0.221" height="799.848"/>
							</g>
							<g>
								<rect x="585.044" y="-251.3" fill="#7EB2CC" width="0.221" height="799.848"/>
							</g>
							<g>
								<rect x="577.405" y="-251.3" fill="#7EB2CC" width="0.221" height="799.848"/>
							</g>
						</g>
					</g>
					<g>
						<g>
							<g>
								<rect x="577.127" y="-251.3" fill="#7EB2CC" width="0.221" height="799.848"/>
							</g>
							<g>
								<rect x="569.488" y="-251.3" fill="#7EB2CC" width="0.221" height="799.848"/>
							</g>
							<g>
								<rect x="561.85" y="-251.3" fill="#7EB2CC" width="0.221" height="799.848"/>
							</g>
							<g>
								<rect x="554.21" y="-251.3" fill="#7EB2CC" width="0.221" height="799.848"/>
							</g>
							<g>
								<rect x="546.571" y="-251.3" fill="#7EB2CC" width="0.221" height="799.848"/>
							</g>
							<g>
								<rect x="538.933" y="-251.3" fill="#7EB2CC" width="0.221" height="799.848"/>
							</g>
						</g>
					</g>
					<g>
						<g>
							<g>
								<rect x="538.653" y="-251.3" fill="#7EB2CC" width="0.221" height="799.848"/>
							</g>
							<g>
								<rect x="531.015" y="-251.3" fill="#7EB2CC" width="0.221" height="799.848"/>
							</g>
							<g>
								<rect x="523.376" y="-251.3" fill="#7EB2CC" width="0.221" height="799.848"/>
							</g>
							<g>
								<rect x="515.736" y="-251.3" fill="#7EB2CC" width="0.221" height="799.848"/>
							</g>
							<g>
								<rect x="508.098" y="-251.3" fill="#7EB2CC" width="0.221" height="799.848"/>
							</g>
							<g>
								<rect x="500.459" y="-251.3" fill="#7EB2CC" width="0.221" height="799.848"/>
							</g>
						</g>
					</g>
					<g>
						<g>
							<g>
								<rect x="500.18" y="-251.3" fill="#7EB2CC" width="0.221" height="799.848"/>
							</g>
							<g>
								<rect x="492.541" y="-251.3" fill="#7EB2CC" width="0.221" height="799.848"/>
							</g>
							<g>
								<rect x="484.902" y="-251.3" fill="#7EB2CC" width="0.221" height="799.848"/>
							</g>
							<g>
								<rect x="477.263" y="-251.3" fill="#7EB2CC" width="0.221" height="799.848"/>
							</g>
							<g>
								<rect x="469.624" y="-251.3" fill="#7EB2CC" width="0.221" height="799.848"/>
							</g>
							<g>
								<rect x="461.985" y="-251.3" fill="#7EB2CC" width="0.221" height="799.848"/>
							</g>
						</g>
					</g>
					<g>
						<g>
							<g>
								<rect x="461.707" y="-251.3" fill="#7EB2CC" width="0.221" height="799.848"/>
							</g>
							<g>
								<rect x="454.068" y="-251.3" fill="#7EB2CC" width="0.221" height="799.848"/>
							</g>
							<g>
								<rect x="446.43" y="-251.3" fill="#7EB2CC" width="0.221" height="799.848"/>
							</g>
							<g>
								<rect x="438.79" y="-251.3" fill="#7EB2CC" width="0.221" height="799.848"/>
							</g>
							<g>
								<rect x="431.151" y="-251.3" fill="#7EB2CC" width="0.221" height="799.848"/>
							</g>
							<g>
								<rect x="423.513" y="-251.3" fill="#7EB2CC" width="0.221" height="799.848"/>
							</g>
						</g>
					</g>
					<g>
						<g>
							<g>
								<rect x="423.233" y="-251.3" fill="#7EB2CC" width="0.221" height="799.848"/>
							</g>
							<g>
								<rect x="415.595" y="-251.3" fill="#7EB2CC" width="0.221" height="799.848"/>
							</g>
							<g>
								<rect x="407.956" y="-251.3" fill="#7EB2CC" width="0.221" height="799.848"/>
							</g>
							<g>
								<rect x="400.316" y="-251.3" fill="#7EB2CC" width="0.221" height="799.848"/>
							</g>
							<g>
								<rect x="392.678" y="-251.3" fill="#7EB2CC" width="0.221" height="799.848"/>
							</g>
							<g>
								<rect x="385.039" y="-251.3" fill="#7EB2CC" width="0.221" height="799.848"/>
							</g>
						</g>
					</g>
					<g>
						<g>
							<g>
								<rect x="384.76" y="-251.3" fill="#7EB2CC" width="0.221" height="799.848"/>
							</g>
							<g>
								<rect x="377.121" y="-251.3" fill="#7EB2CC" width="0.221" height="799.848"/>
							</g>
							<g>
								<rect x="369.482" y="-251.3" fill="#7EB2CC" width="0.221" height="799.848"/>
							</g>
							<g>
								<rect x="361.843" y="-251.3" fill="#7EB2CC" width="0.221" height="799.848"/>
							</g>
							<g>
								<rect x="354.204" y="-251.3" fill="#7EB2CC" width="0.221" height="799.848"/>
							</g>
							<g>
								<rect x="346.565" y="-251.3" fill="#7EB2CC" width="0.221" height="799.848"/>
							</g>
						</g>
					</g>
					<g>
						<g>
							<g>
								<rect x="346.287" y="-251.3" fill="#7EB2CC" width="0.221" height="799.848"/>
							</g>
							<g>
								<rect x="338.648" y="-251.3" fill="#7EB2CC" width="0.221" height="799.848"/>
							</g>
							<g>
								<rect x="331.01" y="-251.3" fill="#7EB2CC" width="0.221" height="799.848"/>
							</g>
							<g>
								<rect x="323.37" y="-251.3" fill="#7EB2CC" width="0.221" height="799.848"/>
							</g>
							<g>
								<rect x="315.731" y="-251.3" fill="#7EB2CC" width="0.221" height="799.848"/>
							</g>
							<g>
								<rect x="308.093" y="-251.3" fill="#7EB2CC" width="0.221" height="799.848"/>
							</g>
						</g>
					</g>
					<g>
						<g>
							<g>
								<rect x="307.813" y="-251.3" fill="#7EB2CC" width="0.221" height="799.848"/>
							</g>
							<g>
								<rect x="300.175" y="-251.3" fill="#7EB2CC" width="0.221" height="799.848"/>
							</g>
							<g>
								<rect x="292.536" y="-251.3" fill="#7EB2CC" width="0.221" height="799.848"/>
							</g>
							<g>
								<rect x="284.896" y="-251.3" fill="#7EB2CC" width="0.221" height="799.848"/>
							</g>
							<g>
								<rect x="277.258" y="-251.3" fill="#7EB2CC" width="0.221" height="799.848"/>
							</g>
							<g>
								<rect x="269.619" y="-251.3" fill="#7EB2CC" width="0.221" height="799.848"/>
							</g>
						</g>
					</g>
					<g>
						<g>
							<g>
								<rect x="269.34" y="-251.3" fill="#7EB2CC" width="0.221" height="799.848"/>
							</g>
							<g>
								<rect x="261.701" y="-251.3" fill="#7EB2CC" width="0.221" height="799.848"/>
							</g>
							<g>
								<rect x="254.063" y="-251.3" fill="#7EB2CC" width="0.221" height="799.848"/>
							</g>
							<g>
								<rect x="246.423" y="-251.3" fill="#7EB2CC" width="0.221" height="799.848"/>
							</g>
							<g>
								<rect x="238.784" y="-251.3" fill="#7EB2CC" width="0.221" height="799.848"/>
							</g>
							<g>
								<rect x="231.146" y="-251.3" fill="#7EB2CC" width="0.221" height="799.848"/>
							</g>
						</g>
					</g>
					<g>
						<g>
							<g>
								<rect x="230.867" y="-251.3" fill="#7EB2CC" width="0.221" height="799.848"/>
							</g>
							<g>
								<rect x="223.229" y="-251.3" fill="#7EB2CC" width="0.221" height="799.848"/>
							</g>
							<g>
								<rect x="215.59" y="-251.3" fill="#7EB2CC" width="0.221" height="799.848"/>
							</g>
							<g>
								<rect x="207.95" y="-251.3" fill="#7EB2CC" width="0.221" height="799.848"/>
							</g>
							<g>
								<rect x="200.312" y="-251.3" fill="#7EB2CC" width="0.221" height="799.848"/>
							</g>
							<g>
								<rect x="192.673" y="-251.3" fill="#7EB2CC" width="0.221" height="799.848"/>
							</g>
						</g>
					</g>
					<g>
						<g>
							<g>
								<rect x="192.394" y="-251.3" fill="#7EB2CC" width="0.221" height="799.848"/>
							</g>
							<g>
								<rect x="184.755" y="-251.3" fill="#7EB2CC" width="0.221" height="799.848"/>
							</g>
							<g>
								<rect x="177.116" y="-251.3" fill="#7EB2CC" width="0.221" height="799.848"/>
							</g>
							<g>
								<rect x="169.477" y="-251.3" fill="#7EB2CC" width="0.221" height="799.848"/>
							</g>
							<g>
								<rect x="161.838" y="-251.3" fill="#7EB2CC" width="0.221" height="799.848"/>
							</g>
							<g>
								<rect x="154.199" y="-251.3" fill="#7EB2CC" width="0.221" height="799.848"/>
							</g>
						</g>
					</g>
					<g>
						<g>
							<g>
								<rect x="153.92" y="-251.3" fill="#7EB2CC" width="0.221" height="799.848"/>
							</g>
							<g>
								<rect x="146.281" y="-251.3" fill="#7EB2CC" width="0.221" height="799.848"/>
							</g>
							<g>
								<rect x="138.643" y="-251.3" fill="#7EB2CC" width="0.221" height="799.848"/>
							</g>
							<g>
								<rect x="131.003" y="-251.3" fill="#7EB2CC" width="0.221" height="799.848"/>
							</g>
							<g>
								<rect x="123.364" y="-251.3" fill="#7EB2CC" width="0.221" height="799.848"/>
							</g>
							<g>
								<rect x="115.726" y="-251.3" fill="#7EB2CC" width="0.221" height="799.848"/>
							</g>
						</g>
					</g>
					<g>
						<g>
							<g>
								<rect x="115.447" y="-251.3" fill="#7EB2CC" width="0.221" height="799.848"/>
							</g>
							<g>
								<rect x="107.809" y="-251.3" fill="#7EB2CC" width="0.221" height="799.848"/>
							</g>
							<g>
								<rect x="100.17" y="-251.3" fill="#7EB2CC" width="0.221" height="799.848"/>
							</g>
							<g>
								<rect x="92.53" y="-251.3" fill="#7EB2CC" width="0.221" height="799.848"/>
							</g>
							<g>
								<rect x="84.892" y="-251.3" fill="#7EB2CC" width="0.221" height="799.848"/>
							</g>
							<g>
								<rect x="77.253" y="-251.3" fill="#7EB2CC" width="0.221" height="799.848"/>
							</g>
						</g>
					</g>
					<g>
						<g>
							<g>
								<rect x="77.032" y="-251.3" fill="#7EB2CC" width="0.221" height="799.848"/>
							</g>
							<g>
								<rect x="69.394" y="-251.3" fill="#7EB2CC" width="0.221" height="799.848"/>
							</g>
							<g>
								<rect x="61.755" y="-251.3" fill="#7EB2CC" width="0.221" height="799.848"/>
							</g>
							<g>
								<rect x="54.115" y="-251.3" fill="#7EB2CC" width="0.221" height="799.848"/>
							</g>
							<g>
								<rect x="46.477" y="-251.3" fill="#7EB2CC" width="0.221" height="799.848"/>
							</g>
							<g>
								<rect x="38.838" y="-251.3" fill="#7EB2CC" width="0.221" height="799.848"/>
							</g>
						</g>
					</g>
					<g>
						<g>
							<g>
								<rect x="38.617" y="-251.3" fill="#7EB2CC" width="0.221" height="799.848"/>
							</g>
							<g>
								<rect x="30.979" y="-251.3" fill="#7EB2CC" width="0.221" height="799.848"/>
							</g>
							<g>
								<rect x="23.34" y="-251.3" fill="#7EB2CC" width="0.221" height="799.848"/>
							</g>
							<g>
								<rect x="15.7" y="-251.3" fill="#7EB2CC" width="0.221" height="799.848"/>
							</g>
							<g>
								<rect x="8.062" y="-251.3" fill="#7EB2CC" width="0.221" height="799.848"/>
							</g>
						</g>
					</g>
					<g>
						<g>
							<g>
								<rect x="792.689" y="-251.3" fill="#7EB2CC" width="0.221" height="799.85"/>
							</g>
							<g>
								<rect x="785.05" y="-251.3" fill="#7EB2CC" width="0.221" height="799.848"/>
							</g>
							<g>
								<rect x="777.411" y="-251.3" fill="#7EB2CC" width="0.221" height="799.848"/>
							</g>
							<g>
								<rect x="769.772" y="-251.3" fill="#7EB2CC" width="0.221" height="799.848"/>
							</g>
						</g>
					</g>
					<g>
						<g>
							<g>
								<rect x="-0.447" y="-214.052" fill="#7EB2CC" width="799.85" height="0.221"/>
							</g>
							<g>
								<rect x="-0.447" y="-221.691" fill="#7EB2CC" width="799.85" height="0.221"/>
							</g>
							<g>
								<rect x="-0.447" y="-229.33" fill="#7EB2CC" width="799.85" height="0.221"/>
							</g>
							<g>
								<rect x="-0.446" y="-236.97" fill="#7EB2CC" width="799.849" height="0.221"/>
							</g>
							<g>
								<rect x="-0.446" y="-244.609" fill="#7EB2CC" width="799.849" height="0.221"/>
							</g>
						</g>
					</g>
					<g>
						<g>
							<g>
								<rect x="-0.447" y="-176.17" fill="#7EB2CC" width="799.85" height="0.221"/>
							</g>
							<g>
								<rect x="-0.447" y="-183.809" fill="#7EB2CC" width="799.85" height="0.221"/>
							</g>
							<g>
								<rect x="-0.447" y="-191.447" fill="#7EB2CC" width="799.85" height="0.221"/>
							</g>
							<g>
								<rect x="-0.446" y="-199.088" fill="#7EB2CC" width="799.849" height="0.221"/>
							</g>
							<g>
								<rect x="-0.446" y="-206.727" fill="#7EB2CC" width="799.849" height="0.221"/>
							</g>
							<g>
								<rect x="-0.446" y="-214.365" fill="#7EB2CC" width="799.849" height="0.221"/>
							</g>
						</g>
					</g>
				</g>
			</g>
		</g>
	</g>
	<g>
		<path fill="#FFFFFF" stroke="#E3E0DA" d="M141.026,325.401c0,0-61.447,28.514-57.453,59.027S207.136,504.058,229.96,519.798
			s20.463,28.902,20.463,28.902h549.129V252.994c0,0-271.566,84.236-450.75,93.657C169.618,356.072,141.026,325.401,141.026,325.401
			z"/>
		<polygon fill="#E3E0DA" points="223.101,387.548 227.776,390.93 252.449,378.736 247.768,369.27 223.267,381.378 		"/>
		<polygon fill="#E3E0DA" points="192.565,440.721 187.648,440.926 177.564,462.122 185.698,465.99 195.711,444.94 		"/>
		<polygon fill="#E3E0DA" points="384.349,359.905 379.1,377.537 404.887,386.819 403.438,376.543 411.109,369.536 		"/>
		<polygon fill="#E3E0DA" points="279.314,522.802 274.683,517.977 244.016,526.766 247.391,538.533 277.845,529.803 		"/>
		<polygon fill="#E3E0DA" points="237.967,500.001 230.286,526.442 224.75,520.301 231.257,497.906 235.002,497.136 		"/>
		<polygon fill="#E3E0DA" points="788.111,415.273 788.863,404.229 749.727,399.34 751.935,405.183 748.355,410.31 		"/>
		<polygon fill="#E3E0DA" points="752.586,280.262 744.08,284.078 755.951,315.098 759.418,311.143 764.646,311.771 		"/>
		<polygon fill="#E3E0DA" points="498.512,357.126 505.351,355.526 510.537,360.272 516.923,335.854 504.722,333.386 		"/>
		<polygon fill="#F0BE26" points="137.938,351.513 104.375,351.513 104.375,345.445 137.938,345.445 139.539,348.479 		"/>
		<polygon fill="#509FC2" points="122.185,370.43 89.505,370.43 89.505,364.161 122.204,364.161 123.849,367.276 		"/>
		<polygon fill="#B83065" points="117.771,389.346 85.974,389.346 85.974,382.877 117.809,382.877 119.498,386.075 		"/>
		<polygon fill="#91C653" points="126.317,408.263 95.402,408.263 95.402,401.593 126.374,401.593 128.105,404.873 		"/>
		<polygon fill="#F0BE26" points="144.747,427.179 111.715,427.179 111.715,420.309 144.823,420.309 146.598,423.671 		"/>
		<polygon fill="#509FC2" points="168.037,446.096 132.888,446.096 132.888,439.023 168.131,439.023 169.95,442.469 		"/>
		<polygon fill="#B83065" points="195.376,465.013 158.111,465.013 158.111,457.739 195.491,457.739 197.353,461.268 		"/>
		<polygon fill="#91C653" points="223.931,483.929 184.548,483.929 184.548,476.455 224.064,476.455 225.97,480.065 		"/>
		<polygon fill="#F0BE26" points="311.225,493.509 263.147,506.49 260.746,497.599 309,484.569 312.414,488.237 		"/>
		<polygon fill="#509FC2" points="403.033,502.786 345.907,528.89 341.193,518.576 398.544,492.37 403.415,496.121 		"/>
		<path fill="#D69018" d="M104.375,351.513h13.42c3.708-2.325,7.371-4.353,10.542-6.067h-23.962V351.513z"/>
		<path fill="#357BBD" d="M89.504,370.43h8.45c1.079-2.188,2.522-4.281,4.237-6.269H89.504V370.43z"/>
		<path fill="#871E47" d="M85.974,389.346h11.679c-0.713-2.173-1.225-4.331-1.512-6.469H85.974V389.346z"/>
		<path fill="#6DB541" d="M95.402,408.263h12.938c-1.733-2.233-3.313-4.457-4.72-6.67h-8.219V408.263z"/>
		<path fill="#D69018" d="M111.715,427.179h14.463c-2.502-2.293-4.896-4.584-7.158-6.87h-7.305V427.179z"/>
		<path fill="#357BBD" d="M132.887,446.096h16.106c-3.073-2.354-6.078-4.712-8.996-7.072h-7.11V446.096z"/>
		<path fill="#871E47" d="M158.11,465.013h16.921c-3.457-2.412-6.894-4.838-10.289-7.273h-6.632V465.013z"/>
		<path fill="#6DB541" d="M184.547,483.929h18.103c-3.631-2.468-7.303-4.96-10.991-7.474h-7.111V483.929z"/>
		<polygon fill="#91C653" points="124.37,193.613 122.855,190.743 157.622,190.743 157.622,196.516 122.838,196.516 		"/>
		<polygon fill="#509FC2" points="122.838,196.516 89.774,196.516 89.774,190.743 122.855,190.743 124.37,193.613 		"/>
		<polygon fill="#B83065" points="135.666,177.44 134.143,174.555 158.421,174.555 160.281,169.419 161.436,174.555 166.628,187.67 
			161.119,180.327 134.143,180.327 		"/>
		<polygon fill="#F0BE26" points="134.143,180.327 102.212,180.327 102.212,174.555 134.143,174.555 135.666,177.44 		"/>
		<polygon fill="#F0BE26" points="112.208,206.932 147.125,206.932 147.125,212.703 112.562,212.703 113.908,210.152 		"/>
		<polygon fill="#B83065" points="112.208,206.932 113.908,210.152 112.562,212.703 84.335,212.703 84.335,206.932 		"/>
		<polygon fill="#91C653" points="105.168,225.877 103.577,228.892 85.897,228.892 85.897,223.119 103.713,223.119 		"/>
		<polygon fill="#509FC2" points="103.713,223.119 126.628,223.119 126.628,228.892 103.577,228.892 105.168,225.877 		"/>
		<g>
			<path fill="#6DB541" d="M157.623,190.743v5.772h-8.453c0.962-1.879,1.665-3.805,2.028-5.772H157.623z"/>
			<path fill="#357BBD" d="M95.458,196.516h-5.684v-5.772h11.106C98.882,192.584,97.043,194.512,95.458,196.516z"/>
			<path fill="#871E47" d="M146.489,174.555h11.745c0.933,1.861,1.692,3.785,2.242,5.772h-10.594
				C149.032,178.348,147.875,176.421,146.489,174.555z"/>
			<path fill="#D69018" d="M102.213,180.327v-3.596c1.029-0.748,2.064-1.474,3.099-2.177h19.321
				c-2.876,1.589-6.28,3.531-9.825,5.772H102.213z"/>
			<path fill="#D69018" d="M147.125,206.932v5.771h-13.089c2.422-1.809,4.772-3.737,6.923-5.771H147.125z"/>
			<path fill="#871E47" d="M89.895,212.703h-5.559v-5.771h5.818c-0.262,1.199-0.414,2.412-0.414,3.641
				C89.741,211.287,89.804,211.997,89.895,212.703z"/>
			<path fill="#6DB541" d="M94.323,223.119c1.422,1.998,3.111,3.925,4.978,5.772H86.136c-0.079-0.112-0.161-0.222-0.239-0.333
				v-5.439H94.323z"/>
			<path fill="#357BBD" d="M117.615,223.119h9.015v5.772h-19.471c2.334-1.327,4.507-2.513,6.397-3.542
				C114.753,224.698,116.127,223.949,117.615,223.119z"/>
		</g>
		<polygon fill="#91C653" points="117.808,109.47 119.322,106.6 84.556,106.6 84.556,112.372 119.339,112.372 		"/>
		<polygon fill="#509FC2" points="119.339,112.372 152.404,112.372 152.404,106.6 119.322,106.6 117.808,109.47 		"/>
		<polygon fill="#B83065" points="106.512,93.297 108.035,90.411 83.757,90.411 81.896,85.275 80.742,90.411 75.55,103.526 
			81.059,96.183 108.035,96.183 		"/>
		<polygon fill="#F0BE26" points="108.035,96.183 139.965,96.183 139.965,90.411 108.035,90.411 106.512,93.297 		"/>
		<polygon fill="#F0BE26" points="129.97,122.788 95.052,122.788 95.052,128.56 129.616,128.56 128.27,126.009 		"/>
		<polygon fill="#B83065" points="129.97,122.788 128.27,126.009 129.616,128.56 157.842,128.56 157.842,122.788 		"/>
		<polygon fill="#91C653" points="137.01,141.733 138.601,144.748 156.281,144.748 156.281,138.976 138.465,138.976 		"/>
		<polygon fill="#509FC2" points="138.465,138.976 115.549,138.976 115.549,144.748 138.601,144.748 137.01,141.733 		"/>
		<g>
			<path fill="#6DB541" d="M84.555,106.6v5.772h8.453c-0.962-1.878-1.665-3.804-2.028-5.772H84.555z"/>
			<path fill="#357BBD" d="M146.72,112.372h5.684V106.6h-11.106C143.295,108.44,145.134,110.368,146.72,112.372z"/>
			<path fill="#871E47" d="M95.689,90.411H83.944c-0.933,1.861-1.692,3.785-2.242,5.772h10.594
				C93.146,94.204,94.302,92.277,95.689,90.411z"/>
			<path fill="#D69018" d="M139.964,96.183v-3.595c-1.029-0.749-2.064-1.474-3.099-2.177h-19.321
				c2.876,1.589,6.28,3.531,9.825,5.772H139.964z"/>
			<path fill="#D69018" d="M95.052,122.788v5.772h13.089c-2.422-1.809-4.772-3.737-6.923-5.772H95.052z"/>
			<path fill="#871E47" d="M152.283,128.56h5.559v-5.772h-5.818c0.262,1.199,0.414,2.413,0.414,3.641
				C152.437,127.144,152.374,127.854,152.283,128.56z"/>
			<path fill="#6DB541" d="M147.855,138.976c-1.422,1.997-3.111,3.924-4.978,5.772h13.164c0.079-0.112,0.161-0.222,0.239-0.333
				v-5.438H147.855z"/>
			<path fill="#357BBD" d="M124.563,138.976h-9.015v5.772h19.471c-2.334-1.327-4.507-2.512-6.397-3.542
				C127.424,140.555,126.05,139.806,124.563,138.976z"/>
		</g>
		<polygon fill="#91C653" points="115.808,277.757 117.322,274.886 82.556,274.886 82.556,280.658 117.339,280.658 		"/>
		<polygon fill="#509FC2" points="117.339,280.658 150.404,280.658 150.404,274.886 117.322,274.886 115.808,277.757 		"/>
		<polygon fill="#B83065" points="104.512,261.584 106.035,258.698 81.757,258.698 80.348,254.809 78.742,258.698 73.55,271.813 
			79.059,264.47 106.035,264.47 		"/>
		<polygon fill="#B83065" points="147.598,344.085 144.254,342.85 161.076,327.763 170.401,327.868 166.244,331.597 
			148.464,347.542 		"/>
		<polygon fill="#91C653" points="165.184,356.653 161.563,356.124 175.252,337.39 184.642,335.512 181.259,340.142 166.79,359.942 
					"/>
		<polygon fill="#F0BE26" points="187.998,365.914 184.248,365.988 194.936,344.75 204.112,341.271 201.471,346.521 190.174,368.97 
					"/>
		<polygon fill="#509FC2" points="211.079,372.961 206.999,373.526 215.908,348.976 225.466,343.994 223.265,350.062 
			213.849,376.012 		"/>
		<polygon fill="#B83065" points="238.277,378.643 233.937,379.74 240.627,352.155 250.357,345.632 248.705,352.448 
			241.633,381.606 		"/>
		<polygon fill="#91C653" points="267.692,382.963 263.161,384.552 267.661,354.438 277.429,346.534 276.318,353.976 
			271.563,385.807 		"/>
		<polygon fill="#F0BE26" points="301.349,386.057 296.395,388.124 299.46,354.221 309.851,344.763 309.093,353.142 
			305.854,388.979 		"/>
		<polygon fill="#509FC2" points="338.207,388.371 333.504,390.805 333.839,351.825 343.242,347.094 343.172,355.391 
			342.873,390.882 		"/>
		<polygon fill="#B83065" points="380.165,386.864 375.287,389.921 372.58,353.529 381.909,341.704 382.579,350.696 
			385.442,389.165 		"/>
		<polygon fill="#91C653" points="424.536,384.931 419.524,388.536 414.133,349.764 423.309,336.465 424.643,346.048 
			430.342,387.03 		"/>
		<polygon fill="#F0BE26" points="471.518,380.876 466.099,385.146 458.189,342.099 467.792,326.797 469.745,337.438 
			478.108,382.939 		"/>
		<g>
			<path fill="#871E47" d="M166.859,331.045c-2.341-0.721-4.666-1.459-6.959-2.227l-12.109,10.86c2.202,0.839,4.446,1.65,6.72,2.441
				l11.734-10.523L166.859,331.045z"/>
			<path fill="#6DB541" d="M184.353,335.908c-0.252-0.063-0.506-0.124-0.758-0.187l-8.343,1.668l-6.711,9.185
				c2.195,0.635,4.419,1.249,6.669,1.845l6.049-8.277L184.353,335.908z"/>
			<path fill="#D69018" d="M204.112,341.271l-9.176,3.479l-3.769,7.489c2.221,0.479,4.461,0.944,6.726,1.392l3.578-7.11
				L204.112,341.271z"/>
			<path fill="#357BBD" d="M225.466,343.994l-9.558,4.981l-2.683,7.393c2.427,0.39,4.876,0.762,7.345,1.12l2.695-7.427
				L225.466,343.994z"/>
			<path fill="#871E47" d="M250.084,346.76c-0.411-0.039-0.823-0.078-1.233-0.118l-8.223,5.514l-1.857,7.657
				c2.629,0.291,5.282,0.563,7.949,0.822l1.985-8.187L250.084,346.76z"/>
			<path fill="#6DB541" d="M277.105,348.705c-0.74-0.037-1.482-0.072-2.221-0.111l-7.224,5.845l-1.168,7.818
				c2.819,0.189,5.657,0.362,8.511,0.521l1.315-8.802L277.105,348.705z"/>
			<path fill="#D69018" d="M309.415,349.578c-1.607-0.008-3.214-0.018-4.815-0.035l-5.139,4.678l-0.861,9.519
				c3.156,0.084,6.33,0.15,9.518,0.201l0.976-10.799L309.415,349.578z"/>
			<path fill="#357BBD" d="M343.225,349.056c-1.386,0.048-2.77,0.094-4.152,0.136l-5.234,2.634l-0.104,12.188
				c3.11-0.03,6.232-0.074,9.366-0.132l0.072-8.491L343.225,349.056z"/>
			<path fill="#871E47" d="M382.296,346.901c-1.588,0.118-3.176,0.235-4.761,0.347l-4.956,6.281l0.7,9.409
				c3.383-0.147,6.775-0.31,10.175-0.484l-0.875-11.758L382.296,346.901z"/>
			<path fill="#6DB541" d="M424.218,342.995c-1.952,0.217-3.902,0.429-5.854,0.636l-4.231,6.133l1.483,10.668
				c3.631-0.27,7.269-0.554,10.908-0.849l-1.882-13.535L424.218,342.995z"/>
			<path fill="#D69018" d="M469.69,337.138c-3.068,0.447-6.139,0.885-9.211,1.313l-2.29,3.648l2.635,14.341
				c4.061-0.414,8.12-0.841,12.178-1.282l-3.257-17.72L469.69,337.138z"/>
		</g>
		<polygon fill="#F0BE26" points="106.035,264.47 137.965,264.47 137.965,258.698 106.035,258.698 104.512,261.584 		"/>
		<polygon fill="#F0BE26" points="127.97,291.074 93.052,291.074 93.052,296.847 127.616,296.847 126.27,294.296 		"/>
		<polygon fill="#B83065" points="127.97,291.074 126.27,294.296 127.616,296.847 155.842,296.847 155.842,291.074 		"/>
		<polygon fill="#91C653" points="135.01,310.02 136.601,313.034 154.281,313.034 154.281,307.263 136.465,307.263 		"/>
		<polygon fill="#509FC2" points="136.465,307.263 113.549,307.263 113.549,313.034 136.601,313.034 135.01,310.02 		"/>
		<g>
			<path fill="#6DB541" d="M82.555,274.886v5.772h8.453c-0.962-1.878-1.665-3.804-2.028-5.772H82.555z"/>
			<path fill="#357BBD" d="M144.72,280.658h8.22l-2.537-5.772h-11.106C141.295,276.727,143.134,278.655,144.72,280.658z"/>
			<path fill="#871E47" d="M93.689,258.698H81.944c-0.933,1.861-1.692,3.785-2.242,5.771h10.594
				C91.146,262.491,92.302,260.563,93.689,258.698z"/>
			<path fill="#D69018" d="M137.964,264.47v-3.595c-1.029-0.749-2.064-1.474-3.099-2.177h-19.321
				c2.876,1.589,6.28,3.531,9.825,5.771H137.964z"/>
			<path fill="#D69018" d="M93.052,291.074v5.772h13.089c-2.422-1.809-4.772-3.738-6.923-5.772H93.052z"/>
			<path fill="#871E47" d="M150.283,296.847h7.538v-5.772h-7.797c0.262,1.199,0.414,2.413,0.414,3.641
				C150.437,295.431,150.374,296.14,150.283,296.847z"/>
			<path fill="#6DB541" d="M145.855,307.263c-1.422,1.997-3.111,3.924-4.978,5.771h13.164c0.079-0.111,0.161-0.221,0.239-0.333
				v-5.438H145.855z"/>
			<path fill="#357BBD" d="M122.563,307.263h-9.015v5.771h19.471c-2.334-1.326-4.507-2.512-6.397-3.541
				C125.424,308.841,124.05,308.093,122.563,307.263z"/>
		</g>
		<polygon fill="#91C653" points="117.808,-58.817 119.322,-61.688 84.556,-61.688 84.556,-55.916 119.339,-55.916 		"/>
		<polygon fill="#509FC2" points="119.339,-55.916 152.404,-55.916 152.404,-61.688 119.322,-61.688 117.808,-58.817 		"/>
		<polygon fill="#B83065" points="106.512,-74.99 108.035,-77.876 83.757,-77.876 81.896,-83.012 80.742,-77.876 75.55,-64.761 
			81.059,-72.104 108.035,-72.104 		"/>
		<polygon fill="#F0BE26" points="108.035,-72.104 139.965,-72.104 139.965,-77.876 108.035,-77.876 106.512,-74.99 		"/>
		<polygon fill="#F0BE26" points="129.97,-45.5 95.052,-45.5 95.052,-39.728 129.616,-39.728 128.27,-42.278 		"/>
		<polygon fill="#B83065" points="129.97,-45.5 128.27,-42.278 129.616,-39.728 157.842,-39.728 157.842,-45.5 		"/>
		<polygon fill="#91C653" points="137.01,-26.554 138.601,-23.539 156.281,-23.539 156.281,-29.311 138.465,-29.311 		"/>
		<polygon fill="#509FC2" points="138.465,-29.311 115.549,-29.311 115.549,-23.539 138.601,-23.539 137.01,-26.554 		"/>
		<g>
			<path fill="#6DB541" d="M84.555-61.688v5.772h8.453c-0.962-1.878-1.665-3.804-2.028-5.772H84.555z"/>
			<path fill="#357BBD" d="M146.72-55.916h5.684v-5.772h-11.106C143.295-59.847,145.134-57.919,146.72-55.916z"/>
			<path fill="#871E47" d="M95.689-77.876H83.944c-0.933,1.861-1.692,3.785-2.242,5.772h10.594
				C93.146-74.083,94.302-76.01,95.689-77.876z"/>
			<path fill="#D69018" d="M139.964-72.104v-3.595c-1.029-0.749-2.064-1.474-3.099-2.177h-19.321
				c2.876,1.589,6.28,3.531,9.825,5.772H139.964z"/>
			<path fill="#D69018" d="M95.052-45.5v5.772h13.089c-2.422-1.809-4.772-3.737-6.923-5.772H95.052z"/>
			<path fill="#871E47" d="M152.283-39.728h5.559V-45.5h-5.818c0.262,1.199,0.414,2.413,0.414,3.641
				C152.437-41.143,152.374-40.434,152.283-39.728z"/>
			<path fill="#6DB541" d="M147.855-29.311c-1.422,1.997-3.111,3.924-4.978,5.772h13.164c0.079-0.112,0.161-0.222,0.239-0.333
				v-5.438H147.855z"/>
			<path fill="#357BBD" d="M124.563-29.311h-9.015v5.772h19.471c-2.334-1.327-4.507-2.512-6.397-3.542
				C127.424-27.732,126.05-28.481,124.563-29.311z"/>
		</g>
		<polygon fill="#91C653" points="124.37,-142.961 122.855,-145.832 157.622,-145.832 157.622,-140.06 122.838,-140.06 		"/>
		<polygon fill="#509FC2" points="122.838,-140.06 89.774,-140.06 89.774,-145.832 122.855,-145.832 124.37,-142.961 		"/>
		<polygon fill="#B83065" points="135.666,-159.134 134.143,-162.02 158.421,-162.02 160.281,-167.156 161.436,-162.02 
			166.628,-148.905 161.119,-156.248 134.143,-156.248 		"/>
		<polygon fill="#F0BE26" points="134.143,-156.248 102.212,-156.248 102.212,-162.02 134.143,-162.02 135.666,-159.134 		"/>
		<polygon fill="#F0BE26" points="112.208,-129.644 147.125,-129.644 147.125,-123.872 112.562,-123.872 113.908,-126.422 		"/>
		<polygon fill="#B83065" points="112.208,-129.644 113.908,-126.422 112.562,-123.872 84.335,-123.872 84.335,-129.644 		"/>
		<polygon fill="#91C653" points="105.168,-110.698 103.577,-107.683 85.897,-107.683 85.897,-113.455 103.713,-113.455 		"/>
		<polygon fill="#509FC2" points="103.713,-113.455 126.628,-113.455 126.628,-107.683 103.577,-107.683 105.168,-110.698 		"/>
		<g>
			<path fill="#6DB541" d="M157.623-145.832v5.772h-8.453c0.962-1.878,1.665-3.804,2.028-5.772H157.623z"/>
			<path fill="#357BBD" d="M95.458-140.06h-5.684v-5.772h11.106C98.882-143.991,97.043-142.063,95.458-140.06z"/>
			<path fill="#871E47" d="M146.489-162.02h11.745c0.933,1.861,1.692,3.785,2.242,5.772h-10.594
				C149.032-158.227,147.875-160.154,146.489-162.02z"/>
			<path fill="#D69018" d="M102.213-156.248v-3.595c1.029-0.749,2.064-1.474,3.099-2.177h19.321
				c-2.876,1.589-6.28,3.531-9.825,5.772H102.213z"/>
			<path fill="#D69018" d="M147.125-129.644v5.772h-13.089c2.422-1.809,4.772-3.737,6.923-5.772H147.125z"/>
			<path fill="#871E47" d="M89.895-123.872h-5.559v-5.772h5.818c-0.262,1.199-0.414,2.413-0.414,3.641
				C89.741-125.287,89.804-124.578,89.895-123.872z"/>
			<path fill="#6DB541" d="M94.323-113.455c1.422,1.997,3.111,3.924,4.978,5.772H86.136c-0.079-0.112-0.161-0.222-0.239-0.333
				v-5.438H94.323z"/>
			<path fill="#357BBD" d="M117.615-113.455h9.015v5.772h-19.471c2.334-1.327,4.507-2.512,6.397-3.542
				C114.753-111.876,116.127-112.625,117.615-113.455z"/>
		</g>
		<polygon fill="#91C653" points="117.808,-227.105 119.322,-229.975 84.556,-229.975 84.556,-224.203 119.339,-224.203 		"/>
		<polygon fill="#509FC2" points="119.339,-224.203 152.404,-224.203 152.404,-229.975 119.322,-229.975 117.808,-227.105 		"/>
		<polygon fill="#B83065" points="106.512,-243.277 108.035,-246.164 83.757,-246.164 81.896,-251.3 80.742,-246.164 
			75.55,-233.048 81.059,-240.392 108.035,-240.392 		"/>
		<polygon fill="#F0BE26" points="108.035,-240.392 139.965,-240.392 139.965,-246.164 108.035,-246.164 106.512,-243.277 		"/>
		<path fill="#CEE1E8" d="M73.722,378.856c0,68.973,164.697,130.299,164.697,169.844h29.25
			c0-37.228-177.803-111.372-177.803-169.844l-8.877-3.599L73.722,378.856z"/>
		<path fill="#CEE1E8" d="M117.698,321.276c144.242,82.121,540.84-2.027,681.854-45.753v-41.645
			c-119,52.488-500.633,161.854-675.851,75.662l-7.241,1.612L117.698,321.276z"/>
		<polygon fill="#F0BE26" points="129.97,-213.787 95.052,-213.787 95.052,-208.015 129.616,-208.015 128.27,-210.565 		"/>
		<polygon fill="#B83065" points="129.97,-213.787 128.27,-210.565 129.616,-208.015 157.842,-208.015 157.842,-213.787 		"/>
		<polygon fill="#91C653" points="137.01,-194.842 138.601,-191.827 156.281,-191.827 156.281,-197.599 138.465,-197.599 		"/>
		<polygon fill="#509FC2" points="138.465,-197.599 115.549,-197.599 115.549,-191.827 138.601,-191.827 137.01,-194.842 		"/>
		<g>
			<path fill="#6DB541" d="M84.555-229.975v5.772h8.453c-0.962-1.878-1.665-3.804-2.028-5.772H84.555z"/>
			<path fill="#357BBD" d="M146.72-224.203h5.684v-5.772h-11.106C143.295-228.135,145.134-226.207,146.72-224.203z"/>
			<path fill="#871E47" d="M95.689-246.164H83.944c-0.933,1.861-1.692,3.785-2.242,5.772h10.594
				C93.146-242.371,94.302-244.297,95.689-246.164z"/>
			<path fill="#D69018" d="M139.964-240.392v-3.595c-1.029-0.749-2.064-1.474-3.099-2.177h-19.321
				c2.876,1.589,6.28,3.531,9.825,5.772H139.964z"/>
			<path fill="#D69018" d="M95.052-213.787v5.772h13.089c-2.422-1.809-4.772-3.737-6.923-5.772H95.052z"/>
			<path fill="#871E47" d="M152.283-208.015h5.559v-5.772h-5.818c0.262,1.199,0.414,2.413,0.414,3.641
				C152.437-209.431,152.374-208.721,152.283-208.015z"/>
			<path fill="#6DB541" d="M147.855-197.599c-1.422,1.997-3.111,3.924-4.978,5.772h13.164c0.079-0.112,0.161-0.222,0.239-0.333
				v-5.438H147.855z"/>
			<path fill="#357BBD" d="M124.563-197.599h-9.015v5.772h19.471c-2.334-1.327-4.507-2.512-6.397-3.542
				C127.424-196.02,126.05-196.769,124.563-197.599z"/>
		</g>
		<path fill="#C1D6DE" d="M150.9-9.078c-4.196-3.689-8.796-6.961-13.245-9.796c-2.842,2.29-5.854,4.409-8.813,6.331
			c4.387,2.649,9.15,5.802,13.481,9.35C145.158-4.978,148.063-6.94,150.9-9.078z"/>
		<polygon fill="#91C653" points="124.37,25.326 122.855,22.456 157.622,22.456 157.622,28.228 122.838,28.228 		"/>
		<polygon fill="#509FC2" points="122.838,28.228 89.774,28.228 89.774,22.456 122.855,22.456 124.37,25.326 		"/>
		<polygon fill="#B83065" points="135.666,9.154 134.143,6.268 158.421,6.268 160.281,1.131 161.436,6.268 166.628,19.383 
			161.119,12.04 134.143,12.04 		"/>
		<polygon fill="#F0BE26" points="134.143,12.04 102.212,12.04 102.212,6.268 134.143,6.268 135.666,9.154 		"/>
		<polygon fill="#F0BE26" points="112.208,38.644 147.125,38.644 147.125,44.416 112.562,44.416 113.908,41.866 		"/>
		<polygon fill="#B83065" points="112.208,38.644 113.908,41.866 112.562,44.416 84.335,44.416 84.335,38.644 		"/>
		<path fill="#C1D6DE" d="M161.153,324.173c-8.199-2.509-16.105-5.314-23.686-8.438c-4.042,3.467-8.562,6.587-12.845,9.26
			c7.614,3.857,15.852,7.299,24.629,10.364C153.482,332.037,157.608,328.288,161.153,324.173z"/>
		<polygon fill="#91C653" points="105.168,57.589 103.577,60.604 85.897,60.604 85.897,54.833 103.713,54.833 		"/>
		<polygon fill="#509FC2" points="103.713,54.833 126.628,54.833 126.628,60.604 103.577,60.604 105.168,57.589 		"/>
		<g>
			<path fill="#6DB541" d="M157.623,22.456v5.772h-8.453c0.962-1.878,1.665-3.804,2.028-5.772H157.623z"/>
			<path fill="#357BBD" d="M95.458,28.228h-5.684v-5.772h11.106C98.882,24.296,97.043,26.225,95.458,28.228z"/>
			<path fill="#871E47" d="M146.489,6.268h11.745c0.933,1.861,1.692,3.785,2.242,5.772h-10.594
				C149.032,10.061,147.875,8.134,146.489,6.268z"/>
			<path fill="#D69018" d="M102.213,12.04V8.445c1.029-0.749,2.064-1.474,3.099-2.177h19.321c-2.876,1.589-6.28,3.531-9.825,5.772
				H102.213z"/>
			<path fill="#D69018" d="M147.125,38.644v5.772h-13.089c2.422-1.809,4.772-3.737,6.923-5.772H147.125z"/>
			<path fill="#871E47" d="M89.895,44.416h-5.559v-5.772h5.818c-0.262,1.199-0.414,2.413-0.414,3.641
				C89.741,43,89.804,43.71,89.895,44.416z"/>
			<path fill="#6DB541" d="M94.323,54.833c1.422,1.997,3.111,3.924,4.978,5.772H86.136c-0.079-0.112-0.161-0.222-0.239-0.333v-5.438
				H94.323z"/>
			<path fill="#357BBD" d="M117.615,54.833h9.015v5.772h-19.471c2.334-1.327,4.507-2.512,6.397-3.542
				C114.753,56.411,116.127,55.662,117.615,54.833z"/>
		</g>
		<path fill="#CEE1E8" d="M117.698,321.276c-14.005-7.625-44.148-26.488-44.148-49.463s31.144-38.84,45.148-46.463
			c11.351-6.18,36.93-20.65,36.93-37.682s-25.579-31.502-36.93-37.68c-14.005-7.625-43.148-23.488-43.148-46.463
			s29.144-38.84,43.148-46.463c11.351-6.18,37.93-20.649,37.93-37.682c0-17.031-26.579-31.502-37.93-37.68
			C104.693-25.923,75.55-41.786,75.55-64.761c0-22.975,29.144-38.839,43.148-46.463c11.351-6.179,37.93-20.649,37.93-37.681
			c0-17.032-26.579-31.501-37.93-37.68c-14.005-7.625-43.148-23.49-43.148-46.463c0-6.699,2.488-12.789,6.347-18.251h13.143
			c-5.519,5.483-9.489,11.675-9.489,18.251c0,17.032,26.579,31.501,37.93,37.68c14.005,7.625,43.148,23.489,43.148,46.463
			c0,22.973-29.144,38.839-43.148,46.464c-11.351,6.178-37.93,20.647-37.93,37.68c0,17.032,26.579,31.501,37.93,37.68
			c14.005,7.625,43.148,23.49,43.148,46.463c0,22.974-29.144,38.84-43.148,46.465c-11.351,6.178-37.93,20.646-37.93,37.68
			c0,17.031,26.579,31.5,37.93,37.68c14.005,7.625,44.148,23.49,44.148,46.463c0,22.975-28.144,39.84-42.148,47.465
			c-11.351,6.178-39.93,19.646-39.93,36.68c0,17.031,26.802,31.548,38.152,37.728L117.698,321.276z"/>
		<path fill="#C1D6DE" d="M151.154,158.977c-4.196-3.689-9.063-6.854-13.512-9.69c-2.842,2.291-5.882,4.594-8.842,6.517
			c4.387,2.648,8.948,5.964,13.279,9.512C144.914,163.53,148.317,161.113,151.154,158.977z"/>
		<path fill="#C1D6DE" d="M150.9-9.078c-4.196-3.689-8.796-6.961-13.245-9.796c-2.842,2.29-5.854,4.409-8.813,6.331
			c4.387,2.649,9.15,5.802,13.481,9.35C145.158-4.978,148.063-6.94,150.9-9.078z"/>
		<path fill="#C1D6DE" d="M150.9-177.365c-4.196-3.689-8.796-6.961-13.245-9.796c-2.842,2.29-5.854,4.409-8.813,6.331
			c4.387,2.649,9.15,5.802,13.481,9.35C145.158-173.265,148.063-175.228,150.9-177.365z"/>
		<path fill="#CEE1E8" d="M118.763-247.827c11.35,6.179,37.93,20.648,37.93,37.68s-26.58,31.501-37.93,37.68
			c-14.005,7.625-43.148,23.49-43.148,46.463c0,22.973,29.143,38.839,43.148,46.464c11.35,6.178,37.93,20.646,37.93,37.68
			s-26.58,31.501-37.93,37.68c-14.005,7.625-43.148,23.491-43.148,46.464c0,22.975,29.143,38.839,43.149,46.463
			c11.35,6.177,37.929,20.641,37.929,37.678c0,17.031-26.58,31.501-37.93,37.681c-14.005,7.625-43.148,23.49-43.148,46.463
			s29.143,38.84,43.149,46.465c11.35,6.178,37.929,20.643,37.929,37.678c0,17.031-26.58,31.502-37.93,37.682
			c-14.005,7.625-45.041,23.49-45.041,46.463h16.145c0-17.031,25.328-29.502,36.678-35.68c14.005-7.625,42.148-25.49,42.148-48.465
			c0-22.977-31.144-38.838-45.148-46.461c-11.35-6.18-37.93-20.65-37.93-37.682s26.58-31.502,37.93-37.68
			c14.005-7.625,43.148-23.491,43.148-46.464c0-22.979-29.144-38.839-43.148-46.461c-11.35-6.178-37.93-20.647-37.93-37.68
			c0-17.031,26.58-31.502,37.93-37.681c14.005-7.624,43.148-23.487,43.148-46.463s-29.143-38.839-43.148-46.463
			c-11.35-6.179-37.93-20.65-37.93-37.681c0-17.032,26.58-31.501,37.93-37.68c14.005-7.625,43.148-23.489,43.148-46.463
			c0-18.555-19.006-32.469-33.698-41.153h-20.51C114.773-250,116.904-248.839,118.763-247.827z"/>
		<path fill="#C1D6DE" d="M100.062-103.31c-2.835,1.791-5.736,3.76-8.567,5.902c0.779,0.682,1.585,1.332,2.388,1.984
			c2.738-2.219,5.59-4.271,8.42-6.15C101.55-102.147,100.793-102.714,100.062-103.31z"/>
		<path fill="#C1D6DE" d="M100.062,64.978c-2.835,1.791-5.736,3.76-8.567,5.902c0.779,0.682,1.585,1.332,2.388,1.984
			c2.738-2.219,5.59-4.271,8.42-6.15C101.55,66.141,100.793,65.574,100.062,64.978z"/>
		<path fill="#C1D6DE" d="M105.192-87.365c2.814-2.302,5.809-4.438,8.766-6.377c-0.884-0.529-1.795-1.096-2.707-1.667
			c-2.957,1.848-6.022,3.912-8.965,6.152C103.259-88.609,104.231-87.971,105.192-87.365z"/>
		<path fill="#C1D6DE" d="M105.192,80.923c2.814-2.302,5.809-4.438,8.766-6.377c-0.884-0.529-1.795-1.096-2.707-1.667
			c-2.957,1.848-6.022,3.912-8.965,6.152C103.259,79.678,104.231,80.317,105.192,80.923z"/>
		<path fill="#C1D6DE" d="M102.066,234.849c-0.77-0.59-1.528-1.195-2.275-1.81c-2.838,1.808-5.726,3.772-8.562,5.891
			c0.725,0.641,1.458,1.271,2.205,1.885C96.26,238.666,99.183,236.673,102.066,234.849z"/>
		<path fill="#C1D6DE" d="M112.699,242.071c-3.096,1.777-6.322,3.754-9.428,5.904c0.762,0.497,2.009,1.291,2.763,1.763
			c2.825-2.296,5.772-4.474,8.733-6.424C114.233,242.997,113.245,242.404,112.699,242.071z"/>
		<polygon fill="#509FC2" points="549.993,344.481 537.087,349.405 552.021,396.298 557.485,390.74 565.165,392.113 		"/>
		<polygon fill="#91C653" points="691.96,383.099 672.643,387.838 685.635,457.503 694.432,450.535 705.161,453.863 		"/>
		<polygon fill="#B83065" points="777.166,471.775 768.741,464.079 739.678,492.506 745.807,494.476 747.645,500.653 		"/>
		<polygon fill="#E3E0DA" points="461.112,408.398 454.426,404.443 439.017,427.436 443.376,427.895 445.461,431.755 		"/>
		<polygon fill="#E3E0DA" points="517.052,377.768 507.729,377.619 505.338,410.747 510.154,408.634 514.623,411.418 		"/>
		<polygon fill="#E3E0DA" points="740.323,331.527 727.092,329.26 716.375,375.871 723.696,373.926 729.439,378.875 		"/>
		<polygon fill="#B83065" points="508.793,504.583 506.166,496.771 498.912,494.723 447.525,548.7 466.794,548.7 		"/>
		<polygon fill="#E3E0DA" points="631.271,523.232 597.519,539.027 594.436,532.439 628.293,516.596 631.474,519.003 		"/>
		<polygon fill="#E3E0DA" points="590.357,456.503 560.624,496.452 553.236,490.953 583.077,450.857 588.029,451.626 		"/>
		<polygon fill="#E3E0DA" points="740.444,507.096 734.882,503.403 729.187,505.716 724.866,548.7 736.263,548.7 		"/>
		<polygon fill="#E3E0DA" points="449.28,493.277 445.212,492.925 434.666,509.3 440.95,513.346 451.423,497.084 		"/>
		<polygon fill="#B83065" points="320.073,405.896 315.337,412.66 333.322,447.69 346.763,440.786 328.903,405.999 		"/>
		<polygon fill="#E3E0DA" points="306.722,434.574 303.642,431.868 299.867,432.833 294.487,455.296 301.364,456.943 		"/>
		<polygon fill="#E3E0DA" points="646.681,431.15 636.302,435.324 641.64,451.111 645.983,446.533 652.222,447.534 		"/>
		<polygon fill="#E3E0DA" points="497.486,458.057 489.721,456.521 484.482,461.665 490.197,480.784 503.124,476.923 		"/>
		<polygon fill="#91C653" points="387.822,408.693 381.681,442.421 391.157,439.434 398.981,445.572 405.299,410.868 		"/>
		<polygon fill="#F0BE26" points="596.115,470.121 600.229,472.837 600.311,477.769 616.107,469.101 611.483,461.69 		"/>
		<polygon fill="#509FC2" points="269.252,403.908 264.857,400.764 260.151,402.484 255.991,433.018 265.117,434.262 		"/>
		<polygon fill="#F0BE26" points="215.818,401.549 213.07,401.381 206.131,412.78 210.453,415.411 217.34,404.098 		"/>
		<polygon fill="#E3E0DA" points="226.211,429.593 223.021,429.205 221.055,431.445 226.595,445.95 231.712,443.996 		"/>
		<polygon fill="#B83065" points="168.903,418.114 171.89,420.569 171.549,424.421 181.87,420.091 179.216,413.788 		"/>
		<polygon fill="#E3E0DA" points="141.944,382.42 144.705,400.053 148.553,397.182 153.098,398.738 150.319,380.994 		"/>
		<polygon fill="#E3E0DA" points="263.169,466.285 252.262,476.675 256.104,477.965 257.207,481.865 268.183,471.409 		"/>
		<polygon fill="#E3E0DA" points="662.212,323.171 654.892,325.349 652.731,332.094 675.316,355.162 684.617,346.057 		"/>
		<polygon fill="#B83065" points="604.86,405.858 613.881,403.387 621.021,409.442 628.294,376.626 611.934,373.954 		"/>
		<polygon fill="#F0BE26" points="748.037,432.953 758.898,431.498 766.236,439.648 784.061,391.179 765.896,384.397 		"/>
		<polygon fill="#509FC2" points="673.146,492.006 661.841,492.875 656.632,501.924 676.436,533.337 692.649,522.942 		"/>
		<polygon fill="#E3E0DA" points="790.362,480.489 785.492,484.133 785.734,489.729 799.553,496.279 799.553,484.846 		"/>
		<polygon fill="#E3E0DA" points="360.914,466.801 367.213,470.668 367.579,478.059 388.369,465.748 381.893,454.378 		"/>
		<polygon fill="#91C653" points="305.393,528.827 302.961,524.314 298.268,523.821 287.414,540.005 294.815,544.599 		"/>
		<polygon fill="#F0BE26" points="452.321,450.155 444.16,453.532 442.476,461.547 457.969,474.41 467.37,462.651 		"/>
		<polygon fill="#E3E0DA" points="777.483,307.047 767.43,317.101 781.278,332.076 783.946,324.505 791.71,322.431 		"/>
		<polygon fill="#B83065" points="519.842,447.036 524.475,440.201 505.96,405.448 492.625,412.556 511.012,447.067 		"/>
		<polygon fill="#E3E0DA" points="384.291,539.006 386.575,535.6 385.127,531.983 362.156,529.564 361.415,536.598 		"/>
		<polygon fill="#E3E0DA" points="580.872,429.709 584.395,419.091 568.897,412.962 569.584,419.235 564.788,423.35 		"/>
		<polygon fill="#F0BE26" points="696.119,329.448 695.128,337.806 701.008,342.935 745.784,325.694 740.633,312.31 		"/>
		<polygon fill="#F0BE26" points="603.63,347.312 605.697,349.129 618.17,344.38 616.37,339.652 603.991,344.364 		"/>
		<polygon fill="#91C653" points="137.375,369.222 140.617,371.328 140.708,375.193 150.481,369.737 147.14,363.771 		"/>
		<polygon fill="#E3E0DA" points="185.291,386.057 174.214,383.33 174.957,386.308 172.917,388.603 184.064,391.346 		"/>
		<polygon fill="#91C653" points="572.402,531.437 566.702,500.806 560.129,506.007 552.123,503.519 557.86,534.344 		"/>
		<polygon fill="#E3E0DA" points="235.52,466.063 238.146,461.462 236.007,457.076 218.666,456.513 218.442,465.51 		"/>
		<polygon fill="#509FC2" points="774.38,313.835 785.947,326.942 781.66,343.906 799.553,339.572 799.553,307.738 		"/>
		<polygon fill="#E3E0DA" points="531.871,544.623 525.881,537.177 517.106,537.871 512.436,548.7 530.112,548.7 		"/>
		<polygon fill="#F0BE26" points="650.42,530.748 647.674,537.05 640.916,538.343 649.194,548.7 664.766,548.7 		"/>
	</g>
	<g>
		<polygon fill="#91C653" points="206.049,-62.163 205.185,-63.8 225.018,-63.8 225.018,-60.507 205.175,-60.507 		"/>
		<polygon fill="#509FC2" points="205.175,-60.507 186.314,-60.507 186.314,-63.8 205.185,-63.8 206.049,-62.163 		"/>
		<polygon fill="#B83065" points="212.493,-71.389 211.624,-73.035 225.474,-73.035 226.535,-75.964 227.193,-73.035 
			230.155,-65.553 227.013,-69.742 211.624,-69.742 		"/>
		<polygon fill="#F0BE26" points="211.624,-69.742 193.409,-69.742 193.409,-73.035 211.624,-73.035 212.493,-71.389 		"/>
		<polygon fill="#F0BE26" points="199.111,-54.565 219.03,-54.565 219.03,-51.273 199.313,-51.273 200.081,-52.728 		"/>
		<polygon fill="#B83065" points="199.111,-54.565 200.081,-52.728 199.313,-51.273 183.211,-51.273 183.211,-54.565 		"/>
		<polygon fill="#91C653" points="195.095,-43.758 194.188,-42.038 184.102,-42.038 184.102,-45.331 194.265,-45.331 		"/>
		<polygon fill="#509FC2" points="194.265,-45.331 207.337,-45.331 207.337,-42.038 194.188,-42.038 195.095,-43.758 		"/>
		<g>
			<path fill="#6DB541" d="M225.018-63.8v3.292h-4.822c0.548-1.072,0.95-2.17,1.157-3.292H225.018z"/>
			<path fill="#357BBD" d="M189.556-60.507h-3.242V-63.8h6.335C191.51-62.75,190.46-61.65,189.556-60.507z"/>
			<path fill="#871E47" d="M218.667-73.035h6.7c0.532,1.062,0.966,2.159,1.279,3.293h-6.043
				C220.118-70.871,219.458-71.97,218.667-73.035z"/>
			<path fill="#D69018" d="M193.41-69.742v-2.051c0.587-0.427,1.178-0.841,1.768-1.242h11.022c-1.641,0.906-3.583,2.014-5.604,3.293
				H193.41z"/>
			<path fill="#D69018" d="M219.03-54.565v3.292h-7.467c1.381-1.032,2.723-2.132,3.949-3.292H219.03z"/>
			<path fill="#871E47" d="M186.383-51.273h-3.171v-3.292h3.319c-0.149,0.684-0.236,1.376-0.236,2.077
				C186.295-52.081,186.331-51.676,186.383-51.273z"/>
			<path fill="#6DB541" d="M188.909-45.331c0.811,1.14,1.775,2.239,2.839,3.293h-7.509c-0.045-0.064-0.092-0.126-0.137-0.19v-3.103
				H188.909z"/>
			<path fill="#357BBD" d="M202.196-45.331h5.142v3.293h-11.107c1.332-0.757,2.571-1.434,3.649-2.021
				C200.563-44.43,201.347-44.857,202.196-45.331z"/>
		</g>
		<polygon fill="#91C653" points="202.306,-110.163 203.169,-111.8 183.337,-111.8 183.337,-108.507 203.179,-108.507 		"/>
		<polygon fill="#509FC2" points="203.179,-108.507 222.041,-108.507 222.041,-111.8 203.169,-111.8 202.306,-110.163 		"/>
		<polygon fill="#B83065" points="195.862,-119.388 196.731,-121.035 182.881,-121.035 181.82,-123.965 181.162,-121.035 
			178.2,-113.553 181.342,-117.742 196.73,-117.742 		"/>
		<polygon fill="#F0BE26" points="196.73,-117.742 214.946,-117.742 214.946,-121.035 196.731,-121.035 195.862,-119.388 		"/>
		<polygon fill="#F0BE26" points="209.244,-102.565 189.325,-102.565 189.325,-99.273 209.042,-99.273 208.273,-100.728 		"/>
		<polygon fill="#B83065" points="209.244,-102.565 208.273,-100.728 209.042,-99.273 225.144,-99.273 225.144,-102.565 		"/>
		<polygon fill="#91C653" points="213.26,-91.758 214.167,-90.038 224.253,-90.038 224.253,-93.331 214.089,-93.331 		"/>
		<polygon fill="#509FC2" points="214.089,-93.331 201.018,-93.331 201.018,-90.038 214.167,-90.038 213.26,-91.758 		"/>
		<g>
			<path fill="#6DB541" d="M183.336-111.8v3.292h4.822c-0.549-1.071-0.95-2.17-1.157-3.292H183.336z"/>
			<path fill="#357BBD" d="M218.799-108.507h3.242v-3.292h-6.335C216.845-110.75,217.894-109.65,218.799-108.507z"/>
			<path fill="#871E47" d="M189.688-121.035h-6.7c-0.532,1.062-0.965,2.159-1.279,3.292h6.043
				C188.237-118.871,188.897-119.97,189.688-121.035z"/>
			<path fill="#D69018" d="M214.945-117.742v-2.051c-0.587-0.427-1.178-0.841-1.768-1.242h-11.022
				c1.641,0.907,3.583,2.014,5.605,3.292H214.945z"/>
			<path fill="#D69018" d="M189.325-102.565v3.292h7.467c-1.382-1.032-2.723-2.132-3.949-3.292H189.325z"/>
			<path fill="#871E47" d="M221.972-99.273h3.171v-3.292h-3.319c0.149,0.684,0.236,1.376,0.236,2.077
				C222.06-100.081,222.024-99.676,221.972-99.273z"/>
			<path fill="#6DB541" d="M219.446-93.331c-0.811,1.139-1.775,2.238-2.839,3.292h7.509c0.045-0.064,0.092-0.126,0.137-0.19v-3.102
				H219.446z"/>
			<path fill="#357BBD" d="M206.159-93.331h-5.143v3.292h11.107c-1.332-0.757-2.571-1.433-3.649-2.021
				C207.792-92.43,207.008-92.857,206.159-93.331z"/>
		</g>
		<polygon fill="#91C653" points="201.165,-14.163 202.029,-15.801 182.196,-15.801 182.196,-12.508 202.039,-12.508 		"/>
		<polygon fill="#509FC2" points="202.039,-12.508 220.9,-12.508 220.9,-15.801 202.029,-15.801 201.165,-14.163 		"/>
		<polygon fill="#B83065" points="194.721,-23.389 195.59,-25.035 181.74,-25.035 180.937,-27.254 180.021,-25.035 177.059,-17.553 
			180.201,-21.743 195.59,-21.743 		"/>
		<polygon fill="#F0BE26" points="195.59,-21.743 213.805,-21.743 213.805,-25.035 195.59,-25.035 194.721,-23.389 		"/>
		<polygon fill="#F0BE26" points="208.103,-6.566 188.184,-6.566 188.184,-3.273 207.901,-3.273 207.133,-4.728 		"/>
		<polygon fill="#B83065" points="208.103,-6.566 207.133,-4.728 207.901,-3.273 224.002,-3.273 224.002,-6.566 		"/>
		<g>
			<path fill="#6DB541" d="M182.196-15.801v3.293h4.822c-0.549-1.071-0.95-2.17-1.157-3.293H182.196z"/>
			<path fill="#357BBD" d="M217.658-12.508h4.689l-1.447-3.293h-6.336C215.704-14.75,216.753-13.65,217.658-12.508z"/>
			<path fill="#871E47" d="M188.547-25.035h-6.7c-0.532,1.062-0.966,2.159-1.279,3.292h6.043
				C187.096-22.871,187.756-23.971,188.547-25.035z"/>
			<path fill="#D69018" d="M213.804-21.743v-2.05c-0.587-0.427-1.178-0.841-1.768-1.242h-11.022
				c1.641,0.906,3.583,2.014,5.605,3.292H213.804z"/>
			<path fill="#D69018" d="M188.184-6.566v3.293h7.466c-1.381-1.032-2.723-2.132-3.949-3.293H188.184z"/>
			<path fill="#871E47" d="M220.831-3.273h4.3v-3.293h-4.448c0.149,0.684,0.236,1.376,0.236,2.077
				C220.919-4.081,220.883-3.676,220.831-3.273z"/>
		</g>
		<polygon fill="#91C653" points="202.306,-206.163 203.169,-207.8 183.337,-207.8 183.337,-204.507 203.179,-204.507 		"/>
		<polygon fill="#509FC2" points="203.179,-204.507 222.041,-204.507 222.041,-207.8 203.169,-207.8 202.306,-206.163 		"/>
		<polygon fill="#B83065" points="195.862,-215.388 196.731,-217.035 182.881,-217.035 181.82,-219.965 181.162,-217.035 
			178.2,-209.553 181.342,-213.742 196.73,-213.742 		"/>
		<polygon fill="#F0BE26" points="196.73,-213.742 214.946,-213.742 214.946,-217.035 196.731,-217.035 195.862,-215.388 		"/>
		<polygon fill="#F0BE26" points="209.244,-198.565 189.325,-198.565 189.325,-195.273 209.042,-195.273 208.273,-196.728 		"/>
		<polygon fill="#B83065" points="209.244,-198.565 208.273,-196.728 209.042,-195.273 225.144,-195.273 225.144,-198.565 		"/>
		<polygon fill="#91C653" points="213.26,-187.758 214.167,-186.038 224.253,-186.038 224.253,-189.331 214.089,-189.331 		"/>
		<polygon fill="#509FC2" points="214.089,-189.331 201.018,-189.331 201.018,-186.038 214.167,-186.038 213.26,-187.758 		"/>
		<g>
			<path fill="#6DB541" d="M183.336-207.8v3.292h4.822c-0.549-1.071-0.95-2.17-1.157-3.292H183.336z"/>
			<path fill="#357BBD" d="M218.799-204.507h3.242v-3.292h-6.335C216.845-206.75,217.894-205.65,218.799-204.507z"/>
			<path fill="#871E47" d="M189.688-217.035h-6.7c-0.532,1.062-0.965,2.159-1.279,3.292h6.043
				C188.237-214.871,188.897-215.97,189.688-217.035z"/>
			<path fill="#D69018" d="M214.945-213.742v-2.05c-0.587-0.427-1.178-0.841-1.768-1.242h-11.022
				c1.641,0.907,3.583,2.014,5.605,3.292H214.945z"/>
			<path fill="#D69018" d="M189.325-198.565v3.292h7.467c-1.382-1.032-2.723-2.132-3.949-3.292H189.325z"/>
			<path fill="#871E47" d="M221.972-195.273h3.171v-3.292h-3.319c0.149,0.684,0.236,1.376,0.236,2.077
				C222.06-196.08,222.024-195.676,221.972-195.273z"/>
			<path fill="#6DB541" d="M219.446-189.331c-0.811,1.139-1.775,2.239-2.839,3.292h7.509c0.045-0.063,0.092-0.126,0.137-0.19v-3.102
				H219.446z"/>
			<path fill="#357BBD" d="M206.159-189.331h-5.143v3.292h11.107c-1.332-0.757-2.571-1.433-3.649-2.02
				C207.792-188.43,207.008-188.857,206.159-189.331z"/>
		</g>
		<polygon fill="#F0BE26" points="199.111,-246.565 219.03,-246.565 219.03,-243.273 199.313,-243.273 200.081,-244.728 		"/>
		<polygon fill="#B83065" points="199.111,-246.565 200.081,-244.728 199.313,-243.273 183.211,-243.273 183.211,-246.565 		"/>
		<polygon fill="#91C653" points="195.095,-235.758 194.188,-234.038 184.102,-234.038 184.102,-237.331 194.265,-237.331 		"/>
		<polygon fill="#509FC2" points="194.265,-237.331 207.337,-237.331 207.337,-234.038 194.188,-234.038 195.095,-235.758 		"/>
		<g>
			<path fill="#D69018" d="M219.03-246.565v3.292h-7.467c1.381-1.032,2.723-2.132,3.949-3.292H219.03z"/>
			<path fill="#871E47" d="M186.383-243.273h-3.171v-3.292h3.319c-0.149,0.684-0.236,1.376-0.236,2.077
				C186.295-244.081,186.331-243.676,186.383-243.273z"/>
			<path fill="#6DB541" d="M188.909-237.331c0.811,1.14,1.775,2.239,2.839,3.293h-7.509c-0.045-0.064-0.092-0.126-0.137-0.19v-3.103
				H188.909z"/>
			<path fill="#357BBD" d="M202.196-237.331h5.142v3.293h-11.107c1.332-0.757,2.571-1.433,3.649-2.021
				C200.563-236.43,201.347-236.857,202.196-237.331z"/>
		</g>
		<path fill="#C1D6DE" d="M221.184-177.789c-2.394-2.104-5.018-3.971-7.556-5.588c-1.621,1.306-3.339,2.515-5.028,3.611
			c2.502,1.511,5.22,3.31,7.69,5.334C217.908-175.45,219.565-176.569,221.184-177.789z"/>
		<polygon fill="#91C653" points="206.049,-158.163 205.185,-159.8 225.018,-159.8 225.018,-156.507 205.175,-156.507 		"/>
		<polygon fill="#509FC2" points="205.175,-156.507 186.314,-156.507 186.314,-159.8 205.185,-159.8 206.049,-158.163 		"/>
		<polygon fill="#B83065" points="212.493,-167.388 211.624,-169.035 225.474,-169.035 226.535,-171.965 227.193,-169.035 
			230.155,-161.553 227.013,-165.742 211.624,-165.742 		"/>
		<polygon fill="#F0BE26" points="211.624,-165.742 193.409,-165.742 193.409,-169.035 211.624,-169.035 212.493,-167.388 		"/>
		<polygon fill="#F0BE26" points="199.111,-150.565 219.03,-150.565 219.03,-147.273 199.313,-147.273 200.081,-148.728 		"/>
		<polygon fill="#B83065" points="199.111,-150.565 200.081,-148.728 199.313,-147.273 183.211,-147.273 183.211,-150.565 		"/>
		<polygon fill="#91C653" points="195.095,-139.758 194.188,-138.038 184.102,-138.038 184.102,-141.331 194.265,-141.331 		"/>
		<polygon fill="#509FC2" points="194.265,-141.331 207.337,-141.331 207.337,-138.038 194.188,-138.038 195.095,-139.758 		"/>
		<g>
			<path fill="#6DB541" d="M225.018-159.8v3.292h-4.822c0.548-1.071,0.95-2.17,1.157-3.292H225.018z"/>
			<path fill="#357BBD" d="M189.556-156.507h-3.242v-3.292h6.335C191.51-158.75,190.46-157.65,189.556-156.507z"/>
			<path fill="#871E47" d="M218.667-169.035h6.7c0.532,1.062,0.966,2.159,1.279,3.292h-6.043
				C220.118-166.871,219.458-167.97,218.667-169.035z"/>
			<path fill="#D69018" d="M193.41-165.742v-2.05c0.587-0.427,1.178-0.841,1.768-1.242h11.022c-1.641,0.907-3.583,2.014-5.604,3.292
				H193.41z"/>
			<path fill="#D69018" d="M219.03-150.565v3.292h-7.467c1.381-1.032,2.723-2.132,3.949-3.292H219.03z"/>
			<path fill="#871E47" d="M186.383-147.273h-3.171v-3.292h3.319c-0.149,0.684-0.236,1.376-0.236,2.077
				C186.295-148.08,186.331-147.676,186.383-147.273z"/>
			<path fill="#6DB541" d="M188.909-141.331c0.811,1.139,1.775,2.239,2.839,3.292h-7.509c-0.045-0.063-0.092-0.126-0.137-0.19
				v-3.102H188.909z"/>
			<path fill="#357BBD" d="M202.196-141.331h5.142v3.292h-11.107c1.332-0.757,2.571-1.433,3.649-2.02
				C200.563-140.43,201.347-140.857,202.196-141.331z"/>
		</g>
		<linearGradient id="SVGID_1_" gradientUnits="userSpaceOnUse" x1="204.7847" y1="-248.8037" x2="204.7847" y2="0.4898">
			<stop  offset="0" style="stop-color:#CEE1E8"/>
			<stop  offset="0.4889" style="stop-color:#CCE0E7"/>
			<stop  offset="0.665" style="stop-color:#C5DCE5"/>
			<stop  offset="0.7905" style="stop-color:#BAD6E2"/>
			<stop  offset="0.892" style="stop-color:#A9CCDD"/>
			<stop  offset="0.9779" style="stop-color:#93C0D6"/>
			<stop  offset="1" style="stop-color:#8CBCD4"/>
		</linearGradient>
		<path fill="url(#SVGID_1_)" d="M223.866-1.041c0.4-1.125,0.622-2.277,0.622-3.45c0-9.718-15.163-17.969-21.637-21.494
			c-7.99-4.35-24.614-13.401-24.614-26.506c0-13.104,16.625-22.155,24.614-26.505c6.475-3.525,21.637-11.78,21.637-21.495
			c0-9.719-15.163-17.97-21.637-21.494c-7.99-4.349-24.614-13.399-24.614-26.505c0-13.105,16.625-22.156,24.614-26.505
			c6.475-3.524,21.637-11.778,21.637-21.495c0-9.717-15.163-17.97-21.637-21.495c-7.99-4.35-24.614-13.4-24.614-26.505
			c0-2.409,0.565-4.68,1.532-6.811h6.544c-1.462,2.152-2.372,4.438-2.372,6.811c0,9.715,15.162,17.97,21.637,21.495
			c7.989,4.349,24.614,13.398,24.614,26.505s-16.625,22.156-24.614,26.505c-6.475,3.525-21.637,11.78-21.637,21.495
			c0,9.716,15.162,17.97,21.637,21.495c7.989,4.348,24.614,13.395,24.614,26.504c0,13.105-16.625,22.156-24.614,26.506
			c-6.475,3.524-21.637,11.779-21.637,21.494c0,9.716,15.162,17.971,21.637,21.496c7.989,4.349,25.755,13.397,25.755,26.504
			c0,3.256-0.991,6.332-2.603,9.184C227.909,6.146,223.232,0.741,223.866-1.041z"/>
		<linearGradient id="SVGID_2_" gradientUnits="userSpaceOnUse" x1="203.8921" y1="-249.3657" x2="203.8921" y2="-5.8466">
			<stop  offset="0" style="stop-color:#CEE1E8"/>
			<stop  offset="0.4889" style="stop-color:#CCE0E7"/>
			<stop  offset="0.665" style="stop-color:#C5DCE5"/>
			<stop  offset="0.7905" style="stop-color:#BAD6E2"/>
			<stop  offset="0.892" style="stop-color:#A9CCDD"/>
			<stop  offset="0.9779" style="stop-color:#93C0D6"/>
			<stop  offset="1" style="stop-color:#8CBCD4"/>
		</linearGradient>
		<path fill="url(#SVGID_2_)" d="M205.541-231.048c6.647-3.619,19.266-10.496,23.319-20.252h-6.416
			c-4.336,6.913-14.602,12.504-19.631,15.242c-7.989,4.349-24.614,13.399-24.614,26.505s16.625,22.155,24.614,26.505
			c6.475,3.524,21.637,11.779,21.637,21.495c0,9.716-15.162,17.971-21.637,21.496c-7.989,4.349-24.614,13.399-24.614,26.505
			s16.625,22.155,24.614,26.505c6.475,3.524,21.067,11.779,21.067,21.495s-14.592,17.97-21.067,21.496
			c-7.989,4.349-25.755,13.399-25.755,26.505c0,9.25,8.566,17.333,16.416,22.816c0,0,7.479-3.857,4.58-5.698
			c-6.701-4.254-14.15-10.337-14.15-17.118c0-9.717,16.303-17.4,22.778-20.924c7.989-4.35,24.043-13.971,24.043-27.077
			c0-13.105-17.195-22.155-25.185-26.505c-6.475-3.525-21.637-11.779-21.637-21.495c0-9.716,15.163-17.97,21.637-21.495
			c7.989-4.35,24.614-13.4,24.614-26.506c0-13.104-16.625-22.155-24.614-26.505c-6.475-3.524-21.637-11.778-21.637-21.495
			S199.066-227.523,205.541-231.048z"/>
		<path fill="#C1D6DE" d="M213.628-183.376c-1.621,1.306-3.339,2.515-5.028,3.611c0.401,0.242,0.814,0.503,1.224,0.76
			c1.687-1.055,3.436-2.231,5.114-3.51C214.501-182.806,214.063-183.1,213.628-183.376z"/>
		<path fill="#C1D6DE" d="M216.291-174.431c1.617-1.019,3.274-2.138,4.893-3.357c-0.472-0.415-0.959-0.813-1.447-1.21
			c-1.562,1.267-3.19,2.438-4.804,3.509C215.389-175.142,215.847-174.794,216.291-174.431z"/>
		<path fill="#C1D6DE" d="M192.182-231.543c-1.617,1.021-3.272,2.145-4.887,3.367c0.445,0.389,0.904,0.759,1.362,1.132
			c1.562-1.266,3.189-2.437,4.803-3.508C193.032-230.88,192.6-231.204,192.182-231.543z"/>
		<path fill="#C1D6DE" d="M192.182-135.543c-1.617,1.022-3.272,2.145-4.887,3.367c0.445,0.389,0.904,0.76,1.362,1.132
			c1.562-1.266,3.189-2.437,4.803-3.508C193.032-134.88,192.6-135.203,192.182-135.543z"/>
		<path fill="#C1D6DE" d="M195.109-222.448c1.605-1.313,3.313-2.531,5-3.638c-0.504-0.302-1.024-0.625-1.544-0.951
			c-1.687,1.055-3.435,2.232-5.114,3.51C194.006-223.158,194.561-222.793,195.109-222.448z"/>
		<path fill="#C1D6DE" d="M195.109-126.447c1.605-1.313,3.313-2.531,5-3.638c-0.504-0.302-1.024-0.625-1.544-0.951
			c-1.687,1.054-3.435,2.231-5.114,3.509C194.006-127.157,194.561-126.793,195.109-126.447z"/>
		<path fill="#9BBDCC" d="M193.326-38.64c-0.439-0.336-0.872-0.682-1.298-1.032c-1.619,1.031-3.266,2.152-4.884,3.36
			c0.414,0.366,0.832,0.725,1.258,1.075C190.014-36.462,191.681-37.599,193.326-38.64z"/>
		<path fill="#9BBDCC" d="M199.392-34.52c-1.766,1.014-3.606,2.141-5.378,3.368c0.435,0.283,1.146,0.736,1.576,1.005
			c1.611-1.31,3.293-2.552,4.981-3.665C200.267-33.992,199.703-34.33,199.392-34.52z"/>
		<path fill="#B2C7CF" d="M213.62-87.449c-1.621,1.307-3.355,2.621-5.044,3.718c0.395,0.238,0.795,0.501,1.194,0.758
			c1.723-1.075,3.512-2.278,5.227-3.587C214.535-86.861,214.071-87.162,213.62-87.449z"/>
		<path fill="#B2C7CF" d="M216.151-78.305c1.617-1.019,3.559-2.397,5.177-3.616c-0.468-0.411-0.959-0.802-1.451-1.191
			c-1.652,1.349-3.382,2.59-5.093,3.721C215.242-79.033,215.701-78.674,216.151-78.305z"/>
	</g>
	<g>
		<polygon fill="#91C653" points="40.764,-127.3 40.113,-128.533 55.04,-128.533 55.04,-126.055 40.106,-126.055 		"/>
		<polygon fill="#509FC2" points="40.106,-126.055 25.91,-126.055 25.91,-128.533 40.113,-128.533 40.764,-127.3 		"/>
		<polygon fill="#B83065" points="45.613,-134.244 44.959,-135.483 55.383,-135.483 56.182,-137.688 56.677,-135.483 
			58.906,-129.852 56.541,-133.004 44.959,-133.004 		"/>
		<polygon fill="#F0BE26" points="44.959,-133.004 31.25,-133.004 31.25,-135.483 44.959,-135.483 45.613,-134.244 		"/>
		<polygon fill="#F0BE26" points="35.542,-121.583 50.533,-121.583 50.533,-119.104 35.694,-119.104 36.272,-120.2 		"/>
		<polygon fill="#B83065" points="35.542,-121.583 36.272,-120.2 35.694,-119.104 23.575,-119.104 23.575,-121.583 		"/>
		<polygon fill="#91C653" points="32.52,-113.449 31.836,-112.154 24.246,-112.154 24.246,-114.633 31.895,-114.633 		"/>
		<polygon fill="#509FC2" points="31.895,-114.633 41.733,-114.633 41.733,-112.154 31.836,-112.154 32.52,-113.449 		"/>
		<g>
			<path fill="#6DB541" d="M55.04-128.533v2.478h-3.629c0.413-0.807,0.715-1.633,0.871-2.478H55.04z"/>
			<path fill="#357BBD" d="M28.351-126.055h-2.44v-2.478h4.769C29.821-127.743,29.031-126.915,28.351-126.055z"/>
			<path fill="#871E47" d="M50.26-135.483h5.042c0.401,0.799,0.727,1.625,0.963,2.479h-4.548
				C51.352-133.854,50.855-134.682,50.26-135.483z"/>
			<path fill="#D69018" d="M31.251-133.004v-1.544c0.442-0.321,0.886-0.633,1.33-0.935h8.295c-1.235,0.682-2.696,1.516-4.218,2.479
				H31.251z"/>
			<path fill="#D69018" d="M50.533-121.583v2.478h-5.62c1.04-0.776,2.049-1.604,2.973-2.478H50.533z"/>
			<path fill="#871E47" d="M25.962-119.104h-2.387v-2.478h2.498c-0.112,0.515-0.178,1.036-0.178,1.563
				C25.896-119.712,25.923-119.408,25.962-119.104z"/>
			<path fill="#6DB541" d="M27.863-114.633c0.61,0.858,1.336,1.685,2.137,2.479h-5.651c-0.034-0.048-0.069-0.095-0.103-0.143v-2.335
				H27.863z"/>
			<path fill="#357BBD" d="M37.863-114.633h3.87v2.479h-8.359c1.002-0.57,1.935-1.079,2.747-1.521
				C36.635-113.955,37.225-114.276,37.863-114.633z"/>
		</g>
		<polygon fill="#91C653" points="37.946,-163.426 38.596,-164.659 23.67,-164.659 23.67,-162.181 38.604,-162.181 		"/>
		<polygon fill="#509FC2" points="38.604,-162.181 52.799,-162.181 52.799,-164.659 38.596,-164.659 37.946,-163.426 		"/>
		<polygon fill="#B83065" points="33.096,-170.37 33.75,-171.609 23.327,-171.609 22.528,-173.814 22.033,-171.609 19.803,-165.978 
			22.168,-169.131 33.75,-169.131 		"/>
		<polygon fill="#F0BE26" points="33.75,-169.131 47.459,-169.131 47.459,-171.609 33.75,-171.609 33.096,-170.37 		"/>
		<polygon fill="#F0BE26" points="43.168,-157.708 28.176,-157.708 28.176,-155.23 43.016,-155.23 42.438,-156.325 		"/>
		<polygon fill="#B83065" points="43.168,-157.708 42.438,-156.325 43.016,-155.23 55.134,-155.23 55.134,-157.708 		"/>
		<polygon fill="#91C653" points="46.19,-149.575 46.874,-148.28 54.464,-148.28 54.464,-150.758 46.815,-150.758 		"/>
		<polygon fill="#509FC2" points="46.815,-150.758 36.977,-150.758 36.977,-148.28 46.874,-148.28 46.19,-149.575 		"/>
		<g>
			<path fill="#6DB541" d="M23.669-164.659v2.478h3.629c-0.413-0.806-0.715-1.633-0.871-2.478H23.669z"/>
			<path fill="#357BBD" d="M50.359-162.181h2.44v-2.478h-4.768C48.889-163.868,49.678-163.041,50.359-162.181z"/>
			<path fill="#871E47" d="M28.45-171.609h-5.042c-0.4,0.799-0.727,1.625-0.963,2.478h4.548
				C27.358-169.98,27.854-170.808,28.45-171.609z"/>
			<path fill="#D69018" d="M47.458-169.131v-1.543c-0.441-0.321-0.886-0.633-1.33-0.935h-8.295c1.235,0.683,2.697,1.516,4.218,2.478
				H47.458z"/>
			<path fill="#D69018" d="M28.176-157.708v2.478h5.62c-1.04-0.776-2.049-1.604-2.972-2.478H28.176z"/>
			<path fill="#871E47" d="M52.748-155.23h2.387v-2.478h-2.499c0.112,0.515,0.178,1.036,0.178,1.563
				C52.813-155.838,52.787-155.534,52.748-155.23z"/>
			<path fill="#6DB541" d="M50.847-150.758c-0.61,0.857-1.336,1.685-2.137,2.478h5.652c0.034-0.048,0.069-0.095,0.103-0.143v-2.335
				H50.847z"/>
			<path fill="#357BBD" d="M40.846-150.758h-3.87v2.478h8.359c-1.002-0.569-1.935-1.079-2.747-1.521
				C42.075-150.081,41.485-150.402,40.846-150.758z"/>
		</g>
		<polygon fill="#91C653" points="37.087,-91.174 37.738,-92.407 22.811,-92.407 22.811,-89.929 37.745,-89.929 		"/>
		<polygon fill="#509FC2" points="37.745,-89.929 51.941,-89.929 51.941,-92.407 37.738,-92.407 37.087,-91.174 		"/>
		<polygon fill="#B83065" points="32.238,-98.118 32.892,-99.357 22.468,-99.357 21.863,-101.027 21.174,-99.357 18.944,-93.727 
			21.31,-96.879 32.892,-96.879 		"/>
		<polygon fill="#F0BE26" points="32.892,-96.879 46.601,-96.879 46.601,-99.357 32.892,-99.357 32.238,-98.118 		"/>
		<polygon fill="#F0BE26" points="42.309,-85.457 27.318,-85.457 27.318,-82.979 42.157,-82.979 41.579,-84.074 		"/>
		<polygon fill="#B83065" points="42.309,-85.457 41.579,-84.074 42.157,-82.979 54.275,-82.979 54.275,-85.457 		"/>
		<g>
			<path fill="#6DB541" d="M22.811-92.407v2.478h3.629c-0.413-0.806-0.715-1.633-0.871-2.478H22.811z"/>
			<path fill="#357BBD" d="M49.501-89.929h3.529l-1.089-2.478h-4.769C48.03-91.617,48.82-90.789,49.501-89.929z"/>
			<path fill="#871E47" d="M27.591-99.357h-5.042c-0.4,0.799-0.727,1.625-0.962,2.478h4.548
				C26.499-97.729,26.996-98.556,27.591-99.357z"/>
			<path fill="#D69018" d="M46.6-96.879v-1.543c-0.442-0.322-0.886-0.633-1.33-0.935h-8.295c1.234,0.682,2.696,1.516,4.218,2.478
				H46.6z"/>
			<path fill="#D69018" d="M27.318-85.457v2.479h5.619c-1.04-0.777-2.049-1.605-2.972-2.479H27.318z"/>
			<path fill="#871E47" d="M51.889-82.979h3.236v-2.479h-3.348c0.112,0.515,0.178,1.036,0.178,1.563
				C51.955-83.586,51.928-83.282,51.889-82.979z"/>
		</g>
		<polygon fill="#91C653" points="37.946,-235.678 38.596,-236.91 23.67,-236.91 23.67,-234.432 38.604,-234.432 		"/>
		<polygon fill="#509FC2" points="38.604,-234.432 52.799,-234.432 52.799,-236.91 38.596,-236.91 37.946,-235.678 		"/>
		<polygon fill="#B83065" points="33.096,-242.622 33.75,-243.861 23.327,-243.861 22.528,-246.066 22.033,-243.861 19.803,-238.23 
			22.168,-241.383 33.75,-241.383 		"/>
		<polygon fill="#F0BE26" points="33.75,-241.383 47.459,-241.383 47.459,-243.861 33.75,-243.861 33.096,-242.622 		"/>
		<polygon fill="#F0BE26" points="43.168,-229.96 28.176,-229.96 28.176,-227.482 43.016,-227.482 42.438,-228.577 		"/>
		<polygon fill="#B83065" points="43.168,-229.96 42.438,-228.577 43.016,-227.482 55.134,-227.482 55.134,-229.96 		"/>
		<polygon fill="#91C653" points="46.19,-221.826 46.874,-220.532 54.464,-220.532 54.464,-223.01 46.815,-223.01 		"/>
		<polygon fill="#509FC2" points="46.815,-223.01 36.977,-223.01 36.977,-220.532 46.874,-220.532 46.19,-221.826 		"/>
		<g>
			<path fill="#6DB541" d="M23.669-236.91v2.478h3.629c-0.413-0.807-0.715-1.633-0.871-2.478H23.669z"/>
			<path fill="#357BBD" d="M50.359-234.432h2.44v-2.478h-4.768C48.889-236.12,49.678-235.292,50.359-234.432z"/>
			<path fill="#871E47" d="M28.45-243.861h-5.042c-0.4,0.799-0.727,1.625-0.963,2.478h4.548
				C27.358-242.232,27.854-243.06,28.45-243.861z"/>
			<path fill="#D69018" d="M47.458-241.383v-1.543c-0.441-0.321-0.886-0.633-1.33-0.935h-8.295c1.235,0.683,2.697,1.516,4.218,2.478
				H47.458z"/>
			<path fill="#D69018" d="M28.176-229.96v2.478h5.62c-1.04-0.776-2.049-1.604-2.972-2.478H28.176z"/>
			<path fill="#871E47" d="M52.748-227.482h2.387v-2.478h-2.499c0.112,0.515,0.178,1.036,0.178,1.563
				C52.813-228.09,52.787-227.786,52.748-227.482z"/>
			<path fill="#6DB541" d="M50.847-223.01c-0.61,0.857-1.336,1.685-2.137,2.478h5.652c0.034-0.048,0.069-0.095,0.103-0.144v-2.334
				H50.847z"/>
			<path fill="#357BBD" d="M40.846-223.01h-3.87v2.478h8.359c-1.002-0.57-1.935-1.079-2.747-1.521
				C42.075-222.332,41.485-222.654,40.846-223.01z"/>
		</g>
		<path fill="#C1D6DE" d="M52.154-214.323c-1.802-1.584-3.776-2.989-5.687-4.206c-1.22,0.983-2.513,1.893-3.784,2.718
			c1.883,1.137,3.928,2.491,5.788,4.014C49.688-212.563,50.936-213.405,52.154-214.323z"/>
		<polygon fill="#91C653" points="40.764,-199.552 40.113,-200.784 55.04,-200.784 55.04,-198.307 40.106,-198.307 		"/>
		<polygon fill="#509FC2" points="40.106,-198.307 25.91,-198.307 25.91,-200.784 40.113,-200.784 40.764,-199.552 		"/>
		<polygon fill="#B83065" points="45.613,-206.496 44.959,-207.735 55.383,-207.735 56.182,-209.94 56.677,-207.735 
			58.906,-202.104 56.541,-205.257 44.959,-205.257 		"/>
		<polygon fill="#F0BE26" points="44.959,-205.257 31.25,-205.257 31.25,-207.735 44.959,-207.735 45.613,-206.496 		"/>
		<polygon fill="#F0BE26" points="35.542,-193.834 50.533,-193.834 50.533,-191.356 35.694,-191.356 36.272,-192.451 		"/>
		<polygon fill="#B83065" points="35.542,-193.834 36.272,-192.451 35.694,-191.356 23.575,-191.356 23.575,-193.834 		"/>
		<polygon fill="#91C653" points="32.52,-185.7 31.836,-184.406 24.246,-184.406 24.246,-186.884 31.895,-186.884 		"/>
		<polygon fill="#509FC2" points="31.895,-186.884 41.733,-186.884 41.733,-184.406 31.836,-184.406 32.52,-185.7 		"/>
		<g>
			<path fill="#6DB541" d="M55.04-200.784v2.478h-3.629c0.413-0.806,0.715-1.633,0.871-2.478H55.04z"/>
			<path fill="#357BBD" d="M28.351-198.307h-2.44v-2.478h4.769C29.821-199.994,29.031-199.167,28.351-198.307z"/>
			<path fill="#871E47" d="M50.26-207.735h5.042c0.401,0.799,0.727,1.625,0.963,2.478h-4.548
				C51.352-206.106,50.855-206.934,50.26-207.735z"/>
			<path fill="#D69018" d="M31.251-205.257v-1.543c0.442-0.322,0.886-0.633,1.33-0.935h8.295c-1.235,0.683-2.696,1.516-4.218,2.478
				H31.251z"/>
			<path fill="#D69018" d="M50.533-193.834v2.478h-5.62c1.04-0.776,2.049-1.604,2.973-2.478H50.533z"/>
			<path fill="#871E47" d="M25.962-191.356h-2.387v-2.478h2.498c-0.112,0.515-0.178,1.036-0.178,1.563
				C25.896-191.964,25.923-191.66,25.962-191.356z"/>
			<path fill="#6DB541" d="M27.863-186.884c0.61,0.857,1.336,1.685,2.137,2.478h-5.651c-0.034-0.047-0.069-0.095-0.103-0.143v-2.334
				H27.863z"/>
			<path fill="#357BBD" d="M37.863-186.884h3.87v2.478h-8.359c1.002-0.569,1.935-1.078,2.747-1.52
				C36.635-186.207,37.225-186.528,37.863-186.884z"/>
		</g>
		<linearGradient id="SVGID_3_" gradientUnits="userSpaceOnUse" x1="39.812" y1="-267.626" x2="39.812" y2="-81.6552">
			<stop  offset="0" style="stop-color:#CEE1E8"/>
			<stop  offset="0.4889" style="stop-color:#CCE0E7"/>
			<stop  offset="0.665" style="stop-color:#C5DCE5"/>
			<stop  offset="0.7905" style="stop-color:#BAD6E2"/>
			<stop  offset="0.892" style="stop-color:#A9CCDD"/>
			<stop  offset="0.9779" style="stop-color:#93C0D6"/>
			<stop  offset="1" style="stop-color:#8CBCD4"/>
		</linearGradient>
		<path fill="url(#SVGID_3_)" d="M38.356-244.575c4.873,2.652,16.285,8.864,16.285,16.177s-11.412,13.525-16.285,16.177
			c-6.014,3.274-18.525,10.085-18.525,19.949c0,9.864,12.512,16.675,18.525,19.948c4.873,2.652,16.285,8.862,16.285,16.177
			c0,7.312-11.412,13.524-16.285,16.178c-6.014,3.273-18.525,10.085-18.525,19.948s12.512,16.675,18.525,19.949
			c4.873,2.652,16.285,8.863,16.285,16.177c0,0.441-0.042,0.878-0.121,1.312s3.808,4.682,4.021,4.211
			c0.79-1.746,1.252-3.593,1.252-5.523c0-9.865-13.372-16.675-19.384-19.948c-4.874-2.653-16.285-8.866-16.285-16.178
			s11.411-13.525,16.285-16.177c6.013-3.274,18.525-10.085,18.525-19.949c0-9.866-12.513-16.675-18.525-19.948
			c-4.874-2.652-16.285-8.865-16.285-16.177c0-7.312,11.411-13.525,16.285-16.178c6.013-3.273,18.525-10.084,18.525-19.948
			s-12.512-16.675-18.525-19.948c-1.343-0.731-3.184-1.734-5.144-2.954h-7.49C31.443-248.34,35.588-246.082,38.356-244.575z"/>
		<linearGradient id="SVGID_4_" gradientUnits="userSpaceOnUse" x1="39.1401" y1="-268.0767" x2="39.1401" y2="-86.0678">
			<stop  offset="0" style="stop-color:#CEE1E8"/>
			<stop  offset="0.4889" style="stop-color:#CCE0E7"/>
			<stop  offset="0.665" style="stop-color:#C5DCE5"/>
			<stop  offset="0.7905" style="stop-color:#BAD6E2"/>
			<stop  offset="0.892" style="stop-color:#A9CCDD"/>
			<stop  offset="0.9779" style="stop-color:#93C0D6"/>
			<stop  offset="1" style="stop-color:#8CBCD4"/>
		</linearGradient>
		<path fill="url(#SVGID_4_)" d="M34.992-251.3h-7.437c-4.216,3.445-7.752,7.826-7.752,13.07c0,9.864,12.513,16.674,18.525,19.948
			c4.874,2.652,16.285,8.865,16.285,16.177c0,7.313-11.411,13.525-16.285,16.178c-6.012,3.273-18.525,10.084-18.525,19.948
			s12.513,16.674,18.525,19.948c4.874,2.652,15.855,8.865,15.855,16.177s-10.982,13.525-15.855,16.178
			c-6.012,3.272-19.384,10.084-19.384,19.948c0,5.983,5.363,11.961,10.452,15.962h3.745c1.325-0.954,2.833-2.298,1.605-3.078
			c-5.043-3.202-10.65-7.78-10.65-12.884c0-7.313,12.271-13.095,17.144-15.748c6.013-3.274,18.096-10.515,18.096-20.378
			c0-9.863-12.941-16.675-18.955-19.948c-4.873-2.653-16.285-8.865-16.285-16.177c0-7.313,11.412-13.525,16.285-16.177
			c6.013-3.274,18.525-10.086,18.525-19.949c0-9.863-12.512-16.674-18.525-19.948c-4.873-2.652-16.285-8.864-16.285-16.177
			C24.096-243.443,29.896-248.096,34.992-251.3z"/>
		<path fill="#C1D6DE" d="M46.467-218.529c-1.22,0.983-2.513,1.893-3.784,2.718c0.302,0.182,0.612,0.379,0.921,0.572
			c1.27-0.793,2.586-1.679,3.849-2.641C47.125-218.099,46.794-218.32,46.467-218.529z"/>
		<path fill="#C1D6DE" d="M48.471-211.796c1.217-0.767,2.465-1.609,3.683-2.527c-0.355-0.313-0.722-0.612-1.089-0.911
			c-1.175,0.954-2.4,1.835-3.616,2.642C47.793-212.331,48.138-212.07,48.471-211.796z"/>
		<path fill="#C1D6DE" d="M30.327-182.528c-1.217,0.769-2.462,1.614-3.678,2.534c0.335,0.292,0.681,0.572,1.025,0.852
			c1.175-0.953,2.4-1.834,3.615-2.64C30.966-182.029,30.641-182.272,30.327-182.528z"/>
		<path fill="#C1D6DE" d="M32.53-175.683c1.208-0.988,2.494-1.905,3.763-2.738c-0.379-0.228-0.771-0.471-1.162-0.715
			c-1.269,0.793-2.585,1.679-3.849,2.641C31.7-176.217,32.117-175.943,32.53-175.683z"/>
		<path fill="#9BBDCC" d="M31.188-109.597c-0.331-0.253-0.656-0.513-0.977-0.777c-1.219,0.776-2.458,1.62-3.676,2.529
			c0.311,0.275,0.626,0.546,0.947,0.81C28.695-107.958,29.95-108.813,31.188-109.597z"/>
		<path fill="#9BBDCC" d="M35.753-106.496c-1.329,0.763-2.714,1.611-4.048,2.535c0.327,0.213,0.862,0.554,1.186,0.756
			c1.213-0.985,2.479-1.921,3.75-2.758C36.412-106.098,35.987-106.353,35.753-106.496z"/>
		<path fill="#B2C7CF" d="M46.461-146.332c-1.22,0.983-2.525,1.973-3.796,2.798c0.297,0.179,0.599,0.377,0.899,0.57
			c1.297-0.809,2.643-1.714,3.934-2.7C47.15-145.889,46.801-146.116,46.461-146.332z"/>
		<path fill="#B2C7CF" d="M48.367-139.45c1.217-0.767,2.678-1.804,3.896-2.722c-0.352-0.309-0.722-0.604-1.092-0.896
			c-1.243,1.015-2.545,1.949-3.833,2.8C47.683-139.998,48.027-139.728,48.367-139.45z"/>
		<path fill="#C1D6DE" d="M31.282-248.747c0.417,0.278,0.834,0.552,1.248,0.812c1.208-0.988,2.494-1.905,3.763-2.738
			c-0.333-0.199-0.676-0.413-1.019-0.627h-0.279C33.768-250.527,32.501-249.674,31.282-248.747z"/>
	</g>
</g>
</svg>
