<?xml version="1.0" encoding="utf-8"?>
<!-- Generator: Adobe Illustrator 16.0.0, SVG Export Plug-In . SVG Version: 6.00 Build 0)  -->
<!DOCTYPE svg PUBLIC "-//W3C//DTD SVG 1.1//EN" "http://www.w3.org/Graphics/SVG/1.1/DTD/svg11.dtd">
<svg version="1.1" id="Layer_1" xmlns="http://www.w3.org/2000/svg" xmlns:xlink="http://www.w3.org/1999/xlink" x="0px" y="0px"
	 width="99.796px" height="101.007px" viewBox="0 0 99.796 101.007" enable-background="new 0 0 99.796 101.007"
	 xml:space="preserve">
<g>
	
		<linearGradient id="SVGID_1_" gradientUnits="userSpaceOnUse" x1="198.0645" y1="388.5537" x2="-67.1692" y2="-96.6286" gradientTransform="matrix(1 0 0 -1 0 102.2363)">
		<stop  offset="0" style="stop-color:#E0E0DF"/>
		<stop  offset="0" style="stop-color:#D6D5D5"/>
		<stop  offset="0.0379" style="stop-color:#C7C6C6"/>
		<stop  offset="0.1107" style="stop-color:#9F9F9F"/>
		<stop  offset="0.2101" style="stop-color:#616262"/>
		<stop  offset="0.264" style="stop-color:#3D3D3D"/>
		<stop  offset="0.2725" style="stop-color:#424242"/>
		<stop  offset="0.3782" style="stop-color:#838384"/>
		<stop  offset="0.4671" style="stop-color:#B4B4B4"/>
		<stop  offset="0.5347" style="stop-color:#D1D2D2"/>
		<stop  offset="0.573" style="stop-color:#DDDDDC"/>
		<stop  offset="0.6276" style="stop-color:#D2D3D3"/>
		<stop  offset="0.7195" style="stop-color:#B9B9B9"/>
		<stop  offset="0.8367" style="stop-color:#8F8F8E"/>
		<stop  offset="0.8764" style="stop-color:#7F7F7F"/>
		<stop  offset="1" style="stop-color:#C8C8C8"/>
		<stop  offset="1" style="stop-color:#969696"/>
	</linearGradient>
	<path fill="url(#SVGID_1_)" d="M38.038,7.447c-3.706,3.706-0.252,7.228-4.063,11.825c-0.389,0.461-15.603,15.675-16.061,16.063
		c-5.278,4.778-7.809,0.036-12.048,4.281c-2.383,2.383-2.383,6.306,0,8.693c2.387,2.383,6.312,2.383,8.694,0
		c3.706-3.705,0.497-7.268,4.419-11.831c0.425-0.425,15.563-15.639,15.992-15.992c4.598-4.028,7.697-0.287,11.76-4.346
		c2.421-2.425,2.421-6.342,0.033-8.729C44.379,5.029,40.46,5.022,38.038,7.447L38.038,7.447z"/>
	
		<linearGradient id="SVGID_2_" gradientUnits="userSpaceOnUse" x1="192.4502" y1="391.5752" x2="-72.7535" y2="-93.5531" gradientTransform="matrix(1 0 0 -1 0 102.2363)">
		<stop  offset="0" style="stop-color:#B4B4B4"/>
		<stop  offset="0.09" style="stop-color:#676767"/>
		<stop  offset="0.16" style="stop-color:#2D2C2C"/>
		<stop  offset="0.3" style="stop-color:#2D2C2C"/>
		<stop  offset="0.4" style="stop-color:#676767"/>
		<stop  offset="0.5" style="stop-color:#B4B4B4"/>
		<stop  offset="0.69" style="stop-color:#B4B4B4"/>
		<stop  offset="0.8" style="stop-color:#676767"/>
		<stop  offset="0.9" style="stop-color:#2D2C2C"/>
		<stop  offset="1" style="stop-color:#B4B4B4"/>
	</linearGradient>
	<path fill="url(#SVGID_2_)" d="M3.73,37.337c-3.638,3.634-3.634,9.478,0,13.106c3.638,3.634,9.478,3.634,13.106,0
		c3.638-3.635,3.64-9.473,0-13.106C13.208,33.701,7.365,33.701,3.73,37.337L3.73,37.337z"/>
	
		<linearGradient id="SVGID_3_" gradientUnits="userSpaceOnUse" x1="203.5068" y1="385.6162" x2="-61.7502" y2="-99.6092" gradientTransform="matrix(1 0 0 -1 0 102.2363)">
		<stop  offset="0.0934" style="stop-color:#383938"/>
		<stop  offset="0.1868" style="stop-color:#525252"/>
		<stop  offset="0.2484" style="stop-color:#616262"/>
		<stop  offset="0.3232" style="stop-color:#717171"/>
		<stop  offset="0.4835" style="stop-color:#B4B4B4"/>
		<stop  offset="0.5495" style="stop-color:#6B6B6A"/>
		<stop  offset="0.6429" style="stop-color:#5E5E5E"/>
		<stop  offset="0.7143" style="stop-color:#908F8F"/>
		<stop  offset="0.8516" style="stop-color:#C4C4C4"/>
	</linearGradient>
	<path fill="url(#SVGID_3_)" d="M35.473,5.454c-3.632,3.634-3.634,9.478,0,13.106c3.638,3.634,9.475,3.634,13.109,0
		c3.635-3.636,3.635-9.473,0-13.106C44.947,1.818,39.104,1.818,35.473,5.454L35.473,5.454z"/>
</g>
<g>
	
		<linearGradient id="SVGID_4_" gradientUnits="userSpaceOnUse" x1="244.3662" y1="363.252" x2="-20.8737" y2="-121.9417" gradientTransform="matrix(1 0 0 -1 0 102.2363)">
		<stop  offset="0.16" style="stop-color:#BBBBBB"/>
		<stop  offset="0.2076" style="stop-color:#908F8F"/>
		<stop  offset="0.2688" style="stop-color:#9E9E9E"/>
		<stop  offset="0.3096" style="stop-color:#BBBBBB"/>
		<stop  offset="0.3776" style="stop-color:#939292"/>
		<stop  offset="0.432" style="stop-color:#5A5A5A"/>
		<stop  offset="0.5136" style="stop-color:#8B8A8A"/>
		<stop  offset="0.568" style="stop-color:#9E9E9E"/>
		<stop  offset="0.6768" style="stop-color:#919090"/>
		<stop  offset="0.7788" style="stop-color:#7F7F7F"/>
		<stop  offset="0.84" style="stop-color:#ACACAC"/>
	</linearGradient>
	<path fill="url(#SVGID_4_)" d="M45.385,79.817c-1.713,1.712-1.713,4.556,0.036,6.304c1.748,1.749,4.56,1.713,6.269,0
		c2.425-2.418,0.819-5.304,5.096-9.939c0.355-0.424,18.877-18.949,19.306-19.302c4.632-4.282,7.877-3.03,9.906-5.06
		c1.742-1.742,1.778-4.557,0.033-6.312c-1.745-1.742-4.596-1.742-6.341,0c-2.35,2.354-0.356,5.347-4.664,10.083
		c-0.393,0.396-18.914,18.986-19.346,19.346C50.801,79.464,47.986,77.218,45.385,79.817L45.385,79.817z"/>
	
		<linearGradient id="SVGID_5_" gradientUnits="userSpaceOnUse" x1="250.5361" y1="359.8984" x2="-14.7158" y2="-125.3176" gradientTransform="matrix(1 0 0 -1 0 102.2363)">
		<stop  offset="0" style="stop-color:#E0E0DF"/>
		<stop  offset="0" style="stop-color:#D6D5D5"/>
		<stop  offset="0.0379" style="stop-color:#C7C6C6"/>
		<stop  offset="0.1107" style="stop-color:#9F9F9F"/>
		<stop  offset="0.2101" style="stop-color:#616262"/>
		<stop  offset="0.264" style="stop-color:#3D3D3D"/>
		<stop  offset="0.2725" style="stop-color:#424242"/>
		<stop  offset="0.3782" style="stop-color:#838384"/>
		<stop  offset="0.4671" style="stop-color:#B4B4B4"/>
		<stop  offset="0.5347" style="stop-color:#D1D2D2"/>
		<stop  offset="0.573" style="stop-color:#DDDDDC"/>
		<stop  offset="0.6276" style="stop-color:#D2D3D3"/>
		<stop  offset="0.7195" style="stop-color:#B9B9B9"/>
		<stop  offset="0.8367" style="stop-color:#8F8F8E"/>
		<stop  offset="0.8764" style="stop-color:#7F7F7F"/>
		<stop  offset="1" style="stop-color:#C8C8C8"/>
		<stop  offset="1" style="stop-color:#969696"/>
	</linearGradient>
	<path fill="url(#SVGID_5_)" d="M77.8,43.593c-2.882,2.881-2.855,7.551,0,10.406c2.887,2.886,7.523,2.886,10.412,0
		c2.856-2.855,2.887-7.52,0-10.406C85.356,40.73,80.659,40.73,77.8,43.593L77.8,43.593z"/>
	
		<linearGradient id="SVGID_6_" gradientUnits="userSpaceOnUse" x1="238.7227" y1="366.4561" x2="-26.5898" y2="-118.8709" gradientTransform="matrix(1 0 0 -1 0 102.2363)">
		<stop  offset="0" style="stop-color:#B4B4B4"/>
		<stop  offset="0.09" style="stop-color:#676767"/>
		<stop  offset="0.16" style="stop-color:#2D2C2C"/>
		<stop  offset="0.3" style="stop-color:#2D2C2C"/>
		<stop  offset="0.4" style="stop-color:#676767"/>
		<stop  offset="0.5" style="stop-color:#B4B4B4"/>
		<stop  offset="0.69" style="stop-color:#B4B4B4"/>
		<stop  offset="0.8" style="stop-color:#676767"/>
		<stop  offset="0.9" style="stop-color:#2D2C2C"/>
		<stop  offset="1" style="stop-color:#B4B4B4"/>
	</linearGradient>
	<path fill="url(#SVGID_6_)" d="M43.832,77.561c-2.884,2.885-2.857,7.555,0,10.41c2.885,2.888,7.522,2.881,10.411,0
		c2.859-2.86,2.887-7.525,0-10.41C51.391,74.704,46.693,74.698,43.832,77.561L43.832,77.561z"/>
</g>
<g>
	
		<linearGradient id="SVGID_7_" gradientUnits="userSpaceOnUse" x1="184.7637" y1="395.8701" x2="-80.4995" y2="-89.3665" gradientTransform="matrix(1 0 0 -1 0 102.2363)">
		<stop  offset="0" style="stop-color:#B4B4B4"/>
		<stop  offset="0.09" style="stop-color:#676767"/>
		<stop  offset="0.16" style="stop-color:#2D2C2C"/>
		<stop  offset="0.3" style="stop-color:#2D2C2C"/>
		<stop  offset="0.4" style="stop-color:#676767"/>
		<stop  offset="0.5" style="stop-color:#B4B4B4"/>
		<stop  offset="0.69" style="stop-color:#B4B4B4"/>
		<stop  offset="0.8" style="stop-color:#676767"/>
		<stop  offset="0.9" style="stop-color:#2D2C2C"/>
		<stop  offset="1" style="stop-color:#B4B4B4"/>
	</linearGradient>
	<path fill="url(#SVGID_7_)" d="M3.932,21.087c-1.746,1.742-1.743,4.598,0,6.34c1.744,1.743,4.563,1.713,6.311-0.036
		c2.419-2.425,0.784-5.274,5.057-9.902c0.355-0.431,1.853-1.929,2.277-2.281c4.632-4.275,7.874-3.029,9.9-5.059
		c1.748-1.742,1.746-4.521,0-6.27c-1.742-1.743-4.557-1.778-6.305-0.036c-2.351,2.353-0.356,5.341-4.665,10.084
		c-0.355,0.431-1.885,1.957-2.315,2.315C9.35,20.728,6.529,18.482,3.932,21.087L3.932,21.087z"/>
	
		<linearGradient id="SVGID_8_" gradientUnits="userSpaceOnUse" x1="187.7568" y1="394.249" x2="-77.5179" y2="-91.0081" gradientTransform="matrix(1 0 0 -1 0 102.2363)">
		<stop  offset="0.0934" style="stop-color:#383938"/>
		<stop  offset="0.1868" style="stop-color:#525252"/>
		<stop  offset="0.2484" style="stop-color:#616262"/>
		<stop  offset="0.3232" style="stop-color:#717171"/>
		<stop  offset="0.4835" style="stop-color:#B4B4B4"/>
		<stop  offset="0.5495" style="stop-color:#6B6B6A"/>
		<stop  offset="0.6429" style="stop-color:#5E5E5E"/>
		<stop  offset="0.7143" style="stop-color:#908F8F"/>
		<stop  offset="0.8516" style="stop-color:#C4C4C4"/>
	</linearGradient>
	<path fill="url(#SVGID_8_)" d="M18.9,2.143c-2.884,2.88-2.857,7.55,0,10.412c2.885,2.881,7.525,2.881,10.411,0
		c2.859-2.862,2.883-7.525,0-10.412C26.455-0.714,21.759-0.714,18.9,2.143L18.9,2.143z"/>
	
		<linearGradient id="SVGID_9_" gradientUnits="userSpaceOnUse" x1="181.9248" y1="397.3135" x2="-83.2686" y2="-87.7955" gradientTransform="matrix(1 0 0 -1 0 102.2363)">
		<stop  offset="0.16" style="stop-color:#BBBBBB"/>
		<stop  offset="0.2076" style="stop-color:#908F8F"/>
		<stop  offset="0.2688" style="stop-color:#9E9E9E"/>
		<stop  offset="0.3096" style="stop-color:#BBBBBB"/>
		<stop  offset="0.3776" style="stop-color:#939292"/>
		<stop  offset="0.432" style="stop-color:#5A5A5A"/>
		<stop  offset="0.5136" style="stop-color:#8B8A8A"/>
		<stop  offset="0.568" style="stop-color:#9E9E9E"/>
		<stop  offset="0.6768" style="stop-color:#919090"/>
		<stop  offset="0.7788" style="stop-color:#7F7F7F"/>
		<stop  offset="0.84" style="stop-color:#ACACAC"/>
	</linearGradient>
	<path fill="url(#SVGID_9_)" d="M2.15,19.051c-2.881,2.88-2.854,7.55,0.002,10.406c2.887,2.887,7.523,2.887,10.412,0
		c2.856-2.856,2.884-7.52,0-10.406C9.703,16.194,5.008,16.189,2.15,19.051L2.15,19.051z"/>
</g>
<g>
	
		<linearGradient id="SVGID_10_" gradientUnits="userSpaceOnUse" x1="215.6582" y1="378.9307" x2="-49.5739" y2="-106.2486" gradientTransform="matrix(1 0 0 -1 0 102.2363)">
		<stop  offset="0.0934" style="stop-color:#383938"/>
		<stop  offset="0.1868" style="stop-color:#525252"/>
		<stop  offset="0.2484" style="stop-color:#616262"/>
		<stop  offset="0.3232" style="stop-color:#717171"/>
		<stop  offset="0.4835" style="stop-color:#B4B4B4"/>
		<stop  offset="0.5495" style="stop-color:#6B6B6A"/>
		<stop  offset="0.6429" style="stop-color:#5E5E5E"/>
		<stop  offset="0.7143" style="stop-color:#908F8F"/>
		<stop  offset="0.8516" style="stop-color:#C4C4C4"/>
	</linearGradient>
	<path fill="url(#SVGID_10_)" d="M54.497,18.794c-3.205,3.209-0.855,7.34-4.915,11.968c-0.355,0.432-21.339,21.411-21.77,21.771
		c-3.772,3.49-6.982,3.635-8.117,4.772c-1.322,1.317-1.322,3.389-0.038,4.67c1.281,1.281,3.386,1.317,4.7-0.007
		c1.497-1.49,0.499-3.986,4.347-8.262c0.393-0.39,21.375-21.375,21.767-21.764c5.239-4.886,8.551-1,12.36-4.809
		c2.282-2.281,2.318-6.022,0-8.34C60.551,16.512,56.779,16.518,54.497,18.794L54.497,18.794z"/>
	
		<linearGradient id="SVGID_11_" gradientUnits="userSpaceOnUse" x1="221.1357" y1="376.0664" x2="-44.1802" y2="-109.267" gradientTransform="matrix(1 0 0 -1 0 102.2363)">
		<stop  offset="0.16" style="stop-color:#BBBBBB"/>
		<stop  offset="0.2076" style="stop-color:#908F8F"/>
		<stop  offset="0.2688" style="stop-color:#9E9E9E"/>
		<stop  offset="0.3096" style="stop-color:#BBBBBB"/>
		<stop  offset="0.3776" style="stop-color:#939292"/>
		<stop  offset="0.432" style="stop-color:#5A5A5A"/>
		<stop  offset="0.5136" style="stop-color:#8B8A8A"/>
		<stop  offset="0.568" style="stop-color:#9E9E9E"/>
		<stop  offset="0.6768" style="stop-color:#919090"/>
		<stop  offset="0.7788" style="stop-color:#7F7F7F"/>
		<stop  offset="0.84" style="stop-color:#ACACAC"/>
	</linearGradient>
	<path fill="url(#SVGID_11_)" d="M52.561,16.944c-3.445,3.448-3.41,9.028,0,12.44c3.445,3.449,8.99,3.442,12.436,0
		c3.414-3.412,3.446-8.992,0-12.44C61.583,13.53,55.974,13.53,52.561,16.944L52.561,16.944z"/>
	
		<linearGradient id="SVGID_12_" gradientUnits="userSpaceOnUse" x1="208" y1="383.1641" x2="-57.2568" y2="-102.0603" gradientTransform="matrix(1 0 0 -1 0 102.2363)">
		<stop  offset="0" style="stop-color:#E0E0DF"/>
		<stop  offset="0" style="stop-color:#D6D5D5"/>
		<stop  offset="0.0379" style="stop-color:#C7C6C6"/>
		<stop  offset="0.1107" style="stop-color:#9F9F9F"/>
		<stop  offset="0.2101" style="stop-color:#616262"/>
		<stop  offset="0.264" style="stop-color:#3D3D3D"/>
		<stop  offset="0.2725" style="stop-color:#424242"/>
		<stop  offset="0.3782" style="stop-color:#838384"/>
		<stop  offset="0.4671" style="stop-color:#B4B4B4"/>
		<stop  offset="0.5347" style="stop-color:#D1D2D2"/>
		<stop  offset="0.573" style="stop-color:#DDDDDC"/>
		<stop  offset="0.6276" style="stop-color:#D2D3D3"/>
		<stop  offset="0.7195" style="stop-color:#B9B9B9"/>
		<stop  offset="0.8367" style="stop-color:#8F8F8E"/>
		<stop  offset="0.8764" style="stop-color:#7F7F7F"/>
		<stop  offset="1" style="stop-color:#C8C8C8"/>
		<stop  offset="1" style="stop-color:#969696"/>
	</linearGradient>
	<path fill="url(#SVGID_12_)" d="M17.732,55.041c-2.362,2.364-2.339,6.197,0.002,8.538c2.366,2.371,6.176,2.364,8.538,0
		c2.345-2.341,2.368-6.174,0.004-8.538C23.932,52.7,20.079,52.7,17.732,55.041L17.732,55.041z"/>
</g>
<g>
	
		<linearGradient id="SVGID_13_" gradientUnits="userSpaceOnUse" x1="258.0566" y1="355.7539" x2="-7.1757" y2="-129.4262" gradientTransform="matrix(1 0 0 -1 0 102.2363)">
		<stop  offset="0" style="stop-color:#E0E0DF"/>
		<stop  offset="0" style="stop-color:#D6D5D5"/>
		<stop  offset="0.0379" style="stop-color:#C7C6C6"/>
		<stop  offset="0.1107" style="stop-color:#9F9F9F"/>
		<stop  offset="0.2101" style="stop-color:#616262"/>
		<stop  offset="0.264" style="stop-color:#3D3D3D"/>
		<stop  offset="0.2725" style="stop-color:#424242"/>
		<stop  offset="0.3782" style="stop-color:#838384"/>
		<stop  offset="0.4671" style="stop-color:#B4B4B4"/>
		<stop  offset="0.5347" style="stop-color:#D1D2D2"/>
		<stop  offset="0.573" style="stop-color:#DDDDDC"/>
		<stop  offset="0.6276" style="stop-color:#D2D3D3"/>
		<stop  offset="0.7195" style="stop-color:#B9B9B9"/>
		<stop  offset="0.8367" style="stop-color:#8F8F8E"/>
		<stop  offset="0.8764" style="stop-color:#7F7F7F"/>
		<stop  offset="1" style="stop-color:#C8C8C8"/>
		<stop  offset="1" style="stop-color:#969696"/>
	</linearGradient>
	<path fill="url(#SVGID_13_)" d="M61.29,88.055c-1.245,1.252-1.245,3.24,0,4.491c1.249,1.246,3.278,1.281,4.527,0.036
		c1.885-1.886,1.141-4.137,5.131-8.406c0.355-0.359,11.752-11.76,12.073-12.077c5.026-4.808,7.481-2.778,9.831-5.13
		c1.641-1.635,1.603-4.312-0.036-5.946c-1.637-1.64-4.274-1.64-5.912,0c-2.853,2.85,0.213,4.7-4.883,10.076
		c-0.354,0.359-11.792,11.796-12.109,12.119C64.853,87.983,63.18,86.17,61.29,88.055L61.29,88.055z"/>
	
		<linearGradient id="SVGID_14_" gradientUnits="userSpaceOnUse" x1="262.1924" y1="353.4795" x2="-3.027" y2="-131.677" gradientTransform="matrix(1 0 0 -1 0 102.2363)">
		<stop  offset="0" style="stop-color:#B4B4B4"/>
		<stop  offset="0.09" style="stop-color:#676767"/>
		<stop  offset="0.16" style="stop-color:#2D2C2C"/>
		<stop  offset="0.3" style="stop-color:#2D2C2C"/>
		<stop  offset="0.4" style="stop-color:#676767"/>
		<stop  offset="0.5" style="stop-color:#B4B4B4"/>
		<stop  offset="0.69" style="stop-color:#B4B4B4"/>
		<stop  offset="0.8" style="stop-color:#676767"/>
		<stop  offset="0.9" style="stop-color:#2D2C2C"/>
		<stop  offset="1" style="stop-color:#B4B4B4"/>
	</linearGradient>
	<path fill="url(#SVGID_14_)" d="M85.072,58.914c-2.713,2.713-2.686,7.097,0,9.784c2.715,2.713,7.077,2.713,9.786,0
		c2.686-2.688,2.713-7.077,0-9.784C92.176,56.227,87.758,56.227,85.072,58.914L85.072,58.914z"/>
	
		<linearGradient id="SVGID_15_" gradientUnits="userSpaceOnUse" x1="253.0449" y1="358.3701" x2="-12.1157" y2="-126.6789" gradientTransform="matrix(1 0 0 -1 0 102.2363)">
		<stop  offset="0.0934" style="stop-color:#383938"/>
		<stop  offset="0.1868" style="stop-color:#525252"/>
		<stop  offset="0.2484" style="stop-color:#616262"/>
		<stop  offset="0.3232" style="stop-color:#717171"/>
		<stop  offset="0.4835" style="stop-color:#B4B4B4"/>
		<stop  offset="0.5495" style="stop-color:#6B6B6A"/>
		<stop  offset="0.6429" style="stop-color:#5E5E5E"/>
		<stop  offset="0.7143" style="stop-color:#908F8F"/>
		<stop  offset="0.8516" style="stop-color:#C4C4C4"/>
	</linearGradient>
	<path fill="url(#SVGID_15_)" d="M59.258,85.979c-2.422,2.419-2.395,6.34,0.003,8.746c2.421,2.419,6.323,2.419,8.748,0
		c2.4-2.399,2.424-6.321,0-8.746C65.607,83.577,61.661,83.577,59.258,85.979L59.258,85.979z"/>
</g>
<g>
	
		<linearGradient id="SVGID_16_" gradientUnits="userSpaceOnUse" x1="268.877" y1="349.8252" x2="3.6543" y2="-135.3366" gradientTransform="matrix(1 0 0 -1 0 102.2363)">
		<stop  offset="0.0934" style="stop-color:#383938"/>
		<stop  offset="0.1868" style="stop-color:#525252"/>
		<stop  offset="0.2484" style="stop-color:#616262"/>
		<stop  offset="0.3232" style="stop-color:#717171"/>
		<stop  offset="0.4835" style="stop-color:#B4B4B4"/>
		<stop  offset="0.5495" style="stop-color:#6B6B6A"/>
		<stop  offset="0.6429" style="stop-color:#5E5E5E"/>
		<stop  offset="0.7143" style="stop-color:#908F8F"/>
		<stop  offset="0.8516" style="stop-color:#C4C4C4"/>
	</linearGradient>
	<path fill="url(#SVGID_16_)" d="M75.286,92.696c-1.246,1.251-1.282,3.281-0.04,4.531c1.249,1.24,3.314,1.24,4.563,0
		c1.854-1.855,1.103-4.095,5.129-8.405c0.32-0.324,0.822-0.826,1.14-1.144c5.026-4.809,7.519-2.814,9.871-5.167
		c1.635-1.635,1.601-4.311-0.039-5.945c-1.637-1.642-4.274-1.642-5.913,0c-2.885,2.885,0.213,4.699-4.918,10.118
		c-0.351,0.354-0.851,0.851-1.243,1.173C78.81,92.666,77.175,90.81,75.286,92.696L75.286,92.696z"/>
	
		<linearGradient id="SVGID_17_" gradientUnits="userSpaceOnUse" x1="271.0713" y1="348.6025" x2="5.8642" y2="-136.5315" gradientTransform="matrix(1 0 0 -1 0 102.2363)">
		<stop  offset="0.16" style="stop-color:#BBBBBB"/>
		<stop  offset="0.2076" style="stop-color:#908F8F"/>
		<stop  offset="0.2688" style="stop-color:#9E9E9E"/>
		<stop  offset="0.3096" style="stop-color:#BBBBBB"/>
		<stop  offset="0.3776" style="stop-color:#939292"/>
		<stop  offset="0.432" style="stop-color:#5A5A5A"/>
		<stop  offset="0.5136" style="stop-color:#8B8A8A"/>
		<stop  offset="0.568" style="stop-color:#9E9E9E"/>
		<stop  offset="0.6768" style="stop-color:#919090"/>
		<stop  offset="0.7788" style="stop-color:#7F7F7F"/>
		<stop  offset="0.84" style="stop-color:#ACACAC"/>
	</linearGradient>
	<path fill="url(#SVGID_17_)" d="M87.985,74.704c-2.713,2.712-2.686,7.101,0,9.782c2.713,2.713,7.077,2.713,9.786,0
		c2.686-2.682,2.713-7.07,0-9.782C95.086,72.015,90.671,72.015,87.985,74.704L87.985,74.704z"/>
	
		<linearGradient id="SVGID_18_" gradientUnits="userSpaceOnUse" x1="265.874" y1="351.335" x2="0.7302" y2="-133.6836" gradientTransform="matrix(1 0 0 -1 0 102.2363)">
		<stop  offset="0" style="stop-color:#E0E0DF"/>
		<stop  offset="0" style="stop-color:#D6D5D5"/>
		<stop  offset="0.0379" style="stop-color:#C7C6C6"/>
		<stop  offset="0.1107" style="stop-color:#9F9F9F"/>
		<stop  offset="0.2101" style="stop-color:#616262"/>
		<stop  offset="0.264" style="stop-color:#3D3D3D"/>
		<stop  offset="0.2725" style="stop-color:#424242"/>
		<stop  offset="0.3782" style="stop-color:#838384"/>
		<stop  offset="0.4671" style="stop-color:#B4B4B4"/>
		<stop  offset="0.5347" style="stop-color:#D1D2D2"/>
		<stop  offset="0.573" style="stop-color:#DDDDDC"/>
		<stop  offset="0.6276" style="stop-color:#D2D3D3"/>
		<stop  offset="0.7195" style="stop-color:#B9B9B9"/>
		<stop  offset="0.8367" style="stop-color:#8F8F8E"/>
		<stop  offset="0.8764" style="stop-color:#7F7F7F"/>
		<stop  offset="1" style="stop-color:#C8C8C8"/>
		<stop  offset="1" style="stop-color:#969696"/>
	</linearGradient>
	<path fill="url(#SVGID_18_)" d="M73.492,90.444c-2.422,2.425-2.398,6.342,0.004,8.748c2.421,2.419,6.319,2.419,8.744,0
		c2.401-2.401,2.425-6.323,0-8.748C79.84,88.044,75.891,88.044,73.492,90.444L73.492,90.444z"/>
</g>
<g>
	
		<linearGradient id="SVGID_19_" gradientUnits="userSpaceOnUse" x1="229.7705" y1="371.2168" x2="-35.4617" y2="-113.9631" gradientTransform="matrix(1 0 0 -1 0 102.2363)">
		<stop  offset="0" style="stop-color:#E0E0DF"/>
		<stop  offset="0" style="stop-color:#D6D5D5"/>
		<stop  offset="0.0379" style="stop-color:#C7C6C6"/>
		<stop  offset="0.1107" style="stop-color:#9F9F9F"/>
		<stop  offset="0.2101" style="stop-color:#616262"/>
		<stop  offset="0.264" style="stop-color:#3D3D3D"/>
		<stop  offset="0.2725" style="stop-color:#424242"/>
		<stop  offset="0.3782" style="stop-color:#838384"/>
		<stop  offset="0.4671" style="stop-color:#B4B4B4"/>
		<stop  offset="0.5347" style="stop-color:#D1D2D2"/>
		<stop  offset="0.573" style="stop-color:#DDDDDC"/>
		<stop  offset="0.6276" style="stop-color:#D2D3D3"/>
		<stop  offset="0.7195" style="stop-color:#B9B9B9"/>
		<stop  offset="0.8367" style="stop-color:#8F8F8E"/>
		<stop  offset="0.8764" style="stop-color:#7F7F7F"/>
		<stop  offset="1" style="stop-color:#C8C8C8"/>
		<stop  offset="1" style="stop-color:#969696"/>
	</linearGradient>
	<path fill="url(#SVGID_19_)" d="M29.994,69.524c3.99-3.993,7.874-0.748,12.043-4.563c0.249-0.252,24.474-24.471,24.724-24.715
		c4.702-5.061,0.712-5.922,4.094-9.305c1.641-1.635,4.6-1.742,6.344,0.006c1.742,1.742,1.71,4.55-0.038,6.298
		c-3.351,3.354-4.665-0.245-9.26,3.995c-0.284,0.286-24.474,24.476-24.722,24.721c-4.134,4.42-0.958,8.514-4.596,12.148
		c-2.35,2.354-6.2,2.354-8.553,0C27.645,75.716,27.645,71.872,29.994,69.524L29.994,69.524z"/>
	
		<linearGradient id="SVGID_20_" gradientUnits="userSpaceOnUse" x1="237.583" y1="366.8975" x2="-27.6151" y2="-118.2195" gradientTransform="matrix(1 0 0 -1 0 102.2363)">
		<stop  offset="0" style="stop-color:#B4B4B4"/>
		<stop  offset="0.09" style="stop-color:#676767"/>
		<stop  offset="0.16" style="stop-color:#2D2C2C"/>
		<stop  offset="0.3" style="stop-color:#2D2C2C"/>
		<stop  offset="0.4" style="stop-color:#676767"/>
		<stop  offset="0.5" style="stop-color:#B4B4B4"/>
		<stop  offset="0.69" style="stop-color:#B4B4B4"/>
		<stop  offset="0.8" style="stop-color:#676767"/>
		<stop  offset="0.9" style="stop-color:#2D2C2C"/>
		<stop  offset="1" style="stop-color:#B4B4B4"/>
	</linearGradient>
	<path fill="url(#SVGID_20_)" d="M68.774,29.403c2.88-2.887,7.554-2.855,10.409,0c2.882,2.886,2.882,7.525,0,10.411
		c-2.859,2.856-7.526,2.887-10.409,0C65.916,36.959,65.912,32.26,68.774,29.403L68.774,29.403z"/>
	
		<linearGradient id="SVGID_21_" gradientUnits="userSpaceOnUse" x1="223.6309" y1="374.5977" x2="-41.6131" y2="-110.6037" gradientTransform="matrix(1 0 0 -1 0 102.2363)">
		<stop  offset="0.0934" style="stop-color:#383938"/>
		<stop  offset="0.1868" style="stop-color:#525252"/>
		<stop  offset="0.2484" style="stop-color:#616262"/>
		<stop  offset="0.3232" style="stop-color:#717171"/>
		<stop  offset="0.4835" style="stop-color:#B4B4B4"/>
		<stop  offset="0.5495" style="stop-color:#6B6B6A"/>
		<stop  offset="0.6429" style="stop-color:#5E5E5E"/>
		<stop  offset="0.7143" style="stop-color:#908F8F"/>
		<stop  offset="0.8516" style="stop-color:#C4C4C4"/>
	</linearGradient>
	<path fill="url(#SVGID_21_)" d="M28.261,67.423c3.446-3.448,9.021-3.406,12.436,0c3.446,3.442,3.442,8.994,0,12.437
		c-3.415,3.412-8.989,3.448-12.436,0C24.848,76.452,24.848,70.836,28.261,67.423L28.261,67.423z"/>
</g>
</svg>
