<?xml version="1.0" standalone="no"?>
<!DOCTYPE svg PUBLIC "-//W3C//DTD SVG 20010904//EN"
 "http://www.w3.org/TR/2001/REC-SVG-20010904/DTD/svg10.dtd">
<svg version="1.0" xmlns="http://www.w3.org/2000/svg"
 width="150.000000pt" height="150.000000pt" viewBox="0 0 150.000000 150.000000"
 preserveAspectRatio="xMidYMid meet">
<metadata>
Created by potrace 1.10, written by Peter Selinger 2001-2011
</metadata>
<g transform="translate(0.000000,150.000000) scale(0.100000,-0.100000)"
fill="#000000" stroke="none">
<path d="M1032 1287 c-9 -11 -7 -19 13 -37 14 -13 25 -29 25 -35 0 -6 -18 -29
-40 -50 l-40 -39 67 -68 c37 -37 71 -68 75 -68 4 0 25 19 47 43 l40 42 30 -29
c25 -24 34 -27 43 -18 10 10 -16 40 -118 143 -107 107 -133 128 -142 116z"/>
<path d="M885 1080 l-39 -40 42 -43 c38 -39 41 -45 27 -57 -14 -11 -22 -7 -58
28 l-43 42 -27 -27 -27 -27 42 -43 c35 -36 39 -44 28 -58 -12 -14 -18 -11 -57
27 l-43 42 -27 -27 -27 -27 42 -43 c38 -39 41 -45 27 -57 -14 -11 -21 -8 -53
23 -21 21 -42 37 -48 37 -5 0 -60 -51 -121 -112 l-112 -113 9 -45 c5 -25 9
-52 10 -60 0 -9 -53 -78 -117 -155 -73 -87 -104 -130 -83 -114 19 14 86 63
148 108 l113 83 61 -6 61 -7 259 258 258 258 -97 97 c-54 54 -100 98 -103 98
-3 0 -24 -18 -45 -40z"/>
</g>
</svg>
