<svg xmlns="http://www.w3.org/2000/svg" version="1" width="133.804" height="133.8" viewBox="0 0 107.04324 107.04001"><g><path d="M80.845 1.111c-.9 1.1-.7 1.9 1.3 3.7 1.4 1.3 2.5 2.9 2.5 3.5 0 .6-1.8 2.9-4 5l-4 3.9 6.7 6.8c3.7 3.7 7.1 6.8 7.5 6.8.4 0 2.5-1.9 4.7-4.3l4-4.2 3 2.9c2.5 2.4 3.4 2.7 4.3 1.8 1-1-1.6-4-11.8-14.3-10.7-10.7-13.3-12.8-14.2-11.6z"/><path d="M66.145 21.811l-3.9 4 4.2 4.3c3.8 3.9 4.1 4.5 2.7 5.7-1.4 1.1-2.2.7-5.8-2.8l-4.3-4.2-2.7 2.7-2.7 2.7 4.2 4.3c3.5 3.6 3.9 4.4 2.8 5.8-1.2 1.4-1.8 1.1-5.7-2.7l-4.3-4.2-2.7 2.7-2.7 2.7 4.2 4.3c3.8 3.9 4.1 4.5 2.7 5.7-1.4 1.1-2.1.8-5.3-2.3-2.1-2.1-4.2-3.7-4.8-3.7-.5 0-6 5.1-12.1 11.2l-11.2 11.3.9 4.5c.5 2.5.9 5.2 1 6 0 .9-5.3 7.8-11.7 15.5-7.3 8.7-10.4 13-8.3 11.4 1.9-1.4 8.6-6.3 14.8-10.8l11.3-8.3 6.1.6 6.1.7 25.9-25.8 25.8-25.8-9.7-9.7c-5.4-5.4-10-9.8-10.3-9.8-.3 0-2.4 1.8-4.5 4z"/></g></svg>