<?xml version="1.0" encoding="UTF-8" standalone="no"?>
<svg
   xmlns:dc="http://purl.org/dc/elements/1.1/"
   xmlns:cc="http://creativecommons.org/ns#"
   xmlns:rdf="http://www.w3.org/1999/02/22-rdf-syntax-ns#"
   xmlns:svg="http://www.w3.org/2000/svg"
   xmlns="http://www.w3.org/2000/svg"
   xmlns:sodipodi="http://sodipodi.sourceforge.net/DTD/sodipodi-0.dtd"
   xmlns:inkscape="http://www.inkscape.org/namespaces/inkscape"
   version="1.0"
   width="131.96001"
   height="131.96001"
   viewBox="0 0 105.56801 105.56801"
   preserveAspectRatio="xMidYMid meet"
   id="svg2"
   inkscape:version="0.48.2 r9819"
   sodipodi:docname="blood_hover.svg">
  <defs
     id="defs14" />
  <sodipodi:namedview
     pagecolor="#ffffff"
     bordercolor="#666666"
     borderopacity="1"
     objecttolerance="10"
     gridtolerance="10"
     guidetolerance="10"
     inkscape:pageopacity="0"
     inkscape:pageshadow="2"
     inkscape:window-width="1191"
     inkscape:window-height="662"
     id="namedview12"
     showgrid="false"
     inkscape:zoom="1.2586667"
     inkscape:cx="-75.778504"
     inkscape:cy="64.038577"
     inkscape:window-x="0"
     inkscape:window-y="22"
     inkscape:window-maximized="0"
     inkscape:current-layer="svg2"
     fit-margin-top="0"
     fit-margin-left="0"
     fit-margin-right="0"
     fit-margin-bottom="0" />
  <metadata
     id="metadata4">
Created by potrace 1.10, written by Peter Selinger 2001-2011
<rdf:RDF>
  <cc:Work
     rdf:about="">
    <dc:format>image/svg+xml</dc:format>
    <dc:type
       rdf:resource="http://purl.org/dc/dcmitype/StillImage" />
    <dc:title></dc:title>
  </cc:Work>
</rdf:RDF>
</metadata>
  <g
     transform="matrix(0.1,0,0,-0.1,-23.440598,129.33713)"
     id="g6"
     style="fill:#d23627;fill-opacity:1;stroke:none">
    <path
       d="m 1034,1279 c -3,-6 5,-23 20,-37 l 26,-26 -42,-43 -42,-43 69,-70 69,-70 43,42 43,42 28,-27 c 22,-21 31,-24 40,-15 10,10 -14,39 -110,135 -68,68 -126,123 -130,123 -4,0 -10,-5 -14,-11 z"
       id="path8"
       style="fill:#d23627;fill-opacity:1"
       inkscape:connector-curvature="0" />
    <path
       d="m 887,1082 -37,-38 40,-39 c 43,-42 50,-62 24,-72 -10,-4 -30,9 -58,36 l -42,41 -27,-28 -27,-28 45,-44 c 40,-39 43,-46 30,-59 -13,-14 -20,-10 -60,29 l -45,44 -27,-27 -27,-27 44,-45 c 42,-42 43,-46 27,-62 -16,-16 -20,-15 -62,27 L 640,834 529,725 419,615 l 6,-66 7,-66 -113,-134 c -69,-81 -99,-124 -78,-108 19,14 84,62 144,106 l 110,81 59,-10 58,-10 259,258 259,259 -97,97 c -54,54 -100,98 -103,98 -3,0 -23,-17 -43,-38 z"
       id="path10"
       style="fill:#d23627;fill-opacity:1"
       inkscape:connector-curvature="0" />
  </g>
</svg>
