<?xml version="1.0" encoding="UTF-8" standalone="no"?>
<svg
   xmlns:dc="http://purl.org/dc/elements/1.1/"
   xmlns:cc="http://creativecommons.org/ns#"
   xmlns:rdf="http://www.w3.org/1999/02/22-rdf-syntax-ns#"
   xmlns:svg="http://www.w3.org/2000/svg"
   xmlns="http://www.w3.org/2000/svg"
   xmlns:sodipodi="http://sodipodi.sourceforge.net/DTD/sodipodi-0.dtd"
   xmlns:inkscape="http://www.inkscape.org/namespaces/inkscape"
   version="1.0"
   width="133.80405"
   height="133.8"
   viewBox="0 0 107.04324 107.04001"
   preserveAspectRatio="xMidYMid meet"
   id="svg2"
   inkscape:version="0.48.2 r9819"
   sodipodi:docname="blood.svg">
  <defs
     id="defs14" />
  <g
     transform="matrix(0.1,0,0,-0.1,-22.35546,129.81073)"
     id="g6"
     style="fill:#000000;stroke:none">
    <path
       d="m 1032,1287 c -9,-11 -7,-19 13,-37 14,-13 25,-29 25,-35 0,-6 -18,-29 -40,-50 l -40,-39 67,-68 c 37,-37 71,-68 75,-68 4,0 25,19 47,43 l 40,42 30,-29 c 25,-24 34,-27 43,-18 10,10 -16,40 -118,143 -107,107 -133,128 -142,116 z"
       id="path8"
       inkscape:connector-curvature="0" />
    <path
       d="m 885,1080 -39,-40 42,-43 c 38,-39 41,-45 27,-57 -14,-11 -22,-7 -58,28 l -43,42 -27,-27 -27,-27 42,-43 c 35,-36 39,-44 28,-58 -12,-14 -18,-11 -57,27 l -43,42 -27,-27 -27,-27 42,-43 c 38,-39 41,-45 27,-57 -14,-11 -21,-8 -53,23 -21,21 -42,37 -48,37 -5,0 -60,-51 -121,-112 l -112,-113 9,-45 c 5,-25 9,-52 10,-60 0,-9 -53,-78 -117,-155 -73,-87 -104,-130 -83,-114 19,14 86,63 148,108 l 113,83 61,-6 61,-7 259,258 258,258 -97,97 c -54,54 -100,98 -103,98 -3,0 -24,-18 -45,-40 z"
       id="path10"
       inkscape:connector-curvature="0" />
  </g>
</svg>
