<?xml version="1.0" encoding="UTF-8" standalone="no"?>
<svg
   xmlns:dc="http://purl.org/dc/elements/1.1/"
   xmlns:cc="http://creativecommons.org/ns#"
   xmlns:rdf="http://www.w3.org/1999/02/22-rdf-syntax-ns#"
   xmlns:svg="http://www.w3.org/2000/svg"
   xmlns="http://www.w3.org/2000/svg"
   xmlns:sodipodi="http://sodipodi.sourceforge.net/DTD/sodipodi-0.dtd"
   xmlns:inkscape="http://www.inkscape.org/namespaces/inkscape"
   version="1.0"
   width="185.83"
   height="185.83"
   viewBox="0 0 148.664 148.66401"
   preserveAspectRatio="xMidYMid meet"
   id="svg3822"
   inkscape:version="0.48.2 r9819"
   sodipodi:docname="brain_hover.svg">
  <defs
     id="defs3832" />
  <sodipodi:namedview
     pagecolor="#ffffff"
     bordercolor="#666666"
     borderopacity="1"
     objecttolerance="10"
     gridtolerance="10"
     guidetolerance="10"
     inkscape:pageopacity="0"
     inkscape:pageshadow="2"
     inkscape:window-width="715"
     inkscape:window-height="484"
     id="namedview3830"
     showgrid="false"
     inkscape:zoom="1.2586667"
     inkscape:cx="-6.8145644"
     inkscape:cy="80.000002"
     inkscape:window-x="0"
     inkscape:window-y="22"
     inkscape:window-maximized="0"
     inkscape:current-layer="svg3822"
     fit-margin-top="0"
     fit-margin-left="0"
     fit-margin-right="0"
     fit-margin-bottom="0" />
  <metadata
     id="metadata3824">
Created by potrace 1.10, written by Peter Selinger 2001-2011
<rdf:RDF>
  <cc:Work
     rdf:about="">
    <dc:format>image/svg+xml</dc:format>
    <dc:type
       rdf:resource="http://purl.org/dc/dcmitype/StillImage" />
    <dc:title></dc:title>
  </cc:Work>
</rdf:RDF>
</metadata>
  <g
     transform="matrix(0.1,0,0,-0.1,-0.68547358,148.28799)"
     id="g3826"
     style="fill:#84449a;fill-opacity:1;stroke:none">
    <path
       d="m 747,1353 c -30,-12 -44,-13 -63,-4 -38,17 -134,13 -179,-8 -22,-10 -55,-32 -72,-49 -20,-21 -42,-32 -60,-32 -78,-2 -159,-56 -197,-132 -17,-33 -43,-65 -73,-88 -145,-109 -122,-335 42,-411 50,-23 141,-25 195,-3 37,15 43,15 80,0 51,-20 138,-21 188,-1 38,16 40,15 93,-16 122,-73 126,-77 158,-140 30,-61 31,-65 31,-211 l 0,-148 39,0 39,0 4,178 c 3,167 4,179 28,221 14,24 49,62 79,85 30,22 63,54 75,69 18,24 19,29 6,38 -8,5 -35,7 -60,3 -83,-12 -85,-11 -85,16 0,20 8,27 40,38 22,8 58,11 81,8 l 42,-5 -8,35 c -18,80 -80,132 -172,144 -35,5 -77,12 -94,15 -30,7 -32,5 -49,-39 -23,-60 -16,-124 20,-177 29,-44 27,-69 -4,-69 -25,0 -57,41 -78,102 -16,44 -20,48 -51,48 -18,0 -48,-6 -67,-14 -30,-13 -37,-13 -49,0 -9,8 -13,21 -10,29 8,19 77,45 123,45 37,0 40,3 52,38 6,20 18,45 25,55 10,16 8,25 -18,62 -31,44 -31,44 -61,29 -16,-9 -59,-19 -95,-22 l -65,-7 -14,-41 C 534,908 446,847 334,834 274,827 229,810 197,782 c -16,-14 -19,-14 -34,0 -9,9 -13,23 -10,32 12,30 84,67 152,78 l 68,11 -25,21 c -14,12 -40,29 -57,39 -34,18 -36,33 -9,50 22,15 70,-7 117,-53 l 39,-38 26,26 c 13,15 32,45 41,66 l 17,39 -42,36 c -30,26 -40,41 -35,54 8,19 40,23 51,6 12,-20 89,-49 132,-49 23,0 60,9 81,19 33,17 37,24 34,48 -5,32 15,57 40,48 8,-4 18,-24 21,-47 12,-75 50,-124 118,-152 l 37,-16 10,38 c 15,53 58,112 82,112 31,0 34,-27 6,-68 -14,-20 -28,-47 -32,-59 -5,-19 -1,-23 33,-32 48,-13 112,-59 131,-93 12,-23 17,-25 43,-17 17,4 45,20 63,34 39,29 60,32 69,8 9,-22 -36,-68 -89,-89 l -41,-18 -1,-60 c 0,-34 -7,-78 -16,-98 -15,-35 -15,-37 3,-43 27,-9 90,-82 90,-105 0,-38 -31,-36 -63,4 -16,20 -42,43 -57,51 -25,13 -29,11 -76,-23 -77,-59 -84,-80 -84,-269 l 0,-163 39,0 c 39,0 40,1 55,53 28,97 75,153 191,229 56,37 90,82 107,142 7,23 22,57 34,76 47,72 50,183 8,247 -8,14 -14,47 -14,87 0,90 -37,160 -107,202 -29,17 -67,50 -85,74 -45,59 -113,93 -192,96 -45,1 -73,9 -106,28 -36,21 -58,26 -110,25 -36,0 -82,-7 -103,-16 z"
       id="path3828"
       style="fill:#84449a;fill-opacity:1"
       inkscape:connector-curvature="0" />
  </g>
</svg>
