<?xml version="1.0" encoding="UTF-8" standalone="no"?>
<svg
   xmlns:dc="http://purl.org/dc/elements/1.1/"
   xmlns:cc="http://creativecommons.org/ns#"
   xmlns:rdf="http://www.w3.org/1999/02/22-rdf-syntax-ns#"
   xmlns:svg="http://www.w3.org/2000/svg"
   xmlns="http://www.w3.org/2000/svg"
   xmlns:sodipodi="http://sodipodi.sourceforge.net/DTD/sodipodi-0.dtd"
   xmlns:inkscape="http://www.inkscape.org/namespaces/inkscape"
   version="1.0"
   width="150.000000pt"
   height="150.000000pt"
   viewBox="0 0 150.000000 150.000000"
   preserveAspectRatio="xMidYMid meet"
   id="svg4498"
   inkscape:version="0.48.4 r9939"
   sodipodi:docname="cancer.svg">
  <defs
     id="defs4516" />
  <sodipodi:namedview
     pagecolor="#ffffff"
     bordercolor="#666666"
     borderopacity="1"
     objecttolerance="10"
     gridtolerance="10"
     guidetolerance="10"
     inkscape:pageopacity="0"
     inkscape:pageshadow="2"
     inkscape:window-width="715"
     inkscape:window-height="480"
     id="namedview4514"
     showgrid="false"
     inkscape:zoom="1.2586667"
     inkscape:cx="93.75"
     inkscape:cy="93.75"
     inkscape:window-x="0"
     inkscape:window-y="22"
     inkscape:window-maximized="0"
     inkscape:current-layer="svg4498" />
  <metadata
     id="metadata4500">
Created by potrace 1.10, written by Peter Selinger 2001-2011
<rdf:RDF>
  <cc:Work
     rdf:about="">
    <dc:format>image/svg+xml</dc:format>
    <dc:type
       rdf:resource="http://purl.org/dc/dcmitype/StillImage" />
    <dc:title></dc:title>
  </cc:Work>
</rdf:RDF>
</metadata>
  <g
     transform="translate(0.000000,150.000000) scale(0.100000,-0.100000)"
     fill="#000000"
     stroke="none"
     id="g4502"
     style="fill:#f17b22;fill-opacity:1">
    <path
       d="M608 1481 c-156 -51 -273 -170 -320 -324 -16 -55 -20 -87 -16 -165 3 -87 7 -105 40 -175 148 -312 542 -384 782 -143 239 239 174 627 -132 778 -79 40 -87 42 -190 45 -85 2 -119 -1 -164 -16z m271 -50 c207 -64 337 -269 303 -477 -31 -188 -172 -331 -360 -366 -182 -34 -381 73 -465 249 -30 64 -32 75 -32 178 0 103 2 114 32 178 56 117 176 219 289 246 67 16 168 12 233 -8z"
       id="path4504"
       style="fill:#f17b22;fill-opacity:1" />
    <path
       d="M629 1377 c-215 -74 -317 -316 -221 -521 111 -237 410 -297 602 -119 130 120 162 292 83 452 -82 168 -286 251 -464 188z m205 -38 c20 -16 26 -29 26 -59 0 -70 -72 -103 -126 -57 -36 32 -36 83 1 115 33 28 65 28 99 1z m-204 -244 l0 -75 -80 0 -80 0 0 75 0 75 80 0 80 0 0 -75z m354 44 c52 -41 23 -129 -43 -129 -45 0 -75 30 -75 75 0 67 64 96 118 54z m-204 -109 c30 -30 27 -83 -6 -109 -30 -24 -43 -26 -78 -10 -50 23 -55 101 -9 128 29 17 71 13 93 -9z m173 -111 c24 -11 47 -47 47 -73 0 -7 -9 -25 -21 -40 -26 -33 -79 -36 -109 -6 -30 30 -27 83 6 109 30 24 43 26 77 10z m-284 -54 c46 -23 54 -66 20 -109 -40 -50 -129 -23 -129 40 0 34 17 63 43 74 31 12 34 12 66 -5z"
       id="path4506"
       style="fill:#f17b22;fill-opacity:1" />
    <path
       d="M502 1098 l3 -53 45 0 45 0 0 50 0 50 -48 3 -48 3 3 -53z"
       id="path4508"
       style="fill:#f17b22;fill-opacity:1" />
    <path
       d="M25 1035 l-25 -24 0 -253 c0 -229 2 -257 20 -296 11 -25 79 -106 165 -196 146 -155 165 -183 165 -237 l0 -29 146 0 147 0 -5 103 c-2 56 -10 113 -18 127 -19 37 -349 379 -381 396 -16 8 -33 14 -39 14 -19 0 -60 -48 -60 -70 0 -12 39 -63 95 -125 80 -87 125 -152 125 -180 0 -3 -11 -5 -24 -5 -17 0 -26 7 -30 24 -3 13 -47 68 -97 122 -107 117 -125 150 -109 200 7 19 23 42 36 51 24 15 24 17 24 182 -1 173 -4 186 -47 209 -34 18 -62 14 -88 -13z"
       id="path4510"
       style="fill:#f17b22;fill-opacity:1" />
    <path
       d="M1373 1036 l-28 -24 -3 -161 -4 -162 36 -39 c64 -71 54 -98 -90 -258 -45 -49 -85 -99 -89 -111 -8 -26 -45 -29 -45 -3 0 29 34 76 124 171 74 78 86 95 86 125 0 38 -28 66 -64 66 -28 0 -383 -353 -407 -405 -14 -30 -19 -64 -19 -137 l0 -98 145 0 145 0 0 45 c0 51 -8 40 199 260 56 60 112 127 122 147 17 34 19 62 19 302 l0 265 -26 20 c-35 28 -67 26 -101 -3z"
       id="path4512"
       style="fill:#f17b22;fill-opacity:1" />
  </g>
</svg>
