<?xml version="1.0" encoding="UTF-8" standalone="no"?>
<svg
   xmlns:dc="http://purl.org/dc/elements/1.1/"
   xmlns:cc="http://creativecommons.org/ns#"
   xmlns:rdf="http://www.w3.org/1999/02/22-rdf-syntax-ns#"
   xmlns:svg="http://www.w3.org/2000/svg"
   xmlns="http://www.w3.org/2000/svg"
   xmlns:sodipodi="http://sodipodi.sourceforge.net/DTD/sodipodi-0.dtd"
   xmlns:inkscape="http://www.inkscape.org/namespaces/inkscape"
   version="1.0"
   width="150.000000pt"
   height="150.000000pt"
   viewBox="0 0 150.000000 150.000000"
   preserveAspectRatio="xMidYMid meet"
   id="svg5216"
   inkscape:version="0.48.2 r9819"
   sodipodi:docname="digestive_hover.svg">
  <defs
     id="defs5228" />
  <sodipodi:namedview
     pagecolor="#ffffff"
     bordercolor="#666666"
     borderopacity="1"
     objecttolerance="10"
     gridtolerance="10"
     guidetolerance="10"
     inkscape:pageopacity="0"
     inkscape:pageshadow="2"
     inkscape:window-width="715"
     inkscape:window-height="484"
     id="namedview5226"
     showgrid="false"
     inkscape:zoom="1.2586667"
     inkscape:cx="93.750002"
     inkscape:cy="93.750002"
     inkscape:window-x="1230"
     inkscape:window-y="550"
     inkscape:window-maximized="0"
     inkscape:current-layer="svg5216" />
  <metadata
     id="metadata5218">
Created by potrace 1.10, written by Peter Selinger 2001-2011
<rdf:RDF>
  <cc:Work
     rdf:about="">
    <dc:format>image/svg+xml</dc:format>
    <dc:type
       rdf:resource="http://purl.org/dc/dcmitype/StillImage" />
    <dc:title></dc:title>
  </cc:Work>
</rdf:RDF>
</metadata>
  <g
     transform="translate(0.000000,150.000000) scale(0.100000,-0.100000)"
     fill="#000000"
     stroke="none"
     id="g5220"
     style="fill:#84449a;fill-opacity:1">
    <path
       d="M650 1477 c-67 -35 -103 -92 -108 -171 -5 -76 12 -120 68 -170 134 -121 346 -22 344 160 -1 66 -35 128 -92 168 -59 42 -147 47 -212 13z"
       id="path5222"
       style="fill:#84449a;fill-opacity:1" />
    <path
       d="M418 1016 c-89 -24 -164 -92 -194 -173 -21 -59 -20 -733 1 -773 32 -61 124 -55 158 11 15 30 17 63 15 322 l-3 287 33 0 32 0 0 -345 0 -345 285 0 285 0 0 345 0 345 35 0 35 0 0 -300 0 -300 28 -31 c35 -39 91 -43 128 -8 l24 22 0 379 0 379 -24 47 c-31 60 -68 95 -131 124 -45 20 -66 22 -200 23 l-150 0 -3 -244 c-2 -229 -1 -243 15 -236 64 28 123 7 123 -44 0 -58 -69 -111 -144 -111 -38 0 -86 18 -86 32 0 5 -16 8 -36 6 -44 -4 -65 -28 -45 -52 11 -13 38 -16 151 -16 124 0 140 -2 164 -21 35 -28 35 -70 0 -98 -24 -19 -40 -21 -170 -21 -116 0 -144 -3 -144 -14 0 -22 24 -26 169 -26 121 0 140 -2 154 -18 23 -25 21 -68 -3 -92 -18 -18 -33 -20 -189 -20 -134 0 -170 3 -174 14 -12 30 16 36 176 36 146 0 158 1 155 17 -3 16 -19 18 -138 20 -74 2 -145 5 -156 8 -12 3 -27 19 -34 36 -11 27 -11 33 7 57 20 27 20 27 172 30 143 2 151 4 151 22 0 19 -7 20 -144 20 -138 0 -146 1 -172 24 -39 33 -39 89 0 122 22 19 38 24 87 24 l59 0 0 275 0 275 -127 -1 c-71 0 -149 -6 -175 -13z"
       id="path5224"
       style="fill:#84449a;fill-opacity:1" />
  </g>
</svg>
