<?xml version="1.0" encoding="UTF-8" standalone="no"?>
<svg
   xmlns:dc="http://purl.org/dc/elements/1.1/"
   xmlns:cc="http://creativecommons.org/ns#"
   xmlns:rdf="http://www.w3.org/1999/02/22-rdf-syntax-ns#"
   xmlns:svg="http://www.w3.org/2000/svg"
   xmlns="http://www.w3.org/2000/svg"
   xmlns:sodipodi="http://sodipodi.sourceforge.net/DTD/sodipodi-0.dtd"
   xmlns:inkscape="http://www.inkscape.org/namespaces/inkscape"
   version="1.0"
   width="187.25"
   height="187.25"
   viewBox="0 0 149.8 149.8"
   preserveAspectRatio="xMidYMid meet"
   id="svg5906"
   inkscape:version="0.48.2 r9819"
   sodipodi:docname="heart_hover.svg">
  <defs
     id="defs5918" />
  <sodipodi:namedview
     pagecolor="#ffffff"
     bordercolor="#666666"
     borderopacity="1"
     objecttolerance="10"
     gridtolerance="10"
     guidetolerance="10"
     inkscape:pageopacity="0"
     inkscape:pageshadow="2"
     inkscape:window-width="715"
     inkscape:window-height="484"
     id="namedview5916"
     showgrid="false"
     inkscape:zoom="1.2586667"
     inkscape:cx="93.125004"
     inkscape:cy="93.750004"
     inkscape:window-x="448"
     inkscape:window-y="94"
     inkscape:window-maximized="0"
     inkscape:current-layer="svg5906"
     fit-margin-top="0"
     fit-margin-left="0"
     fit-margin-right="0"
     fit-margin-bottom="0" />
  <metadata
     id="metadata5908">
Created by potrace 1.10, written by Peter Selinger 2001-2011
<rdf:RDF>
  <cc:Work
     rdf:about="">
    <dc:format>image/svg+xml</dc:format>
    <dc:type
       rdf:resource="http://purl.org/dc/dcmitype/StillImage" />
    <dc:title></dc:title>
  </cc:Work>
</rdf:RDF>
</metadata>
  <g
     transform="matrix(0.1,0,0,-0.1,-0.5,149.79999)"
     id="g5910"
     style="fill:#039948;fill-opacity:1;stroke:none">
    <path
       d="M 228,1477 C 135,1438 78,1381 32,1283 7,1230 5,1215 5,1110 6,986 32,864 84,747 l 25,-57 74,0 74,0 28,-42 c 25,-38 29,-40 36,-23 4,11 19,133 34,270 28,260 35,295 59,295 17,0 19,-8 71,-225 52,-218 49,-213 79,-118 18,53 37,71 55,49 6,-7 26,-55 45,-107 l 34,-94 69,-3 c 68,-3 69,-3 93,-42 21,-34 40,-51 40,-36 0,19 62,554 65,564 6,18 33,15 43,-5 5,-10 29,-102 53,-205 24,-104 46,-188 50,-188 4,0 15,24 24,53 20,61 40,86 55,71 6,-6 28,-55 48,-110 l 38,-99 61,-3 62,-3 20,40 c 12,22 33,79 47,128 24,77 27,106 28,233 1,137 0,148 -26,202 -33,70 -105,145 -173,178 -44,22 -63,25 -165,25 -106,0 -120,-2 -172,-28 -94,-46 -166,-132 -203,-242 -5,-16 -11,-9 -29,36 -41,101 -100,163 -196,208 -44,20 -74,26 -150,28 -82,3 -103,0 -152,-20 z"
       id="path5912"
       style="fill:#039948;fill-opacity:1"
       inkscape:connector-curvature="0" />
    <path
       d="M 417,970 C 414,956 401,855 390,745 379,635 367,535 364,523 c -9,-43 -39,-26 -88,47 -46,70 -46,70 -92,70 -54,0 -54,-1 7,-93 C 272,427 381,303 504,191 592,111 733,0 748,0 c 14,0 145,100 244,186 129,112 283,292 357,416 l 22,37 -67,3 -67,3 -26,73 c -14,39 -28,72 -31,72 -3,0 -17,-31 -30,-70 -42,-122 -57,-109 -105,95 -21,88 -41,164 -45,168 -4,4 -17,-86 -30,-200 -29,-266 -31,-277 -55,-281 -15,-2 -32,16 -65,68 l -45,70 -66,0 c -75,0 -79,3 -103,75 -9,28 -20,57 -26,65 -8,13 -10,13 -14,0 -43,-121 -48,-131 -69,-128 -18,3 -26,24 -62,173 -30,122 -44,163 -48,145 z"
       id="path5914"
       style="fill:#039948;fill-opacity:1"
       inkscape:connector-curvature="0" />
  </g>
</svg>
