<?xml version="1.0" encoding="UTF-8" standalone="no"?>
<svg
   xmlns:dc="http://purl.org/dc/elements/1.1/"
   xmlns:cc="http://creativecommons.org/ns#"
   xmlns:rdf="http://www.w3.org/1999/02/22-rdf-syntax-ns#"
   xmlns:svg="http://www.w3.org/2000/svg"
   xmlns="http://www.w3.org/2000/svg"
   xmlns:xlink="http://www.w3.org/1999/xlink"
   xmlns:sodipodi="http://sodipodi.sourceforge.net/DTD/sodipodi-0.dtd"
   xmlns:inkscape="http://www.inkscape.org/namespaces/inkscape"
   version="1.1"
   width="490.52637"
   height="490.53"
   id="svg2"
   inkscape:version="0.48.2 r9819"
   sodipodi:docname="infectious.svg">
  <metadata
     id="metadata15">
    <rdf:RDF>
      <cc:Work
         rdf:about="">
        <dc:format>image/svg+xml</dc:format>
        <dc:type
           rdf:resource="http://purl.org/dc/dcmitype/StillImage" />
        <dc:title></dc:title>
      </cc:Work>
    </rdf:RDF>
  </metadata>
  <sodipodi:namedview
     pagecolor="#ffffff"
     bordercolor="#666666"
     borderopacity="1"
     objecttolerance="10"
     gridtolerance="10"
     guidetolerance="10"
     inkscape:pageopacity="0"
     inkscape:pageshadow="2"
     inkscape:window-width="640"
     inkscape:window-height="484"
     id="namedview13"
     showgrid="false"
     fit-margin-top="0"
     fit-margin-left="0"
     fit-margin-right="0"
     fit-margin-bottom="0"
     inkscape:zoom="0.45384615"
     inkscape:cx="-31.262164"
     inkscape:cy="205.00056"
     inkscape:window-x="0"
     inkscape:window-y="0"
     inkscape:window-maximized="0"
     inkscape:current-layer="svg2" />
  <defs
     id="defs4">
    <path
       d="M 2.8117,-1.046 A 3,3 0 0 1 0.5,2.958 V 4.5119 A 10.5,10.5 0 0 1 2,25.3078 v 0.5583 A 15,15 0 0 0 14.7975,8.5433 15,15 0 0 0 23.4007,-11.201 l -0.4835,0.2792 A 10.5,10.5 0 0 1 4.1574,-1.8229 z m 3.4148,8.871 a 10,10 0 0 1 -12.453,0 9.5,9.5 0 0 0 -2.1756,2.7417 13.5,13.5 0 0 0 16.8042,0 A 10,10 0 0 0 6.2265,7.825 z"
       id="p"
       transform="matrix(10,0,0,-10,260,260)"
       inkscape:connector-curvature="0" />
  </defs>
  <g
     id="g2992"
     transform="translate(3.3158462e-6,-13.434228)">
    <use
       transform="translate(-14.73674,25.529447)"
       height="520"
       width="520"
       y="0"
       x="0"
       id="use7"
       xlink:href="#p" />
    <use
       height="520"
       width="520"
       y="0"
       x="0"
       id="use9"
       transform="matrix(-0.5,0.8660254,-0.8660254,-0.5,600.42986,190.36285)"
       xlink:href="#p" />
    <use
       height="520"
       width="520"
       y="0"
       x="0"
       id="use11"
       transform="matrix(-0.5,-0.8660254,0.8660254,-0.5,150.09666,640.69605)"
       xlink:href="#p" />
  </g>
</svg>
