<svg xmlns="http://www.w3.org/2000/svg" xmlns:xlink="http://www.w3.org/1999/xlink" width="600" height="600"><defs><path d="M2.812-1.046a3 3 0 0 1-2.312 4.004v1.554a10.5 10.5 0 0 1 1.5 20.796v.558a15 15 0 0 0 12.797-17.323 15 15 0 0 0 8.603-19.744l-.483.279a10.5 10.5 0 0 1-18.76 9.099zm3.415 8.871a10 10 0 0 1-12.453 0 9.5 9.5 0 0 0-2.176 2.742 13.5 13.5 0 0 0 16.804 0 10 10 0 0 0-2.176-2.742z" id="a" transform="scale(10 -10) translate(26 -26)"/></defs><use xlink:href="#a" fill="#71b2e2"/><use xlink:href="#a" transform="rotate(120 260 260)" fill="#71b2e2"/><use xlink:href="#a" transform="rotate(240 260 260)" fill="#71b2e2"/></svg>