<?xml version="1.0" encoding="UTF-8" standalone="no"?>
<svg
   xmlns:dc="http://purl.org/dc/elements/1.1/"
   xmlns:cc="http://creativecommons.org/ns#"
   xmlns:rdf="http://www.w3.org/1999/02/22-rdf-syntax-ns#"
   xmlns:svg="http://www.w3.org/2000/svg"
   xmlns="http://www.w3.org/2000/svg"
   xmlns:sodipodi="http://sodipodi.sourceforge.net/DTD/sodipodi-0.dtd"
   xmlns:inkscape="http://www.inkscape.org/namespaces/inkscape"
   version="1.0"
   width="150.000000pt"
   height="150.000000pt"
   viewBox="0 0 150.000000 150.000000"
   preserveAspectRatio="xMidYMid meet"
   id="svg7809"
   inkscape:version="0.48.4 r9939"
   sodipodi:docname="lung_hover.svg">
  <defs
     id="defs7835" />
  <sodipodi:namedview
     pagecolor="#ffffff"
     bordercolor="#666666"
     borderopacity="1"
     objecttolerance="10"
     gridtolerance="10"
     guidetolerance="10"
     inkscape:pageopacity="0"
     inkscape:pageshadow="2"
     inkscape:window-width="715"
     inkscape:window-height="480"
     id="namedview7833"
     showgrid="false"
     inkscape:zoom="1.2586667"
     inkscape:cx="93.75"
     inkscape:cy="93.75"
     inkscape:window-x="1630"
     inkscape:window-y="639"
     inkscape:window-maximized="0"
     inkscape:current-layer="svg7809" />
  <metadata
     id="metadata7811">
Created by potrace 1.10, written by Peter Selinger 2001-2011
<rdf:RDF>
  <cc:Work
     rdf:about="">
    <dc:format>image/svg+xml</dc:format>
    <dc:type
       rdf:resource="http://purl.org/dc/dcmitype/StillImage" />
    <dc:title></dc:title>
  </cc:Work>
</rdf:RDF>
</metadata>
  <g
     transform="translate(0.000000,150.000000) scale(0.100000,-0.100000)"
     fill="#000000"
     stroke="none"
     id="g7813">
    <path
       d="M675 1487 c-62 -21 -97 -42 -137 -84 -42 -43 -63 -87 -73 -153 -3 -25 -20 -80 -36 -122 -39 -103 -38 -111 6 -102 28 5 36 3 41 -11 4 -10 2 -26 -4 -36 -24 -37 -15 -88 22 -125 29 -29 41 -34 80 -34 42 0 46 -2 46 -24 l0 -24 -143 -3 c-138 -4 -145 -5 -209 -37 -80 -39 -149 -111 -172 -179 -13 -38 -16 -94 -16 -300 l0 -253 115 0 115 0 0 195 0 195 35 0 35 0 0 -195 0 -195 380 0 380 0 0 195 0 195 35 0 35 0 0 -195 0 -195 116 0 115 0 -3 278 c-3 265 -4 279 -25 317 -71 126 -173 175 -369 175 l-114 0 0 103 c1 101 1 102 32 132 107 103 104 298 -5 407 -71 72 -193 104 -282 75z m-24 -333 c17 -21 0 -49 -32 -49 -27 0 -37 28 -19 50 16 19 34 19 51 -1z m-123 -23 c8 -4 12 -19 10 -32 -4 -29 -45 -34 -61 -7 -19 30 19 60 51 39z m232 -40 c7 -15 6 -23 -6 -35 -8 -9 -19 -16 -24 -16 -5 0 -16 7 -24 16 -20 19 -5 54 24 54 11 0 24 -9 30 -19z m29 -115 c14 -16 5 -42 -16 -50 -29 -11 -58 35 -36 57 11 12 40 8 52 -7z m0 -123 c12 -23 -4 -53 -29 -53 -25 0 -41 29 -29 52 12 23 45 23 58 1z m-5 -119 c19 -19 20 -26 4 -42 -18 -18 -46 -14 -58 7 -7 15 -6 23 6 35 19 20 29 20 48 0z m-138 -129 c51 -78 98 -433 61 -463 -7 -6 -35 -16 -61 -22 -27 -6 -68 -25 -92 -42 -76 -55 -96 -22 -97 162 -1 137 12 217 50 297 41 88 105 120 139 68z m102 -1 c4 -25 -22 -49 -43 -40 -22 8 -29 34 -14 52 17 21 53 14 57 -12z m86 4 c8 -14 7 -21 -6 -34 -30 -30 -75 9 -48 42 16 18 39 15 54 -8z m129 2 c31 -25 71 -106 85 -175 29 -136 22 -339 -12 -373 -14 -14 -20 -12 -64 15 -26 16 -70 35 -97 42 -27 7 -55 17 -62 23 -35 29 9 377 57 456 23 38 55 42 93 12z"
       id="path7815" />
    <path
       d="M602 511 c-23 -14 -10 -46 18 -46 20 0 25 5 25 25 0 26 -20 36 -43 21z"
       id="path7817" />
    <path
       d="M527 419 c-23 -13 -22 -46 3 -54 25 -8 40 1 40 24 0 27 -21 42 -43 30z"
       id="path7819" />
    <path
       d="M495 294 c-18 -19 -16 -33 7 -48 12 -7 21 -6 32 3 22 18 20 38 -3 51 -15 7 -24 6 -36 -6z"
       id="path7821" />
    <path
       d="M533 183 c-18 -7 -16 -38 2 -53 18 -15 45 2 45 30 0 14 -23 34 -33 29 -1 0 -8 -3 -14 -6z"
       id="path7823" />
    <path
       d="M882 511 c-23 -14 -10 -46 18 -46 20 0 25 5 25 25 0 26 -20 36 -43 21z"
       id="path7825" />
    <path
       d="M962 418 c-17 -17 -15 -45 3 -52 23 -8 45 4 45 25 0 24 -33 42 -48 27z"
       id="path7827" />
    <path
       d="M985 294 c-18 -19 -16 -33 7 -48 12 -7 21 -6 32 3 22 18 20 38 -3 51 -15 7 -24 6 -36 -6z"
       id="path7829" />
    <path
       d="M953 183 c-18 -7 -16 -38 2 -53 18 -15 45 2 45 30 0 14 -23 34 -33 29 -1 0 -8 -3 -14 -6z"
       id="path7831" />
  </g>
</svg>
