<svg xmlns="http://www.w3.org/2000/svg" version="1" width="184.72" height="184.72" viewBox="0 0 147.776 147.776">//free(<g><path d="M58.5 1.176c-23.5 5.5-42.2 20.2-52.1 41.1-5.1 10.7-6.4 17.2-6.4 31.8 0 15.6.8 19.3 7.2 32.7 4.5 9.2 6.1 11.5 14.2 19.5 7.6 7.7 10.6 9.9 18.6 13.8 12 5.9 19.7 7.7 33.1 7.7 27 0 50.4-13.1 64-36 24.3-41 4.2-93.4-41.6-108.5-10-3.3-27.5-4.3-37-2.1zm37 4c20.9 6.7 38.1 23.1 45.5 43.5 14.2 38.8-6.1 80.7-45.5 93.8-7.2 2.4-9.4 2.7-22 2.7-12.3 0-14.9-.4-21.8-2.6-23.4-7.8-41.6-27-47.8-50.4-4.1-15.6-2.2-35.9 4.7-49.6 10.3-20.6 27.4-34.1 49.9-39.4 9.4-2.2 27-1.3 37 2z"/><path d="M70.2 24.376c-2.5 1.7-3 7.1-1 10.3.9 1.5.9 2.5 0 4.6-1.1 2.4-1.7 2.6-4.5 2.1-1.8-.4-5.5-1.1-8.3-1.5-2.7-.5-7.2-2-10-3.4-2.7-1.3-6.9-2.8-9.4-3.2-2.5-.4-6.4-1.5-8.7-2.5-4.4-1.9-8.3-1.7-8.3.5 0 .8.8 1.1 2 .8 1.1-.3 2 0 2 .6s1.3 1.1 2.8 1.1c1.6 0 4.9 1.3 7.3 3 2.4 1.6 6.5 3.7 9.2 4.6 2.6.8 4.7 1.9 4.7 2.3 0 .8-12.9 2.2-21.6 2.5-4.2.1-7.8 2.1-6.8 3.7.3.5 1.3.5 2.4-.1 1.3-.7 2-.6 2.2.2.3.8 1.2.9 3.6 0 2.1-.7 4.2-.8 6.4-.1 1.8.5 8.3.9 14.5.9h11.2l2.5 5.6c3.5 7.6 3.5 8.4-.9 25.9-.9 3.3-2 9.4-2.6 13.5-.6 4.1-2.2 9.6-3.5 12.2-1.3 2.6-2.4 6.3-2.4 8.1 0 3.8-3.4 15.3-5.2 17.4-1.3 1.6-.3 3 2.6 3.5 1.7.2 2.2-.7 3.2-5.9.7-3.4 2.5-8.1 4-10.5 1.5-2.4 3.1-6.3 3.6-8.8.8-4.5 2.3-6.9 3.4-5.7.4.3.2 2.9-.3 5.8-.6 3-.7 6.6-.2 8.7 1.2 5.2 1.1 17.9-.1 20.3-1 1.7-.7 1.9 2.5 1.9h3.6l-.2-6.8c-.1-3.7.3-9.2.9-12.2.7-3 1.2-7.3 1.1-9.5-.2-4.5 1.6-17.4 2.5-18.2 1.6-1.6 2.1 2 2.4 15.5.5 23.9.5 26.6-.3 29-.7 2-.4 2.2 2.6 2.2h3.4l.1-8.2c.1-10.9 1.5-24.7 2.4-25.3.4-.3 1.1 1.1 1.4 3.1.4 1.9 2 5.6 3.7 8.1 1.6 2.6 2.9 5.6 2.9 6.7 0 1.2 1 3.7 2.3 5.7 1.9 3.1 2.5 3.5 4.5 2.8 2.5-1 2.9-2.4.8-3.2-2.4-1-4.5-6.1-5.6-13.7-.6-3.9-1.8-8.8-2.9-10.8-1-2-2.1-6.6-2.5-10.2-.4-3.6-1.5-9.4-2.5-13-1-3.6-2.4-9.8-3.2-13.8-1.1-6.7-1.1-7.9.7-13.5l2-6.2 11.5-.1c6.3 0 13.2-.4 15.4-.8 2.3-.4 5.3-.3 6.8.3 1.8.7 2.7.7 2.7 0 0-.6.6-.6 1.9.1 2.6 1.3 3.1 1.3 3.1-.5 0-2-3.7-3.8-6.7-3.2-1.3.2-5.6-.2-9.4-.9-3.9-.7-8.3-1.1-10-.7-4.3.8-3.5-1.2 1.1-2.7 2.2-.7 6.3-2.8 9.1-4.7 2.9-1.8 6.4-3.3 8-3.3 1.7 0 3.2-.6 3.5-1.5.4-.8 1.5-1.5 2.5-1.5 2.2 0 2.6-1.8.5-2.6-1.5-.6-21.6 5.8-27.3 8.7-2 1-5.2 1.9-7.1 1.9-1.8 0-4.6.7-6.1 1.5-2.6 1.3-3 1.3-5-.9-1.8-2-2-3-1.5-8.2.5-4.9.3-6.3-1-7.7-2.2-2.1-5.5-2.2-8.4-.1z"/></g></svg>