<?xml version="1.0" encoding="UTF-8" standalone="no"?>
<svg
   xmlns:dc="http://purl.org/dc/elements/1.1/"
   xmlns:cc="http://creativecommons.org/ns#"
   xmlns:rdf="http://www.w3.org/1999/02/22-rdf-syntax-ns#"
   xmlns:svg="http://www.w3.org/2000/svg"
   xmlns="http://www.w3.org/2000/svg"
   xmlns:sodipodi="http://sodipodi.sourceforge.net/DTD/sodipodi-0.dtd"
   xmlns:inkscape="http://www.inkscape.org/namespaces/inkscape"
   version="1.0"
   width="184.72"
   height="184.72"
   viewBox="0 0 147.776 147.776"
   preserveAspectRatio="xMidYMid meet"
   id="svg7189"
   inkscape:version="0.48.2 r9819"
   sodipodi:docname="metabolic.svg">
  <defs
     id="defs7201" />
  <sodipodi:namedview
     pagecolor="#ffffff"
     bordercolor="#666666"
     borderopacity="1"
     objecttolerance="10"
     gridtolerance="10"
     guidetolerance="10"
     inkscape:pageopacity="0"
     inkscape:pageshadow="2"
     inkscape:window-width="715"
     inkscape:window-height="484"
     id="namedview7199"
     showgrid="false"
     inkscape:zoom="1.2586667"
     inkscape:cx="92.500004"
     inkscape:cy="92.500004"
     inkscape:window-x="631"
     inkscape:window-y="213"
     inkscape:window-maximized="0"
     inkscape:current-layer="svg7189"
     fit-margin-top="0"
     fit-margin-left="0"
     fit-margin-right="0"
     fit-margin-bottom="0" />
  <metadata
     id="metadata7191">
Created by potrace 1.10, written by Peter Selinger 2001-2011
<rdf:RDF>
  <cc:Work
     rdf:about="">
    <dc:format>image/svg+xml</dc:format>
    <dc:type
       rdf:resource="http://purl.org/dc/dcmitype/StillImage" />
    <dc:title></dc:title>
  </cc:Work>
</rdf:RDF>
</metadata>
  <g
     transform="matrix(0.1,0,0,-0.1,-1,148.77599)"
     id="g7193"
     style="fill:#000000;stroke:none">
    <path
       d="M 595,1476 C 360,1421 173,1274 74,1065 23,958 10,893 10,747 10,591 18,554 82,420 127,328 143,305 224,225 300,148 330,126 410,87 530,28 607,10 741,10 c 270,0 504,131 640,360 243,410 42,934 -416,1085 -100,33 -275,43 -370,21 z m 370,-40 c 209,-67 381,-231 455,-435 C 1562,613 1359,194 965,63 893,39 871,36 745,36 622,36 596,40 527,62 293,140 111,332 49,566 8,722 27,925 96,1062 c 103,206 274,341 499,394 94,22 270,13 370,-20 z"
       id="path7195"
       inkscape:connector-curvature="0" />
    <path
       d="m 712,1244 c -25,-17 -30,-71 -10,-103 9,-15 9,-25 0,-46 -11,-24 -17,-26 -45,-21 -18,4 -55,11 -83,15 -27,5 -72,20 -100,34 -27,13 -69,28 -94,32 -25,4 -64,15 -87,25 -44,19 -83,17 -83,-5 0,-8 8,-11 20,-8 11,3 20,0 20,-6 0,-6 13,-11 28,-11 16,0 49,-13 73,-30 24,-16 65,-37 92,-46 26,-8 47,-19 47,-23 0,-8 -129,-22 -216,-25 -42,-1 -78,-21 -68,-37 3,-5 13,-5 24,1 13,7 20,6 22,-2 3,-8 12,-9 36,0 21,7 42,8 64,1 18,-5 83,-9 145,-9 l 112,0 25,-56 c 35,-76 35,-84 -9,-259 -9,-33 -20,-94 -26,-135 -6,-41 -22,-96 -35,-122 -13,-26 -24,-63 -24,-81 0,-38 -34,-153 -52,-174 -13,-16 -3,-30 26,-35 17,-2 22,7 32,59 7,34 25,81 40,105 15,24 31,63 36,88 8,45 23,69 34,57 4,-3 2,-29 -3,-58 -6,-30 -7,-66 -2,-87 12,-52 11,-179 -1,-203 -10,-17 -7,-19 25,-19 l 36,0 -2,68 c -1,37 3,92 9,122 7,30 12,73 11,95 -2,45 16,174 25,182 16,16 21,-20 24,-155 5,-239 5,-266 -3,-290 -7,-20 -4,-22 26,-22 l 34,0 1,82 c 1,109 15,247 24,253 4,3 11,-11 14,-31 4,-19 20,-56 37,-81 16,-26 29,-56 29,-67 0,-12 10,-37 23,-57 19,-31 25,-35 45,-28 25,10 29,24 8,32 -24,10 -45,61 -56,137 -6,39 -18,88 -29,108 -10,20 -21,66 -25,102 -4,36 -15,94 -25,130 -10,36 -24,98 -32,138 -11,67 -11,79 7,135 l 20,62 115,1 c 63,0 132,4 154,8 23,4 53,3 68,-3 18,-7 27,-7 27,0 0,6 6,6 19,-1 26,-13 31,-13 31,5 0,20 -37,38 -67,32 -13,-2 -56,2 -94,9 -39,7 -83,11 -100,7 -43,-8 -35,12 11,27 22,7 63,28 91,47 29,18 64,33 80,33 17,0 32,6 35,15 4,8 15,15 25,15 22,0 26,18 5,26 -15,6 -216,-58 -273,-87 -20,-10 -52,-19 -71,-19 -18,0 -46,-7 -61,-15 -26,-13 -30,-13 -50,9 -18,20 -20,30 -15,82 5,49 3,63 -10,77 -22,21 -55,22 -84,1 z"
       id="path7197"
       inkscape:connector-curvature="0" />
  </g>
</svg>
