<?xml version="1.0" encoding="UTF-8" standalone="no"?>
<svg
   xmlns:dc="http://purl.org/dc/elements/1.1/"
   xmlns:cc="http://creativecommons.org/ns#"
   xmlns:rdf="http://www.w3.org/1999/02/22-rdf-syntax-ns#"
   xmlns:svg="http://www.w3.org/2000/svg"
   xmlns="http://www.w3.org/2000/svg"
   xmlns:sodipodi="http://sodipodi.sourceforge.net/DTD/sodipodi-0.dtd"
   xmlns:inkscape="http://www.inkscape.org/namespaces/inkscape"
   version="1.0"
   width="158.92111"
   height="158.92"
   viewBox="0 0 127.13689 127.136"
   preserveAspectRatio="xMidYMid meet"
   id="svg8474"
   inkscape:version="0.48.2 r9819"
   sodipodi:docname="misc_hover.svg">
  <defs
     id="defs8484" />
  <sodipodi:namedview
     pagecolor="#ffffff"
     bordercolor="#666666"
     borderopacity="1"
     objecttolerance="10"
     gridtolerance="10"
     guidetolerance="10"
     inkscape:pageopacity="0"
     inkscape:pageshadow="2"
     inkscape:window-width="715"
     inkscape:window-height="484"
     id="namedview8482"
     showgrid="false"
     inkscape:zoom="1.475"
     inkscape:cx="79.514289"
     inkscape:cy="78.75"
     inkscape:window-x="681"
     inkscape:window-y="33"
     inkscape:window-maximized="0"
     inkscape:current-layer="svg8474"
     showguides="true"
     inkscape:guide-bbox="true"
     fit-margin-top="0"
     fit-margin-left="0"
     fit-margin-right="0"
     fit-margin-bottom="0" />
  <metadata
     id="metadata8476">
Created by potrace 1.10, written by Peter Selinger 2001-2011
<rdf:RDF>
  <cc:Work
     rdf:about="">
    <dc:format>image/svg+xml</dc:format>
    <dc:type
       rdf:resource="http://purl.org/dc/dcmitype/StillImage" />
    <dc:title></dc:title>
  </cc:Work>
</rdf:RDF>
</metadata>
  <g
     transform="matrix(0.1,0,0,-0.1,-0.38856901,128.136)"
     id="g8478"
     style="fill:#84449a;fill-opacity:1;stroke:none">
    <path
       d="M 685,1253 C 546,1160 500,1092 500,976 c 0,-136 92,-270 148,-214 19,19 14,51 -13,88 -24,32 -49,99 -41,108 2,2 86,-58 187,-132 l 183,-136 -78,0 c -43,0 -171,9 -284,21 C 218,750 125,723 45,547 18,488 -3,372 6,335 c 13,-54 94,-35 94,22 0,12 3,23 6,23 15,0 464,-243 464,-251 0,-4 -13,-15 -30,-24 -56,-29 -48,-95 10,-95 53,0 175,115 212,199 18,40 19,60 15,161 -6,128 -11,146 -39,161 -15,8 -26,6 -44,-6 -24,-16 -25,-19 -18,-82 4,-43 3,-64 -4,-62 -5,2 -88,58 -185,124 l -175,120 62,3 c 33,2 135,-5 226,-14 91,-10 221,-18 290,-19 118,0 128,2 183,29 46,22 69,42 108,95 62,84 107,201 91,236 -18,40 -73,32 -89,-12 -8,-21 -19,-15 -226,104 -204,118 -217,126 -197,140 30,21 27,71 -6,83 -14,6 -26,10 -27,10 -1,0 -20,-12 -42,-27 z m 246,-245 c 126,-73 229,-135 229,-138 0,-3 -9,-20 -20,-38 -13,-21 -25,-30 -33,-26 -28,17 -433,287 -441,295 -10,9 10,39 26,39 6,0 113,-59 239,-132 z m -62,-101 223,-149 -23,-24 c -12,-13 -30,-24 -38,-24 -16,0 -431,304 -431,315 0,19 23,45 33,38 7,-3 113,-74 236,-156 z M 475,457 C 667,325 685,310 683,285 c -1,-15 -4,-30 -7,-32 -3,-3 -120,66 -260,153 -247,153 -255,159 -238,177 22,25 53,37 72,26 8,-4 109,-73 225,-152 z M 396,363 C 623,222 647,205 637,188 c -7,-10 -15,-18 -20,-18 -6,0 -496,257 -505,265 -5,4 20,85 26,85 3,0 119,-71 258,-157 z"
       id="path8480"
       style="fill:#84449a;fill-opacity:1"
       inkscape:connector-curvature="0" />
  </g>
</svg>
